G04 #@! TF.GenerationSoftware,KiCad,Pcbnew,5.1.5*
G04 #@! TF.CreationDate,2019-12-26T05:57:11+09:00*
G04 #@! TF.ProjectId,half_qwerty,68616c66-5f71-4776-9572-74792e6b6963,rev?*
G04 #@! TF.SameCoordinates,Original*
G04 #@! TF.FileFunction,Copper,L2,Bot*
G04 #@! TF.FilePolarity,Positive*
%FSLAX46Y46*%
G04 Gerber Fmt 4.6, Leading zero omitted, Abs format (unit mm)*
G04 Created by KiCad (PCBNEW 5.1.5) date 2019-12-26 05:57:11*
%MOMM*%
%LPD*%
G04 APERTURE LIST*
%ADD10R,1.000000X1.700000*%
%ADD11C,0.700000*%
%ADD12O,0.900000X2.400000*%
%ADD13O,0.900000X1.700000*%
%ADD14R,1.200000X1.400000*%
%ADD15C,0.100000*%
%ADD16R,1.100000X1.100000*%
%ADD17C,4.400000*%
%ADD18R,2.550000X2.500000*%
%ADD19R,0.900000X1.200000*%
%ADD20R,1.200000X0.900000*%
%ADD21C,0.500000*%
%ADD22C,0.800000*%
%ADD23C,0.250000*%
%ADD24C,0.400000*%
%ADD25C,0.200000*%
%ADD26C,0.254000*%
G04 APERTURE END LIST*
D10*
X207650000Y-134962500D03*
X207650000Y-141262500D03*
X211450000Y-134962500D03*
X211450000Y-141262500D03*
D11*
X194627500Y-71882000D03*
X195477500Y-71882000D03*
X196327500Y-71882000D03*
X197177500Y-71882000D03*
X198027500Y-71882000D03*
X198877500Y-71882000D03*
X199727500Y-71882000D03*
X200577500Y-71882000D03*
X195477500Y-70532000D03*
X197177500Y-70532000D03*
X196327500Y-70532000D03*
X194627500Y-70532000D03*
X198877500Y-70532000D03*
X199727500Y-70532000D03*
X200577500Y-70532000D03*
X198027500Y-70532000D03*
D12*
X193277500Y-70902000D03*
X201927500Y-70902000D03*
D13*
X193277500Y-67522000D03*
X201927500Y-67522000D03*
D14*
X182664000Y-143213000D03*
X182664000Y-141013000D03*
X181064000Y-141013000D03*
X181064000Y-143213000D03*
G04 #@! TA.AperFunction,SMDPad,CuDef*
D15*
G36*
X203968779Y-72741144D02*
G01*
X203991834Y-72744563D01*
X204014443Y-72750227D01*
X204036387Y-72758079D01*
X204057457Y-72768044D01*
X204077448Y-72780026D01*
X204096168Y-72793910D01*
X204113438Y-72809562D01*
X204129090Y-72826832D01*
X204142974Y-72845552D01*
X204154956Y-72865543D01*
X204164921Y-72886613D01*
X204172773Y-72908557D01*
X204178437Y-72931166D01*
X204181856Y-72954221D01*
X204183000Y-72977500D01*
X204183000Y-73552500D01*
X204181856Y-73575779D01*
X204178437Y-73598834D01*
X204172773Y-73621443D01*
X204164921Y-73643387D01*
X204154956Y-73664457D01*
X204142974Y-73684448D01*
X204129090Y-73703168D01*
X204113438Y-73720438D01*
X204096168Y-73736090D01*
X204077448Y-73749974D01*
X204057457Y-73761956D01*
X204036387Y-73771921D01*
X204014443Y-73779773D01*
X203991834Y-73785437D01*
X203968779Y-73788856D01*
X203945500Y-73790000D01*
X203470500Y-73790000D01*
X203447221Y-73788856D01*
X203424166Y-73785437D01*
X203401557Y-73779773D01*
X203379613Y-73771921D01*
X203358543Y-73761956D01*
X203338552Y-73749974D01*
X203319832Y-73736090D01*
X203302562Y-73720438D01*
X203286910Y-73703168D01*
X203273026Y-73684448D01*
X203261044Y-73664457D01*
X203251079Y-73643387D01*
X203243227Y-73621443D01*
X203237563Y-73598834D01*
X203234144Y-73575779D01*
X203233000Y-73552500D01*
X203233000Y-72977500D01*
X203234144Y-72954221D01*
X203237563Y-72931166D01*
X203243227Y-72908557D01*
X203251079Y-72886613D01*
X203261044Y-72865543D01*
X203273026Y-72845552D01*
X203286910Y-72826832D01*
X203302562Y-72809562D01*
X203319832Y-72793910D01*
X203338552Y-72780026D01*
X203358543Y-72768044D01*
X203379613Y-72758079D01*
X203401557Y-72750227D01*
X203424166Y-72744563D01*
X203447221Y-72741144D01*
X203470500Y-72740000D01*
X203945500Y-72740000D01*
X203968779Y-72741144D01*
G37*
G04 #@! TD.AperFunction*
G04 #@! TA.AperFunction,SMDPad,CuDef*
G36*
X203968779Y-70991144D02*
G01*
X203991834Y-70994563D01*
X204014443Y-71000227D01*
X204036387Y-71008079D01*
X204057457Y-71018044D01*
X204077448Y-71030026D01*
X204096168Y-71043910D01*
X204113438Y-71059562D01*
X204129090Y-71076832D01*
X204142974Y-71095552D01*
X204154956Y-71115543D01*
X204164921Y-71136613D01*
X204172773Y-71158557D01*
X204178437Y-71181166D01*
X204181856Y-71204221D01*
X204183000Y-71227500D01*
X204183000Y-71802500D01*
X204181856Y-71825779D01*
X204178437Y-71848834D01*
X204172773Y-71871443D01*
X204164921Y-71893387D01*
X204154956Y-71914457D01*
X204142974Y-71934448D01*
X204129090Y-71953168D01*
X204113438Y-71970438D01*
X204096168Y-71986090D01*
X204077448Y-71999974D01*
X204057457Y-72011956D01*
X204036387Y-72021921D01*
X204014443Y-72029773D01*
X203991834Y-72035437D01*
X203968779Y-72038856D01*
X203945500Y-72040000D01*
X203470500Y-72040000D01*
X203447221Y-72038856D01*
X203424166Y-72035437D01*
X203401557Y-72029773D01*
X203379613Y-72021921D01*
X203358543Y-72011956D01*
X203338552Y-71999974D01*
X203319832Y-71986090D01*
X203302562Y-71970438D01*
X203286910Y-71953168D01*
X203273026Y-71934448D01*
X203261044Y-71914457D01*
X203251079Y-71893387D01*
X203243227Y-71871443D01*
X203237563Y-71848834D01*
X203234144Y-71825779D01*
X203233000Y-71802500D01*
X203233000Y-71227500D01*
X203234144Y-71204221D01*
X203237563Y-71181166D01*
X203243227Y-71158557D01*
X203251079Y-71136613D01*
X203261044Y-71115543D01*
X203273026Y-71095552D01*
X203286910Y-71076832D01*
X203302562Y-71059562D01*
X203319832Y-71043910D01*
X203338552Y-71030026D01*
X203358543Y-71018044D01*
X203379613Y-71008079D01*
X203401557Y-71000227D01*
X203424166Y-70994563D01*
X203447221Y-70991144D01*
X203470500Y-70990000D01*
X203945500Y-70990000D01*
X203968779Y-70991144D01*
G37*
G04 #@! TD.AperFunction*
G04 #@! TA.AperFunction,SMDPad,CuDef*
G36*
X194570779Y-78837144D02*
G01*
X194593834Y-78840563D01*
X194616443Y-78846227D01*
X194638387Y-78854079D01*
X194659457Y-78864044D01*
X194679448Y-78876026D01*
X194698168Y-78889910D01*
X194715438Y-78905562D01*
X194731090Y-78922832D01*
X194744974Y-78941552D01*
X194756956Y-78961543D01*
X194766921Y-78982613D01*
X194774773Y-79004557D01*
X194780437Y-79027166D01*
X194783856Y-79050221D01*
X194785000Y-79073500D01*
X194785000Y-79648500D01*
X194783856Y-79671779D01*
X194780437Y-79694834D01*
X194774773Y-79717443D01*
X194766921Y-79739387D01*
X194756956Y-79760457D01*
X194744974Y-79780448D01*
X194731090Y-79799168D01*
X194715438Y-79816438D01*
X194698168Y-79832090D01*
X194679448Y-79845974D01*
X194659457Y-79857956D01*
X194638387Y-79867921D01*
X194616443Y-79875773D01*
X194593834Y-79881437D01*
X194570779Y-79884856D01*
X194547500Y-79886000D01*
X194072500Y-79886000D01*
X194049221Y-79884856D01*
X194026166Y-79881437D01*
X194003557Y-79875773D01*
X193981613Y-79867921D01*
X193960543Y-79857956D01*
X193940552Y-79845974D01*
X193921832Y-79832090D01*
X193904562Y-79816438D01*
X193888910Y-79799168D01*
X193875026Y-79780448D01*
X193863044Y-79760457D01*
X193853079Y-79739387D01*
X193845227Y-79717443D01*
X193839563Y-79694834D01*
X193836144Y-79671779D01*
X193835000Y-79648500D01*
X193835000Y-79073500D01*
X193836144Y-79050221D01*
X193839563Y-79027166D01*
X193845227Y-79004557D01*
X193853079Y-78982613D01*
X193863044Y-78961543D01*
X193875026Y-78941552D01*
X193888910Y-78922832D01*
X193904562Y-78905562D01*
X193921832Y-78889910D01*
X193940552Y-78876026D01*
X193960543Y-78864044D01*
X193981613Y-78854079D01*
X194003557Y-78846227D01*
X194026166Y-78840563D01*
X194049221Y-78837144D01*
X194072500Y-78836000D01*
X194547500Y-78836000D01*
X194570779Y-78837144D01*
G37*
G04 #@! TD.AperFunction*
G04 #@! TA.AperFunction,SMDPad,CuDef*
G36*
X194570779Y-77087144D02*
G01*
X194593834Y-77090563D01*
X194616443Y-77096227D01*
X194638387Y-77104079D01*
X194659457Y-77114044D01*
X194679448Y-77126026D01*
X194698168Y-77139910D01*
X194715438Y-77155562D01*
X194731090Y-77172832D01*
X194744974Y-77191552D01*
X194756956Y-77211543D01*
X194766921Y-77232613D01*
X194774773Y-77254557D01*
X194780437Y-77277166D01*
X194783856Y-77300221D01*
X194785000Y-77323500D01*
X194785000Y-77898500D01*
X194783856Y-77921779D01*
X194780437Y-77944834D01*
X194774773Y-77967443D01*
X194766921Y-77989387D01*
X194756956Y-78010457D01*
X194744974Y-78030448D01*
X194731090Y-78049168D01*
X194715438Y-78066438D01*
X194698168Y-78082090D01*
X194679448Y-78095974D01*
X194659457Y-78107956D01*
X194638387Y-78117921D01*
X194616443Y-78125773D01*
X194593834Y-78131437D01*
X194570779Y-78134856D01*
X194547500Y-78136000D01*
X194072500Y-78136000D01*
X194049221Y-78134856D01*
X194026166Y-78131437D01*
X194003557Y-78125773D01*
X193981613Y-78117921D01*
X193960543Y-78107956D01*
X193940552Y-78095974D01*
X193921832Y-78082090D01*
X193904562Y-78066438D01*
X193888910Y-78049168D01*
X193875026Y-78030448D01*
X193863044Y-78010457D01*
X193853079Y-77989387D01*
X193845227Y-77967443D01*
X193839563Y-77944834D01*
X193836144Y-77921779D01*
X193835000Y-77898500D01*
X193835000Y-77323500D01*
X193836144Y-77300221D01*
X193839563Y-77277166D01*
X193845227Y-77254557D01*
X193853079Y-77232613D01*
X193863044Y-77211543D01*
X193875026Y-77191552D01*
X193888910Y-77172832D01*
X193904562Y-77155562D01*
X193921832Y-77139910D01*
X193940552Y-77126026D01*
X193960543Y-77114044D01*
X193981613Y-77104079D01*
X194003557Y-77096227D01*
X194026166Y-77090563D01*
X194049221Y-77087144D01*
X194072500Y-77086000D01*
X194547500Y-77086000D01*
X194570779Y-77087144D01*
G37*
G04 #@! TD.AperFunction*
G04 #@! TA.AperFunction,SMDPad,CuDef*
G36*
X169262642Y-140473131D02*
G01*
X169285697Y-140476550D01*
X169308306Y-140482214D01*
X169330250Y-140490066D01*
X169351320Y-140500031D01*
X169371311Y-140512013D01*
X169390031Y-140525897D01*
X169407301Y-140541549D01*
X169813887Y-140948135D01*
X169829539Y-140965405D01*
X169843423Y-140984125D01*
X169855405Y-141004116D01*
X169865370Y-141025186D01*
X169873222Y-141047130D01*
X169878886Y-141069739D01*
X169882305Y-141092794D01*
X169883449Y-141116073D01*
X169882305Y-141139352D01*
X169878886Y-141162407D01*
X169873222Y-141185016D01*
X169865370Y-141206960D01*
X169855405Y-141228030D01*
X169843423Y-141248021D01*
X169829539Y-141266741D01*
X169813887Y-141284011D01*
X169478011Y-141619887D01*
X169460741Y-141635539D01*
X169442021Y-141649423D01*
X169422030Y-141661405D01*
X169400960Y-141671370D01*
X169379016Y-141679222D01*
X169356407Y-141684886D01*
X169333352Y-141688305D01*
X169310073Y-141689449D01*
X169286794Y-141688305D01*
X169263739Y-141684886D01*
X169241130Y-141679222D01*
X169219186Y-141671370D01*
X169198116Y-141661405D01*
X169178125Y-141649423D01*
X169159405Y-141635539D01*
X169142135Y-141619887D01*
X168735549Y-141213301D01*
X168719897Y-141196031D01*
X168706013Y-141177311D01*
X168694031Y-141157320D01*
X168684066Y-141136250D01*
X168676214Y-141114306D01*
X168670550Y-141091697D01*
X168667131Y-141068642D01*
X168665987Y-141045363D01*
X168667131Y-141022084D01*
X168670550Y-140999029D01*
X168676214Y-140976420D01*
X168684066Y-140954476D01*
X168694031Y-140933406D01*
X168706013Y-140913415D01*
X168719897Y-140894695D01*
X168735549Y-140877425D01*
X169071425Y-140541549D01*
X169088695Y-140525897D01*
X169107415Y-140512013D01*
X169127406Y-140500031D01*
X169148476Y-140490066D01*
X169170420Y-140482214D01*
X169193029Y-140476550D01*
X169216084Y-140473131D01*
X169239363Y-140471987D01*
X169262642Y-140473131D01*
G37*
G04 #@! TD.AperFunction*
G04 #@! TA.AperFunction,SMDPad,CuDef*
G36*
X168025206Y-139235695D02*
G01*
X168048261Y-139239114D01*
X168070870Y-139244778D01*
X168092814Y-139252630D01*
X168113884Y-139262595D01*
X168133875Y-139274577D01*
X168152595Y-139288461D01*
X168169865Y-139304113D01*
X168576451Y-139710699D01*
X168592103Y-139727969D01*
X168605987Y-139746689D01*
X168617969Y-139766680D01*
X168627934Y-139787750D01*
X168635786Y-139809694D01*
X168641450Y-139832303D01*
X168644869Y-139855358D01*
X168646013Y-139878637D01*
X168644869Y-139901916D01*
X168641450Y-139924971D01*
X168635786Y-139947580D01*
X168627934Y-139969524D01*
X168617969Y-139990594D01*
X168605987Y-140010585D01*
X168592103Y-140029305D01*
X168576451Y-140046575D01*
X168240575Y-140382451D01*
X168223305Y-140398103D01*
X168204585Y-140411987D01*
X168184594Y-140423969D01*
X168163524Y-140433934D01*
X168141580Y-140441786D01*
X168118971Y-140447450D01*
X168095916Y-140450869D01*
X168072637Y-140452013D01*
X168049358Y-140450869D01*
X168026303Y-140447450D01*
X168003694Y-140441786D01*
X167981750Y-140433934D01*
X167960680Y-140423969D01*
X167940689Y-140411987D01*
X167921969Y-140398103D01*
X167904699Y-140382451D01*
X167498113Y-139975865D01*
X167482461Y-139958595D01*
X167468577Y-139939875D01*
X167456595Y-139919884D01*
X167446630Y-139898814D01*
X167438778Y-139876870D01*
X167433114Y-139854261D01*
X167429695Y-139831206D01*
X167428551Y-139807927D01*
X167429695Y-139784648D01*
X167433114Y-139761593D01*
X167438778Y-139738984D01*
X167446630Y-139717040D01*
X167456595Y-139695970D01*
X167468577Y-139675979D01*
X167482461Y-139657259D01*
X167498113Y-139639989D01*
X167833989Y-139304113D01*
X167851259Y-139288461D01*
X167869979Y-139274577D01*
X167889970Y-139262595D01*
X167911040Y-139252630D01*
X167932984Y-139244778D01*
X167955593Y-139239114D01*
X167978648Y-139235695D01*
X168001927Y-139234551D01*
X168025206Y-139235695D01*
G37*
G04 #@! TD.AperFunction*
G04 #@! TA.AperFunction,SMDPad,CuDef*
G36*
X196003779Y-74456144D02*
G01*
X196026834Y-74459563D01*
X196049443Y-74465227D01*
X196071387Y-74473079D01*
X196092457Y-74483044D01*
X196112448Y-74495026D01*
X196131168Y-74508910D01*
X196148438Y-74524562D01*
X196164090Y-74541832D01*
X196177974Y-74560552D01*
X196189956Y-74580543D01*
X196199921Y-74601613D01*
X196207773Y-74623557D01*
X196213437Y-74646166D01*
X196216856Y-74669221D01*
X196218000Y-74692500D01*
X196218000Y-75167500D01*
X196216856Y-75190779D01*
X196213437Y-75213834D01*
X196207773Y-75236443D01*
X196199921Y-75258387D01*
X196189956Y-75279457D01*
X196177974Y-75299448D01*
X196164090Y-75318168D01*
X196148438Y-75335438D01*
X196131168Y-75351090D01*
X196112448Y-75364974D01*
X196092457Y-75376956D01*
X196071387Y-75386921D01*
X196049443Y-75394773D01*
X196026834Y-75400437D01*
X196003779Y-75403856D01*
X195980500Y-75405000D01*
X195405500Y-75405000D01*
X195382221Y-75403856D01*
X195359166Y-75400437D01*
X195336557Y-75394773D01*
X195314613Y-75386921D01*
X195293543Y-75376956D01*
X195273552Y-75364974D01*
X195254832Y-75351090D01*
X195237562Y-75335438D01*
X195221910Y-75318168D01*
X195208026Y-75299448D01*
X195196044Y-75279457D01*
X195186079Y-75258387D01*
X195178227Y-75236443D01*
X195172563Y-75213834D01*
X195169144Y-75190779D01*
X195168000Y-75167500D01*
X195168000Y-74692500D01*
X195169144Y-74669221D01*
X195172563Y-74646166D01*
X195178227Y-74623557D01*
X195186079Y-74601613D01*
X195196044Y-74580543D01*
X195208026Y-74560552D01*
X195221910Y-74541832D01*
X195237562Y-74524562D01*
X195254832Y-74508910D01*
X195273552Y-74495026D01*
X195293543Y-74483044D01*
X195314613Y-74473079D01*
X195336557Y-74465227D01*
X195359166Y-74459563D01*
X195382221Y-74456144D01*
X195405500Y-74455000D01*
X195980500Y-74455000D01*
X196003779Y-74456144D01*
G37*
G04 #@! TD.AperFunction*
G04 #@! TA.AperFunction,SMDPad,CuDef*
G36*
X194253779Y-74456144D02*
G01*
X194276834Y-74459563D01*
X194299443Y-74465227D01*
X194321387Y-74473079D01*
X194342457Y-74483044D01*
X194362448Y-74495026D01*
X194381168Y-74508910D01*
X194398438Y-74524562D01*
X194414090Y-74541832D01*
X194427974Y-74560552D01*
X194439956Y-74580543D01*
X194449921Y-74601613D01*
X194457773Y-74623557D01*
X194463437Y-74646166D01*
X194466856Y-74669221D01*
X194468000Y-74692500D01*
X194468000Y-75167500D01*
X194466856Y-75190779D01*
X194463437Y-75213834D01*
X194457773Y-75236443D01*
X194449921Y-75258387D01*
X194439956Y-75279457D01*
X194427974Y-75299448D01*
X194414090Y-75318168D01*
X194398438Y-75335438D01*
X194381168Y-75351090D01*
X194362448Y-75364974D01*
X194342457Y-75376956D01*
X194321387Y-75386921D01*
X194299443Y-75394773D01*
X194276834Y-75400437D01*
X194253779Y-75403856D01*
X194230500Y-75405000D01*
X193655500Y-75405000D01*
X193632221Y-75403856D01*
X193609166Y-75400437D01*
X193586557Y-75394773D01*
X193564613Y-75386921D01*
X193543543Y-75376956D01*
X193523552Y-75364974D01*
X193504832Y-75351090D01*
X193487562Y-75335438D01*
X193471910Y-75318168D01*
X193458026Y-75299448D01*
X193446044Y-75279457D01*
X193436079Y-75258387D01*
X193428227Y-75236443D01*
X193422563Y-75213834D01*
X193419144Y-75190779D01*
X193418000Y-75167500D01*
X193418000Y-74692500D01*
X193419144Y-74669221D01*
X193422563Y-74646166D01*
X193428227Y-74623557D01*
X193436079Y-74601613D01*
X193446044Y-74580543D01*
X193458026Y-74560552D01*
X193471910Y-74541832D01*
X193487562Y-74524562D01*
X193504832Y-74508910D01*
X193523552Y-74495026D01*
X193543543Y-74483044D01*
X193564613Y-74473079D01*
X193586557Y-74465227D01*
X193609166Y-74459563D01*
X193632221Y-74456144D01*
X193655500Y-74455000D01*
X194230500Y-74455000D01*
X194253779Y-74456144D01*
G37*
G04 #@! TD.AperFunction*
G04 #@! TA.AperFunction,SMDPad,CuDef*
G36*
X198634779Y-77087144D02*
G01*
X198657834Y-77090563D01*
X198680443Y-77096227D01*
X198702387Y-77104079D01*
X198723457Y-77114044D01*
X198743448Y-77126026D01*
X198762168Y-77139910D01*
X198779438Y-77155562D01*
X198795090Y-77172832D01*
X198808974Y-77191552D01*
X198820956Y-77211543D01*
X198830921Y-77232613D01*
X198838773Y-77254557D01*
X198844437Y-77277166D01*
X198847856Y-77300221D01*
X198849000Y-77323500D01*
X198849000Y-77898500D01*
X198847856Y-77921779D01*
X198844437Y-77944834D01*
X198838773Y-77967443D01*
X198830921Y-77989387D01*
X198820956Y-78010457D01*
X198808974Y-78030448D01*
X198795090Y-78049168D01*
X198779438Y-78066438D01*
X198762168Y-78082090D01*
X198743448Y-78095974D01*
X198723457Y-78107956D01*
X198702387Y-78117921D01*
X198680443Y-78125773D01*
X198657834Y-78131437D01*
X198634779Y-78134856D01*
X198611500Y-78136000D01*
X198136500Y-78136000D01*
X198113221Y-78134856D01*
X198090166Y-78131437D01*
X198067557Y-78125773D01*
X198045613Y-78117921D01*
X198024543Y-78107956D01*
X198004552Y-78095974D01*
X197985832Y-78082090D01*
X197968562Y-78066438D01*
X197952910Y-78049168D01*
X197939026Y-78030448D01*
X197927044Y-78010457D01*
X197917079Y-77989387D01*
X197909227Y-77967443D01*
X197903563Y-77944834D01*
X197900144Y-77921779D01*
X197899000Y-77898500D01*
X197899000Y-77323500D01*
X197900144Y-77300221D01*
X197903563Y-77277166D01*
X197909227Y-77254557D01*
X197917079Y-77232613D01*
X197927044Y-77211543D01*
X197939026Y-77191552D01*
X197952910Y-77172832D01*
X197968562Y-77155562D01*
X197985832Y-77139910D01*
X198004552Y-77126026D01*
X198024543Y-77114044D01*
X198045613Y-77104079D01*
X198067557Y-77096227D01*
X198090166Y-77090563D01*
X198113221Y-77087144D01*
X198136500Y-77086000D01*
X198611500Y-77086000D01*
X198634779Y-77087144D01*
G37*
G04 #@! TD.AperFunction*
G04 #@! TA.AperFunction,SMDPad,CuDef*
G36*
X198634779Y-78837144D02*
G01*
X198657834Y-78840563D01*
X198680443Y-78846227D01*
X198702387Y-78854079D01*
X198723457Y-78864044D01*
X198743448Y-78876026D01*
X198762168Y-78889910D01*
X198779438Y-78905562D01*
X198795090Y-78922832D01*
X198808974Y-78941552D01*
X198820956Y-78961543D01*
X198830921Y-78982613D01*
X198838773Y-79004557D01*
X198844437Y-79027166D01*
X198847856Y-79050221D01*
X198849000Y-79073500D01*
X198849000Y-79648500D01*
X198847856Y-79671779D01*
X198844437Y-79694834D01*
X198838773Y-79717443D01*
X198830921Y-79739387D01*
X198820956Y-79760457D01*
X198808974Y-79780448D01*
X198795090Y-79799168D01*
X198779438Y-79816438D01*
X198762168Y-79832090D01*
X198743448Y-79845974D01*
X198723457Y-79857956D01*
X198702387Y-79867921D01*
X198680443Y-79875773D01*
X198657834Y-79881437D01*
X198634779Y-79884856D01*
X198611500Y-79886000D01*
X198136500Y-79886000D01*
X198113221Y-79884856D01*
X198090166Y-79881437D01*
X198067557Y-79875773D01*
X198045613Y-79867921D01*
X198024543Y-79857956D01*
X198004552Y-79845974D01*
X197985832Y-79832090D01*
X197968562Y-79816438D01*
X197952910Y-79799168D01*
X197939026Y-79780448D01*
X197927044Y-79760457D01*
X197917079Y-79739387D01*
X197909227Y-79717443D01*
X197903563Y-79694834D01*
X197900144Y-79671779D01*
X197899000Y-79648500D01*
X197899000Y-79073500D01*
X197900144Y-79050221D01*
X197903563Y-79027166D01*
X197909227Y-79004557D01*
X197917079Y-78982613D01*
X197927044Y-78961543D01*
X197939026Y-78941552D01*
X197952910Y-78922832D01*
X197968562Y-78905562D01*
X197985832Y-78889910D01*
X198004552Y-78876026D01*
X198024543Y-78864044D01*
X198045613Y-78854079D01*
X198067557Y-78846227D01*
X198090166Y-78840563D01*
X198113221Y-78837144D01*
X198136500Y-78836000D01*
X198611500Y-78836000D01*
X198634779Y-78837144D01*
G37*
G04 #@! TD.AperFunction*
G04 #@! TA.AperFunction,SMDPad,CuDef*
G36*
X187367352Y-135933695D02*
G01*
X187390407Y-135937114D01*
X187413016Y-135942778D01*
X187434960Y-135950630D01*
X187456030Y-135960595D01*
X187476021Y-135972577D01*
X187494741Y-135986461D01*
X187512011Y-136002113D01*
X187847887Y-136337989D01*
X187863539Y-136355259D01*
X187877423Y-136373979D01*
X187889405Y-136393970D01*
X187899370Y-136415040D01*
X187907222Y-136436984D01*
X187912886Y-136459593D01*
X187916305Y-136482648D01*
X187917449Y-136505927D01*
X187916305Y-136529206D01*
X187912886Y-136552261D01*
X187907222Y-136574870D01*
X187899370Y-136596814D01*
X187889405Y-136617884D01*
X187877423Y-136637875D01*
X187863539Y-136656595D01*
X187847887Y-136673865D01*
X187441301Y-137080451D01*
X187424031Y-137096103D01*
X187405311Y-137109987D01*
X187385320Y-137121969D01*
X187364250Y-137131934D01*
X187342306Y-137139786D01*
X187319697Y-137145450D01*
X187296642Y-137148869D01*
X187273363Y-137150013D01*
X187250084Y-137148869D01*
X187227029Y-137145450D01*
X187204420Y-137139786D01*
X187182476Y-137131934D01*
X187161406Y-137121969D01*
X187141415Y-137109987D01*
X187122695Y-137096103D01*
X187105425Y-137080451D01*
X186769549Y-136744575D01*
X186753897Y-136727305D01*
X186740013Y-136708585D01*
X186728031Y-136688594D01*
X186718066Y-136667524D01*
X186710214Y-136645580D01*
X186704550Y-136622971D01*
X186701131Y-136599916D01*
X186699987Y-136576637D01*
X186701131Y-136553358D01*
X186704550Y-136530303D01*
X186710214Y-136507694D01*
X186718066Y-136485750D01*
X186728031Y-136464680D01*
X186740013Y-136444689D01*
X186753897Y-136425969D01*
X186769549Y-136408699D01*
X187176135Y-136002113D01*
X187193405Y-135986461D01*
X187212125Y-135972577D01*
X187232116Y-135960595D01*
X187253186Y-135950630D01*
X187275130Y-135942778D01*
X187297739Y-135937114D01*
X187320794Y-135933695D01*
X187344073Y-135932551D01*
X187367352Y-135933695D01*
G37*
G04 #@! TD.AperFunction*
G04 #@! TA.AperFunction,SMDPad,CuDef*
G36*
X186129916Y-137171131D02*
G01*
X186152971Y-137174550D01*
X186175580Y-137180214D01*
X186197524Y-137188066D01*
X186218594Y-137198031D01*
X186238585Y-137210013D01*
X186257305Y-137223897D01*
X186274575Y-137239549D01*
X186610451Y-137575425D01*
X186626103Y-137592695D01*
X186639987Y-137611415D01*
X186651969Y-137631406D01*
X186661934Y-137652476D01*
X186669786Y-137674420D01*
X186675450Y-137697029D01*
X186678869Y-137720084D01*
X186680013Y-137743363D01*
X186678869Y-137766642D01*
X186675450Y-137789697D01*
X186669786Y-137812306D01*
X186661934Y-137834250D01*
X186651969Y-137855320D01*
X186639987Y-137875311D01*
X186626103Y-137894031D01*
X186610451Y-137911301D01*
X186203865Y-138317887D01*
X186186595Y-138333539D01*
X186167875Y-138347423D01*
X186147884Y-138359405D01*
X186126814Y-138369370D01*
X186104870Y-138377222D01*
X186082261Y-138382886D01*
X186059206Y-138386305D01*
X186035927Y-138387449D01*
X186012648Y-138386305D01*
X185989593Y-138382886D01*
X185966984Y-138377222D01*
X185945040Y-138369370D01*
X185923970Y-138359405D01*
X185903979Y-138347423D01*
X185885259Y-138333539D01*
X185867989Y-138317887D01*
X185532113Y-137982011D01*
X185516461Y-137964741D01*
X185502577Y-137946021D01*
X185490595Y-137926030D01*
X185480630Y-137904960D01*
X185472778Y-137883016D01*
X185467114Y-137860407D01*
X185463695Y-137837352D01*
X185462551Y-137814073D01*
X185463695Y-137790794D01*
X185467114Y-137767739D01*
X185472778Y-137745130D01*
X185480630Y-137723186D01*
X185490595Y-137702116D01*
X185502577Y-137682125D01*
X185516461Y-137663405D01*
X185532113Y-137646135D01*
X185938699Y-137239549D01*
X185955969Y-137223897D01*
X185974689Y-137210013D01*
X185994680Y-137198031D01*
X186015750Y-137188066D01*
X186037694Y-137180214D01*
X186060303Y-137174550D01*
X186083358Y-137171131D01*
X186106637Y-137169987D01*
X186129916Y-137171131D01*
G37*
G04 #@! TD.AperFunction*
G04 #@! TA.AperFunction,SMDPad,CuDef*
G36*
X197110779Y-77087144D02*
G01*
X197133834Y-77090563D01*
X197156443Y-77096227D01*
X197178387Y-77104079D01*
X197199457Y-77114044D01*
X197219448Y-77126026D01*
X197238168Y-77139910D01*
X197255438Y-77155562D01*
X197271090Y-77172832D01*
X197284974Y-77191552D01*
X197296956Y-77211543D01*
X197306921Y-77232613D01*
X197314773Y-77254557D01*
X197320437Y-77277166D01*
X197323856Y-77300221D01*
X197325000Y-77323500D01*
X197325000Y-77898500D01*
X197323856Y-77921779D01*
X197320437Y-77944834D01*
X197314773Y-77967443D01*
X197306921Y-77989387D01*
X197296956Y-78010457D01*
X197284974Y-78030448D01*
X197271090Y-78049168D01*
X197255438Y-78066438D01*
X197238168Y-78082090D01*
X197219448Y-78095974D01*
X197199457Y-78107956D01*
X197178387Y-78117921D01*
X197156443Y-78125773D01*
X197133834Y-78131437D01*
X197110779Y-78134856D01*
X197087500Y-78136000D01*
X196612500Y-78136000D01*
X196589221Y-78134856D01*
X196566166Y-78131437D01*
X196543557Y-78125773D01*
X196521613Y-78117921D01*
X196500543Y-78107956D01*
X196480552Y-78095974D01*
X196461832Y-78082090D01*
X196444562Y-78066438D01*
X196428910Y-78049168D01*
X196415026Y-78030448D01*
X196403044Y-78010457D01*
X196393079Y-77989387D01*
X196385227Y-77967443D01*
X196379563Y-77944834D01*
X196376144Y-77921779D01*
X196375000Y-77898500D01*
X196375000Y-77323500D01*
X196376144Y-77300221D01*
X196379563Y-77277166D01*
X196385227Y-77254557D01*
X196393079Y-77232613D01*
X196403044Y-77211543D01*
X196415026Y-77191552D01*
X196428910Y-77172832D01*
X196444562Y-77155562D01*
X196461832Y-77139910D01*
X196480552Y-77126026D01*
X196500543Y-77114044D01*
X196521613Y-77104079D01*
X196543557Y-77096227D01*
X196566166Y-77090563D01*
X196589221Y-77087144D01*
X196612500Y-77086000D01*
X197087500Y-77086000D01*
X197110779Y-77087144D01*
G37*
G04 #@! TD.AperFunction*
G04 #@! TA.AperFunction,SMDPad,CuDef*
G36*
X197110779Y-78837144D02*
G01*
X197133834Y-78840563D01*
X197156443Y-78846227D01*
X197178387Y-78854079D01*
X197199457Y-78864044D01*
X197219448Y-78876026D01*
X197238168Y-78889910D01*
X197255438Y-78905562D01*
X197271090Y-78922832D01*
X197284974Y-78941552D01*
X197296956Y-78961543D01*
X197306921Y-78982613D01*
X197314773Y-79004557D01*
X197320437Y-79027166D01*
X197323856Y-79050221D01*
X197325000Y-79073500D01*
X197325000Y-79648500D01*
X197323856Y-79671779D01*
X197320437Y-79694834D01*
X197314773Y-79717443D01*
X197306921Y-79739387D01*
X197296956Y-79760457D01*
X197284974Y-79780448D01*
X197271090Y-79799168D01*
X197255438Y-79816438D01*
X197238168Y-79832090D01*
X197219448Y-79845974D01*
X197199457Y-79857956D01*
X197178387Y-79867921D01*
X197156443Y-79875773D01*
X197133834Y-79881437D01*
X197110779Y-79884856D01*
X197087500Y-79886000D01*
X196612500Y-79886000D01*
X196589221Y-79884856D01*
X196566166Y-79881437D01*
X196543557Y-79875773D01*
X196521613Y-79867921D01*
X196500543Y-79857956D01*
X196480552Y-79845974D01*
X196461832Y-79832090D01*
X196444562Y-79816438D01*
X196428910Y-79799168D01*
X196415026Y-79780448D01*
X196403044Y-79760457D01*
X196393079Y-79739387D01*
X196385227Y-79717443D01*
X196379563Y-79694834D01*
X196376144Y-79671779D01*
X196375000Y-79648500D01*
X196375000Y-79073500D01*
X196376144Y-79050221D01*
X196379563Y-79027166D01*
X196385227Y-79004557D01*
X196393079Y-78982613D01*
X196403044Y-78961543D01*
X196415026Y-78941552D01*
X196428910Y-78922832D01*
X196444562Y-78905562D01*
X196461832Y-78889910D01*
X196480552Y-78876026D01*
X196500543Y-78864044D01*
X196521613Y-78854079D01*
X196543557Y-78846227D01*
X196566166Y-78840563D01*
X196589221Y-78837144D01*
X196612500Y-78836000D01*
X197087500Y-78836000D01*
X197110779Y-78837144D01*
G37*
G04 #@! TD.AperFunction*
G04 #@! TA.AperFunction,SMDPad,CuDef*
G36*
X203595504Y-83145204D02*
G01*
X203619773Y-83148804D01*
X203643571Y-83154765D01*
X203666671Y-83163030D01*
X203688849Y-83173520D01*
X203709893Y-83186133D01*
X203729598Y-83200747D01*
X203747777Y-83217223D01*
X203764253Y-83235402D01*
X203778867Y-83255107D01*
X203791480Y-83276151D01*
X203801970Y-83298329D01*
X203810235Y-83321429D01*
X203816196Y-83345227D01*
X203819796Y-83369496D01*
X203821000Y-83394000D01*
X203821000Y-84319000D01*
X203819796Y-84343504D01*
X203816196Y-84367773D01*
X203810235Y-84391571D01*
X203801970Y-84414671D01*
X203791480Y-84436849D01*
X203778867Y-84457893D01*
X203764253Y-84477598D01*
X203747777Y-84495777D01*
X203729598Y-84512253D01*
X203709893Y-84526867D01*
X203688849Y-84539480D01*
X203666671Y-84549970D01*
X203643571Y-84558235D01*
X203619773Y-84564196D01*
X203595504Y-84567796D01*
X203571000Y-84569000D01*
X202321000Y-84569000D01*
X202296496Y-84567796D01*
X202272227Y-84564196D01*
X202248429Y-84558235D01*
X202225329Y-84549970D01*
X202203151Y-84539480D01*
X202182107Y-84526867D01*
X202162402Y-84512253D01*
X202144223Y-84495777D01*
X202127747Y-84477598D01*
X202113133Y-84457893D01*
X202100520Y-84436849D01*
X202090030Y-84414671D01*
X202081765Y-84391571D01*
X202075804Y-84367773D01*
X202072204Y-84343504D01*
X202071000Y-84319000D01*
X202071000Y-83394000D01*
X202072204Y-83369496D01*
X202075804Y-83345227D01*
X202081765Y-83321429D01*
X202090030Y-83298329D01*
X202100520Y-83276151D01*
X202113133Y-83255107D01*
X202127747Y-83235402D01*
X202144223Y-83217223D01*
X202162402Y-83200747D01*
X202182107Y-83186133D01*
X202203151Y-83173520D01*
X202225329Y-83163030D01*
X202248429Y-83154765D01*
X202272227Y-83148804D01*
X202296496Y-83145204D01*
X202321000Y-83144000D01*
X203571000Y-83144000D01*
X203595504Y-83145204D01*
G37*
G04 #@! TD.AperFunction*
G04 #@! TA.AperFunction,SMDPad,CuDef*
G36*
X203595504Y-86120204D02*
G01*
X203619773Y-86123804D01*
X203643571Y-86129765D01*
X203666671Y-86138030D01*
X203688849Y-86148520D01*
X203709893Y-86161133D01*
X203729598Y-86175747D01*
X203747777Y-86192223D01*
X203764253Y-86210402D01*
X203778867Y-86230107D01*
X203791480Y-86251151D01*
X203801970Y-86273329D01*
X203810235Y-86296429D01*
X203816196Y-86320227D01*
X203819796Y-86344496D01*
X203821000Y-86369000D01*
X203821000Y-87294000D01*
X203819796Y-87318504D01*
X203816196Y-87342773D01*
X203810235Y-87366571D01*
X203801970Y-87389671D01*
X203791480Y-87411849D01*
X203778867Y-87432893D01*
X203764253Y-87452598D01*
X203747777Y-87470777D01*
X203729598Y-87487253D01*
X203709893Y-87501867D01*
X203688849Y-87514480D01*
X203666671Y-87524970D01*
X203643571Y-87533235D01*
X203619773Y-87539196D01*
X203595504Y-87542796D01*
X203571000Y-87544000D01*
X202321000Y-87544000D01*
X202296496Y-87542796D01*
X202272227Y-87539196D01*
X202248429Y-87533235D01*
X202225329Y-87524970D01*
X202203151Y-87514480D01*
X202182107Y-87501867D01*
X202162402Y-87487253D01*
X202144223Y-87470777D01*
X202127747Y-87452598D01*
X202113133Y-87432893D01*
X202100520Y-87411849D01*
X202090030Y-87389671D01*
X202081765Y-87366571D01*
X202075804Y-87342773D01*
X202072204Y-87318504D01*
X202071000Y-87294000D01*
X202071000Y-86369000D01*
X202072204Y-86344496D01*
X202075804Y-86320227D01*
X202081765Y-86296429D01*
X202090030Y-86273329D01*
X202100520Y-86251151D01*
X202113133Y-86230107D01*
X202127747Y-86210402D01*
X202144223Y-86192223D01*
X202162402Y-86175747D01*
X202182107Y-86161133D01*
X202203151Y-86148520D01*
X202225329Y-86138030D01*
X202248429Y-86129765D01*
X202272227Y-86123804D01*
X202296496Y-86120204D01*
X202321000Y-86119000D01*
X203571000Y-86119000D01*
X203595504Y-86120204D01*
G37*
G04 #@! TD.AperFunction*
D16*
X204724000Y-89532000D03*
X204724000Y-92332000D03*
G04 #@! TA.AperFunction,SMDPad,CuDef*
D15*
G36*
X185363779Y-133130144D02*
G01*
X185386834Y-133133563D01*
X185409443Y-133139227D01*
X185431387Y-133147079D01*
X185452457Y-133157044D01*
X185472448Y-133169026D01*
X185491168Y-133182910D01*
X185508438Y-133198562D01*
X185524090Y-133215832D01*
X185537974Y-133234552D01*
X185549956Y-133254543D01*
X185559921Y-133275613D01*
X185567773Y-133297557D01*
X185573437Y-133320166D01*
X185576856Y-133343221D01*
X185578000Y-133366500D01*
X185578000Y-133841500D01*
X185576856Y-133864779D01*
X185573437Y-133887834D01*
X185567773Y-133910443D01*
X185559921Y-133932387D01*
X185549956Y-133953457D01*
X185537974Y-133973448D01*
X185524090Y-133992168D01*
X185508438Y-134009438D01*
X185491168Y-134025090D01*
X185472448Y-134038974D01*
X185452457Y-134050956D01*
X185431387Y-134060921D01*
X185409443Y-134068773D01*
X185386834Y-134074437D01*
X185363779Y-134077856D01*
X185340500Y-134079000D01*
X184765500Y-134079000D01*
X184742221Y-134077856D01*
X184719166Y-134074437D01*
X184696557Y-134068773D01*
X184674613Y-134060921D01*
X184653543Y-134050956D01*
X184633552Y-134038974D01*
X184614832Y-134025090D01*
X184597562Y-134009438D01*
X184581910Y-133992168D01*
X184568026Y-133973448D01*
X184556044Y-133953457D01*
X184546079Y-133932387D01*
X184538227Y-133910443D01*
X184532563Y-133887834D01*
X184529144Y-133864779D01*
X184528000Y-133841500D01*
X184528000Y-133366500D01*
X184529144Y-133343221D01*
X184532563Y-133320166D01*
X184538227Y-133297557D01*
X184546079Y-133275613D01*
X184556044Y-133254543D01*
X184568026Y-133234552D01*
X184581910Y-133215832D01*
X184597562Y-133198562D01*
X184614832Y-133182910D01*
X184633552Y-133169026D01*
X184653543Y-133157044D01*
X184674613Y-133147079D01*
X184696557Y-133139227D01*
X184719166Y-133133563D01*
X184742221Y-133130144D01*
X184765500Y-133129000D01*
X185340500Y-133129000D01*
X185363779Y-133130144D01*
G37*
G04 #@! TD.AperFunction*
G04 #@! TA.AperFunction,SMDPad,CuDef*
G36*
X187113779Y-133130144D02*
G01*
X187136834Y-133133563D01*
X187159443Y-133139227D01*
X187181387Y-133147079D01*
X187202457Y-133157044D01*
X187222448Y-133169026D01*
X187241168Y-133182910D01*
X187258438Y-133198562D01*
X187274090Y-133215832D01*
X187287974Y-133234552D01*
X187299956Y-133254543D01*
X187309921Y-133275613D01*
X187317773Y-133297557D01*
X187323437Y-133320166D01*
X187326856Y-133343221D01*
X187328000Y-133366500D01*
X187328000Y-133841500D01*
X187326856Y-133864779D01*
X187323437Y-133887834D01*
X187317773Y-133910443D01*
X187309921Y-133932387D01*
X187299956Y-133953457D01*
X187287974Y-133973448D01*
X187274090Y-133992168D01*
X187258438Y-134009438D01*
X187241168Y-134025090D01*
X187222448Y-134038974D01*
X187202457Y-134050956D01*
X187181387Y-134060921D01*
X187159443Y-134068773D01*
X187136834Y-134074437D01*
X187113779Y-134077856D01*
X187090500Y-134079000D01*
X186515500Y-134079000D01*
X186492221Y-134077856D01*
X186469166Y-134074437D01*
X186446557Y-134068773D01*
X186424613Y-134060921D01*
X186403543Y-134050956D01*
X186383552Y-134038974D01*
X186364832Y-134025090D01*
X186347562Y-134009438D01*
X186331910Y-133992168D01*
X186318026Y-133973448D01*
X186306044Y-133953457D01*
X186296079Y-133932387D01*
X186288227Y-133910443D01*
X186282563Y-133887834D01*
X186279144Y-133864779D01*
X186278000Y-133841500D01*
X186278000Y-133366500D01*
X186279144Y-133343221D01*
X186282563Y-133320166D01*
X186288227Y-133297557D01*
X186296079Y-133275613D01*
X186306044Y-133254543D01*
X186318026Y-133234552D01*
X186331910Y-133215832D01*
X186347562Y-133198562D01*
X186364832Y-133182910D01*
X186383552Y-133169026D01*
X186403543Y-133157044D01*
X186424613Y-133147079D01*
X186446557Y-133139227D01*
X186469166Y-133133563D01*
X186492221Y-133130144D01*
X186515500Y-133129000D01*
X187090500Y-133129000D01*
X187113779Y-133130144D01*
G37*
G04 #@! TD.AperFunction*
G04 #@! TA.AperFunction,SMDPad,CuDef*
G36*
X166976642Y-132091131D02*
G01*
X166999697Y-132094550D01*
X167022306Y-132100214D01*
X167044250Y-132108066D01*
X167065320Y-132118031D01*
X167085311Y-132130013D01*
X167104031Y-132143897D01*
X167121301Y-132159549D01*
X167527887Y-132566135D01*
X167543539Y-132583405D01*
X167557423Y-132602125D01*
X167569405Y-132622116D01*
X167579370Y-132643186D01*
X167587222Y-132665130D01*
X167592886Y-132687739D01*
X167596305Y-132710794D01*
X167597449Y-132734073D01*
X167596305Y-132757352D01*
X167592886Y-132780407D01*
X167587222Y-132803016D01*
X167579370Y-132824960D01*
X167569405Y-132846030D01*
X167557423Y-132866021D01*
X167543539Y-132884741D01*
X167527887Y-132902011D01*
X167192011Y-133237887D01*
X167174741Y-133253539D01*
X167156021Y-133267423D01*
X167136030Y-133279405D01*
X167114960Y-133289370D01*
X167093016Y-133297222D01*
X167070407Y-133302886D01*
X167047352Y-133306305D01*
X167024073Y-133307449D01*
X167000794Y-133306305D01*
X166977739Y-133302886D01*
X166955130Y-133297222D01*
X166933186Y-133289370D01*
X166912116Y-133279405D01*
X166892125Y-133267423D01*
X166873405Y-133253539D01*
X166856135Y-133237887D01*
X166449549Y-132831301D01*
X166433897Y-132814031D01*
X166420013Y-132795311D01*
X166408031Y-132775320D01*
X166398066Y-132754250D01*
X166390214Y-132732306D01*
X166384550Y-132709697D01*
X166381131Y-132686642D01*
X166379987Y-132663363D01*
X166381131Y-132640084D01*
X166384550Y-132617029D01*
X166390214Y-132594420D01*
X166398066Y-132572476D01*
X166408031Y-132551406D01*
X166420013Y-132531415D01*
X166433897Y-132512695D01*
X166449549Y-132495425D01*
X166785425Y-132159549D01*
X166802695Y-132143897D01*
X166821415Y-132130013D01*
X166841406Y-132118031D01*
X166862476Y-132108066D01*
X166884420Y-132100214D01*
X166907029Y-132094550D01*
X166930084Y-132091131D01*
X166953363Y-132089987D01*
X166976642Y-132091131D01*
G37*
G04 #@! TD.AperFunction*
G04 #@! TA.AperFunction,SMDPad,CuDef*
G36*
X165739206Y-130853695D02*
G01*
X165762261Y-130857114D01*
X165784870Y-130862778D01*
X165806814Y-130870630D01*
X165827884Y-130880595D01*
X165847875Y-130892577D01*
X165866595Y-130906461D01*
X165883865Y-130922113D01*
X166290451Y-131328699D01*
X166306103Y-131345969D01*
X166319987Y-131364689D01*
X166331969Y-131384680D01*
X166341934Y-131405750D01*
X166349786Y-131427694D01*
X166355450Y-131450303D01*
X166358869Y-131473358D01*
X166360013Y-131496637D01*
X166358869Y-131519916D01*
X166355450Y-131542971D01*
X166349786Y-131565580D01*
X166341934Y-131587524D01*
X166331969Y-131608594D01*
X166319987Y-131628585D01*
X166306103Y-131647305D01*
X166290451Y-131664575D01*
X165954575Y-132000451D01*
X165937305Y-132016103D01*
X165918585Y-132029987D01*
X165898594Y-132041969D01*
X165877524Y-132051934D01*
X165855580Y-132059786D01*
X165832971Y-132065450D01*
X165809916Y-132068869D01*
X165786637Y-132070013D01*
X165763358Y-132068869D01*
X165740303Y-132065450D01*
X165717694Y-132059786D01*
X165695750Y-132051934D01*
X165674680Y-132041969D01*
X165654689Y-132029987D01*
X165635969Y-132016103D01*
X165618699Y-132000451D01*
X165212113Y-131593865D01*
X165196461Y-131576595D01*
X165182577Y-131557875D01*
X165170595Y-131537884D01*
X165160630Y-131516814D01*
X165152778Y-131494870D01*
X165147114Y-131472261D01*
X165143695Y-131449206D01*
X165142551Y-131425927D01*
X165143695Y-131402648D01*
X165147114Y-131379593D01*
X165152778Y-131356984D01*
X165160630Y-131335040D01*
X165170595Y-131313970D01*
X165182577Y-131293979D01*
X165196461Y-131275259D01*
X165212113Y-131257989D01*
X165547989Y-130922113D01*
X165565259Y-130906461D01*
X165583979Y-130892577D01*
X165603970Y-130880595D01*
X165625040Y-130870630D01*
X165646984Y-130862778D01*
X165669593Y-130857114D01*
X165692648Y-130853695D01*
X165715927Y-130852551D01*
X165739206Y-130853695D01*
G37*
G04 #@! TD.AperFunction*
G04 #@! TA.AperFunction,SMDPad,CuDef*
G36*
X178914642Y-126249131D02*
G01*
X178937697Y-126252550D01*
X178960306Y-126258214D01*
X178982250Y-126266066D01*
X179003320Y-126276031D01*
X179023311Y-126288013D01*
X179042031Y-126301897D01*
X179059301Y-126317549D01*
X179465887Y-126724135D01*
X179481539Y-126741405D01*
X179495423Y-126760125D01*
X179507405Y-126780116D01*
X179517370Y-126801186D01*
X179525222Y-126823130D01*
X179530886Y-126845739D01*
X179534305Y-126868794D01*
X179535449Y-126892073D01*
X179534305Y-126915352D01*
X179530886Y-126938407D01*
X179525222Y-126961016D01*
X179517370Y-126982960D01*
X179507405Y-127004030D01*
X179495423Y-127024021D01*
X179481539Y-127042741D01*
X179465887Y-127060011D01*
X179130011Y-127395887D01*
X179112741Y-127411539D01*
X179094021Y-127425423D01*
X179074030Y-127437405D01*
X179052960Y-127447370D01*
X179031016Y-127455222D01*
X179008407Y-127460886D01*
X178985352Y-127464305D01*
X178962073Y-127465449D01*
X178938794Y-127464305D01*
X178915739Y-127460886D01*
X178893130Y-127455222D01*
X178871186Y-127447370D01*
X178850116Y-127437405D01*
X178830125Y-127425423D01*
X178811405Y-127411539D01*
X178794135Y-127395887D01*
X178387549Y-126989301D01*
X178371897Y-126972031D01*
X178358013Y-126953311D01*
X178346031Y-126933320D01*
X178336066Y-126912250D01*
X178328214Y-126890306D01*
X178322550Y-126867697D01*
X178319131Y-126844642D01*
X178317987Y-126821363D01*
X178319131Y-126798084D01*
X178322550Y-126775029D01*
X178328214Y-126752420D01*
X178336066Y-126730476D01*
X178346031Y-126709406D01*
X178358013Y-126689415D01*
X178371897Y-126670695D01*
X178387549Y-126653425D01*
X178723425Y-126317549D01*
X178740695Y-126301897D01*
X178759415Y-126288013D01*
X178779406Y-126276031D01*
X178800476Y-126266066D01*
X178822420Y-126258214D01*
X178845029Y-126252550D01*
X178868084Y-126249131D01*
X178891363Y-126247987D01*
X178914642Y-126249131D01*
G37*
G04 #@! TD.AperFunction*
G04 #@! TA.AperFunction,SMDPad,CuDef*
G36*
X177677206Y-125011695D02*
G01*
X177700261Y-125015114D01*
X177722870Y-125020778D01*
X177744814Y-125028630D01*
X177765884Y-125038595D01*
X177785875Y-125050577D01*
X177804595Y-125064461D01*
X177821865Y-125080113D01*
X178228451Y-125486699D01*
X178244103Y-125503969D01*
X178257987Y-125522689D01*
X178269969Y-125542680D01*
X178279934Y-125563750D01*
X178287786Y-125585694D01*
X178293450Y-125608303D01*
X178296869Y-125631358D01*
X178298013Y-125654637D01*
X178296869Y-125677916D01*
X178293450Y-125700971D01*
X178287786Y-125723580D01*
X178279934Y-125745524D01*
X178269969Y-125766594D01*
X178257987Y-125786585D01*
X178244103Y-125805305D01*
X178228451Y-125822575D01*
X177892575Y-126158451D01*
X177875305Y-126174103D01*
X177856585Y-126187987D01*
X177836594Y-126199969D01*
X177815524Y-126209934D01*
X177793580Y-126217786D01*
X177770971Y-126223450D01*
X177747916Y-126226869D01*
X177724637Y-126228013D01*
X177701358Y-126226869D01*
X177678303Y-126223450D01*
X177655694Y-126217786D01*
X177633750Y-126209934D01*
X177612680Y-126199969D01*
X177592689Y-126187987D01*
X177573969Y-126174103D01*
X177556699Y-126158451D01*
X177150113Y-125751865D01*
X177134461Y-125734595D01*
X177120577Y-125715875D01*
X177108595Y-125695884D01*
X177098630Y-125674814D01*
X177090778Y-125652870D01*
X177085114Y-125630261D01*
X177081695Y-125607206D01*
X177080551Y-125583927D01*
X177081695Y-125560648D01*
X177085114Y-125537593D01*
X177090778Y-125514984D01*
X177098630Y-125493040D01*
X177108595Y-125471970D01*
X177120577Y-125451979D01*
X177134461Y-125433259D01*
X177150113Y-125415989D01*
X177485989Y-125080113D01*
X177503259Y-125064461D01*
X177521979Y-125050577D01*
X177541970Y-125038595D01*
X177563040Y-125028630D01*
X177584984Y-125020778D01*
X177607593Y-125015114D01*
X177630648Y-125011695D01*
X177653927Y-125010551D01*
X177677206Y-125011695D01*
G37*
G04 #@! TD.AperFunction*
G04 #@! TA.AperFunction,SMDPad,CuDef*
G36*
X173326642Y-144283131D02*
G01*
X173349697Y-144286550D01*
X173372306Y-144292214D01*
X173394250Y-144300066D01*
X173415320Y-144310031D01*
X173435311Y-144322013D01*
X173454031Y-144335897D01*
X173471301Y-144351549D01*
X173877887Y-144758135D01*
X173893539Y-144775405D01*
X173907423Y-144794125D01*
X173919405Y-144814116D01*
X173929370Y-144835186D01*
X173937222Y-144857130D01*
X173942886Y-144879739D01*
X173946305Y-144902794D01*
X173947449Y-144926073D01*
X173946305Y-144949352D01*
X173942886Y-144972407D01*
X173937222Y-144995016D01*
X173929370Y-145016960D01*
X173919405Y-145038030D01*
X173907423Y-145058021D01*
X173893539Y-145076741D01*
X173877887Y-145094011D01*
X173542011Y-145429887D01*
X173524741Y-145445539D01*
X173506021Y-145459423D01*
X173486030Y-145471405D01*
X173464960Y-145481370D01*
X173443016Y-145489222D01*
X173420407Y-145494886D01*
X173397352Y-145498305D01*
X173374073Y-145499449D01*
X173350794Y-145498305D01*
X173327739Y-145494886D01*
X173305130Y-145489222D01*
X173283186Y-145481370D01*
X173262116Y-145471405D01*
X173242125Y-145459423D01*
X173223405Y-145445539D01*
X173206135Y-145429887D01*
X172799549Y-145023301D01*
X172783897Y-145006031D01*
X172770013Y-144987311D01*
X172758031Y-144967320D01*
X172748066Y-144946250D01*
X172740214Y-144924306D01*
X172734550Y-144901697D01*
X172731131Y-144878642D01*
X172729987Y-144855363D01*
X172731131Y-144832084D01*
X172734550Y-144809029D01*
X172740214Y-144786420D01*
X172748066Y-144764476D01*
X172758031Y-144743406D01*
X172770013Y-144723415D01*
X172783897Y-144704695D01*
X172799549Y-144687425D01*
X173135425Y-144351549D01*
X173152695Y-144335897D01*
X173171415Y-144322013D01*
X173191406Y-144310031D01*
X173212476Y-144300066D01*
X173234420Y-144292214D01*
X173257029Y-144286550D01*
X173280084Y-144283131D01*
X173303363Y-144281987D01*
X173326642Y-144283131D01*
G37*
G04 #@! TD.AperFunction*
G04 #@! TA.AperFunction,SMDPad,CuDef*
G36*
X172089206Y-143045695D02*
G01*
X172112261Y-143049114D01*
X172134870Y-143054778D01*
X172156814Y-143062630D01*
X172177884Y-143072595D01*
X172197875Y-143084577D01*
X172216595Y-143098461D01*
X172233865Y-143114113D01*
X172640451Y-143520699D01*
X172656103Y-143537969D01*
X172669987Y-143556689D01*
X172681969Y-143576680D01*
X172691934Y-143597750D01*
X172699786Y-143619694D01*
X172705450Y-143642303D01*
X172708869Y-143665358D01*
X172710013Y-143688637D01*
X172708869Y-143711916D01*
X172705450Y-143734971D01*
X172699786Y-143757580D01*
X172691934Y-143779524D01*
X172681969Y-143800594D01*
X172669987Y-143820585D01*
X172656103Y-143839305D01*
X172640451Y-143856575D01*
X172304575Y-144192451D01*
X172287305Y-144208103D01*
X172268585Y-144221987D01*
X172248594Y-144233969D01*
X172227524Y-144243934D01*
X172205580Y-144251786D01*
X172182971Y-144257450D01*
X172159916Y-144260869D01*
X172136637Y-144262013D01*
X172113358Y-144260869D01*
X172090303Y-144257450D01*
X172067694Y-144251786D01*
X172045750Y-144243934D01*
X172024680Y-144233969D01*
X172004689Y-144221987D01*
X171985969Y-144208103D01*
X171968699Y-144192451D01*
X171562113Y-143785865D01*
X171546461Y-143768595D01*
X171532577Y-143749875D01*
X171520595Y-143729884D01*
X171510630Y-143708814D01*
X171502778Y-143686870D01*
X171497114Y-143664261D01*
X171493695Y-143641206D01*
X171492551Y-143617927D01*
X171493695Y-143594648D01*
X171497114Y-143571593D01*
X171502778Y-143548984D01*
X171510630Y-143527040D01*
X171520595Y-143505970D01*
X171532577Y-143485979D01*
X171546461Y-143467259D01*
X171562113Y-143449989D01*
X171897989Y-143114113D01*
X171915259Y-143098461D01*
X171933979Y-143084577D01*
X171953970Y-143072595D01*
X171975040Y-143062630D01*
X171996984Y-143054778D01*
X172019593Y-143049114D01*
X172042648Y-143045695D01*
X172065927Y-143044551D01*
X172089206Y-143045695D01*
G37*
G04 #@! TD.AperFunction*
G04 #@! TA.AperFunction,SMDPad,CuDef*
G36*
X171619352Y-126535695D02*
G01*
X171642407Y-126539114D01*
X171665016Y-126544778D01*
X171686960Y-126552630D01*
X171708030Y-126562595D01*
X171728021Y-126574577D01*
X171746741Y-126588461D01*
X171764011Y-126604113D01*
X172099887Y-126939989D01*
X172115539Y-126957259D01*
X172129423Y-126975979D01*
X172141405Y-126995970D01*
X172151370Y-127017040D01*
X172159222Y-127038984D01*
X172164886Y-127061593D01*
X172168305Y-127084648D01*
X172169449Y-127107927D01*
X172168305Y-127131206D01*
X172164886Y-127154261D01*
X172159222Y-127176870D01*
X172151370Y-127198814D01*
X172141405Y-127219884D01*
X172129423Y-127239875D01*
X172115539Y-127258595D01*
X172099887Y-127275865D01*
X171693301Y-127682451D01*
X171676031Y-127698103D01*
X171657311Y-127711987D01*
X171637320Y-127723969D01*
X171616250Y-127733934D01*
X171594306Y-127741786D01*
X171571697Y-127747450D01*
X171548642Y-127750869D01*
X171525363Y-127752013D01*
X171502084Y-127750869D01*
X171479029Y-127747450D01*
X171456420Y-127741786D01*
X171434476Y-127733934D01*
X171413406Y-127723969D01*
X171393415Y-127711987D01*
X171374695Y-127698103D01*
X171357425Y-127682451D01*
X171021549Y-127346575D01*
X171005897Y-127329305D01*
X170992013Y-127310585D01*
X170980031Y-127290594D01*
X170970066Y-127269524D01*
X170962214Y-127247580D01*
X170956550Y-127224971D01*
X170953131Y-127201916D01*
X170951987Y-127178637D01*
X170953131Y-127155358D01*
X170956550Y-127132303D01*
X170962214Y-127109694D01*
X170970066Y-127087750D01*
X170980031Y-127066680D01*
X170992013Y-127046689D01*
X171005897Y-127027969D01*
X171021549Y-127010699D01*
X171428135Y-126604113D01*
X171445405Y-126588461D01*
X171464125Y-126574577D01*
X171484116Y-126562595D01*
X171505186Y-126552630D01*
X171527130Y-126544778D01*
X171549739Y-126539114D01*
X171572794Y-126535695D01*
X171596073Y-126534551D01*
X171619352Y-126535695D01*
G37*
G04 #@! TD.AperFunction*
G04 #@! TA.AperFunction,SMDPad,CuDef*
G36*
X170381916Y-127773131D02*
G01*
X170404971Y-127776550D01*
X170427580Y-127782214D01*
X170449524Y-127790066D01*
X170470594Y-127800031D01*
X170490585Y-127812013D01*
X170509305Y-127825897D01*
X170526575Y-127841549D01*
X170862451Y-128177425D01*
X170878103Y-128194695D01*
X170891987Y-128213415D01*
X170903969Y-128233406D01*
X170913934Y-128254476D01*
X170921786Y-128276420D01*
X170927450Y-128299029D01*
X170930869Y-128322084D01*
X170932013Y-128345363D01*
X170930869Y-128368642D01*
X170927450Y-128391697D01*
X170921786Y-128414306D01*
X170913934Y-128436250D01*
X170903969Y-128457320D01*
X170891987Y-128477311D01*
X170878103Y-128496031D01*
X170862451Y-128513301D01*
X170455865Y-128919887D01*
X170438595Y-128935539D01*
X170419875Y-128949423D01*
X170399884Y-128961405D01*
X170378814Y-128971370D01*
X170356870Y-128979222D01*
X170334261Y-128984886D01*
X170311206Y-128988305D01*
X170287927Y-128989449D01*
X170264648Y-128988305D01*
X170241593Y-128984886D01*
X170218984Y-128979222D01*
X170197040Y-128971370D01*
X170175970Y-128961405D01*
X170155979Y-128949423D01*
X170137259Y-128935539D01*
X170119989Y-128919887D01*
X169784113Y-128584011D01*
X169768461Y-128566741D01*
X169754577Y-128548021D01*
X169742595Y-128528030D01*
X169732630Y-128506960D01*
X169724778Y-128485016D01*
X169719114Y-128462407D01*
X169715695Y-128439352D01*
X169714551Y-128416073D01*
X169715695Y-128392794D01*
X169719114Y-128369739D01*
X169724778Y-128347130D01*
X169732630Y-128325186D01*
X169742595Y-128304116D01*
X169754577Y-128284125D01*
X169768461Y-128265405D01*
X169784113Y-128248135D01*
X170190699Y-127841549D01*
X170207969Y-127825897D01*
X170226689Y-127812013D01*
X170246680Y-127800031D01*
X170267750Y-127790066D01*
X170289694Y-127782214D01*
X170312303Y-127776550D01*
X170335358Y-127773131D01*
X170358637Y-127771987D01*
X170381916Y-127773131D01*
G37*
G04 #@! TD.AperFunction*
G04 #@! TA.AperFunction,SMDPad,CuDef*
G36*
X180979206Y-128313695D02*
G01*
X181002261Y-128317114D01*
X181024870Y-128322778D01*
X181046814Y-128330630D01*
X181067884Y-128340595D01*
X181087875Y-128352577D01*
X181106595Y-128366461D01*
X181123865Y-128382113D01*
X181530451Y-128788699D01*
X181546103Y-128805969D01*
X181559987Y-128824689D01*
X181571969Y-128844680D01*
X181581934Y-128865750D01*
X181589786Y-128887694D01*
X181595450Y-128910303D01*
X181598869Y-128933358D01*
X181600013Y-128956637D01*
X181598869Y-128979916D01*
X181595450Y-129002971D01*
X181589786Y-129025580D01*
X181581934Y-129047524D01*
X181571969Y-129068594D01*
X181559987Y-129088585D01*
X181546103Y-129107305D01*
X181530451Y-129124575D01*
X181194575Y-129460451D01*
X181177305Y-129476103D01*
X181158585Y-129489987D01*
X181138594Y-129501969D01*
X181117524Y-129511934D01*
X181095580Y-129519786D01*
X181072971Y-129525450D01*
X181049916Y-129528869D01*
X181026637Y-129530013D01*
X181003358Y-129528869D01*
X180980303Y-129525450D01*
X180957694Y-129519786D01*
X180935750Y-129511934D01*
X180914680Y-129501969D01*
X180894689Y-129489987D01*
X180875969Y-129476103D01*
X180858699Y-129460451D01*
X180452113Y-129053865D01*
X180436461Y-129036595D01*
X180422577Y-129017875D01*
X180410595Y-128997884D01*
X180400630Y-128976814D01*
X180392778Y-128954870D01*
X180387114Y-128932261D01*
X180383695Y-128909206D01*
X180382551Y-128885927D01*
X180383695Y-128862648D01*
X180387114Y-128839593D01*
X180392778Y-128816984D01*
X180400630Y-128795040D01*
X180410595Y-128773970D01*
X180422577Y-128753979D01*
X180436461Y-128735259D01*
X180452113Y-128717989D01*
X180787989Y-128382113D01*
X180805259Y-128366461D01*
X180823979Y-128352577D01*
X180843970Y-128340595D01*
X180865040Y-128330630D01*
X180886984Y-128322778D01*
X180909593Y-128317114D01*
X180932648Y-128313695D01*
X180955927Y-128312551D01*
X180979206Y-128313695D01*
G37*
G04 #@! TD.AperFunction*
G04 #@! TA.AperFunction,SMDPad,CuDef*
G36*
X182216642Y-129551131D02*
G01*
X182239697Y-129554550D01*
X182262306Y-129560214D01*
X182284250Y-129568066D01*
X182305320Y-129578031D01*
X182325311Y-129590013D01*
X182344031Y-129603897D01*
X182361301Y-129619549D01*
X182767887Y-130026135D01*
X182783539Y-130043405D01*
X182797423Y-130062125D01*
X182809405Y-130082116D01*
X182819370Y-130103186D01*
X182827222Y-130125130D01*
X182832886Y-130147739D01*
X182836305Y-130170794D01*
X182837449Y-130194073D01*
X182836305Y-130217352D01*
X182832886Y-130240407D01*
X182827222Y-130263016D01*
X182819370Y-130284960D01*
X182809405Y-130306030D01*
X182797423Y-130326021D01*
X182783539Y-130344741D01*
X182767887Y-130362011D01*
X182432011Y-130697887D01*
X182414741Y-130713539D01*
X182396021Y-130727423D01*
X182376030Y-130739405D01*
X182354960Y-130749370D01*
X182333016Y-130757222D01*
X182310407Y-130762886D01*
X182287352Y-130766305D01*
X182264073Y-130767449D01*
X182240794Y-130766305D01*
X182217739Y-130762886D01*
X182195130Y-130757222D01*
X182173186Y-130749370D01*
X182152116Y-130739405D01*
X182132125Y-130727423D01*
X182113405Y-130713539D01*
X182096135Y-130697887D01*
X181689549Y-130291301D01*
X181673897Y-130274031D01*
X181660013Y-130255311D01*
X181648031Y-130235320D01*
X181638066Y-130214250D01*
X181630214Y-130192306D01*
X181624550Y-130169697D01*
X181621131Y-130146642D01*
X181619987Y-130123363D01*
X181621131Y-130100084D01*
X181624550Y-130077029D01*
X181630214Y-130054420D01*
X181638066Y-130032476D01*
X181648031Y-130011406D01*
X181660013Y-129991415D01*
X181673897Y-129972695D01*
X181689549Y-129955425D01*
X182025425Y-129619549D01*
X182042695Y-129603897D01*
X182061415Y-129590013D01*
X182081406Y-129578031D01*
X182102476Y-129568066D01*
X182124420Y-129560214D01*
X182147029Y-129554550D01*
X182170084Y-129551131D01*
X182193363Y-129549987D01*
X182216642Y-129551131D01*
G37*
G04 #@! TD.AperFunction*
G04 #@! TA.AperFunction,SMDPad,CuDef*
G36*
X186605779Y-140750144D02*
G01*
X186628834Y-140753563D01*
X186651443Y-140759227D01*
X186673387Y-140767079D01*
X186694457Y-140777044D01*
X186714448Y-140789026D01*
X186733168Y-140802910D01*
X186750438Y-140818562D01*
X186766090Y-140835832D01*
X186779974Y-140854552D01*
X186791956Y-140874543D01*
X186801921Y-140895613D01*
X186809773Y-140917557D01*
X186815437Y-140940166D01*
X186818856Y-140963221D01*
X186820000Y-140986500D01*
X186820000Y-141461500D01*
X186818856Y-141484779D01*
X186815437Y-141507834D01*
X186809773Y-141530443D01*
X186801921Y-141552387D01*
X186791956Y-141573457D01*
X186779974Y-141593448D01*
X186766090Y-141612168D01*
X186750438Y-141629438D01*
X186733168Y-141645090D01*
X186714448Y-141658974D01*
X186694457Y-141670956D01*
X186673387Y-141680921D01*
X186651443Y-141688773D01*
X186628834Y-141694437D01*
X186605779Y-141697856D01*
X186582500Y-141699000D01*
X186007500Y-141699000D01*
X185984221Y-141697856D01*
X185961166Y-141694437D01*
X185938557Y-141688773D01*
X185916613Y-141680921D01*
X185895543Y-141670956D01*
X185875552Y-141658974D01*
X185856832Y-141645090D01*
X185839562Y-141629438D01*
X185823910Y-141612168D01*
X185810026Y-141593448D01*
X185798044Y-141573457D01*
X185788079Y-141552387D01*
X185780227Y-141530443D01*
X185774563Y-141507834D01*
X185771144Y-141484779D01*
X185770000Y-141461500D01*
X185770000Y-140986500D01*
X185771144Y-140963221D01*
X185774563Y-140940166D01*
X185780227Y-140917557D01*
X185788079Y-140895613D01*
X185798044Y-140874543D01*
X185810026Y-140854552D01*
X185823910Y-140835832D01*
X185839562Y-140818562D01*
X185856832Y-140802910D01*
X185875552Y-140789026D01*
X185895543Y-140777044D01*
X185916613Y-140767079D01*
X185938557Y-140759227D01*
X185961166Y-140753563D01*
X185984221Y-140750144D01*
X186007500Y-140749000D01*
X186582500Y-140749000D01*
X186605779Y-140750144D01*
G37*
G04 #@! TD.AperFunction*
G04 #@! TA.AperFunction,SMDPad,CuDef*
G36*
X184855779Y-140750144D02*
G01*
X184878834Y-140753563D01*
X184901443Y-140759227D01*
X184923387Y-140767079D01*
X184944457Y-140777044D01*
X184964448Y-140789026D01*
X184983168Y-140802910D01*
X185000438Y-140818562D01*
X185016090Y-140835832D01*
X185029974Y-140854552D01*
X185041956Y-140874543D01*
X185051921Y-140895613D01*
X185059773Y-140917557D01*
X185065437Y-140940166D01*
X185068856Y-140963221D01*
X185070000Y-140986500D01*
X185070000Y-141461500D01*
X185068856Y-141484779D01*
X185065437Y-141507834D01*
X185059773Y-141530443D01*
X185051921Y-141552387D01*
X185041956Y-141573457D01*
X185029974Y-141593448D01*
X185016090Y-141612168D01*
X185000438Y-141629438D01*
X184983168Y-141645090D01*
X184964448Y-141658974D01*
X184944457Y-141670956D01*
X184923387Y-141680921D01*
X184901443Y-141688773D01*
X184878834Y-141694437D01*
X184855779Y-141697856D01*
X184832500Y-141699000D01*
X184257500Y-141699000D01*
X184234221Y-141697856D01*
X184211166Y-141694437D01*
X184188557Y-141688773D01*
X184166613Y-141680921D01*
X184145543Y-141670956D01*
X184125552Y-141658974D01*
X184106832Y-141645090D01*
X184089562Y-141629438D01*
X184073910Y-141612168D01*
X184060026Y-141593448D01*
X184048044Y-141573457D01*
X184038079Y-141552387D01*
X184030227Y-141530443D01*
X184024563Y-141507834D01*
X184021144Y-141484779D01*
X184020000Y-141461500D01*
X184020000Y-140986500D01*
X184021144Y-140963221D01*
X184024563Y-140940166D01*
X184030227Y-140917557D01*
X184038079Y-140895613D01*
X184048044Y-140874543D01*
X184060026Y-140854552D01*
X184073910Y-140835832D01*
X184089562Y-140818562D01*
X184106832Y-140802910D01*
X184125552Y-140789026D01*
X184145543Y-140777044D01*
X184166613Y-140767079D01*
X184188557Y-140759227D01*
X184211166Y-140753563D01*
X184234221Y-140750144D01*
X184257500Y-140749000D01*
X184832500Y-140749000D01*
X184855779Y-140750144D01*
G37*
G04 #@! TD.AperFunction*
G04 #@! TA.AperFunction,SMDPad,CuDef*
G36*
X179408780Y-144560144D02*
G01*
X179431835Y-144563563D01*
X179454444Y-144569227D01*
X179476388Y-144577079D01*
X179497458Y-144587044D01*
X179517449Y-144599026D01*
X179536169Y-144612910D01*
X179553439Y-144628562D01*
X179569091Y-144645832D01*
X179582975Y-144664552D01*
X179594957Y-144684543D01*
X179604922Y-144705613D01*
X179612774Y-144727557D01*
X179618438Y-144750166D01*
X179621857Y-144773221D01*
X179623001Y-144796500D01*
X179623001Y-145271500D01*
X179621857Y-145294779D01*
X179618438Y-145317834D01*
X179612774Y-145340443D01*
X179604922Y-145362387D01*
X179594957Y-145383457D01*
X179582975Y-145403448D01*
X179569091Y-145422168D01*
X179553439Y-145439438D01*
X179536169Y-145455090D01*
X179517449Y-145468974D01*
X179497458Y-145480956D01*
X179476388Y-145490921D01*
X179454444Y-145498773D01*
X179431835Y-145504437D01*
X179408780Y-145507856D01*
X179385501Y-145509000D01*
X178810501Y-145509000D01*
X178787222Y-145507856D01*
X178764167Y-145504437D01*
X178741558Y-145498773D01*
X178719614Y-145490921D01*
X178698544Y-145480956D01*
X178678553Y-145468974D01*
X178659833Y-145455090D01*
X178642563Y-145439438D01*
X178626911Y-145422168D01*
X178613027Y-145403448D01*
X178601045Y-145383457D01*
X178591080Y-145362387D01*
X178583228Y-145340443D01*
X178577564Y-145317834D01*
X178574145Y-145294779D01*
X178573001Y-145271500D01*
X178573001Y-144796500D01*
X178574145Y-144773221D01*
X178577564Y-144750166D01*
X178583228Y-144727557D01*
X178591080Y-144705613D01*
X178601045Y-144684543D01*
X178613027Y-144664552D01*
X178626911Y-144645832D01*
X178642563Y-144628562D01*
X178659833Y-144612910D01*
X178678553Y-144599026D01*
X178698544Y-144587044D01*
X178719614Y-144577079D01*
X178741558Y-144569227D01*
X178764167Y-144563563D01*
X178787222Y-144560144D01*
X178810501Y-144559000D01*
X179385501Y-144559000D01*
X179408780Y-144560144D01*
G37*
G04 #@! TD.AperFunction*
G04 #@! TA.AperFunction,SMDPad,CuDef*
G36*
X181158780Y-144560144D02*
G01*
X181181835Y-144563563D01*
X181204444Y-144569227D01*
X181226388Y-144577079D01*
X181247458Y-144587044D01*
X181267449Y-144599026D01*
X181286169Y-144612910D01*
X181303439Y-144628562D01*
X181319091Y-144645832D01*
X181332975Y-144664552D01*
X181344957Y-144684543D01*
X181354922Y-144705613D01*
X181362774Y-144727557D01*
X181368438Y-144750166D01*
X181371857Y-144773221D01*
X181373001Y-144796500D01*
X181373001Y-145271500D01*
X181371857Y-145294779D01*
X181368438Y-145317834D01*
X181362774Y-145340443D01*
X181354922Y-145362387D01*
X181344957Y-145383457D01*
X181332975Y-145403448D01*
X181319091Y-145422168D01*
X181303439Y-145439438D01*
X181286169Y-145455090D01*
X181267449Y-145468974D01*
X181247458Y-145480956D01*
X181226388Y-145490921D01*
X181204444Y-145498773D01*
X181181835Y-145504437D01*
X181158780Y-145507856D01*
X181135501Y-145509000D01*
X180560501Y-145509000D01*
X180537222Y-145507856D01*
X180514167Y-145504437D01*
X180491558Y-145498773D01*
X180469614Y-145490921D01*
X180448544Y-145480956D01*
X180428553Y-145468974D01*
X180409833Y-145455090D01*
X180392563Y-145439438D01*
X180376911Y-145422168D01*
X180363027Y-145403448D01*
X180351045Y-145383457D01*
X180341080Y-145362387D01*
X180333228Y-145340443D01*
X180327564Y-145317834D01*
X180324145Y-145294779D01*
X180323001Y-145271500D01*
X180323001Y-144796500D01*
X180324145Y-144773221D01*
X180327564Y-144750166D01*
X180333228Y-144727557D01*
X180341080Y-144705613D01*
X180351045Y-144684543D01*
X180363027Y-144664552D01*
X180376911Y-144645832D01*
X180392563Y-144628562D01*
X180409833Y-144612910D01*
X180428553Y-144599026D01*
X180448544Y-144587044D01*
X180469614Y-144577079D01*
X180491558Y-144569227D01*
X180514167Y-144563563D01*
X180537222Y-144560144D01*
X180560501Y-144559000D01*
X181135501Y-144559000D01*
X181158780Y-144560144D01*
G37*
G04 #@! TD.AperFunction*
D17*
X147637500Y-109537500D03*
X221456250Y-145256250D03*
X83343750Y-126206250D03*
X221456250Y-73818750D03*
X100012500Y-73818750D03*
G04 #@! TA.AperFunction,SMDPad,CuDef*
D15*
G36*
X174528702Y-129112940D02*
G01*
X174139794Y-129501848D01*
X173079134Y-128441188D01*
X173468042Y-128052280D01*
X174528702Y-129112940D01*
G37*
G04 #@! TD.AperFunction*
G04 #@! TA.AperFunction,SMDPad,CuDef*
G36*
X173963017Y-129678626D02*
G01*
X173574109Y-130067534D01*
X172513449Y-129006874D01*
X172902357Y-128617966D01*
X173963017Y-129678626D01*
G37*
G04 #@! TD.AperFunction*
G04 #@! TA.AperFunction,SMDPad,CuDef*
G36*
X173397332Y-130244311D02*
G01*
X173008424Y-130633219D01*
X171947764Y-129572559D01*
X172336672Y-129183651D01*
X173397332Y-130244311D01*
G37*
G04 #@! TD.AperFunction*
G04 #@! TA.AperFunction,SMDPad,CuDef*
G36*
X172831646Y-130809996D02*
G01*
X172442738Y-131198904D01*
X171382078Y-130138244D01*
X171770986Y-129749336D01*
X172831646Y-130809996D01*
G37*
G04 #@! TD.AperFunction*
G04 #@! TA.AperFunction,SMDPad,CuDef*
G36*
X172265961Y-131375682D02*
G01*
X171877053Y-131764590D01*
X170816393Y-130703930D01*
X171205301Y-130315022D01*
X172265961Y-131375682D01*
G37*
G04 #@! TD.AperFunction*
G04 #@! TA.AperFunction,SMDPad,CuDef*
G36*
X171700275Y-131941367D02*
G01*
X171311367Y-132330275D01*
X170250707Y-131269615D01*
X170639615Y-130880707D01*
X171700275Y-131941367D01*
G37*
G04 #@! TD.AperFunction*
G04 #@! TA.AperFunction,SMDPad,CuDef*
G36*
X171134590Y-132507053D02*
G01*
X170745682Y-132895961D01*
X169685022Y-131835301D01*
X170073930Y-131446393D01*
X171134590Y-132507053D01*
G37*
G04 #@! TD.AperFunction*
G04 #@! TA.AperFunction,SMDPad,CuDef*
G36*
X170568904Y-133072738D02*
G01*
X170179996Y-133461646D01*
X169119336Y-132400986D01*
X169508244Y-132012078D01*
X170568904Y-133072738D01*
G37*
G04 #@! TD.AperFunction*
G04 #@! TA.AperFunction,SMDPad,CuDef*
G36*
X170003219Y-133638424D02*
G01*
X169614311Y-134027332D01*
X168553651Y-132966672D01*
X168942559Y-132577764D01*
X170003219Y-133638424D01*
G37*
G04 #@! TD.AperFunction*
G04 #@! TA.AperFunction,SMDPad,CuDef*
G36*
X169437534Y-134204109D02*
G01*
X169048626Y-134593017D01*
X167987966Y-133532357D01*
X168376874Y-133143449D01*
X169437534Y-134204109D01*
G37*
G04 #@! TD.AperFunction*
G04 #@! TA.AperFunction,SMDPad,CuDef*
G36*
X168871848Y-134769794D02*
G01*
X168482940Y-135158702D01*
X167422280Y-134098042D01*
X167811188Y-133709134D01*
X168871848Y-134769794D01*
G37*
G04 #@! TD.AperFunction*
G04 #@! TA.AperFunction,SMDPad,CuDef*
G36*
X168482940Y-136113298D02*
G01*
X168871848Y-136502206D01*
X167811188Y-137562866D01*
X167422280Y-137173958D01*
X168482940Y-136113298D01*
G37*
G04 #@! TD.AperFunction*
G04 #@! TA.AperFunction,SMDPad,CuDef*
G36*
X169048626Y-136678983D02*
G01*
X169437534Y-137067891D01*
X168376874Y-138128551D01*
X167987966Y-137739643D01*
X169048626Y-136678983D01*
G37*
G04 #@! TD.AperFunction*
G04 #@! TA.AperFunction,SMDPad,CuDef*
G36*
X169614311Y-137244668D02*
G01*
X170003219Y-137633576D01*
X168942559Y-138694236D01*
X168553651Y-138305328D01*
X169614311Y-137244668D01*
G37*
G04 #@! TD.AperFunction*
G04 #@! TA.AperFunction,SMDPad,CuDef*
G36*
X170179996Y-137810354D02*
G01*
X170568904Y-138199262D01*
X169508244Y-139259922D01*
X169119336Y-138871014D01*
X170179996Y-137810354D01*
G37*
G04 #@! TD.AperFunction*
G04 #@! TA.AperFunction,SMDPad,CuDef*
G36*
X170745682Y-138376039D02*
G01*
X171134590Y-138764947D01*
X170073930Y-139825607D01*
X169685022Y-139436699D01*
X170745682Y-138376039D01*
G37*
G04 #@! TD.AperFunction*
G04 #@! TA.AperFunction,SMDPad,CuDef*
G36*
X171311367Y-138941725D02*
G01*
X171700275Y-139330633D01*
X170639615Y-140391293D01*
X170250707Y-140002385D01*
X171311367Y-138941725D01*
G37*
G04 #@! TD.AperFunction*
G04 #@! TA.AperFunction,SMDPad,CuDef*
G36*
X171877053Y-139507410D02*
G01*
X172265961Y-139896318D01*
X171205301Y-140956978D01*
X170816393Y-140568070D01*
X171877053Y-139507410D01*
G37*
G04 #@! TD.AperFunction*
G04 #@! TA.AperFunction,SMDPad,CuDef*
G36*
X172442738Y-140073096D02*
G01*
X172831646Y-140462004D01*
X171770986Y-141522664D01*
X171382078Y-141133756D01*
X172442738Y-140073096D01*
G37*
G04 #@! TD.AperFunction*
G04 #@! TA.AperFunction,SMDPad,CuDef*
G36*
X173008424Y-140638781D02*
G01*
X173397332Y-141027689D01*
X172336672Y-142088349D01*
X171947764Y-141699441D01*
X173008424Y-140638781D01*
G37*
G04 #@! TD.AperFunction*
G04 #@! TA.AperFunction,SMDPad,CuDef*
G36*
X173574109Y-141204466D02*
G01*
X173963017Y-141593374D01*
X172902357Y-142654034D01*
X172513449Y-142265126D01*
X173574109Y-141204466D01*
G37*
G04 #@! TD.AperFunction*
G04 #@! TA.AperFunction,SMDPad,CuDef*
G36*
X174139794Y-141770152D02*
G01*
X174528702Y-142159060D01*
X173468042Y-143219720D01*
X173079134Y-142830812D01*
X174139794Y-141770152D01*
G37*
G04 #@! TD.AperFunction*
G04 #@! TA.AperFunction,SMDPad,CuDef*
G36*
X176932866Y-142830812D02*
G01*
X176543958Y-143219720D01*
X175483298Y-142159060D01*
X175872206Y-141770152D01*
X176932866Y-142830812D01*
G37*
G04 #@! TD.AperFunction*
G04 #@! TA.AperFunction,SMDPad,CuDef*
G36*
X177498551Y-142265126D02*
G01*
X177109643Y-142654034D01*
X176048983Y-141593374D01*
X176437891Y-141204466D01*
X177498551Y-142265126D01*
G37*
G04 #@! TD.AperFunction*
G04 #@! TA.AperFunction,SMDPad,CuDef*
G36*
X178064236Y-141699441D02*
G01*
X177675328Y-142088349D01*
X176614668Y-141027689D01*
X177003576Y-140638781D01*
X178064236Y-141699441D01*
G37*
G04 #@! TD.AperFunction*
G04 #@! TA.AperFunction,SMDPad,CuDef*
G36*
X178629922Y-141133756D02*
G01*
X178241014Y-141522664D01*
X177180354Y-140462004D01*
X177569262Y-140073096D01*
X178629922Y-141133756D01*
G37*
G04 #@! TD.AperFunction*
G04 #@! TA.AperFunction,SMDPad,CuDef*
G36*
X179195607Y-140568070D02*
G01*
X178806699Y-140956978D01*
X177746039Y-139896318D01*
X178134947Y-139507410D01*
X179195607Y-140568070D01*
G37*
G04 #@! TD.AperFunction*
G04 #@! TA.AperFunction,SMDPad,CuDef*
G36*
X179761293Y-140002385D02*
G01*
X179372385Y-140391293D01*
X178311725Y-139330633D01*
X178700633Y-138941725D01*
X179761293Y-140002385D01*
G37*
G04 #@! TD.AperFunction*
G04 #@! TA.AperFunction,SMDPad,CuDef*
G36*
X180326978Y-139436699D02*
G01*
X179938070Y-139825607D01*
X178877410Y-138764947D01*
X179266318Y-138376039D01*
X180326978Y-139436699D01*
G37*
G04 #@! TD.AperFunction*
G04 #@! TA.AperFunction,SMDPad,CuDef*
G36*
X180892664Y-138871014D02*
G01*
X180503756Y-139259922D01*
X179443096Y-138199262D01*
X179832004Y-137810354D01*
X180892664Y-138871014D01*
G37*
G04 #@! TD.AperFunction*
G04 #@! TA.AperFunction,SMDPad,CuDef*
G36*
X181458349Y-138305328D02*
G01*
X181069441Y-138694236D01*
X180008781Y-137633576D01*
X180397689Y-137244668D01*
X181458349Y-138305328D01*
G37*
G04 #@! TD.AperFunction*
G04 #@! TA.AperFunction,SMDPad,CuDef*
G36*
X182024034Y-137739643D02*
G01*
X181635126Y-138128551D01*
X180574466Y-137067891D01*
X180963374Y-136678983D01*
X182024034Y-137739643D01*
G37*
G04 #@! TD.AperFunction*
G04 #@! TA.AperFunction,SMDPad,CuDef*
G36*
X182589720Y-137173958D02*
G01*
X182200812Y-137562866D01*
X181140152Y-136502206D01*
X181529060Y-136113298D01*
X182589720Y-137173958D01*
G37*
G04 #@! TD.AperFunction*
G04 #@! TA.AperFunction,SMDPad,CuDef*
G36*
X182200812Y-133709134D02*
G01*
X182589720Y-134098042D01*
X181529060Y-135158702D01*
X181140152Y-134769794D01*
X182200812Y-133709134D01*
G37*
G04 #@! TD.AperFunction*
G04 #@! TA.AperFunction,SMDPad,CuDef*
G36*
X181635126Y-133143449D02*
G01*
X182024034Y-133532357D01*
X180963374Y-134593017D01*
X180574466Y-134204109D01*
X181635126Y-133143449D01*
G37*
G04 #@! TD.AperFunction*
G04 #@! TA.AperFunction,SMDPad,CuDef*
G36*
X181069441Y-132577764D02*
G01*
X181458349Y-132966672D01*
X180397689Y-134027332D01*
X180008781Y-133638424D01*
X181069441Y-132577764D01*
G37*
G04 #@! TD.AperFunction*
G04 #@! TA.AperFunction,SMDPad,CuDef*
G36*
X180503756Y-132012078D02*
G01*
X180892664Y-132400986D01*
X179832004Y-133461646D01*
X179443096Y-133072738D01*
X180503756Y-132012078D01*
G37*
G04 #@! TD.AperFunction*
G04 #@! TA.AperFunction,SMDPad,CuDef*
G36*
X179938070Y-131446393D02*
G01*
X180326978Y-131835301D01*
X179266318Y-132895961D01*
X178877410Y-132507053D01*
X179938070Y-131446393D01*
G37*
G04 #@! TD.AperFunction*
G04 #@! TA.AperFunction,SMDPad,CuDef*
G36*
X179372385Y-130880707D02*
G01*
X179761293Y-131269615D01*
X178700633Y-132330275D01*
X178311725Y-131941367D01*
X179372385Y-130880707D01*
G37*
G04 #@! TD.AperFunction*
G04 #@! TA.AperFunction,SMDPad,CuDef*
G36*
X178806699Y-130315022D02*
G01*
X179195607Y-130703930D01*
X178134947Y-131764590D01*
X177746039Y-131375682D01*
X178806699Y-130315022D01*
G37*
G04 #@! TD.AperFunction*
G04 #@! TA.AperFunction,SMDPad,CuDef*
G36*
X178241014Y-129749336D02*
G01*
X178629922Y-130138244D01*
X177569262Y-131198904D01*
X177180354Y-130809996D01*
X178241014Y-129749336D01*
G37*
G04 #@! TD.AperFunction*
G04 #@! TA.AperFunction,SMDPad,CuDef*
G36*
X177675328Y-129183651D02*
G01*
X178064236Y-129572559D01*
X177003576Y-130633219D01*
X176614668Y-130244311D01*
X177675328Y-129183651D01*
G37*
G04 #@! TD.AperFunction*
G04 #@! TA.AperFunction,SMDPad,CuDef*
G36*
X177109643Y-128617966D02*
G01*
X177498551Y-129006874D01*
X176437891Y-130067534D01*
X176048983Y-129678626D01*
X177109643Y-128617966D01*
G37*
G04 #@! TD.AperFunction*
G04 #@! TA.AperFunction,SMDPad,CuDef*
G36*
X176543958Y-128052280D02*
G01*
X176932866Y-128441188D01*
X175872206Y-129501848D01*
X175483298Y-129112940D01*
X176543958Y-128052280D01*
G37*
G04 #@! TD.AperFunction*
D18*
X217773250Y-94932500D03*
X204846250Y-97472500D03*
X203485750Y-133032500D03*
X190558750Y-135572500D03*
X196342000Y-94932500D03*
X183415000Y-97472500D03*
X220154500Y-113982500D03*
X207227500Y-116522500D03*
X201104500Y-113982500D03*
X188177500Y-116522500D03*
X163004500Y-113982500D03*
X150077500Y-116522500D03*
X124904500Y-113982500D03*
X111977500Y-116522500D03*
X215392000Y-75882500D03*
X202465000Y-78422500D03*
X177292000Y-94932500D03*
X164365000Y-97472500D03*
X182054500Y-113982500D03*
X169127500Y-116522500D03*
X143954500Y-113982500D03*
X131027500Y-116522500D03*
X101092000Y-113982500D03*
X88165000Y-116522500D03*
X191579500Y-75882500D03*
X178652500Y-78422500D03*
X158242000Y-94932500D03*
X145315000Y-97472500D03*
X139192000Y-94932500D03*
X126265000Y-97472500D03*
X120142000Y-94932500D03*
X107215000Y-97472500D03*
X98710750Y-94932500D03*
X85783750Y-97472500D03*
X172529500Y-75882500D03*
X159602500Y-78422500D03*
X153479500Y-75882500D03*
X140552500Y-78422500D03*
X134429500Y-75882500D03*
X121502500Y-78422500D03*
X115379500Y-75882500D03*
X102452500Y-78422500D03*
X96329500Y-75882500D03*
X83402500Y-78422500D03*
D19*
X214758000Y-105664000D03*
X218058000Y-105664000D03*
X208154000Y-124714000D03*
X211454000Y-124714000D03*
X174372000Y-105664000D03*
X177672000Y-105664000D03*
X217298000Y-124714000D03*
X220598000Y-124714000D03*
X198248000Y-124714000D03*
X201548000Y-124714000D03*
X151132000Y-124714000D03*
X154432000Y-124714000D03*
X122048000Y-124714000D03*
X125348000Y-124714000D03*
D20*
X215392000Y-83948000D03*
X215392000Y-87248000D03*
D19*
X165228000Y-105664000D03*
X168528000Y-105664000D03*
X159894000Y-124714000D03*
X163194000Y-124714000D03*
X141098000Y-124714000D03*
X144398000Y-124714000D03*
X98172000Y-124714000D03*
X101472000Y-124714000D03*
X179452000Y-86614000D03*
X182752000Y-86614000D03*
X155322000Y-105664000D03*
X158622000Y-105664000D03*
X136272000Y-105664000D03*
X139572000Y-105664000D03*
X117222000Y-105664000D03*
X120522000Y-105664000D03*
X95632000Y-105664000D03*
X98932000Y-105664000D03*
X169546000Y-86614000D03*
X172846000Y-86614000D03*
X150496000Y-86614000D03*
X153796000Y-86614000D03*
X131446000Y-86614000D03*
X134746000Y-86614000D03*
X112396000Y-86614000D03*
X115696000Y-86614000D03*
X93346000Y-86614000D03*
X96646000Y-86614000D03*
D21*
X178816000Y-83566000D03*
X182880000Y-75438000D03*
X152146000Y-113792000D03*
X149860000Y-120396000D03*
X104648000Y-90424000D03*
X103378000Y-82804000D03*
X109982000Y-106172000D03*
X129032000Y-114554000D03*
X133604000Y-121920000D03*
X141732000Y-117602000D03*
X159004000Y-121666000D03*
X166370000Y-122936000D03*
X168402000Y-122428000D03*
X170688000Y-129794000D03*
X168402000Y-123698000D03*
X169672000Y-130302000D03*
X123952000Y-90424000D03*
X122428000Y-82804000D03*
X187706000Y-118872000D03*
X183134000Y-121412000D03*
X134874000Y-102870000D03*
X166370000Y-117602000D03*
X165608000Y-113792000D03*
X166370000Y-124714000D03*
X204470000Y-95250000D03*
X199136000Y-100076000D03*
X184150000Y-104902000D03*
X173228000Y-104140000D03*
X198882000Y-117602000D03*
X193294000Y-113030000D03*
X190754000Y-110490000D03*
X162814000Y-127254000D03*
X168148000Y-111506000D03*
X166116000Y-125984000D03*
X183134000Y-110236000D03*
X161036000Y-126492000D03*
X169926000Y-136144000D03*
X170688000Y-136144000D03*
X203200000Y-123952000D03*
X191516000Y-130556000D03*
X188468000Y-131318000D03*
X177800000Y-136398000D03*
X175006000Y-135890000D03*
X171450000Y-136652000D03*
X171704000Y-138176000D03*
X184658000Y-91186000D03*
X183642000Y-94742000D03*
X202946000Y-80518000D03*
X207010000Y-95250000D03*
X191770000Y-109474000D03*
X173228000Y-139192000D03*
X182372000Y-109474000D03*
X176530000Y-87884000D03*
X181356000Y-104648000D03*
X181864000Y-107188000D03*
X184404000Y-108204000D03*
X183134000Y-111760000D03*
X173482000Y-139954000D03*
X143256000Y-90424000D03*
X141224000Y-82804000D03*
X161798000Y-99568000D03*
X147320000Y-102616000D03*
X204978000Y-125730000D03*
X168402000Y-102108000D03*
X180086000Y-110490000D03*
X188722000Y-112522000D03*
X183896000Y-110744000D03*
X204978000Y-122428000D03*
D22*
X201422000Y-73914000D03*
X200660000Y-76454000D03*
X181064000Y-141013000D03*
X182626000Y-145288000D03*
X187198000Y-142875000D03*
X184404000Y-142748000D03*
X176587686Y-131260314D03*
X174498000Y-130556000D03*
X177603686Y-126942314D03*
X179324000Y-143256000D03*
X169672000Y-125730000D03*
X166624000Y-128778000D03*
X182626000Y-128270000D03*
X183896000Y-132334000D03*
X177292000Y-144526000D03*
X176022000Y-146558000D03*
X180086000Y-146558000D03*
X199898000Y-84836000D03*
X203200000Y-94996000D03*
X184912000Y-138938000D03*
X172466000Y-145796000D03*
X171958000Y-124714000D03*
X166370000Y-130302000D03*
X188722000Y-132842000D03*
X205486000Y-93980000D03*
X179832000Y-125222000D03*
D21*
X197104000Y-73406000D03*
X198120000Y-73406000D03*
D22*
X201930000Y-81026000D03*
D21*
X203708000Y-70104000D03*
X199898006Y-68834000D03*
X194310000Y-76454000D03*
D23*
X96329500Y-75882500D02*
X96710500Y-75882500D01*
X96304500Y-75882500D02*
X96329500Y-75882500D01*
X93346000Y-78841000D02*
X96304500Y-75882500D01*
X93346000Y-86614000D02*
X93346000Y-78841000D01*
X115354500Y-75882500D02*
X115379500Y-75882500D01*
X112396000Y-78841000D02*
X115354500Y-75882500D01*
X112396000Y-86614000D02*
X112396000Y-78841000D01*
X134404500Y-75882500D02*
X134429500Y-75882500D01*
X131446000Y-78841000D02*
X134404500Y-75882500D01*
X131446000Y-86614000D02*
X131446000Y-78841000D01*
X150496000Y-86614000D02*
X150622000Y-86614000D01*
X153454500Y-75882500D02*
X153479500Y-75882500D01*
X150496000Y-78841000D02*
X153454500Y-75882500D01*
X150496000Y-86614000D02*
X150496000Y-78841000D01*
X172504500Y-75882500D02*
X172529500Y-75882500D01*
X169546000Y-78841000D02*
X172504500Y-75882500D01*
X169546000Y-86614000D02*
X169546000Y-78841000D01*
X98685750Y-94932500D02*
X98710750Y-94932500D01*
X95632000Y-97986250D02*
X98685750Y-94932500D01*
X95632000Y-105664000D02*
X95632000Y-97986250D01*
X182052000Y-86614000D02*
X179258000Y-89408000D01*
X182752000Y-86614000D02*
X182052000Y-86614000D01*
X160528000Y-93726000D02*
X160528000Y-103758000D01*
X179258000Y-89408000D02*
X164846000Y-89408000D01*
X160528000Y-103758000D02*
X158622000Y-105664000D01*
X164846000Y-89408000D02*
X160528000Y-93726000D01*
X119634000Y-105664000D02*
X120522000Y-105664000D01*
X118110000Y-107188000D02*
X119634000Y-105664000D01*
X101156000Y-107188000D02*
X118110000Y-107188000D01*
X98932000Y-105664000D02*
X99632000Y-105664000D01*
X99632000Y-105664000D02*
X101156000Y-107188000D01*
X138684000Y-105664000D02*
X139572000Y-105664000D01*
X137160000Y-107188000D02*
X138684000Y-105664000D01*
X135382000Y-107188000D02*
X137160000Y-107188000D01*
X120522000Y-105664000D02*
X133858000Y-105664000D01*
X133858000Y-105664000D02*
X135382000Y-107188000D01*
X157480000Y-105664000D02*
X158622000Y-105664000D01*
X154686000Y-107188000D02*
X155956000Y-107188000D01*
X155956000Y-107188000D02*
X157480000Y-105664000D01*
X139572000Y-105664000D02*
X153162000Y-105664000D01*
X153162000Y-105664000D02*
X154686000Y-107188000D01*
X120117000Y-94932500D02*
X120142000Y-94932500D01*
X117222000Y-97827500D02*
X120117000Y-94932500D01*
X117222000Y-105664000D02*
X117222000Y-97827500D01*
X136272000Y-104814000D02*
X136272000Y-105664000D01*
X139192000Y-94932500D02*
X136272000Y-97852500D01*
X136272000Y-97852500D02*
X136272000Y-104814000D01*
X155322000Y-104814000D02*
X155322000Y-105664000D01*
X155322000Y-97827500D02*
X155322000Y-104814000D01*
X158217000Y-94932500D02*
X155322000Y-97827500D01*
X158242000Y-94932500D02*
X158217000Y-94932500D01*
X179452000Y-84202000D02*
X179452000Y-86614000D01*
X178816000Y-83566000D02*
X179452000Y-84202000D01*
X185420000Y-77978000D02*
X183007000Y-75565000D01*
X191579500Y-75882500D02*
X189484000Y-77978000D01*
X183007000Y-75565000D02*
X182880000Y-75438000D01*
X189484000Y-77978000D02*
X185420000Y-77978000D01*
X98172000Y-116877500D02*
X101067000Y-113982500D01*
X101067000Y-113982500D02*
X101092000Y-113982500D01*
X98172000Y-124714000D02*
X98172000Y-116877500D01*
X143929500Y-113982500D02*
X143954500Y-113982500D01*
X141098000Y-116814000D02*
X143929500Y-113982500D01*
X141098000Y-124714000D02*
X141098000Y-116814000D01*
X159894000Y-118998000D02*
X159894000Y-123864000D01*
X162814000Y-116078000D02*
X159894000Y-118998000D01*
X159894000Y-123864000D02*
X159894000Y-124714000D01*
X182054500Y-112482500D02*
X181078000Y-111506000D01*
X182054500Y-113982500D02*
X182054500Y-112482500D01*
X181078000Y-111506000D02*
X169164000Y-111506000D01*
X169164000Y-111506000D02*
X164592000Y-116078000D01*
X164592000Y-116078000D02*
X162814000Y-116078000D01*
X174498000Y-97726500D02*
X177292000Y-94932500D01*
X165228000Y-104814000D02*
X167172000Y-102870000D01*
X167172000Y-102870000D02*
X172466000Y-102870000D01*
X165228000Y-105664000D02*
X165228000Y-104814000D01*
X172466000Y-102870000D02*
X174498000Y-100838000D01*
X174498000Y-100838000D02*
X174498000Y-97726500D01*
X215542000Y-83948000D02*
X215392000Y-83948000D01*
X216242000Y-83248000D02*
X215542000Y-83948000D01*
X216242000Y-78232500D02*
X216242000Y-83248000D01*
X215392000Y-77382500D02*
X216242000Y-78232500D01*
X215392000Y-75882500D02*
X215392000Y-77382500D01*
X124879500Y-113982500D02*
X124904500Y-113982500D01*
X122048000Y-116814000D02*
X124879500Y-113982500D01*
X122048000Y-124714000D02*
X122048000Y-116814000D01*
X151132000Y-124714000D02*
X151132000Y-121668000D01*
X151132000Y-121668000D02*
X149860000Y-120396000D01*
X160655000Y-116332000D02*
X163004500Y-113982500D01*
X158242000Y-116332000D02*
X160655000Y-116332000D01*
X152146000Y-113792000D02*
X155702000Y-113792000D01*
X155702000Y-113792000D02*
X158242000Y-116332000D01*
X149860000Y-120396000D02*
X149860000Y-120396000D01*
X198248000Y-116814000D02*
X201079500Y-113982500D01*
X201079500Y-113982500D02*
X201104500Y-113982500D01*
X198248000Y-124714000D02*
X198248000Y-116814000D01*
X220129500Y-113982500D02*
X220154500Y-113982500D01*
X217678000Y-121920000D02*
X217678000Y-116434000D01*
X217678000Y-116434000D02*
X220129500Y-113982500D01*
X217298000Y-124714000D02*
X217298000Y-122300000D01*
X217298000Y-122300000D02*
X217678000Y-121920000D01*
X194119500Y-92710000D02*
X183134000Y-92710000D01*
X178562000Y-102174000D02*
X175072000Y-105664000D01*
X196342000Y-94932500D02*
X194119500Y-92710000D01*
X183134000Y-92710000D02*
X178562000Y-97282000D01*
X175072000Y-105664000D02*
X174372000Y-105664000D01*
X178562000Y-97282000D02*
X178562000Y-102174000D01*
X203485750Y-128682250D02*
X203485750Y-131532500D01*
X203485750Y-131532500D02*
X203485750Y-133032500D01*
X207454000Y-124714000D02*
X203485750Y-128682250D01*
X208154000Y-124714000D02*
X207454000Y-124714000D01*
X217748250Y-94932500D02*
X217773250Y-94932500D01*
X214758000Y-97922750D02*
X217748250Y-94932500D01*
X214758000Y-105664000D02*
X214758000Y-97922750D01*
X102452500Y-81116500D02*
X102452500Y-78422500D01*
X103378000Y-82804000D02*
X103378000Y-82042000D01*
X103378000Y-82042000D02*
X102452500Y-81116500D01*
X107215000Y-97472500D02*
X107215000Y-103405000D01*
X107215000Y-103405000D02*
X109982000Y-106172000D01*
X131000500Y-116522500D02*
X131027500Y-116522500D01*
X129032000Y-114554000D02*
X131000500Y-116522500D01*
X133354001Y-121670001D02*
X133604000Y-121920000D01*
X131027500Y-119343500D02*
X133354001Y-121670001D01*
X131027500Y-116522500D02*
X131027500Y-119343500D01*
X150077500Y-116522500D02*
X142811500Y-116522500D01*
X142811500Y-116522500D02*
X141732000Y-117602000D01*
X150077500Y-116522500D02*
X150077500Y-119343500D01*
X150077500Y-119343500D02*
X152400000Y-121666000D01*
X152400000Y-121666000D02*
X159004000Y-121666000D01*
X166370000Y-122936000D02*
X167894000Y-122936000D01*
X167894000Y-122936000D02*
X168402000Y-122428000D01*
X170688000Y-130186629D02*
X171541177Y-131039806D01*
X170688000Y-129794000D02*
X170688000Y-130186629D01*
X107215000Y-92991000D02*
X104648000Y-90424000D01*
X107215000Y-97472500D02*
X107215000Y-92991000D01*
X86640000Y-116522500D02*
X88165000Y-116522500D01*
X85783750Y-115666250D02*
X86640000Y-116522500D01*
X85783750Y-97472500D02*
X85783750Y-115666250D01*
X106934000Y-111506000D02*
X111950500Y-116522500D01*
X93218000Y-111506000D02*
X106934000Y-111506000D01*
X111950500Y-116522500D02*
X111977500Y-116522500D01*
X88165000Y-116522500D02*
X88201500Y-116522500D01*
X88201500Y-116522500D02*
X93218000Y-111506000D01*
X83402500Y-79922500D02*
X83402500Y-78422500D01*
X85783750Y-97472500D02*
X83402500Y-95091250D01*
X83402500Y-95091250D02*
X83402500Y-79922500D01*
X169672000Y-130302000D02*
X170975491Y-131605491D01*
X162545002Y-123698000D02*
X168402000Y-123698000D01*
X160259002Y-125984000D02*
X162545002Y-123698000D01*
X157480000Y-125984000D02*
X160259002Y-125984000D01*
X155194000Y-123698000D02*
X157480000Y-125984000D01*
X150114000Y-125984000D02*
X151509590Y-125984000D01*
X153795590Y-123698000D02*
X155194000Y-123698000D01*
X147066000Y-122936000D02*
X150114000Y-125984000D01*
X128270000Y-125984000D02*
X141732000Y-125984000D01*
X122413002Y-125984000D02*
X124699002Y-123698000D01*
X111977500Y-116522500D02*
X111977500Y-119342501D01*
X125984000Y-123698000D02*
X128270000Y-125984000D01*
X143381590Y-122936000D02*
X147066000Y-122936000D01*
X111977500Y-119342501D02*
X118618999Y-125984000D01*
X118618999Y-125984000D02*
X122413002Y-125984000D01*
X141732000Y-125984000D02*
X142748000Y-124968000D01*
X151509590Y-125984000D02*
X153795590Y-123698000D01*
X142748000Y-124968000D02*
X142748000Y-123569590D01*
X124699002Y-123698000D02*
X125984000Y-123698000D01*
X142748000Y-123569590D02*
X143381590Y-122936000D01*
X121502500Y-81116500D02*
X121502500Y-78422500D01*
X122428000Y-82804000D02*
X122428000Y-82042000D01*
X122428000Y-82042000D02*
X121502500Y-81116500D01*
X188177500Y-116522500D02*
X188177500Y-118400500D01*
X188177500Y-118400500D02*
X187706000Y-118872000D01*
X126265000Y-97472500D02*
X126265000Y-101119000D01*
X126265000Y-101119000D02*
X128016000Y-102870000D01*
X128016000Y-102870000D02*
X134874000Y-102870000D01*
X167449500Y-116522500D02*
X166619999Y-117352001D01*
X166619999Y-117352001D02*
X166370000Y-117602000D01*
X169127500Y-116522500D02*
X167449500Y-116522500D01*
X181102000Y-121412000D02*
X183134000Y-121412000D01*
X171604000Y-114046000D02*
X175705987Y-114046000D01*
X169127500Y-116522500D02*
X171604000Y-114046000D01*
X175705987Y-114046000D02*
X179832000Y-118172013D01*
X179832000Y-118172013D02*
X179832000Y-120142000D01*
X179832000Y-120142000D02*
X181102000Y-121412000D01*
X169127500Y-124877500D02*
X168402000Y-125603000D01*
X169127500Y-116522500D02*
X169127500Y-124877500D01*
X168910000Y-128016000D02*
X168910000Y-130671371D01*
X168402000Y-125603000D02*
X168402000Y-127508000D01*
X168910000Y-130671371D02*
X170409806Y-132171177D01*
X168402000Y-127508000D02*
X168910000Y-128016000D01*
X126265000Y-92737000D02*
X123952000Y-90424000D01*
X126265000Y-97472500D02*
X126265000Y-92737000D01*
X165608000Y-107884000D02*
X165608000Y-113792000D01*
X168528000Y-105664000D02*
X167828000Y-105664000D01*
X167828000Y-105664000D02*
X165608000Y-107884000D01*
X166370000Y-124714000D02*
X163194000Y-124714000D01*
X206180999Y-95250000D02*
X204470000Y-95250000D01*
X215392000Y-87248000D02*
X214182999Y-87248000D01*
X214182999Y-87248000D02*
X206180999Y-95250000D01*
X199136000Y-100076000D02*
X194310000Y-104902000D01*
X194310000Y-104902000D02*
X184150000Y-104902000D01*
X171704000Y-105664000D02*
X168528000Y-105664000D01*
X173228000Y-104140000D02*
X171704000Y-105664000D01*
X168402000Y-131294742D02*
X169844120Y-132736862D01*
X168402000Y-128524000D02*
X168402000Y-131294742D01*
X166878000Y-127000000D02*
X168402000Y-128524000D01*
X166370000Y-124714000D02*
X166878000Y-125222000D01*
X166878000Y-125222000D02*
X166878000Y-127000000D01*
X161504000Y-127254000D02*
X163194000Y-125564000D01*
X147320000Y-124714000D02*
X149606000Y-127000000D01*
X163194000Y-125564000D02*
X163194000Y-124714000D01*
X144398000Y-124714000D02*
X147320000Y-124714000D01*
X149606000Y-127000000D02*
X160274000Y-127000000D01*
X160274000Y-127000000D02*
X160528000Y-127254000D01*
X160528000Y-127254000D02*
X161504000Y-127254000D01*
X144398000Y-124842000D02*
X144398000Y-124714000D01*
X102172000Y-124714000D02*
X103950000Y-126492000D01*
X101472000Y-124714000D02*
X102172000Y-124714000D01*
X142240000Y-127000000D02*
X144398000Y-124842000D01*
X103950000Y-126492000D02*
X126238000Y-126492000D01*
X126238000Y-126492000D02*
X126746000Y-127000000D01*
X126746000Y-127000000D02*
X142240000Y-127000000D01*
X198882000Y-122748000D02*
X198882000Y-117602000D01*
X201548000Y-124714000D02*
X200848000Y-124714000D01*
X200848000Y-124714000D02*
X198882000Y-122748000D01*
X193294000Y-113030000D02*
X190754000Y-110490000D01*
X162814000Y-127254000D02*
X166173002Y-127254000D01*
X166116000Y-127196998D02*
X166173002Y-127254000D01*
X166116000Y-125984000D02*
X166116000Y-127196998D01*
X169164000Y-110490000D02*
X168148000Y-111506000D01*
X177672000Y-105664000D02*
X176972000Y-105664000D01*
X172146000Y-110490000D02*
X169164000Y-110490000D01*
X176972000Y-105664000D02*
X172146000Y-110490000D01*
X166173002Y-127254000D02*
X167894000Y-128974998D01*
X167894000Y-131918113D02*
X169278435Y-133302548D01*
X167894000Y-128974998D02*
X167894000Y-131918113D01*
X160682447Y-126492000D02*
X161036000Y-126492000D01*
X156910000Y-126492000D02*
X160682447Y-126492000D01*
X154432000Y-124714000D02*
X155132000Y-124714000D01*
X155132000Y-124714000D02*
X156910000Y-126492000D01*
X182780447Y-110236000D02*
X183134000Y-110236000D01*
X178562000Y-105664000D02*
X180086000Y-107188000D01*
X177672000Y-105664000D02*
X178562000Y-105664000D01*
X181394000Y-110236000D02*
X182780447Y-110236000D01*
X180086000Y-107188000D02*
X180086000Y-108928000D01*
X180086000Y-108928000D02*
X181394000Y-110236000D01*
X219456000Y-125984000D02*
X220598000Y-124842000D01*
X210058000Y-125984000D02*
X219456000Y-125984000D01*
X209296000Y-125222000D02*
X210058000Y-125984000D01*
X205486000Y-124714000D02*
X206756000Y-123444000D01*
X201548000Y-124714000D02*
X205486000Y-124714000D01*
X220598000Y-124842000D02*
X220598000Y-124714000D01*
X209296000Y-123952000D02*
X209296000Y-125222000D01*
X206756000Y-123444000D02*
X208788000Y-123444000D01*
X208788000Y-123444000D02*
X209296000Y-123952000D01*
X127126000Y-126492000D02*
X125348000Y-124714000D01*
X141986000Y-126492000D02*
X127126000Y-126492000D01*
X143256000Y-125222000D02*
X141986000Y-126492000D01*
X143256000Y-123952000D02*
X143256000Y-125222000D01*
X152654000Y-126492000D02*
X149860000Y-126492000D01*
X154432000Y-124714000D02*
X152654000Y-126492000D01*
X146812000Y-123444000D02*
X143764000Y-123444000D01*
X143764000Y-123444000D02*
X143256000Y-123952000D01*
X149860000Y-126492000D02*
X146812000Y-123444000D01*
X169926000Y-136190517D02*
X168712750Y-137403767D01*
X169926000Y-136144000D02*
X169926000Y-136190517D01*
X170688000Y-136497553D02*
X170688000Y-136144000D01*
X169278435Y-137969452D02*
X170688000Y-136559887D01*
X170688000Y-136559887D02*
X170688000Y-136497553D01*
X177800000Y-136398000D02*
X175514000Y-136398000D01*
X175514000Y-136398000D02*
X175006000Y-135890000D01*
X171450000Y-136652000D02*
X170688000Y-137414000D01*
X170688000Y-137691258D02*
X169844120Y-138535138D01*
X170688000Y-137414000D02*
X170688000Y-137691258D01*
X190754000Y-131318000D02*
X188468000Y-131318000D01*
X191516000Y-130556000D02*
X190754000Y-131318000D01*
X211454000Y-124714000D02*
X209676000Y-122936000D01*
X205357590Y-123952000D02*
X203200000Y-123952000D01*
X206373590Y-122936000D02*
X205357590Y-123952000D01*
X209676000Y-122936000D02*
X206373590Y-122936000D01*
X214122000Y-124714000D02*
X211454000Y-124714000D01*
X217170000Y-121666000D02*
X214122000Y-124714000D01*
X218058000Y-109348000D02*
X214630000Y-112776000D01*
X218058000Y-105664000D02*
X218058000Y-109348000D01*
X214630000Y-112776000D02*
X214630000Y-115062000D01*
X217170000Y-117602000D02*
X217170000Y-121666000D01*
X214630000Y-115062000D02*
X217170000Y-117602000D01*
X170409806Y-139100823D02*
X171334629Y-138176000D01*
X171334629Y-138176000D02*
X171704000Y-138176000D01*
X178652500Y-78422500D02*
X178652500Y-81624500D01*
X178652500Y-81624500D02*
X181610000Y-84582000D01*
X181610000Y-84582000D02*
X183642000Y-84582000D01*
X183642000Y-84582000D02*
X184658000Y-85598000D01*
X184658000Y-85598000D02*
X184658000Y-91186000D01*
X183642000Y-97245500D02*
X183415000Y-97472500D01*
X183642000Y-94742000D02*
X183642000Y-97245500D01*
X202465000Y-78422500D02*
X202465000Y-80037000D01*
X202465000Y-80037000D02*
X202946000Y-80518000D01*
X204871250Y-97472500D02*
X204846250Y-97472500D01*
X207010000Y-95333750D02*
X204871250Y-97472500D01*
X182372000Y-108712000D02*
X182372000Y-109474000D01*
X183415000Y-97472500D02*
X183415000Y-107669000D01*
X183415000Y-107669000D02*
X182372000Y-108712000D01*
X192532000Y-110236000D02*
X191770000Y-109474000D01*
X198120000Y-110236000D02*
X192532000Y-110236000D01*
X204846250Y-97472500D02*
X204846250Y-103509750D01*
X204846250Y-103509750D02*
X198120000Y-110236000D01*
X172581371Y-139192000D02*
X171541177Y-140232194D01*
X173228000Y-139192000D02*
X172581371Y-139192000D01*
X173890000Y-73660000D02*
X178652500Y-78422500D01*
X159602500Y-78422500D02*
X164365000Y-73660000D01*
X164365000Y-73660000D02*
X173890000Y-73660000D01*
X97346000Y-86614000D02*
X98870000Y-88138000D01*
X96646000Y-86614000D02*
X97346000Y-86614000D01*
X98870000Y-88138000D02*
X113284000Y-88138000D01*
X114808000Y-86614000D02*
X115696000Y-86614000D01*
X113284000Y-88138000D02*
X114808000Y-86614000D01*
X115696000Y-86614000D02*
X128778000Y-86614000D01*
X128778000Y-86614000D02*
X130302000Y-88138000D01*
X130302000Y-88138000D02*
X132334000Y-88138000D01*
X133858000Y-86614000D02*
X134746000Y-86614000D01*
X132334000Y-88138000D02*
X133858000Y-86614000D01*
X172846000Y-86614000D02*
X175260000Y-86614000D01*
X175260000Y-86614000D02*
X176530000Y-87884000D01*
X181356000Y-104648000D02*
X181356000Y-106680000D01*
X181356000Y-106680000D02*
X181864000Y-107188000D01*
X184653999Y-110847554D02*
X183741553Y-111760000D01*
X183741553Y-111760000D02*
X183487553Y-111760000D01*
X184404000Y-108204000D02*
X184653999Y-108453999D01*
X184653999Y-108453999D02*
X184653999Y-110847554D01*
X183487553Y-111760000D02*
X183134000Y-111760000D01*
X173482000Y-140554113D02*
X172672548Y-141363565D01*
X173482000Y-139954000D02*
X173482000Y-140554113D01*
X151384000Y-88138000D02*
X152908000Y-86614000D01*
X149606000Y-88138000D02*
X151384000Y-88138000D01*
X134746000Y-86614000D02*
X148082000Y-86614000D01*
X152908000Y-86614000D02*
X153796000Y-86614000D01*
X148082000Y-86614000D02*
X149606000Y-88138000D01*
X170434000Y-88138000D02*
X171958000Y-86614000D01*
X156020000Y-88138000D02*
X170434000Y-88138000D01*
X153796000Y-86614000D02*
X154496000Y-86614000D01*
X171958000Y-86614000D02*
X172846000Y-86614000D01*
X154496000Y-86614000D02*
X156020000Y-88138000D01*
X145315000Y-97472500D02*
X145315000Y-92483000D01*
X145315000Y-92483000D02*
X143256000Y-90424000D01*
X141224000Y-82042000D02*
X141224000Y-82804000D01*
X140552500Y-78422500D02*
X140552500Y-81370500D01*
X140552500Y-81370500D02*
X141224000Y-82042000D01*
X164365000Y-97472500D02*
X162840000Y-97472500D01*
X161798000Y-98514500D02*
X161798000Y-99568000D01*
X162840000Y-97472500D02*
X161798000Y-98514500D01*
X145315000Y-100611000D02*
X145315000Y-97472500D01*
X147320000Y-102616000D02*
X145315000Y-100611000D01*
X190558750Y-134072500D02*
X190558750Y-135572500D01*
X204978000Y-125730000D02*
X202184000Y-128524000D01*
X196107250Y-128524000D02*
X190558750Y-134072500D01*
X202184000Y-128524000D02*
X196107250Y-128524000D01*
X164365000Y-97472500D02*
X164365000Y-101119000D01*
X164365000Y-101119000D02*
X165354000Y-102108000D01*
X165354000Y-102108000D02*
X168402000Y-102108000D01*
X182305018Y-136398000D02*
X181864936Y-136838082D01*
X188658500Y-135572500D02*
X188468000Y-135382000D01*
X190558750Y-135572500D02*
X188658500Y-135572500D01*
X188468000Y-135382000D02*
X185928000Y-135382000D01*
X184912000Y-136398000D02*
X182305018Y-136398000D01*
X185928000Y-135382000D02*
X184912000Y-136398000D01*
X180086000Y-110490000D02*
X180594000Y-110998000D01*
X183642000Y-110998000D02*
X183646001Y-110993999D01*
X180594000Y-110998000D02*
X183642000Y-110998000D01*
X183646001Y-110993999D02*
X183896000Y-110744000D01*
X207227500Y-116522500D02*
X207227500Y-120178500D01*
X205227999Y-122178001D02*
X204978000Y-122428000D01*
X207227500Y-120178500D02*
X205227999Y-122178001D01*
X189992000Y-113792000D02*
X194564000Y-113792000D01*
X188722000Y-112522000D02*
X189992000Y-113792000D01*
X202438000Y-111760000D02*
X207200500Y-116522500D01*
X207200500Y-116522500D02*
X207227500Y-116522500D01*
X194564000Y-113792000D02*
X196596000Y-111760000D01*
X196596000Y-111760000D02*
X202438000Y-111760000D01*
D24*
X173238233Y-129342750D02*
X174244000Y-130348517D01*
X200577500Y-71882000D02*
X200577500Y-70532000D01*
X194627500Y-70532000D02*
X194627500Y-71882000D01*
X194627500Y-71882000D02*
X194627500Y-72453500D01*
X195693000Y-73519000D02*
X195693000Y-74930000D01*
X194627500Y-72453500D02*
X195693000Y-73519000D01*
X201422000Y-73914000D02*
X201422000Y-75692000D01*
X201422000Y-75692000D02*
X200660000Y-76454000D01*
X195693000Y-80377000D02*
X195693000Y-74930000D01*
X196596000Y-81280000D02*
X195693000Y-80377000D01*
X194310000Y-79361000D02*
X194310000Y-80772000D01*
X196088000Y-82550000D02*
X196596000Y-82550000D01*
X194310000Y-80772000D02*
X196088000Y-82550000D01*
X196596000Y-82550000D02*
X196596000Y-81280000D01*
X202071000Y-73265000D02*
X201422000Y-73914000D01*
X203708000Y-73265000D02*
X202071000Y-73265000D01*
X180167880Y-138535138D02*
X179324000Y-137691258D01*
X182664000Y-143340000D02*
X182664000Y-144996000D01*
X182664000Y-144996000D02*
X181864000Y-145796000D01*
X171560718Y-127665235D02*
X173238233Y-129342750D01*
X171560718Y-127143282D02*
X171560718Y-127665235D01*
X176926286Y-131598914D02*
X176587686Y-131260314D01*
X178470823Y-131039806D02*
X177911715Y-131598914D01*
X177911715Y-131598914D02*
X176926286Y-131598914D01*
X174451483Y-130556000D02*
X173238233Y-129342750D01*
X174498000Y-130556000D02*
X174451483Y-130556000D01*
X199898000Y-90678000D02*
X196596000Y-87376000D01*
X199898000Y-100330000D02*
X199898000Y-90678000D01*
X193802000Y-106426000D02*
X199898000Y-100330000D01*
X190246000Y-106426000D02*
X193802000Y-106426000D01*
X178926718Y-126856718D02*
X179545436Y-126238000D01*
X180340000Y-126238000D02*
X184150000Y-122428000D01*
X179545436Y-126238000D02*
X180340000Y-126238000D01*
X184150000Y-122428000D02*
X184150000Y-112522000D01*
X196596000Y-87376000D02*
X196596000Y-82550000D01*
X184150000Y-112522000D02*
X190246000Y-106426000D01*
X179716629Y-129794000D02*
X178470823Y-131039806D01*
X180118564Y-129794000D02*
X179716629Y-129794000D01*
X181610000Y-128302564D02*
X180118564Y-129794000D01*
X181610000Y-127508000D02*
X181610000Y-128302564D01*
X198628000Y-86868000D02*
X201930000Y-90170000D01*
X201930000Y-90170000D02*
X201930000Y-100838000D01*
X201930000Y-100838000D02*
X194310000Y-108458000D01*
X186182000Y-113030000D02*
X186182000Y-122936000D01*
X199644000Y-73660000D02*
X199644000Y-80518000D01*
X200577500Y-71882000D02*
X200577500Y-72726500D01*
X198628000Y-81534000D02*
X198628000Y-86868000D01*
X200577500Y-72726500D02*
X199644000Y-73660000D01*
X199644000Y-80518000D02*
X198628000Y-81534000D01*
X194310000Y-108458000D02*
X190754000Y-108458000D01*
X190754000Y-108458000D02*
X186182000Y-113030000D01*
X178926718Y-126856718D02*
X177689282Y-126856718D01*
X177689282Y-126856718D02*
X177603686Y-126942314D01*
X167543235Y-132698718D02*
X166988718Y-132698718D01*
X168712750Y-133868233D02*
X167543235Y-132698718D01*
X175006000Y-137668000D02*
X175006000Y-141292854D01*
X171958000Y-134620000D02*
X175006000Y-137668000D01*
X175006000Y-141292854D02*
X173803918Y-142494936D01*
X168712750Y-133868233D02*
X169464517Y-134620000D01*
X169464517Y-134620000D02*
X171958000Y-134620000D01*
X171560718Y-127143282D02*
X170147436Y-125730000D01*
X170147436Y-125730000D02*
X169672000Y-125730000D01*
X167324594Y-129986594D02*
X167324594Y-131125406D01*
X166988718Y-131461282D02*
X166988718Y-132698718D01*
X167324594Y-131125406D02*
X166988718Y-131461282D01*
X166624000Y-128778000D02*
X166624000Y-129286000D01*
X166624000Y-129286000D02*
X167324594Y-129986594D01*
X182626000Y-126492000D02*
X182626000Y-128270000D01*
X182626000Y-126492000D02*
X181610000Y-127508000D01*
X186182000Y-122936000D02*
X182626000Y-126492000D01*
X183896000Y-132447000D02*
X185053000Y-133604000D01*
X183896000Y-132334000D02*
X183896000Y-132447000D01*
X179324000Y-137691258D02*
X178331258Y-137691258D01*
X178331258Y-137691258D02*
X178308000Y-137668000D01*
X211450000Y-140012500D02*
X211450000Y-134962500D01*
X211450000Y-141262500D02*
X211450000Y-140012500D01*
X211450000Y-141628500D02*
X211450000Y-141262500D01*
X189992000Y-141224000D02*
X192532000Y-143764000D01*
X186295000Y-141224000D02*
X189992000Y-141224000D01*
X192532000Y-143764000D02*
X207264000Y-143764000D01*
X207264000Y-143764000D02*
X208280000Y-142748000D01*
X210330500Y-142748000D02*
X211450000Y-141628500D01*
X208280000Y-142748000D02*
X210330500Y-142748000D01*
X170688000Y-142494000D02*
X170688000Y-145542000D01*
X173990000Y-146050000D02*
X173990000Y-145542000D01*
X171958000Y-146812000D02*
X173228000Y-146812000D01*
X173990000Y-145542000D02*
X173338718Y-144890718D01*
X169274718Y-141080718D02*
X170688000Y-142494000D01*
X170688000Y-145542000D02*
X171958000Y-146812000D01*
X173228000Y-146812000D02*
X173990000Y-146050000D01*
X200577500Y-69596000D02*
X200577500Y-70532000D01*
X200914000Y-69259500D02*
X200577500Y-69596000D01*
X200406000Y-68072000D02*
X200914000Y-68580000D01*
X194627500Y-69786500D02*
X195326000Y-69088000D01*
X200914000Y-68580000D02*
X200914000Y-69259500D01*
X199326500Y-68072000D02*
X200406000Y-68072000D01*
X194627500Y-70532000D02*
X194627500Y-69786500D01*
X195326000Y-69088000D02*
X198310500Y-69088000D01*
X198310500Y-69088000D02*
X199326500Y-68072000D01*
X199898000Y-86360000D02*
X199898000Y-84836000D01*
X202946000Y-89408000D02*
X199898000Y-86360000D01*
X204724000Y-91382000D02*
X204274000Y-90932000D01*
X204724000Y-92332000D02*
X204724000Y-91382000D01*
X204274000Y-90932000D02*
X203708000Y-90932000D01*
X203708000Y-90932000D02*
X202946000Y-90170000D01*
X202946000Y-90170000D02*
X202946000Y-89408000D01*
X204724000Y-92332000D02*
X204724000Y-92456000D01*
X204724000Y-92456000D02*
X203200000Y-93980000D01*
X181702113Y-138938000D02*
X180733565Y-137969452D01*
X184912000Y-138938000D02*
X181702113Y-138938000D01*
X203200000Y-93980000D02*
X203200000Y-94996000D01*
X186071282Y-137778718D02*
X184912000Y-138938000D01*
X172101282Y-143066201D02*
X172101282Y-143653282D01*
X173238233Y-141929250D02*
X172101282Y-143066201D01*
X171704000Y-144050564D02*
X172101282Y-143653282D01*
X172466000Y-145796000D02*
X171704000Y-145034000D01*
X171704000Y-145034000D02*
X171704000Y-144050564D01*
X173803918Y-128777064D02*
X174498000Y-128082982D01*
X174498000Y-128082982D02*
X174498000Y-126492000D01*
X174498000Y-126492000D02*
X172720000Y-124714000D01*
X172720000Y-124714000D02*
X171958000Y-124714000D01*
X167706982Y-134874000D02*
X168147064Y-134433918D01*
X166370000Y-130302000D02*
X166370000Y-130810000D01*
X166624000Y-134874000D02*
X167706982Y-134874000D01*
X165100000Y-133350000D02*
X166624000Y-134874000D01*
X166370000Y-130810000D02*
X165100000Y-132080000D01*
X165100000Y-132080000D02*
X165100000Y-133350000D01*
X174244000Y-137922000D02*
X174244000Y-140923483D01*
X174244000Y-140923483D02*
X173238233Y-141929250D01*
X171704000Y-135382000D02*
X174244000Y-137922000D01*
X168147064Y-134433918D02*
X169095146Y-135382000D01*
X169095146Y-135382000D02*
X171704000Y-135382000D01*
X188722000Y-132842000D02*
X187960000Y-133604000D01*
X187960000Y-133604000D02*
X186803000Y-133604000D01*
X202946000Y-86831500D02*
X202946000Y-87246000D01*
X204724000Y-88582000D02*
X204724000Y-89532000D01*
X204534000Y-88392000D02*
X204724000Y-88582000D01*
X203454000Y-88392000D02*
X204534000Y-88392000D01*
X202946000Y-86831500D02*
X202946000Y-87884000D01*
X202946000Y-87884000D02*
X203454000Y-88392000D01*
X205674000Y-89532000D02*
X206502000Y-90360000D01*
X204724000Y-89532000D02*
X205674000Y-89532000D01*
X206502000Y-90360000D02*
X206502000Y-92964000D01*
X206502000Y-92964000D02*
X205486000Y-93980000D01*
X177832564Y-125476000D02*
X177435282Y-125873282D01*
X175514000Y-131318000D02*
X177546000Y-133350000D01*
X178423371Y-133350000D02*
X179602194Y-132171177D01*
X177546000Y-133350000D02*
X178423371Y-133350000D01*
X176773767Y-129342750D02*
X175514000Y-130602517D01*
X175514000Y-130602517D02*
X175514000Y-131318000D01*
X177546000Y-128570517D02*
X176773767Y-129342750D01*
X177435282Y-125873282D02*
X176784000Y-126524564D01*
X177546000Y-128016000D02*
X177546000Y-128570517D01*
X176784000Y-127254000D02*
X177546000Y-128016000D01*
X176784000Y-126524564D02*
X176784000Y-127254000D01*
X178086564Y-125222000D02*
X177689282Y-125619282D01*
X179832000Y-125222000D02*
X178086564Y-125222000D01*
D23*
X179036509Y-139666509D02*
X180086000Y-140716000D01*
X180086000Y-140716000D02*
X180086000Y-142113000D01*
X180086000Y-142113000D02*
X181064000Y-143091000D01*
X180848001Y-143428999D02*
X181064000Y-143213000D01*
X180848001Y-145034000D02*
X180848001Y-143428999D01*
X184545000Y-141224000D02*
X182875000Y-141224000D01*
X180328371Y-139827000D02*
X179602194Y-139100823D01*
X182499000Y-140208000D02*
X182118000Y-139827000D01*
X182118000Y-139827000D02*
X180328371Y-139827000D01*
X182499000Y-140848000D02*
X182664000Y-141013000D01*
X182499000Y-140208000D02*
X182499000Y-140848000D01*
X181577436Y-130810000D02*
X181974718Y-130412718D01*
X179036509Y-131605491D02*
X179832000Y-130810000D01*
X179832000Y-130810000D02*
X181577436Y-130810000D01*
X171144831Y-128380718D02*
X172672548Y-129908435D01*
X170323282Y-128380718D02*
X171144831Y-128380718D01*
D25*
X197387000Y-77074000D02*
X196850000Y-77611000D01*
X197387000Y-73689000D02*
X197387000Y-77074000D01*
X197104000Y-73406000D02*
X197387000Y-73689000D01*
D23*
X197177500Y-71643749D02*
X197177500Y-71882000D01*
X197177500Y-71554500D02*
X197177500Y-71882000D01*
X198027500Y-70532000D02*
X198027500Y-70704500D01*
X198027500Y-70704500D02*
X197177500Y-71554500D01*
X197177500Y-72463500D02*
X198120000Y-73406000D01*
X197177500Y-71882000D02*
X197177500Y-72463500D01*
D25*
X197837000Y-73689000D02*
X197837000Y-77074000D01*
X198120000Y-73406000D02*
X197837000Y-73689000D01*
X197837000Y-77074000D02*
X198374000Y-77611000D01*
D24*
X202946000Y-82042000D02*
X202946000Y-83856500D01*
X201930000Y-81026000D02*
X202946000Y-82042000D01*
D23*
X201927500Y-69452000D02*
X201927500Y-67522000D01*
X201927500Y-70902000D02*
X201927500Y-69452000D01*
X193277500Y-67522000D02*
X193277500Y-70902000D01*
X193277500Y-70902000D02*
X193277500Y-73135500D01*
X193943000Y-73801000D02*
X193943000Y-74930000D01*
X193277500Y-73135500D02*
X193943000Y-73801000D01*
X193997500Y-66802000D02*
X193277500Y-67522000D01*
X201927500Y-67522000D02*
X201207500Y-66802000D01*
X201207500Y-66802000D02*
X193997500Y-66802000D01*
X203708000Y-70104000D02*
X203708000Y-71515000D01*
X198877500Y-69854506D02*
X199648007Y-69083999D01*
X198877500Y-70532000D02*
X198877500Y-69854506D01*
X199648007Y-69083999D02*
X199898006Y-68834000D01*
X194310000Y-76454000D02*
X194310000Y-77611000D01*
D25*
X196850000Y-79361000D02*
X197387000Y-79898000D01*
X197387000Y-79898000D02*
X197387000Y-87215200D01*
X197387000Y-87215200D02*
X200689000Y-90517200D01*
X200689000Y-90517200D02*
X200689000Y-100490800D01*
X200689000Y-100490800D02*
X193962800Y-107217000D01*
X193962800Y-107217000D02*
X190406800Y-107217000D01*
X190406800Y-107217000D02*
X184941000Y-112682800D01*
X177586939Y-129908435D02*
X177339452Y-129908435D01*
X184941000Y-112682800D02*
X184941000Y-122554374D01*
X184941000Y-122554374D02*
X177586939Y-129908435D01*
X198374000Y-79361000D02*
X197837000Y-79898000D01*
X197837000Y-79898000D02*
X197837000Y-87028800D01*
X197837000Y-87028800D02*
X201139000Y-90330800D01*
X201139000Y-90330800D02*
X201139000Y-100677200D01*
X201139000Y-100677200D02*
X194149200Y-107667000D01*
X194149200Y-107667000D02*
X190593200Y-107667000D01*
X190593200Y-107667000D02*
X185391000Y-112869200D01*
X185391000Y-122740772D02*
X177905138Y-130226634D01*
X185391000Y-112869200D02*
X185391000Y-122740772D01*
X177905138Y-130226634D02*
X177905138Y-130474120D01*
D23*
X167132000Y-137853146D02*
X168147064Y-136838082D01*
X168037282Y-139843282D02*
X167132000Y-138938000D01*
X167132000Y-138938000D02*
X167132000Y-137853146D01*
X186703469Y-136541282D02*
X187308718Y-136541282D01*
X185784718Y-136541282D02*
X186703469Y-136541282D01*
X181299250Y-137403767D02*
X182071483Y-138176000D01*
X184150000Y-138176000D02*
X185784718Y-136541282D01*
X182071483Y-138176000D02*
X184150000Y-138176000D01*
X207650000Y-141262500D02*
X207650000Y-134962500D01*
X207650000Y-141600000D02*
X207650000Y-141262500D01*
X190975436Y-140208000D02*
X194564000Y-140208000D01*
X187308718Y-136541282D02*
X190975436Y-140208000D01*
X194564000Y-140208000D02*
X197104000Y-142748000D01*
X206502000Y-142748000D02*
X207650000Y-141600000D01*
X197104000Y-142748000D02*
X206502000Y-142748000D01*
D26*
G36*
X188087000Y-139752606D02*
G01*
X188087000Y-146977500D01*
X186778228Y-146977500D01*
X187082032Y-146774504D01*
X187382754Y-146473782D01*
X187619031Y-146120170D01*
X187781780Y-145727257D01*
X187864750Y-145310143D01*
X187864750Y-144884857D01*
X187781780Y-144467743D01*
X187619031Y-144074830D01*
X187382754Y-143721218D01*
X187082032Y-143420496D01*
X186728420Y-143184219D01*
X186335507Y-143021470D01*
X185918393Y-142938500D01*
X185493107Y-142938500D01*
X185075993Y-143021470D01*
X184683080Y-143184219D01*
X184329468Y-143420496D01*
X184028746Y-143721218D01*
X183902056Y-143910822D01*
X183899000Y-143498750D01*
X183740250Y-143340000D01*
X182791000Y-143340000D01*
X182791000Y-144389250D01*
X182949750Y-144548000D01*
X183264000Y-144551072D01*
X183388482Y-144538812D01*
X183508180Y-144502502D01*
X183618494Y-144443537D01*
X183650691Y-144417113D01*
X183629720Y-144467743D01*
X183546750Y-144884857D01*
X183546750Y-145310143D01*
X183629720Y-145727257D01*
X183792469Y-146120170D01*
X184028746Y-146473782D01*
X184329468Y-146774504D01*
X184633272Y-146977500D01*
X173065106Y-146977500D01*
X172846340Y-146758734D01*
X172956256Y-146713205D01*
X173125774Y-146599937D01*
X173269937Y-146455774D01*
X173383205Y-146286256D01*
X173405340Y-146232817D01*
X173498555Y-146223636D01*
X173618253Y-146187327D01*
X173728567Y-146128363D01*
X173825258Y-146049010D01*
X173956906Y-145913018D01*
X173956906Y-145688511D01*
X173777395Y-145509000D01*
X177934929Y-145509000D01*
X177947189Y-145633482D01*
X177983499Y-145753180D01*
X178042464Y-145863494D01*
X178121816Y-145960185D01*
X178218507Y-146039537D01*
X178328821Y-146098502D01*
X178448519Y-146134812D01*
X178573001Y-146147072D01*
X178812251Y-146144000D01*
X178971001Y-145985250D01*
X178971001Y-145161000D01*
X178096751Y-145161000D01*
X177938001Y-145319750D01*
X177934929Y-145509000D01*
X173777395Y-145509000D01*
X173338718Y-145070323D01*
X173324576Y-145084466D01*
X173144971Y-144904861D01*
X173159113Y-144890718D01*
X173518323Y-144890718D01*
X174136511Y-145508906D01*
X174361018Y-145508906D01*
X174497010Y-145377258D01*
X174576363Y-145280567D01*
X174635327Y-145170253D01*
X174671636Y-145050555D01*
X174683897Y-144926073D01*
X174671636Y-144801592D01*
X174635327Y-144681894D01*
X174576363Y-144571579D01*
X174566040Y-144559000D01*
X177934929Y-144559000D01*
X177938001Y-144748250D01*
X178096751Y-144907000D01*
X178971001Y-144907000D01*
X178971001Y-144082750D01*
X178812251Y-143924000D01*
X178573001Y-143920928D01*
X178448519Y-143933188D01*
X178328821Y-143969498D01*
X178218507Y-144028463D01*
X178121816Y-144107815D01*
X178042464Y-144204506D01*
X177983499Y-144314820D01*
X177947189Y-144434518D01*
X177934929Y-144559000D01*
X174566040Y-144559000D01*
X174497010Y-144474888D01*
X174325662Y-144307885D01*
X174101156Y-144307885D01*
X173518323Y-144890718D01*
X173159113Y-144890718D01*
X173144971Y-144876576D01*
X173324576Y-144696971D01*
X173338718Y-144711113D01*
X173921551Y-144128280D01*
X173921551Y-143903774D01*
X173789177Y-143767956D01*
X173825203Y-143748466D01*
X173921494Y-143668628D01*
X174245329Y-143340459D01*
X174245329Y-143115953D01*
X173803918Y-142674541D01*
X173789776Y-142688684D01*
X173779927Y-142678835D01*
X173987817Y-142470945D01*
X173997666Y-142480794D01*
X173983523Y-142494936D01*
X174424935Y-142936347D01*
X174649441Y-142936347D01*
X174977610Y-142612512D01*
X175005936Y-142578348D01*
X175032113Y-142610245D01*
X176092773Y-143670905D01*
X176189464Y-143750257D01*
X176299778Y-143809222D01*
X176419476Y-143845532D01*
X176543958Y-143857792D01*
X176668440Y-143845532D01*
X176788138Y-143809222D01*
X176898452Y-143750257D01*
X176995143Y-143670905D01*
X177384051Y-143281997D01*
X177463403Y-143185306D01*
X177463659Y-143184826D01*
X177464137Y-143184571D01*
X177560828Y-143105219D01*
X177949736Y-142716311D01*
X178029088Y-142619620D01*
X178029344Y-142619142D01*
X178029822Y-142618886D01*
X178126513Y-142539534D01*
X178515421Y-142150626D01*
X178594773Y-142053935D01*
X178595028Y-142053457D01*
X178595508Y-142053201D01*
X178692199Y-141973849D01*
X179081107Y-141584941D01*
X179160459Y-141488250D01*
X179160715Y-141487770D01*
X179161193Y-141487515D01*
X179257884Y-141408163D01*
X179326000Y-141340047D01*
X179326001Y-142075668D01*
X179322324Y-142113000D01*
X179326001Y-142150333D01*
X179336998Y-142261986D01*
X179345808Y-142291029D01*
X179380454Y-142405246D01*
X179451026Y-142537276D01*
X179518605Y-142619620D01*
X179546000Y-142653001D01*
X179574998Y-142676799D01*
X179825928Y-142927729D01*
X179825928Y-143913000D01*
X179830393Y-143958339D01*
X179747483Y-143933188D01*
X179623001Y-143920928D01*
X179383751Y-143924000D01*
X179225001Y-144082750D01*
X179225001Y-144907000D01*
X179245001Y-144907000D01*
X179245001Y-145161000D01*
X179225001Y-145161000D01*
X179225001Y-145985250D01*
X179383751Y-146144000D01*
X179623001Y-146147072D01*
X179747483Y-146134812D01*
X179867181Y-146098502D01*
X179977495Y-146039537D01*
X180050162Y-145979901D01*
X180074059Y-145999512D01*
X180225434Y-146080423D01*
X180389685Y-146130248D01*
X180560501Y-146147072D01*
X181135501Y-146147072D01*
X181306317Y-146130248D01*
X181470568Y-146080423D01*
X181621943Y-145999512D01*
X181754624Y-145890623D01*
X181863513Y-145757942D01*
X181944424Y-145606567D01*
X181994249Y-145442316D01*
X182011073Y-145271500D01*
X182011073Y-144796500D01*
X181994249Y-144625684D01*
X181968771Y-144541693D01*
X182064000Y-144551072D01*
X182378250Y-144548000D01*
X182537000Y-144389250D01*
X182537000Y-143340000D01*
X182517000Y-143340000D01*
X182517000Y-143086000D01*
X182537000Y-143086000D01*
X182537000Y-143066000D01*
X182791000Y-143066000D01*
X182791000Y-143086000D01*
X183740250Y-143086000D01*
X183899000Y-142927250D01*
X183902072Y-142513000D01*
X183889812Y-142388518D01*
X183853502Y-142268820D01*
X183827130Y-142219483D01*
X183922433Y-142270423D01*
X184086684Y-142320248D01*
X184257500Y-142337072D01*
X184832500Y-142337072D01*
X185003316Y-142320248D01*
X185167567Y-142270423D01*
X185318942Y-142189512D01*
X185342839Y-142169901D01*
X185415506Y-142229537D01*
X185525820Y-142288502D01*
X185645518Y-142324812D01*
X185770000Y-142337072D01*
X186009250Y-142334000D01*
X186168000Y-142175250D01*
X186168000Y-141351000D01*
X186422000Y-141351000D01*
X186422000Y-142175250D01*
X186580750Y-142334000D01*
X186820000Y-142337072D01*
X186944482Y-142324812D01*
X187064180Y-142288502D01*
X187174494Y-142229537D01*
X187271185Y-142150185D01*
X187350537Y-142053494D01*
X187409502Y-141943180D01*
X187445812Y-141823482D01*
X187458072Y-141699000D01*
X187455000Y-141509750D01*
X187296250Y-141351000D01*
X186422000Y-141351000D01*
X186168000Y-141351000D01*
X186148000Y-141351000D01*
X186148000Y-141097000D01*
X186168000Y-141097000D01*
X186168000Y-140272750D01*
X186422000Y-140272750D01*
X186422000Y-141097000D01*
X187296250Y-141097000D01*
X187455000Y-140938250D01*
X187458072Y-140749000D01*
X187445812Y-140624518D01*
X187409502Y-140504820D01*
X187350537Y-140394506D01*
X187271185Y-140297815D01*
X187174494Y-140218463D01*
X187064180Y-140159498D01*
X186944482Y-140123188D01*
X186820000Y-140110928D01*
X186580750Y-140114000D01*
X186422000Y-140272750D01*
X186168000Y-140272750D01*
X186009250Y-140114000D01*
X185770000Y-140110928D01*
X185645518Y-140123188D01*
X185525820Y-140159498D01*
X185415506Y-140218463D01*
X185342839Y-140278099D01*
X185318942Y-140258488D01*
X185167567Y-140177577D01*
X185003316Y-140127752D01*
X184832500Y-140110928D01*
X184257500Y-140110928D01*
X184086684Y-140127752D01*
X183922433Y-140177577D01*
X183890420Y-140194688D01*
X183889812Y-140188518D01*
X183853502Y-140068820D01*
X183794537Y-139958506D01*
X183715185Y-139861815D01*
X183618494Y-139782463D01*
X183600790Y-139773000D01*
X184298715Y-139773000D01*
X184421744Y-139855205D01*
X184610102Y-139933226D01*
X184810061Y-139973000D01*
X185013939Y-139973000D01*
X185213898Y-139933226D01*
X185402256Y-139855205D01*
X185571774Y-139741937D01*
X185715937Y-139597774D01*
X185829205Y-139428256D01*
X185907226Y-139239898D01*
X185936093Y-139094775D01*
X186008088Y-139022779D01*
X186035927Y-139025521D01*
X186206743Y-139008697D01*
X186370994Y-138958872D01*
X186522369Y-138877961D01*
X186655050Y-138769072D01*
X186879258Y-138544864D01*
X188087000Y-139752606D01*
G37*
X188087000Y-139752606D02*
X188087000Y-146977500D01*
X186778228Y-146977500D01*
X187082032Y-146774504D01*
X187382754Y-146473782D01*
X187619031Y-146120170D01*
X187781780Y-145727257D01*
X187864750Y-145310143D01*
X187864750Y-144884857D01*
X187781780Y-144467743D01*
X187619031Y-144074830D01*
X187382754Y-143721218D01*
X187082032Y-143420496D01*
X186728420Y-143184219D01*
X186335507Y-143021470D01*
X185918393Y-142938500D01*
X185493107Y-142938500D01*
X185075993Y-143021470D01*
X184683080Y-143184219D01*
X184329468Y-143420496D01*
X184028746Y-143721218D01*
X183902056Y-143910822D01*
X183899000Y-143498750D01*
X183740250Y-143340000D01*
X182791000Y-143340000D01*
X182791000Y-144389250D01*
X182949750Y-144548000D01*
X183264000Y-144551072D01*
X183388482Y-144538812D01*
X183508180Y-144502502D01*
X183618494Y-144443537D01*
X183650691Y-144417113D01*
X183629720Y-144467743D01*
X183546750Y-144884857D01*
X183546750Y-145310143D01*
X183629720Y-145727257D01*
X183792469Y-146120170D01*
X184028746Y-146473782D01*
X184329468Y-146774504D01*
X184633272Y-146977500D01*
X173065106Y-146977500D01*
X172846340Y-146758734D01*
X172956256Y-146713205D01*
X173125774Y-146599937D01*
X173269937Y-146455774D01*
X173383205Y-146286256D01*
X173405340Y-146232817D01*
X173498555Y-146223636D01*
X173618253Y-146187327D01*
X173728567Y-146128363D01*
X173825258Y-146049010D01*
X173956906Y-145913018D01*
X173956906Y-145688511D01*
X173777395Y-145509000D01*
X177934929Y-145509000D01*
X177947189Y-145633482D01*
X177983499Y-145753180D01*
X178042464Y-145863494D01*
X178121816Y-145960185D01*
X178218507Y-146039537D01*
X178328821Y-146098502D01*
X178448519Y-146134812D01*
X178573001Y-146147072D01*
X178812251Y-146144000D01*
X178971001Y-145985250D01*
X178971001Y-145161000D01*
X178096751Y-145161000D01*
X177938001Y-145319750D01*
X177934929Y-145509000D01*
X173777395Y-145509000D01*
X173338718Y-145070323D01*
X173324576Y-145084466D01*
X173144971Y-144904861D01*
X173159113Y-144890718D01*
X173518323Y-144890718D01*
X174136511Y-145508906D01*
X174361018Y-145508906D01*
X174497010Y-145377258D01*
X174576363Y-145280567D01*
X174635327Y-145170253D01*
X174671636Y-145050555D01*
X174683897Y-144926073D01*
X174671636Y-144801592D01*
X174635327Y-144681894D01*
X174576363Y-144571579D01*
X174566040Y-144559000D01*
X177934929Y-144559000D01*
X177938001Y-144748250D01*
X178096751Y-144907000D01*
X178971001Y-144907000D01*
X178971001Y-144082750D01*
X178812251Y-143924000D01*
X178573001Y-143920928D01*
X178448519Y-143933188D01*
X178328821Y-143969498D01*
X178218507Y-144028463D01*
X178121816Y-144107815D01*
X178042464Y-144204506D01*
X177983499Y-144314820D01*
X177947189Y-144434518D01*
X177934929Y-144559000D01*
X174566040Y-144559000D01*
X174497010Y-144474888D01*
X174325662Y-144307885D01*
X174101156Y-144307885D01*
X173518323Y-144890718D01*
X173159113Y-144890718D01*
X173144971Y-144876576D01*
X173324576Y-144696971D01*
X173338718Y-144711113D01*
X173921551Y-144128280D01*
X173921551Y-143903774D01*
X173789177Y-143767956D01*
X173825203Y-143748466D01*
X173921494Y-143668628D01*
X174245329Y-143340459D01*
X174245329Y-143115953D01*
X173803918Y-142674541D01*
X173789776Y-142688684D01*
X173779927Y-142678835D01*
X173987817Y-142470945D01*
X173997666Y-142480794D01*
X173983523Y-142494936D01*
X174424935Y-142936347D01*
X174649441Y-142936347D01*
X174977610Y-142612512D01*
X175005936Y-142578348D01*
X175032113Y-142610245D01*
X176092773Y-143670905D01*
X176189464Y-143750257D01*
X176299778Y-143809222D01*
X176419476Y-143845532D01*
X176543958Y-143857792D01*
X176668440Y-143845532D01*
X176788138Y-143809222D01*
X176898452Y-143750257D01*
X176995143Y-143670905D01*
X177384051Y-143281997D01*
X177463403Y-143185306D01*
X177463659Y-143184826D01*
X177464137Y-143184571D01*
X177560828Y-143105219D01*
X177949736Y-142716311D01*
X178029088Y-142619620D01*
X178029344Y-142619142D01*
X178029822Y-142618886D01*
X178126513Y-142539534D01*
X178515421Y-142150626D01*
X178594773Y-142053935D01*
X178595028Y-142053457D01*
X178595508Y-142053201D01*
X178692199Y-141973849D01*
X179081107Y-141584941D01*
X179160459Y-141488250D01*
X179160715Y-141487770D01*
X179161193Y-141487515D01*
X179257884Y-141408163D01*
X179326000Y-141340047D01*
X179326001Y-142075668D01*
X179322324Y-142113000D01*
X179326001Y-142150333D01*
X179336998Y-142261986D01*
X179345808Y-142291029D01*
X179380454Y-142405246D01*
X179451026Y-142537276D01*
X179518605Y-142619620D01*
X179546000Y-142653001D01*
X179574998Y-142676799D01*
X179825928Y-142927729D01*
X179825928Y-143913000D01*
X179830393Y-143958339D01*
X179747483Y-143933188D01*
X179623001Y-143920928D01*
X179383751Y-143924000D01*
X179225001Y-144082750D01*
X179225001Y-144907000D01*
X179245001Y-144907000D01*
X179245001Y-145161000D01*
X179225001Y-145161000D01*
X179225001Y-145985250D01*
X179383751Y-146144000D01*
X179623001Y-146147072D01*
X179747483Y-146134812D01*
X179867181Y-146098502D01*
X179977495Y-146039537D01*
X180050162Y-145979901D01*
X180074059Y-145999512D01*
X180225434Y-146080423D01*
X180389685Y-146130248D01*
X180560501Y-146147072D01*
X181135501Y-146147072D01*
X181306317Y-146130248D01*
X181470568Y-146080423D01*
X181621943Y-145999512D01*
X181754624Y-145890623D01*
X181863513Y-145757942D01*
X181944424Y-145606567D01*
X181994249Y-145442316D01*
X182011073Y-145271500D01*
X182011073Y-144796500D01*
X181994249Y-144625684D01*
X181968771Y-144541693D01*
X182064000Y-144551072D01*
X182378250Y-144548000D01*
X182537000Y-144389250D01*
X182537000Y-143340000D01*
X182517000Y-143340000D01*
X182517000Y-143086000D01*
X182537000Y-143086000D01*
X182537000Y-143066000D01*
X182791000Y-143066000D01*
X182791000Y-143086000D01*
X183740250Y-143086000D01*
X183899000Y-142927250D01*
X183902072Y-142513000D01*
X183889812Y-142388518D01*
X183853502Y-142268820D01*
X183827130Y-142219483D01*
X183922433Y-142270423D01*
X184086684Y-142320248D01*
X184257500Y-142337072D01*
X184832500Y-142337072D01*
X185003316Y-142320248D01*
X185167567Y-142270423D01*
X185318942Y-142189512D01*
X185342839Y-142169901D01*
X185415506Y-142229537D01*
X185525820Y-142288502D01*
X185645518Y-142324812D01*
X185770000Y-142337072D01*
X186009250Y-142334000D01*
X186168000Y-142175250D01*
X186168000Y-141351000D01*
X186422000Y-141351000D01*
X186422000Y-142175250D01*
X186580750Y-142334000D01*
X186820000Y-142337072D01*
X186944482Y-142324812D01*
X187064180Y-142288502D01*
X187174494Y-142229537D01*
X187271185Y-142150185D01*
X187350537Y-142053494D01*
X187409502Y-141943180D01*
X187445812Y-141823482D01*
X187458072Y-141699000D01*
X187455000Y-141509750D01*
X187296250Y-141351000D01*
X186422000Y-141351000D01*
X186168000Y-141351000D01*
X186148000Y-141351000D01*
X186148000Y-141097000D01*
X186168000Y-141097000D01*
X186168000Y-140272750D01*
X186422000Y-140272750D01*
X186422000Y-141097000D01*
X187296250Y-141097000D01*
X187455000Y-140938250D01*
X187458072Y-140749000D01*
X187445812Y-140624518D01*
X187409502Y-140504820D01*
X187350537Y-140394506D01*
X187271185Y-140297815D01*
X187174494Y-140218463D01*
X187064180Y-140159498D01*
X186944482Y-140123188D01*
X186820000Y-140110928D01*
X186580750Y-140114000D01*
X186422000Y-140272750D01*
X186168000Y-140272750D01*
X186009250Y-140114000D01*
X185770000Y-140110928D01*
X185645518Y-140123188D01*
X185525820Y-140159498D01*
X185415506Y-140218463D01*
X185342839Y-140278099D01*
X185318942Y-140258488D01*
X185167567Y-140177577D01*
X185003316Y-140127752D01*
X184832500Y-140110928D01*
X184257500Y-140110928D01*
X184086684Y-140127752D01*
X183922433Y-140177577D01*
X183890420Y-140194688D01*
X183889812Y-140188518D01*
X183853502Y-140068820D01*
X183794537Y-139958506D01*
X183715185Y-139861815D01*
X183618494Y-139782463D01*
X183600790Y-139773000D01*
X184298715Y-139773000D01*
X184421744Y-139855205D01*
X184610102Y-139933226D01*
X184810061Y-139973000D01*
X185013939Y-139973000D01*
X185213898Y-139933226D01*
X185402256Y-139855205D01*
X185571774Y-139741937D01*
X185715937Y-139597774D01*
X185829205Y-139428256D01*
X185907226Y-139239898D01*
X185936093Y-139094775D01*
X186008088Y-139022779D01*
X186035927Y-139025521D01*
X186206743Y-139008697D01*
X186370994Y-138958872D01*
X186522369Y-138877961D01*
X186655050Y-138769072D01*
X186879258Y-138544864D01*
X188087000Y-139752606D01*
G36*
X179370709Y-137633576D02*
G01*
X179382113Y-137749371D01*
X179266318Y-137737967D01*
X179141836Y-137750227D01*
X179116703Y-137757851D01*
X178986481Y-137757851D01*
X178912912Y-137844920D01*
X178911824Y-137845502D01*
X178815133Y-137924854D01*
X178426225Y-138313762D01*
X178346873Y-138410453D01*
X178346617Y-138410933D01*
X178346139Y-138411188D01*
X178249448Y-138490540D01*
X177860540Y-138879448D01*
X177781188Y-138976139D01*
X177780933Y-138976617D01*
X177780453Y-138976873D01*
X177683762Y-139056225D01*
X177294854Y-139445133D01*
X177215502Y-139541824D01*
X177215246Y-139542304D01*
X177214768Y-139542559D01*
X177118077Y-139621911D01*
X176729169Y-140010819D01*
X176649817Y-140107510D01*
X176649562Y-140107988D01*
X176649082Y-140108244D01*
X176552391Y-140187596D01*
X176163483Y-140576504D01*
X176084131Y-140673195D01*
X176083875Y-140673673D01*
X176083397Y-140673929D01*
X175986706Y-140753281D01*
X175597798Y-141142189D01*
X175518446Y-141238880D01*
X175518190Y-141239360D01*
X175517712Y-141239615D01*
X175421021Y-141318967D01*
X175032113Y-141707875D01*
X175004987Y-141740928D01*
X174985317Y-141717649D01*
X174760813Y-141717649D01*
X174873065Y-141605397D01*
X174808264Y-141540596D01*
X174837291Y-141516774D01*
X174941636Y-141389629D01*
X175019172Y-141244570D01*
X175066918Y-141087172D01*
X175079000Y-140964502D01*
X175079000Y-140964492D01*
X175083039Y-140923484D01*
X175079000Y-140882476D01*
X175079000Y-137963007D01*
X175083039Y-137921999D01*
X175079000Y-137880991D01*
X175079000Y-137880981D01*
X175066918Y-137758311D01*
X175019172Y-137600913D01*
X175012039Y-137587567D01*
X175058606Y-137541000D01*
X179379827Y-137541000D01*
X179370709Y-137633576D01*
G37*
X179370709Y-137633576D02*
X179382113Y-137749371D01*
X179266318Y-137737967D01*
X179141836Y-137750227D01*
X179116703Y-137757851D01*
X178986481Y-137757851D01*
X178912912Y-137844920D01*
X178911824Y-137845502D01*
X178815133Y-137924854D01*
X178426225Y-138313762D01*
X178346873Y-138410453D01*
X178346617Y-138410933D01*
X178346139Y-138411188D01*
X178249448Y-138490540D01*
X177860540Y-138879448D01*
X177781188Y-138976139D01*
X177780933Y-138976617D01*
X177780453Y-138976873D01*
X177683762Y-139056225D01*
X177294854Y-139445133D01*
X177215502Y-139541824D01*
X177215246Y-139542304D01*
X177214768Y-139542559D01*
X177118077Y-139621911D01*
X176729169Y-140010819D01*
X176649817Y-140107510D01*
X176649562Y-140107988D01*
X176649082Y-140108244D01*
X176552391Y-140187596D01*
X176163483Y-140576504D01*
X176084131Y-140673195D01*
X176083875Y-140673673D01*
X176083397Y-140673929D01*
X175986706Y-140753281D01*
X175597798Y-141142189D01*
X175518446Y-141238880D01*
X175518190Y-141239360D01*
X175517712Y-141239615D01*
X175421021Y-141318967D01*
X175032113Y-141707875D01*
X175004987Y-141740928D01*
X174985317Y-141717649D01*
X174760813Y-141717649D01*
X174873065Y-141605397D01*
X174808264Y-141540596D01*
X174837291Y-141516774D01*
X174941636Y-141389629D01*
X175019172Y-141244570D01*
X175066918Y-141087172D01*
X175079000Y-140964502D01*
X175079000Y-140964492D01*
X175083039Y-140923484D01*
X175079000Y-140882476D01*
X175079000Y-137963007D01*
X175083039Y-137921999D01*
X175079000Y-137880991D01*
X175079000Y-137880981D01*
X175066918Y-137758311D01*
X175019172Y-137600913D01*
X175012039Y-137587567D01*
X175058606Y-137541000D01*
X179379827Y-137541000D01*
X179370709Y-137633576D01*
G36*
X181191000Y-140886000D02*
G01*
X181211000Y-140886000D01*
X181211000Y-141140000D01*
X181191000Y-141140000D01*
X181191000Y-141160000D01*
X180937000Y-141160000D01*
X180937000Y-141140000D01*
X180917000Y-141140000D01*
X180917000Y-140886000D01*
X180937000Y-140886000D01*
X180937000Y-140866000D01*
X181191000Y-140866000D01*
X181191000Y-140886000D01*
G37*
X181191000Y-140886000D02*
X181211000Y-140886000D01*
X181211000Y-141140000D01*
X181191000Y-141140000D01*
X181191000Y-141160000D01*
X180937000Y-141160000D01*
X180937000Y-141140000D01*
X180917000Y-141140000D01*
X180917000Y-140886000D01*
X180937000Y-140886000D01*
X180937000Y-140866000D01*
X181191000Y-140866000D01*
X181191000Y-140886000D01*
M02*
