M48
; DRILL file {KiCad 5.1.5} date Thu 26 Dec 2019 05:57:15 JST
; FORMAT={-:-/ absolute / metric / decimal}
; #@! TF.CreationDate,2019-12-26T05:57:15+09:00
; #@! TF.GenerationSoftware,Kicad,Pcbnew,5.1.5
FMAT,2
METRIC
T1C0.300
T2C0.400
T3C0.600
T4C2.200
T5C1.750
T6C3.000
T7C3.048
T8C3.988
%
G90
G05
T1
X103.378Y-82.804
X104.648Y-90.424
X109.982Y-106.172
X122.428Y-82.804
X123.952Y-90.424
X129.032Y-114.554
X133.604Y-121.92
X134.874Y-102.87
X141.224Y-82.804
X141.732Y-117.602
X143.256Y-90.424
X147.32Y-102.616
X149.86Y-120.396
X152.146Y-113.792
X159.004Y-121.666
X161.036Y-126.492
X161.798Y-99.568
X162.814Y-127.254
X165.608Y-113.792
X166.116Y-125.984
X166.37Y-117.602
X166.37Y-122.936
X166.37Y-124.714
X168.148Y-111.506
X168.402Y-102.108
X168.402Y-122.428
X168.402Y-123.698
X169.672Y-130.302
X169.926Y-136.144
X170.688Y-129.794
X170.688Y-136.144
X171.45Y-136.652
X171.704Y-138.176
X173.228Y-104.14
X173.228Y-139.192
X173.482Y-139.954
X175.006Y-135.89
X176.53Y-87.884
X177.8Y-136.398
X178.816Y-83.566
X180.086Y-110.49
X181.356Y-104.648
X181.864Y-107.188
X182.372Y-109.474
X182.88Y-75.438
X183.134Y-110.236
X183.134Y-111.76
X183.134Y-121.412
X183.642Y-94.742
X183.896Y-110.744
X184.15Y-104.902
X184.404Y-108.204
X184.658Y-91.186
X187.706Y-118.872
X188.468Y-131.318
X188.722Y-112.522
X190.754Y-110.49
X191.516Y-130.556
X191.77Y-109.474
X193.294Y-113.03
X194.31Y-76.454
X197.104Y-73.406
X198.12Y-73.406
X198.882Y-117.602
X199.136Y-100.076
X199.898Y-68.834
X202.946Y-80.518
X203.2Y-123.952
X203.708Y-70.104
X204.47Y-95.25
X204.978Y-122.428
X204.978Y-125.73
X207.01Y-95.25
T2
X194.627Y-70.532
X194.627Y-71.882
X195.477Y-70.532
X195.477Y-71.882
X196.327Y-70.532
X196.327Y-71.882
X197.177Y-70.532
X197.177Y-71.882
X198.028Y-70.532
X198.028Y-71.882
X198.877Y-70.532
X198.877Y-71.882
X199.727Y-70.532
X199.727Y-71.882
X200.577Y-70.532
X200.577Y-71.882
T3
X166.37Y-130.302
X166.624Y-128.778
X169.672Y-125.73
X171.958Y-124.714
X172.466Y-145.796
X174.498Y-130.556
X176.022Y-146.558
X176.588Y-131.26
X177.292Y-144.526
X177.604Y-126.942
X179.324Y-143.256
X179.832Y-125.222
X180.086Y-146.558
X181.064Y-141.013
X182.626Y-128.27
X182.626Y-145.288
X183.896Y-132.334
X184.404Y-142.748
X184.912Y-138.938
X187.198Y-142.875
X188.722Y-132.842
X199.898Y-84.836
X200.66Y-76.454
X201.422Y-73.914
X201.93Y-81.026
X203.2Y-94.996
X205.486Y-93.98
T4
X147.637Y-109.537
X83.344Y-126.206
X221.456Y-73.819
X100.012Y-73.819
X221.456Y-145.256
T5
X109.22Y-100.012
X119.38Y-100.012
X113.983Y-119.062
X124.142Y-119.062
X152.082Y-119.062
X162.243Y-119.062
X185.42Y-100.012
X195.58Y-100.012
X171.132Y-119.062
X181.292Y-119.062
X190.183Y-119.062
X200.343Y-119.062
X142.558Y-80.962
X152.718Y-80.962
X123.507Y-80.962
X133.667Y-80.962
X204.47Y-80.962
X214.63Y-80.962
X133.032Y-119.062
X143.192Y-119.062
X85.407Y-80.962
X95.567Y-80.962
X180.657Y-80.962
X190.817Y-80.962
X192.564Y-138.112
X202.724Y-138.112
X166.37Y-100.012
X176.53Y-100.012
X87.789Y-100.012
X97.949Y-100.012
X147.32Y-100.012
X157.48Y-100.012
X161.607Y-80.962
X171.767Y-80.962
X104.457Y-80.962
X114.617Y-80.962
X209.232Y-119.062
X219.392Y-119.062
X128.27Y-100.012
X138.43Y-100.012
X90.17Y-119.062
X100.33Y-119.062
X206.851Y-100.012
X217.011Y-100.012
T6
X115.252Y-116.522
X121.602Y-113.983
X153.352Y-116.522
X159.702Y-113.983
X186.69Y-97.472
X193.04Y-94.932
X172.403Y-116.522
X178.752Y-113.983
X191.452Y-116.522
X197.802Y-113.983
X143.827Y-78.422
X150.177Y-75.882
X124.777Y-78.422
X131.127Y-75.882
X205.74Y-78.422
X212.09Y-75.882
X134.302Y-116.522
X140.653Y-113.983
X86.677Y-78.422
X93.027Y-75.882
X181.927Y-78.422
X188.278Y-75.882
X193.834Y-135.572
X193.834Y-135.572
X200.184Y-133.032
X200.184Y-133.032
X167.64Y-97.472
X173.99Y-94.932
X89.059Y-97.472
X89.059Y-97.472
X95.409Y-94.932
X95.409Y-94.932
X148.59Y-97.472
X154.94Y-94.932
X162.877Y-78.422
X169.227Y-75.882
X105.727Y-78.422
X112.078Y-75.882
X210.502Y-116.522
X216.852Y-113.983
X129.54Y-97.472
X135.89Y-94.932
X91.44Y-116.522
X97.79Y-113.983
X208.121Y-97.472
X208.121Y-97.472
X214.471Y-94.932
X214.471Y-94.932
X110.49Y-97.472
X116.84Y-94.932
T7
X185.706Y-145.097
X209.582Y-145.097
T8
X209.55Y-80.962
X138.112Y-119.062
X90.487Y-80.962
X185.737Y-80.962
X185.706Y-129.857
X197.644Y-138.112
X209.582Y-129.857
X171.45Y-100.012
X92.869Y-100.012
X152.4Y-100.012
X166.688Y-80.962
X109.537Y-80.962
X214.312Y-119.062
X133.35Y-100.012
X95.25Y-119.062
X211.931Y-100.012
X114.3Y-100.012
X119.062Y-119.062
X157.162Y-119.062
X190.5Y-100.012
X176.213Y-119.062
X195.262Y-119.062
X147.637Y-80.962
X128.588Y-80.962
T3
G00X193.278Y-67.122
M15
G01X193.278Y-67.922
M16
G05
G00X193.278Y-70.152
M15
G01X193.278Y-71.652
M16
G05
G00X201.927Y-67.122
M15
G01X201.927Y-67.922
M16
G05
G00X201.927Y-70.152
M15
G01X201.927Y-71.652
M16
G05
T0
M30
