G04 #@! TF.GenerationSoftware,KiCad,Pcbnew,5.1.5*
G04 #@! TF.CreationDate,2019-12-26T05:57:11+09:00*
G04 #@! TF.ProjectId,half_qwerty,68616c66-5f71-4776-9572-74792e6b6963,rev?*
G04 #@! TF.SameCoordinates,Original*
G04 #@! TF.FileFunction,Soldermask,Top*
G04 #@! TF.FilePolarity,Negative*
%FSLAX46Y46*%
G04 Gerber Fmt 4.6, Leading zero omitted, Abs format (unit mm)*
G04 Created by KiCad (PCBNEW 5.1.5) date 2019-12-26 05:57:11*
%MOMM*%
%LPD*%
G04 APERTURE LIST*
%ADD10C,0.100000*%
G04 APERTURE END LIST*
D10*
G36*
X221732130Y-143016026D02*
G01*
X222112843Y-143091754D01*
X222522499Y-143261439D01*
X222891179Y-143507784D01*
X223204716Y-143821321D01*
X223451061Y-144190001D01*
X223620746Y-144599657D01*
X223707250Y-145034546D01*
X223707250Y-145477954D01*
X223620746Y-145912843D01*
X223451061Y-146322499D01*
X223204716Y-146691179D01*
X222891179Y-147004716D01*
X222522499Y-147251061D01*
X222112843Y-147420746D01*
X221732130Y-147496474D01*
X221677955Y-147507250D01*
X221234545Y-147507250D01*
X221180370Y-147496474D01*
X220799657Y-147420746D01*
X220390001Y-147251061D01*
X220021321Y-147004716D01*
X219707784Y-146691179D01*
X219461439Y-146322499D01*
X219291754Y-145912843D01*
X219205250Y-145477954D01*
X219205250Y-145034546D01*
X219291754Y-144599657D01*
X219461439Y-144190001D01*
X219707784Y-143821321D01*
X220021321Y-143507784D01*
X220390001Y-143261439D01*
X220799657Y-143091754D01*
X221180370Y-143016026D01*
X221234545Y-143005250D01*
X221677955Y-143005250D01*
X221732130Y-143016026D01*
G37*
G36*
X209856435Y-143546282D02*
G01*
X210041161Y-143583026D01*
X210144909Y-143626000D01*
X210327791Y-143701752D01*
X210327792Y-143701753D01*
X210585754Y-143874117D01*
X210805133Y-144093496D01*
X210869615Y-144190001D01*
X210977498Y-144351459D01*
X211047046Y-144519363D01*
X211080306Y-144599659D01*
X211096224Y-144638090D01*
X211156750Y-144942375D01*
X211156750Y-145252625D01*
X211096224Y-145556910D01*
X210977498Y-145843541D01*
X210977497Y-145843542D01*
X210805133Y-146101504D01*
X210585754Y-146320883D01*
X210413389Y-146436053D01*
X210327791Y-146493248D01*
X210159887Y-146562796D01*
X210041161Y-146611974D01*
X209889017Y-146642237D01*
X209736875Y-146672500D01*
X209426625Y-146672500D01*
X209274483Y-146642237D01*
X209122339Y-146611974D01*
X209003613Y-146562796D01*
X208835709Y-146493248D01*
X208750111Y-146436053D01*
X208577746Y-146320883D01*
X208358367Y-146101504D01*
X208186003Y-145843542D01*
X208186002Y-145843541D01*
X208067276Y-145556910D01*
X208006750Y-145252625D01*
X208006750Y-144942375D01*
X208067276Y-144638090D01*
X208083195Y-144599659D01*
X208116454Y-144519363D01*
X208186002Y-144351459D01*
X208293885Y-144190001D01*
X208358367Y-144093496D01*
X208577746Y-143874117D01*
X208835708Y-143701753D01*
X208835709Y-143701752D01*
X209018591Y-143626000D01*
X209122339Y-143583026D01*
X209307065Y-143546282D01*
X209426625Y-143522500D01*
X209736875Y-143522500D01*
X209856435Y-143546282D01*
G37*
G36*
X185980435Y-143546282D02*
G01*
X186165161Y-143583026D01*
X186268909Y-143626000D01*
X186451791Y-143701752D01*
X186451792Y-143701753D01*
X186709754Y-143874117D01*
X186929133Y-144093496D01*
X186993615Y-144190001D01*
X187101498Y-144351459D01*
X187171046Y-144519363D01*
X187204306Y-144599659D01*
X187220224Y-144638090D01*
X187280750Y-144942375D01*
X187280750Y-145252625D01*
X187220224Y-145556910D01*
X187101498Y-145843541D01*
X187101497Y-145843542D01*
X186929133Y-146101504D01*
X186709754Y-146320883D01*
X186537389Y-146436053D01*
X186451791Y-146493248D01*
X186283887Y-146562796D01*
X186165161Y-146611974D01*
X186013017Y-146642237D01*
X185860875Y-146672500D01*
X185550625Y-146672500D01*
X185398483Y-146642237D01*
X185246339Y-146611974D01*
X185127613Y-146562796D01*
X184959709Y-146493248D01*
X184874111Y-146436053D01*
X184701746Y-146320883D01*
X184482367Y-146101504D01*
X184310003Y-145843542D01*
X184310002Y-145843541D01*
X184191276Y-145556910D01*
X184130750Y-145252625D01*
X184130750Y-144942375D01*
X184191276Y-144638090D01*
X184207195Y-144599659D01*
X184240454Y-144519363D01*
X184310002Y-144351459D01*
X184417885Y-144190001D01*
X184482367Y-144093496D01*
X184701746Y-143874117D01*
X184959708Y-143701753D01*
X184959709Y-143701752D01*
X185142591Y-143626000D01*
X185246339Y-143583026D01*
X185431065Y-143546282D01*
X185550625Y-143522500D01*
X185860875Y-143522500D01*
X185980435Y-143546282D01*
G37*
G36*
X166824674Y-142128465D02*
G01*
X166862367Y-142139899D01*
X166897103Y-142158466D01*
X166927548Y-142183452D01*
X166952534Y-142213897D01*
X166971101Y-142248633D01*
X166982535Y-142286326D01*
X166987000Y-142331661D01*
X166987000Y-143418339D01*
X166982535Y-143463674D01*
X166971101Y-143501367D01*
X166952534Y-143536103D01*
X166927548Y-143566548D01*
X166897103Y-143591534D01*
X166862367Y-143610101D01*
X166824674Y-143621535D01*
X166779339Y-143626000D01*
X165942661Y-143626000D01*
X165897326Y-143621535D01*
X165859633Y-143610101D01*
X165824897Y-143591534D01*
X165794452Y-143566548D01*
X165769466Y-143536103D01*
X165750899Y-143501367D01*
X165739465Y-143463674D01*
X165735000Y-143418339D01*
X165735000Y-142331661D01*
X165739465Y-142286326D01*
X165750899Y-142248633D01*
X165769466Y-142213897D01*
X165794452Y-142183452D01*
X165824897Y-142158466D01*
X165859633Y-142139899D01*
X165897326Y-142128465D01*
X165942661Y-142124000D01*
X166779339Y-142124000D01*
X166824674Y-142128465D01*
G37*
G36*
X168874674Y-142128465D02*
G01*
X168912367Y-142139899D01*
X168947103Y-142158466D01*
X168977548Y-142183452D01*
X169002534Y-142213897D01*
X169021101Y-142248633D01*
X169032535Y-142286326D01*
X169037000Y-142331661D01*
X169037000Y-143418339D01*
X169032535Y-143463674D01*
X169021101Y-143501367D01*
X169002534Y-143536103D01*
X168977548Y-143566548D01*
X168947103Y-143591534D01*
X168912367Y-143610101D01*
X168874674Y-143621535D01*
X168829339Y-143626000D01*
X167992661Y-143626000D01*
X167947326Y-143621535D01*
X167909633Y-143610101D01*
X167874897Y-143591534D01*
X167844452Y-143566548D01*
X167819466Y-143536103D01*
X167800899Y-143501367D01*
X167789465Y-143463674D01*
X167785000Y-143418339D01*
X167785000Y-142331661D01*
X167789465Y-142286326D01*
X167800899Y-142248633D01*
X167819466Y-142213897D01*
X167844452Y-142183452D01*
X167874897Y-142158466D01*
X167909633Y-142139899D01*
X167947326Y-142128465D01*
X167992661Y-142124000D01*
X168829339Y-142124000D01*
X168874674Y-142128465D01*
G37*
G36*
X170735499Y-139940445D02*
G01*
X170772995Y-139951820D01*
X170807554Y-139970292D01*
X170837847Y-139995153D01*
X170862708Y-140025446D01*
X170881180Y-140060005D01*
X170892555Y-140097501D01*
X170897000Y-140142638D01*
X170897000Y-140781362D01*
X170892555Y-140826499D01*
X170881180Y-140863995D01*
X170862708Y-140898554D01*
X170837847Y-140928847D01*
X170807554Y-140953708D01*
X170772995Y-140972180D01*
X170735499Y-140983555D01*
X170690362Y-140988000D01*
X169951638Y-140988000D01*
X169906501Y-140983555D01*
X169869005Y-140972180D01*
X169834446Y-140953708D01*
X169804153Y-140928847D01*
X169779292Y-140898554D01*
X169760820Y-140863995D01*
X169749445Y-140826499D01*
X169745000Y-140781362D01*
X169745000Y-140142638D01*
X169749445Y-140097501D01*
X169760820Y-140060005D01*
X169779292Y-140025446D01*
X169804153Y-139995153D01*
X169834446Y-139970292D01*
X169869005Y-139951820D01*
X169906501Y-139940445D01*
X169951638Y-139936000D01*
X170690362Y-139936000D01*
X170735499Y-139940445D01*
G37*
G36*
X172485499Y-139940445D02*
G01*
X172522995Y-139951820D01*
X172557554Y-139970292D01*
X172587847Y-139995153D01*
X172612708Y-140025446D01*
X172631180Y-140060005D01*
X172642555Y-140097501D01*
X172647000Y-140142638D01*
X172647000Y-140781362D01*
X172642555Y-140826499D01*
X172631180Y-140863995D01*
X172612708Y-140898554D01*
X172587847Y-140928847D01*
X172557554Y-140953708D01*
X172522995Y-140972180D01*
X172485499Y-140983555D01*
X172440362Y-140988000D01*
X171701638Y-140988000D01*
X171656501Y-140983555D01*
X171619005Y-140972180D01*
X171584446Y-140953708D01*
X171554153Y-140928847D01*
X171529292Y-140898554D01*
X171510820Y-140863995D01*
X171499445Y-140826499D01*
X171495000Y-140781362D01*
X171495000Y-140142638D01*
X171499445Y-140097501D01*
X171510820Y-140060005D01*
X171529292Y-140025446D01*
X171554153Y-139995153D01*
X171584446Y-139970292D01*
X171619005Y-139951820D01*
X171656501Y-139940445D01*
X171701638Y-139936000D01*
X172440362Y-139936000D01*
X172485499Y-139940445D01*
G37*
G36*
X198240224Y-136146184D02*
G01*
X198458224Y-136236483D01*
X198612373Y-136300333D01*
X198947298Y-136524123D01*
X199232127Y-136808952D01*
X199455917Y-137143877D01*
X199488312Y-137222086D01*
X199610066Y-137516026D01*
X199688650Y-137911094D01*
X199688650Y-138313906D01*
X199610066Y-138708974D01*
X199546059Y-138863500D01*
X199455917Y-139081123D01*
X199232127Y-139416048D01*
X198947298Y-139700877D01*
X198612373Y-139924667D01*
X198502224Y-139970292D01*
X198240224Y-140078816D01*
X197845156Y-140157400D01*
X197442344Y-140157400D01*
X197047276Y-140078816D01*
X196785276Y-139970292D01*
X196675127Y-139924667D01*
X196340202Y-139700877D01*
X196055373Y-139416048D01*
X195831583Y-139081123D01*
X195741441Y-138863500D01*
X195677434Y-138708974D01*
X195598850Y-138313906D01*
X195598850Y-137911094D01*
X195677434Y-137516026D01*
X195799188Y-137222086D01*
X195831583Y-137143877D01*
X196055373Y-136808952D01*
X196340202Y-136524123D01*
X196675127Y-136300333D01*
X196829276Y-136236483D01*
X197047276Y-136146184D01*
X197442344Y-136067600D01*
X197845156Y-136067600D01*
X198240224Y-136146184D01*
G37*
G36*
X202993854Y-137222085D02*
G01*
X203162376Y-137291889D01*
X203314041Y-137393228D01*
X203443022Y-137522209D01*
X203544361Y-137673874D01*
X203614165Y-137842396D01*
X203649750Y-138021297D01*
X203649750Y-138203703D01*
X203614165Y-138382604D01*
X203544361Y-138551126D01*
X203443022Y-138702791D01*
X203314041Y-138831772D01*
X203162376Y-138933111D01*
X202993854Y-139002915D01*
X202814953Y-139038500D01*
X202632547Y-139038500D01*
X202453646Y-139002915D01*
X202285124Y-138933111D01*
X202133459Y-138831772D01*
X202004478Y-138702791D01*
X201903139Y-138551126D01*
X201833335Y-138382604D01*
X201797750Y-138203703D01*
X201797750Y-138021297D01*
X201833335Y-137842396D01*
X201903139Y-137673874D01*
X202004478Y-137522209D01*
X202133459Y-137393228D01*
X202285124Y-137291889D01*
X202453646Y-137222085D01*
X202632547Y-137186500D01*
X202814953Y-137186500D01*
X202993854Y-137222085D01*
G37*
G36*
X192833854Y-137222085D02*
G01*
X193002376Y-137291889D01*
X193154041Y-137393228D01*
X193283022Y-137522209D01*
X193384361Y-137673874D01*
X193454165Y-137842396D01*
X193489750Y-138021297D01*
X193489750Y-138203703D01*
X193454165Y-138382604D01*
X193384361Y-138551126D01*
X193283022Y-138702791D01*
X193154041Y-138831772D01*
X193002376Y-138933111D01*
X192833854Y-139002915D01*
X192654953Y-139038500D01*
X192472547Y-139038500D01*
X192293646Y-139002915D01*
X192125124Y-138933111D01*
X191973459Y-138831772D01*
X191844478Y-138702791D01*
X191743139Y-138551126D01*
X191673335Y-138382604D01*
X191637750Y-138203703D01*
X191637750Y-138021297D01*
X191673335Y-137842396D01*
X191743139Y-137673874D01*
X191844478Y-137522209D01*
X191973459Y-137393228D01*
X192125124Y-137291889D01*
X192293646Y-137222085D01*
X192472547Y-137186500D01*
X192654953Y-137186500D01*
X192833854Y-137222085D01*
G37*
G36*
X166824674Y-137365965D02*
G01*
X166862367Y-137377399D01*
X166897103Y-137395966D01*
X166927548Y-137420952D01*
X166952534Y-137451397D01*
X166971101Y-137486133D01*
X166982535Y-137523826D01*
X166987000Y-137569161D01*
X166987000Y-138655839D01*
X166982535Y-138701174D01*
X166971101Y-138738867D01*
X166952534Y-138773603D01*
X166927548Y-138804048D01*
X166897103Y-138829034D01*
X166862367Y-138847601D01*
X166824674Y-138859035D01*
X166779339Y-138863500D01*
X165942661Y-138863500D01*
X165897326Y-138859035D01*
X165859633Y-138847601D01*
X165824897Y-138829034D01*
X165794452Y-138804048D01*
X165769466Y-138773603D01*
X165750899Y-138738867D01*
X165739465Y-138701174D01*
X165735000Y-138655839D01*
X165735000Y-137569161D01*
X165739465Y-137523826D01*
X165750899Y-137486133D01*
X165769466Y-137451397D01*
X165794452Y-137420952D01*
X165824897Y-137395966D01*
X165859633Y-137377399D01*
X165897326Y-137365965D01*
X165942661Y-137361500D01*
X166779339Y-137361500D01*
X166824674Y-137365965D01*
G37*
G36*
X168874674Y-137365965D02*
G01*
X168912367Y-137377399D01*
X168947103Y-137395966D01*
X168977548Y-137420952D01*
X169002534Y-137451397D01*
X169021101Y-137486133D01*
X169032535Y-137523826D01*
X169037000Y-137569161D01*
X169037000Y-138655839D01*
X169032535Y-138701174D01*
X169021101Y-138738867D01*
X169002534Y-138773603D01*
X168977548Y-138804048D01*
X168947103Y-138829034D01*
X168912367Y-138847601D01*
X168874674Y-138859035D01*
X168829339Y-138863500D01*
X167992661Y-138863500D01*
X167947326Y-138859035D01*
X167909633Y-138847601D01*
X167874897Y-138829034D01*
X167844452Y-138804048D01*
X167819466Y-138773603D01*
X167800899Y-138738867D01*
X167789465Y-138701174D01*
X167785000Y-138655839D01*
X167785000Y-137569161D01*
X167789465Y-137523826D01*
X167800899Y-137486133D01*
X167819466Y-137451397D01*
X167844452Y-137420952D01*
X167874897Y-137395966D01*
X167909633Y-137377399D01*
X167947326Y-137365965D01*
X167992661Y-137361500D01*
X168829339Y-137361500D01*
X168874674Y-137365965D01*
G37*
G36*
X194136335Y-134051302D02*
G01*
X194286160Y-134081104D01*
X194568424Y-134198021D01*
X194822455Y-134367759D01*
X195038491Y-134583795D01*
X195208229Y-134837826D01*
X195325146Y-135120090D01*
X195384750Y-135419740D01*
X195384750Y-135725260D01*
X195325146Y-136024910D01*
X195208229Y-136307174D01*
X195038491Y-136561205D01*
X194822455Y-136777241D01*
X194568424Y-136946979D01*
X194286160Y-137063896D01*
X194136335Y-137093698D01*
X193986511Y-137123500D01*
X193680989Y-137123500D01*
X193531165Y-137093698D01*
X193381340Y-137063896D01*
X193099076Y-136946979D01*
X192845045Y-136777241D01*
X192629009Y-136561205D01*
X192459271Y-136307174D01*
X192342354Y-136024910D01*
X192282750Y-135725260D01*
X192282750Y-135419740D01*
X192342354Y-135120090D01*
X192459271Y-134837826D01*
X192629009Y-134583795D01*
X192845045Y-134367759D01*
X193099076Y-134198021D01*
X193381340Y-134081104D01*
X193531165Y-134051302D01*
X193680989Y-134021500D01*
X193986511Y-134021500D01*
X194136335Y-134051302D01*
G37*
G36*
X200486335Y-131511302D02*
G01*
X200636160Y-131541104D01*
X200918424Y-131658021D01*
X201172455Y-131827759D01*
X201388491Y-132043795D01*
X201558229Y-132297826D01*
X201675146Y-132580090D01*
X201679948Y-132604230D01*
X201726810Y-132839820D01*
X201734750Y-132879740D01*
X201734750Y-133185260D01*
X201675146Y-133484910D01*
X201558229Y-133767174D01*
X201388491Y-134021205D01*
X201172455Y-134237241D01*
X200918424Y-134406979D01*
X200636160Y-134523896D01*
X200486335Y-134553698D01*
X200336511Y-134583500D01*
X200030989Y-134583500D01*
X199881165Y-134553698D01*
X199731340Y-134523896D01*
X199449076Y-134406979D01*
X199195045Y-134237241D01*
X198979009Y-134021205D01*
X198809271Y-133767174D01*
X198692354Y-133484910D01*
X198632750Y-133185260D01*
X198632750Y-132879740D01*
X198640691Y-132839820D01*
X198687552Y-132604230D01*
X198692354Y-132580090D01*
X198809271Y-132297826D01*
X198979009Y-132043795D01*
X199195045Y-131827759D01*
X199449076Y-131658021D01*
X199731340Y-131541104D01*
X199881165Y-131511302D01*
X200030989Y-131481500D01*
X200336511Y-131481500D01*
X200486335Y-131511302D01*
G37*
G36*
X166824674Y-132603465D02*
G01*
X166862367Y-132614899D01*
X166897103Y-132633466D01*
X166927548Y-132658452D01*
X166952534Y-132688897D01*
X166971101Y-132723633D01*
X166982535Y-132761326D01*
X166987000Y-132806661D01*
X166987000Y-133893339D01*
X166982535Y-133938674D01*
X166971101Y-133976367D01*
X166952534Y-134011103D01*
X166927548Y-134041548D01*
X166897103Y-134066534D01*
X166862367Y-134085101D01*
X166824674Y-134096535D01*
X166779339Y-134101000D01*
X165942661Y-134101000D01*
X165897326Y-134096535D01*
X165859633Y-134085101D01*
X165824897Y-134066534D01*
X165794452Y-134041548D01*
X165769466Y-134011103D01*
X165750899Y-133976367D01*
X165739465Y-133938674D01*
X165735000Y-133893339D01*
X165735000Y-132806661D01*
X165739465Y-132761326D01*
X165750899Y-132723633D01*
X165769466Y-132688897D01*
X165794452Y-132658452D01*
X165824897Y-132633466D01*
X165859633Y-132614899D01*
X165897326Y-132603465D01*
X165942661Y-132599000D01*
X166779339Y-132599000D01*
X166824674Y-132603465D01*
G37*
G36*
X168874674Y-132603465D02*
G01*
X168912367Y-132614899D01*
X168947103Y-132633466D01*
X168977548Y-132658452D01*
X169002534Y-132688897D01*
X169021101Y-132723633D01*
X169032535Y-132761326D01*
X169037000Y-132806661D01*
X169037000Y-133893339D01*
X169032535Y-133938674D01*
X169021101Y-133976367D01*
X169002534Y-134011103D01*
X168977548Y-134041548D01*
X168947103Y-134066534D01*
X168912367Y-134085101D01*
X168874674Y-134096535D01*
X168829339Y-134101000D01*
X167992661Y-134101000D01*
X167947326Y-134096535D01*
X167909633Y-134085101D01*
X167874897Y-134066534D01*
X167844452Y-134041548D01*
X167819466Y-134011103D01*
X167800899Y-133976367D01*
X167789465Y-133938674D01*
X167785000Y-133893339D01*
X167785000Y-132806661D01*
X167789465Y-132761326D01*
X167800899Y-132723633D01*
X167819466Y-132688897D01*
X167844452Y-132658452D01*
X167874897Y-132633466D01*
X167909633Y-132614899D01*
X167947326Y-132603465D01*
X167992661Y-132599000D01*
X168829339Y-132599000D01*
X168874674Y-132603465D01*
G37*
G36*
X172485499Y-132828445D02*
G01*
X172522995Y-132839820D01*
X172557554Y-132858292D01*
X172587847Y-132883153D01*
X172612708Y-132913446D01*
X172631180Y-132948005D01*
X172642555Y-132985501D01*
X172647000Y-133030638D01*
X172647000Y-133669362D01*
X172642555Y-133714499D01*
X172631180Y-133751995D01*
X172612708Y-133786554D01*
X172587847Y-133816847D01*
X172557554Y-133841708D01*
X172522995Y-133860180D01*
X172485499Y-133871555D01*
X172440362Y-133876000D01*
X171701638Y-133876000D01*
X171656501Y-133871555D01*
X171619005Y-133860180D01*
X171584446Y-133841708D01*
X171554153Y-133816847D01*
X171529292Y-133786554D01*
X171510820Y-133751995D01*
X171499445Y-133714499D01*
X171495000Y-133669362D01*
X171495000Y-133030638D01*
X171499445Y-132985501D01*
X171510820Y-132948005D01*
X171529292Y-132913446D01*
X171554153Y-132883153D01*
X171584446Y-132858292D01*
X171619005Y-132839820D01*
X171656501Y-132828445D01*
X171701638Y-132824000D01*
X172440362Y-132824000D01*
X172485499Y-132828445D01*
G37*
G36*
X170735499Y-132828445D02*
G01*
X170772995Y-132839820D01*
X170807554Y-132858292D01*
X170837847Y-132883153D01*
X170862708Y-132913446D01*
X170881180Y-132948005D01*
X170892555Y-132985501D01*
X170897000Y-133030638D01*
X170897000Y-133669362D01*
X170892555Y-133714499D01*
X170881180Y-133751995D01*
X170862708Y-133786554D01*
X170837847Y-133816847D01*
X170807554Y-133841708D01*
X170772995Y-133860180D01*
X170735499Y-133871555D01*
X170690362Y-133876000D01*
X169951638Y-133876000D01*
X169906501Y-133871555D01*
X169869005Y-133860180D01*
X169834446Y-133841708D01*
X169804153Y-133816847D01*
X169779292Y-133786554D01*
X169760820Y-133751995D01*
X169749445Y-133714499D01*
X169745000Y-133669362D01*
X169745000Y-133030638D01*
X169749445Y-132985501D01*
X169760820Y-132948005D01*
X169779292Y-132913446D01*
X169804153Y-132883153D01*
X169834446Y-132858292D01*
X169869005Y-132839820D01*
X169906501Y-132828445D01*
X169951638Y-132824000D01*
X170690362Y-132824000D01*
X170735499Y-132828445D01*
G37*
G36*
X170735499Y-131050445D02*
G01*
X170772995Y-131061820D01*
X170807554Y-131080292D01*
X170837847Y-131105153D01*
X170862708Y-131135446D01*
X170881180Y-131170005D01*
X170892555Y-131207501D01*
X170897000Y-131252638D01*
X170897000Y-131891362D01*
X170892555Y-131936499D01*
X170881180Y-131973995D01*
X170862708Y-132008554D01*
X170837847Y-132038847D01*
X170807554Y-132063708D01*
X170772995Y-132082180D01*
X170735499Y-132093555D01*
X170690362Y-132098000D01*
X169951638Y-132098000D01*
X169906501Y-132093555D01*
X169869005Y-132082180D01*
X169834446Y-132063708D01*
X169804153Y-132038847D01*
X169779292Y-132008554D01*
X169760820Y-131973995D01*
X169749445Y-131936499D01*
X169745000Y-131891362D01*
X169745000Y-131252638D01*
X169749445Y-131207501D01*
X169760820Y-131170005D01*
X169779292Y-131135446D01*
X169804153Y-131105153D01*
X169834446Y-131080292D01*
X169869005Y-131061820D01*
X169906501Y-131050445D01*
X169951638Y-131046000D01*
X170690362Y-131046000D01*
X170735499Y-131050445D01*
G37*
G36*
X172485499Y-131050445D02*
G01*
X172522995Y-131061820D01*
X172557554Y-131080292D01*
X172587847Y-131105153D01*
X172612708Y-131135446D01*
X172631180Y-131170005D01*
X172642555Y-131207501D01*
X172647000Y-131252638D01*
X172647000Y-131891362D01*
X172642555Y-131936499D01*
X172631180Y-131973995D01*
X172612708Y-132008554D01*
X172587847Y-132038847D01*
X172557554Y-132063708D01*
X172522995Y-132082180D01*
X172485499Y-132093555D01*
X172440362Y-132098000D01*
X171701638Y-132098000D01*
X171656501Y-132093555D01*
X171619005Y-132082180D01*
X171584446Y-132063708D01*
X171554153Y-132038847D01*
X171529292Y-132008554D01*
X171510820Y-131973995D01*
X171499445Y-131936499D01*
X171495000Y-131891362D01*
X171495000Y-131252638D01*
X171499445Y-131207501D01*
X171510820Y-131170005D01*
X171529292Y-131135446D01*
X171554153Y-131105153D01*
X171584446Y-131080292D01*
X171619005Y-131061820D01*
X171656501Y-131050445D01*
X171701638Y-131046000D01*
X172440362Y-131046000D01*
X172485499Y-131050445D01*
G37*
G36*
X186302224Y-127891184D02*
G01*
X186520224Y-127981483D01*
X186674373Y-128045333D01*
X187009298Y-128269123D01*
X187294127Y-128553952D01*
X187517917Y-128888877D01*
X187517917Y-128888878D01*
X187672066Y-129261026D01*
X187750650Y-129656094D01*
X187750650Y-130058906D01*
X187672066Y-130453974D01*
X187581767Y-130671974D01*
X187517917Y-130826123D01*
X187294127Y-131161048D01*
X187009298Y-131445877D01*
X186674373Y-131669667D01*
X186520224Y-131733517D01*
X186302224Y-131823816D01*
X185907156Y-131902400D01*
X185504344Y-131902400D01*
X185109276Y-131823816D01*
X184891276Y-131733517D01*
X184737127Y-131669667D01*
X184402202Y-131445877D01*
X184117373Y-131161048D01*
X183893583Y-130826123D01*
X183829733Y-130671974D01*
X183739434Y-130453974D01*
X183660850Y-130058906D01*
X183660850Y-129656094D01*
X183739434Y-129261026D01*
X183893583Y-128888878D01*
X183893583Y-128888877D01*
X184117373Y-128553952D01*
X184402202Y-128269123D01*
X184737127Y-128045333D01*
X184891276Y-127981483D01*
X185109276Y-127891184D01*
X185504344Y-127812600D01*
X185907156Y-127812600D01*
X186302224Y-127891184D01*
G37*
G36*
X210178224Y-127891184D02*
G01*
X210396224Y-127981483D01*
X210550373Y-128045333D01*
X210885298Y-128269123D01*
X211170127Y-128553952D01*
X211393917Y-128888877D01*
X211393917Y-128888878D01*
X211548066Y-129261026D01*
X211626650Y-129656094D01*
X211626650Y-130058906D01*
X211548066Y-130453974D01*
X211457767Y-130671974D01*
X211393917Y-130826123D01*
X211170127Y-131161048D01*
X210885298Y-131445877D01*
X210550373Y-131669667D01*
X210396224Y-131733517D01*
X210178224Y-131823816D01*
X209783156Y-131902400D01*
X209380344Y-131902400D01*
X208985276Y-131823816D01*
X208767276Y-131733517D01*
X208613127Y-131669667D01*
X208278202Y-131445877D01*
X207993373Y-131161048D01*
X207769583Y-130826123D01*
X207705733Y-130671974D01*
X207615434Y-130453974D01*
X207536850Y-130058906D01*
X207536850Y-129656094D01*
X207615434Y-129261026D01*
X207769583Y-128888878D01*
X207769583Y-128888877D01*
X207993373Y-128553952D01*
X208278202Y-128269123D01*
X208613127Y-128045333D01*
X208767276Y-127981483D01*
X208985276Y-127891184D01*
X209380344Y-127812600D01*
X209783156Y-127812600D01*
X210178224Y-127891184D01*
G37*
G36*
X83619630Y-123966026D02*
G01*
X84000343Y-124041754D01*
X84409999Y-124211439D01*
X84778679Y-124457784D01*
X85092216Y-124771321D01*
X85338561Y-125140001D01*
X85508246Y-125549657D01*
X85594750Y-125984546D01*
X85594750Y-126427954D01*
X85508246Y-126862843D01*
X85338561Y-127272499D01*
X85092216Y-127641179D01*
X84778679Y-127954716D01*
X84409999Y-128201061D01*
X84000343Y-128370746D01*
X83619630Y-128446474D01*
X83565455Y-128457250D01*
X83122045Y-128457250D01*
X83067870Y-128446474D01*
X82687157Y-128370746D01*
X82277501Y-128201061D01*
X81908821Y-127954716D01*
X81595284Y-127641179D01*
X81348939Y-127272499D01*
X81179254Y-126862843D01*
X81092750Y-126427954D01*
X81092750Y-125984546D01*
X81179254Y-125549657D01*
X81348939Y-125140001D01*
X81595284Y-124771321D01*
X81908821Y-124457784D01*
X82277501Y-124211439D01*
X82687157Y-124041754D01*
X83067870Y-123966026D01*
X83122045Y-123955250D01*
X83565455Y-123955250D01*
X83619630Y-123966026D01*
G37*
G36*
X157758974Y-117096184D02*
G01*
X157976974Y-117186483D01*
X158131123Y-117250333D01*
X158466048Y-117474123D01*
X158750877Y-117758952D01*
X158974667Y-118093877D01*
X159007062Y-118172086D01*
X159128816Y-118466026D01*
X159207400Y-118861094D01*
X159207400Y-119263906D01*
X159128816Y-119658974D01*
X159077951Y-119781772D01*
X158974667Y-120031123D01*
X158750877Y-120366048D01*
X158466048Y-120650877D01*
X158131123Y-120874667D01*
X157976974Y-120938517D01*
X157758974Y-121028816D01*
X157363906Y-121107400D01*
X156961094Y-121107400D01*
X156566026Y-121028816D01*
X156348026Y-120938517D01*
X156193877Y-120874667D01*
X155858952Y-120650877D01*
X155574123Y-120366048D01*
X155350333Y-120031123D01*
X155247049Y-119781772D01*
X155196184Y-119658974D01*
X155117600Y-119263906D01*
X155117600Y-118861094D01*
X155196184Y-118466026D01*
X155317938Y-118172086D01*
X155350333Y-118093877D01*
X155574123Y-117758952D01*
X155858952Y-117474123D01*
X156193877Y-117250333D01*
X156348026Y-117186483D01*
X156566026Y-117096184D01*
X156961094Y-117017600D01*
X157363906Y-117017600D01*
X157758974Y-117096184D01*
G37*
G36*
X119658974Y-117096184D02*
G01*
X119876974Y-117186483D01*
X120031123Y-117250333D01*
X120366048Y-117474123D01*
X120650877Y-117758952D01*
X120874667Y-118093877D01*
X120907062Y-118172086D01*
X121028816Y-118466026D01*
X121107400Y-118861094D01*
X121107400Y-119263906D01*
X121028816Y-119658974D01*
X120977951Y-119781772D01*
X120874667Y-120031123D01*
X120650877Y-120366048D01*
X120366048Y-120650877D01*
X120031123Y-120874667D01*
X119876974Y-120938517D01*
X119658974Y-121028816D01*
X119263906Y-121107400D01*
X118861094Y-121107400D01*
X118466026Y-121028816D01*
X118248026Y-120938517D01*
X118093877Y-120874667D01*
X117758952Y-120650877D01*
X117474123Y-120366048D01*
X117250333Y-120031123D01*
X117147049Y-119781772D01*
X117096184Y-119658974D01*
X117017600Y-119263906D01*
X117017600Y-118861094D01*
X117096184Y-118466026D01*
X117217938Y-118172086D01*
X117250333Y-118093877D01*
X117474123Y-117758952D01*
X117758952Y-117474123D01*
X118093877Y-117250333D01*
X118248026Y-117186483D01*
X118466026Y-117096184D01*
X118861094Y-117017600D01*
X119263906Y-117017600D01*
X119658974Y-117096184D01*
G37*
G36*
X195858974Y-117096184D02*
G01*
X196076974Y-117186483D01*
X196231123Y-117250333D01*
X196566048Y-117474123D01*
X196850877Y-117758952D01*
X197074667Y-118093877D01*
X197107062Y-118172086D01*
X197228816Y-118466026D01*
X197307400Y-118861094D01*
X197307400Y-119263906D01*
X197228816Y-119658974D01*
X197177951Y-119781772D01*
X197074667Y-120031123D01*
X196850877Y-120366048D01*
X196566048Y-120650877D01*
X196231123Y-120874667D01*
X196076974Y-120938517D01*
X195858974Y-121028816D01*
X195463906Y-121107400D01*
X195061094Y-121107400D01*
X194666026Y-121028816D01*
X194448026Y-120938517D01*
X194293877Y-120874667D01*
X193958952Y-120650877D01*
X193674123Y-120366048D01*
X193450333Y-120031123D01*
X193347049Y-119781772D01*
X193296184Y-119658974D01*
X193217600Y-119263906D01*
X193217600Y-118861094D01*
X193296184Y-118466026D01*
X193417938Y-118172086D01*
X193450333Y-118093877D01*
X193674123Y-117758952D01*
X193958952Y-117474123D01*
X194293877Y-117250333D01*
X194448026Y-117186483D01*
X194666026Y-117096184D01*
X195061094Y-117017600D01*
X195463906Y-117017600D01*
X195858974Y-117096184D01*
G37*
G36*
X214908974Y-117096184D02*
G01*
X215126974Y-117186483D01*
X215281123Y-117250333D01*
X215616048Y-117474123D01*
X215900877Y-117758952D01*
X216124667Y-118093877D01*
X216157062Y-118172086D01*
X216278816Y-118466026D01*
X216357400Y-118861094D01*
X216357400Y-119263906D01*
X216278816Y-119658974D01*
X216227951Y-119781772D01*
X216124667Y-120031123D01*
X215900877Y-120366048D01*
X215616048Y-120650877D01*
X215281123Y-120874667D01*
X215126974Y-120938517D01*
X214908974Y-121028816D01*
X214513906Y-121107400D01*
X214111094Y-121107400D01*
X213716026Y-121028816D01*
X213498026Y-120938517D01*
X213343877Y-120874667D01*
X213008952Y-120650877D01*
X212724123Y-120366048D01*
X212500333Y-120031123D01*
X212397049Y-119781772D01*
X212346184Y-119658974D01*
X212267600Y-119263906D01*
X212267600Y-118861094D01*
X212346184Y-118466026D01*
X212467938Y-118172086D01*
X212500333Y-118093877D01*
X212724123Y-117758952D01*
X213008952Y-117474123D01*
X213343877Y-117250333D01*
X213498026Y-117186483D01*
X213716026Y-117096184D01*
X214111094Y-117017600D01*
X214513906Y-117017600D01*
X214908974Y-117096184D01*
G37*
G36*
X95846474Y-117096184D02*
G01*
X96064474Y-117186483D01*
X96218623Y-117250333D01*
X96553548Y-117474123D01*
X96838377Y-117758952D01*
X97062167Y-118093877D01*
X97094562Y-118172086D01*
X97216316Y-118466026D01*
X97294900Y-118861094D01*
X97294900Y-119263906D01*
X97216316Y-119658974D01*
X97165451Y-119781772D01*
X97062167Y-120031123D01*
X96838377Y-120366048D01*
X96553548Y-120650877D01*
X96218623Y-120874667D01*
X96064474Y-120938517D01*
X95846474Y-121028816D01*
X95451406Y-121107400D01*
X95048594Y-121107400D01*
X94653526Y-121028816D01*
X94435526Y-120938517D01*
X94281377Y-120874667D01*
X93946452Y-120650877D01*
X93661623Y-120366048D01*
X93437833Y-120031123D01*
X93334549Y-119781772D01*
X93283684Y-119658974D01*
X93205100Y-119263906D01*
X93205100Y-118861094D01*
X93283684Y-118466026D01*
X93405438Y-118172086D01*
X93437833Y-118093877D01*
X93661623Y-117758952D01*
X93946452Y-117474123D01*
X94281377Y-117250333D01*
X94435526Y-117186483D01*
X94653526Y-117096184D01*
X95048594Y-117017600D01*
X95451406Y-117017600D01*
X95846474Y-117096184D01*
G37*
G36*
X138708974Y-117096184D02*
G01*
X138926974Y-117186483D01*
X139081123Y-117250333D01*
X139416048Y-117474123D01*
X139700877Y-117758952D01*
X139924667Y-118093877D01*
X139957062Y-118172086D01*
X140078816Y-118466026D01*
X140157400Y-118861094D01*
X140157400Y-119263906D01*
X140078816Y-119658974D01*
X140027951Y-119781772D01*
X139924667Y-120031123D01*
X139700877Y-120366048D01*
X139416048Y-120650877D01*
X139081123Y-120874667D01*
X138926974Y-120938517D01*
X138708974Y-121028816D01*
X138313906Y-121107400D01*
X137911094Y-121107400D01*
X137516026Y-121028816D01*
X137298026Y-120938517D01*
X137143877Y-120874667D01*
X136808952Y-120650877D01*
X136524123Y-120366048D01*
X136300333Y-120031123D01*
X136197049Y-119781772D01*
X136146184Y-119658974D01*
X136067600Y-119263906D01*
X136067600Y-118861094D01*
X136146184Y-118466026D01*
X136267938Y-118172086D01*
X136300333Y-118093877D01*
X136524123Y-117758952D01*
X136808952Y-117474123D01*
X137143877Y-117250333D01*
X137298026Y-117186483D01*
X137516026Y-117096184D01*
X137911094Y-117017600D01*
X138313906Y-117017600D01*
X138708974Y-117096184D01*
G37*
G36*
X176808974Y-117096184D02*
G01*
X177026974Y-117186483D01*
X177181123Y-117250333D01*
X177516048Y-117474123D01*
X177800877Y-117758952D01*
X178024667Y-118093877D01*
X178057062Y-118172086D01*
X178178816Y-118466026D01*
X178257400Y-118861094D01*
X178257400Y-119263906D01*
X178178816Y-119658974D01*
X178127951Y-119781772D01*
X178024667Y-120031123D01*
X177800877Y-120366048D01*
X177516048Y-120650877D01*
X177181123Y-120874667D01*
X177026974Y-120938517D01*
X176808974Y-121028816D01*
X176413906Y-121107400D01*
X176011094Y-121107400D01*
X175616026Y-121028816D01*
X175398026Y-120938517D01*
X175243877Y-120874667D01*
X174908952Y-120650877D01*
X174624123Y-120366048D01*
X174400333Y-120031123D01*
X174297049Y-119781772D01*
X174246184Y-119658974D01*
X174167600Y-119263906D01*
X174167600Y-118861094D01*
X174246184Y-118466026D01*
X174367938Y-118172086D01*
X174400333Y-118093877D01*
X174624123Y-117758952D01*
X174908952Y-117474123D01*
X175243877Y-117250333D01*
X175398026Y-117186483D01*
X175616026Y-117096184D01*
X176011094Y-117017600D01*
X176413906Y-117017600D01*
X176808974Y-117096184D01*
G37*
G36*
X200612604Y-118172085D02*
G01*
X200781126Y-118241889D01*
X200932791Y-118343228D01*
X201061772Y-118472209D01*
X201163111Y-118623874D01*
X201232915Y-118792396D01*
X201268500Y-118971297D01*
X201268500Y-119153703D01*
X201232915Y-119332604D01*
X201163111Y-119501126D01*
X201061772Y-119652791D01*
X200932791Y-119781772D01*
X200781126Y-119883111D01*
X200612604Y-119952915D01*
X200433703Y-119988500D01*
X200251297Y-119988500D01*
X200072396Y-119952915D01*
X199903874Y-119883111D01*
X199752209Y-119781772D01*
X199623228Y-119652791D01*
X199521889Y-119501126D01*
X199452085Y-119332604D01*
X199416500Y-119153703D01*
X199416500Y-118971297D01*
X199452085Y-118792396D01*
X199521889Y-118623874D01*
X199623228Y-118472209D01*
X199752209Y-118343228D01*
X199903874Y-118241889D01*
X200072396Y-118172085D01*
X200251297Y-118136500D01*
X200433703Y-118136500D01*
X200612604Y-118172085D01*
G37*
G36*
X209502604Y-118172085D02*
G01*
X209671126Y-118241889D01*
X209822791Y-118343228D01*
X209951772Y-118472209D01*
X210053111Y-118623874D01*
X210122915Y-118792396D01*
X210158500Y-118971297D01*
X210158500Y-119153703D01*
X210122915Y-119332604D01*
X210053111Y-119501126D01*
X209951772Y-119652791D01*
X209822791Y-119781772D01*
X209671126Y-119883111D01*
X209502604Y-119952915D01*
X209323703Y-119988500D01*
X209141297Y-119988500D01*
X208962396Y-119952915D01*
X208793874Y-119883111D01*
X208642209Y-119781772D01*
X208513228Y-119652791D01*
X208411889Y-119501126D01*
X208342085Y-119332604D01*
X208306500Y-119153703D01*
X208306500Y-118971297D01*
X208342085Y-118792396D01*
X208411889Y-118623874D01*
X208513228Y-118472209D01*
X208642209Y-118343228D01*
X208793874Y-118241889D01*
X208962396Y-118172085D01*
X209141297Y-118136500D01*
X209323703Y-118136500D01*
X209502604Y-118172085D01*
G37*
G36*
X190452604Y-118172085D02*
G01*
X190621126Y-118241889D01*
X190772791Y-118343228D01*
X190901772Y-118472209D01*
X191003111Y-118623874D01*
X191072915Y-118792396D01*
X191108500Y-118971297D01*
X191108500Y-119153703D01*
X191072915Y-119332604D01*
X191003111Y-119501126D01*
X190901772Y-119652791D01*
X190772791Y-119781772D01*
X190621126Y-119883111D01*
X190452604Y-119952915D01*
X190273703Y-119988500D01*
X190091297Y-119988500D01*
X189912396Y-119952915D01*
X189743874Y-119883111D01*
X189592209Y-119781772D01*
X189463228Y-119652791D01*
X189361889Y-119501126D01*
X189292085Y-119332604D01*
X189256500Y-119153703D01*
X189256500Y-118971297D01*
X189292085Y-118792396D01*
X189361889Y-118623874D01*
X189463228Y-118472209D01*
X189592209Y-118343228D01*
X189743874Y-118241889D01*
X189912396Y-118172085D01*
X190091297Y-118136500D01*
X190273703Y-118136500D01*
X190452604Y-118172085D01*
G37*
G36*
X143462604Y-118172085D02*
G01*
X143631126Y-118241889D01*
X143782791Y-118343228D01*
X143911772Y-118472209D01*
X144013111Y-118623874D01*
X144082915Y-118792396D01*
X144118500Y-118971297D01*
X144118500Y-119153703D01*
X144082915Y-119332604D01*
X144013111Y-119501126D01*
X143911772Y-119652791D01*
X143782791Y-119781772D01*
X143631126Y-119883111D01*
X143462604Y-119952915D01*
X143283703Y-119988500D01*
X143101297Y-119988500D01*
X142922396Y-119952915D01*
X142753874Y-119883111D01*
X142602209Y-119781772D01*
X142473228Y-119652791D01*
X142371889Y-119501126D01*
X142302085Y-119332604D01*
X142266500Y-119153703D01*
X142266500Y-118971297D01*
X142302085Y-118792396D01*
X142371889Y-118623874D01*
X142473228Y-118472209D01*
X142602209Y-118343228D01*
X142753874Y-118241889D01*
X142922396Y-118172085D01*
X143101297Y-118136500D01*
X143283703Y-118136500D01*
X143462604Y-118172085D01*
G37*
G36*
X133302604Y-118172085D02*
G01*
X133471126Y-118241889D01*
X133622791Y-118343228D01*
X133751772Y-118472209D01*
X133853111Y-118623874D01*
X133922915Y-118792396D01*
X133958500Y-118971297D01*
X133958500Y-119153703D01*
X133922915Y-119332604D01*
X133853111Y-119501126D01*
X133751772Y-119652791D01*
X133622791Y-119781772D01*
X133471126Y-119883111D01*
X133302604Y-119952915D01*
X133123703Y-119988500D01*
X132941297Y-119988500D01*
X132762396Y-119952915D01*
X132593874Y-119883111D01*
X132442209Y-119781772D01*
X132313228Y-119652791D01*
X132211889Y-119501126D01*
X132142085Y-119332604D01*
X132106500Y-119153703D01*
X132106500Y-118971297D01*
X132142085Y-118792396D01*
X132211889Y-118623874D01*
X132313228Y-118472209D01*
X132442209Y-118343228D01*
X132593874Y-118241889D01*
X132762396Y-118172085D01*
X132941297Y-118136500D01*
X133123703Y-118136500D01*
X133302604Y-118172085D01*
G37*
G36*
X162512604Y-118172085D02*
G01*
X162681126Y-118241889D01*
X162832791Y-118343228D01*
X162961772Y-118472209D01*
X163063111Y-118623874D01*
X163132915Y-118792396D01*
X163168500Y-118971297D01*
X163168500Y-119153703D01*
X163132915Y-119332604D01*
X163063111Y-119501126D01*
X162961772Y-119652791D01*
X162832791Y-119781772D01*
X162681126Y-119883111D01*
X162512604Y-119952915D01*
X162333703Y-119988500D01*
X162151297Y-119988500D01*
X161972396Y-119952915D01*
X161803874Y-119883111D01*
X161652209Y-119781772D01*
X161523228Y-119652791D01*
X161421889Y-119501126D01*
X161352085Y-119332604D01*
X161316500Y-119153703D01*
X161316500Y-118971297D01*
X161352085Y-118792396D01*
X161421889Y-118623874D01*
X161523228Y-118472209D01*
X161652209Y-118343228D01*
X161803874Y-118241889D01*
X161972396Y-118172085D01*
X162151297Y-118136500D01*
X162333703Y-118136500D01*
X162512604Y-118172085D01*
G37*
G36*
X100600104Y-118172085D02*
G01*
X100768626Y-118241889D01*
X100920291Y-118343228D01*
X101049272Y-118472209D01*
X101150611Y-118623874D01*
X101220415Y-118792396D01*
X101256000Y-118971297D01*
X101256000Y-119153703D01*
X101220415Y-119332604D01*
X101150611Y-119501126D01*
X101049272Y-119652791D01*
X100920291Y-119781772D01*
X100768626Y-119883111D01*
X100600104Y-119952915D01*
X100421203Y-119988500D01*
X100238797Y-119988500D01*
X100059896Y-119952915D01*
X99891374Y-119883111D01*
X99739709Y-119781772D01*
X99610728Y-119652791D01*
X99509389Y-119501126D01*
X99439585Y-119332604D01*
X99404000Y-119153703D01*
X99404000Y-118971297D01*
X99439585Y-118792396D01*
X99509389Y-118623874D01*
X99610728Y-118472209D01*
X99739709Y-118343228D01*
X99891374Y-118241889D01*
X100059896Y-118172085D01*
X100238797Y-118136500D01*
X100421203Y-118136500D01*
X100600104Y-118172085D01*
G37*
G36*
X152352604Y-118172085D02*
G01*
X152521126Y-118241889D01*
X152672791Y-118343228D01*
X152801772Y-118472209D01*
X152903111Y-118623874D01*
X152972915Y-118792396D01*
X153008500Y-118971297D01*
X153008500Y-119153703D01*
X152972915Y-119332604D01*
X152903111Y-119501126D01*
X152801772Y-119652791D01*
X152672791Y-119781772D01*
X152521126Y-119883111D01*
X152352604Y-119952915D01*
X152173703Y-119988500D01*
X151991297Y-119988500D01*
X151812396Y-119952915D01*
X151643874Y-119883111D01*
X151492209Y-119781772D01*
X151363228Y-119652791D01*
X151261889Y-119501126D01*
X151192085Y-119332604D01*
X151156500Y-119153703D01*
X151156500Y-118971297D01*
X151192085Y-118792396D01*
X151261889Y-118623874D01*
X151363228Y-118472209D01*
X151492209Y-118343228D01*
X151643874Y-118241889D01*
X151812396Y-118172085D01*
X151991297Y-118136500D01*
X152173703Y-118136500D01*
X152352604Y-118172085D01*
G37*
G36*
X219662604Y-118172085D02*
G01*
X219831126Y-118241889D01*
X219982791Y-118343228D01*
X220111772Y-118472209D01*
X220213111Y-118623874D01*
X220282915Y-118792396D01*
X220318500Y-118971297D01*
X220318500Y-119153703D01*
X220282915Y-119332604D01*
X220213111Y-119501126D01*
X220111772Y-119652791D01*
X219982791Y-119781772D01*
X219831126Y-119883111D01*
X219662604Y-119952915D01*
X219483703Y-119988500D01*
X219301297Y-119988500D01*
X219122396Y-119952915D01*
X218953874Y-119883111D01*
X218802209Y-119781772D01*
X218673228Y-119652791D01*
X218571889Y-119501126D01*
X218502085Y-119332604D01*
X218466500Y-119153703D01*
X218466500Y-118971297D01*
X218502085Y-118792396D01*
X218571889Y-118623874D01*
X218673228Y-118472209D01*
X218802209Y-118343228D01*
X218953874Y-118241889D01*
X219122396Y-118172085D01*
X219301297Y-118136500D01*
X219483703Y-118136500D01*
X219662604Y-118172085D01*
G37*
G36*
X114252604Y-118172085D02*
G01*
X114421126Y-118241889D01*
X114572791Y-118343228D01*
X114701772Y-118472209D01*
X114803111Y-118623874D01*
X114872915Y-118792396D01*
X114908500Y-118971297D01*
X114908500Y-119153703D01*
X114872915Y-119332604D01*
X114803111Y-119501126D01*
X114701772Y-119652791D01*
X114572791Y-119781772D01*
X114421126Y-119883111D01*
X114252604Y-119952915D01*
X114073703Y-119988500D01*
X113891297Y-119988500D01*
X113712396Y-119952915D01*
X113543874Y-119883111D01*
X113392209Y-119781772D01*
X113263228Y-119652791D01*
X113161889Y-119501126D01*
X113092085Y-119332604D01*
X113056500Y-119153703D01*
X113056500Y-118971297D01*
X113092085Y-118792396D01*
X113161889Y-118623874D01*
X113263228Y-118472209D01*
X113392209Y-118343228D01*
X113543874Y-118241889D01*
X113712396Y-118172085D01*
X113891297Y-118136500D01*
X114073703Y-118136500D01*
X114252604Y-118172085D01*
G37*
G36*
X171402604Y-118172085D02*
G01*
X171571126Y-118241889D01*
X171722791Y-118343228D01*
X171851772Y-118472209D01*
X171953111Y-118623874D01*
X172022915Y-118792396D01*
X172058500Y-118971297D01*
X172058500Y-119153703D01*
X172022915Y-119332604D01*
X171953111Y-119501126D01*
X171851772Y-119652791D01*
X171722791Y-119781772D01*
X171571126Y-119883111D01*
X171402604Y-119952915D01*
X171223703Y-119988500D01*
X171041297Y-119988500D01*
X170862396Y-119952915D01*
X170693874Y-119883111D01*
X170542209Y-119781772D01*
X170413228Y-119652791D01*
X170311889Y-119501126D01*
X170242085Y-119332604D01*
X170206500Y-119153703D01*
X170206500Y-118971297D01*
X170242085Y-118792396D01*
X170311889Y-118623874D01*
X170413228Y-118472209D01*
X170542209Y-118343228D01*
X170693874Y-118241889D01*
X170862396Y-118172085D01*
X171041297Y-118136500D01*
X171223703Y-118136500D01*
X171402604Y-118172085D01*
G37*
G36*
X181562604Y-118172085D02*
G01*
X181731126Y-118241889D01*
X181882791Y-118343228D01*
X182011772Y-118472209D01*
X182113111Y-118623874D01*
X182182915Y-118792396D01*
X182218500Y-118971297D01*
X182218500Y-119153703D01*
X182182915Y-119332604D01*
X182113111Y-119501126D01*
X182011772Y-119652791D01*
X181882791Y-119781772D01*
X181731126Y-119883111D01*
X181562604Y-119952915D01*
X181383703Y-119988500D01*
X181201297Y-119988500D01*
X181022396Y-119952915D01*
X180853874Y-119883111D01*
X180702209Y-119781772D01*
X180573228Y-119652791D01*
X180471889Y-119501126D01*
X180402085Y-119332604D01*
X180366500Y-119153703D01*
X180366500Y-118971297D01*
X180402085Y-118792396D01*
X180471889Y-118623874D01*
X180573228Y-118472209D01*
X180702209Y-118343228D01*
X180853874Y-118241889D01*
X181022396Y-118172085D01*
X181201297Y-118136500D01*
X181383703Y-118136500D01*
X181562604Y-118172085D01*
G37*
G36*
X124412604Y-118172085D02*
G01*
X124581126Y-118241889D01*
X124732791Y-118343228D01*
X124861772Y-118472209D01*
X124963111Y-118623874D01*
X125032915Y-118792396D01*
X125068500Y-118971297D01*
X125068500Y-119153703D01*
X125032915Y-119332604D01*
X124963111Y-119501126D01*
X124861772Y-119652791D01*
X124732791Y-119781772D01*
X124581126Y-119883111D01*
X124412604Y-119952915D01*
X124233703Y-119988500D01*
X124051297Y-119988500D01*
X123872396Y-119952915D01*
X123703874Y-119883111D01*
X123552209Y-119781772D01*
X123423228Y-119652791D01*
X123321889Y-119501126D01*
X123252085Y-119332604D01*
X123216500Y-119153703D01*
X123216500Y-118971297D01*
X123252085Y-118792396D01*
X123321889Y-118623874D01*
X123423228Y-118472209D01*
X123552209Y-118343228D01*
X123703874Y-118241889D01*
X123872396Y-118172085D01*
X124051297Y-118136500D01*
X124233703Y-118136500D01*
X124412604Y-118172085D01*
G37*
G36*
X90440104Y-118172085D02*
G01*
X90608626Y-118241889D01*
X90760291Y-118343228D01*
X90889272Y-118472209D01*
X90990611Y-118623874D01*
X91060415Y-118792396D01*
X91096000Y-118971297D01*
X91096000Y-119153703D01*
X91060415Y-119332604D01*
X90990611Y-119501126D01*
X90889272Y-119652791D01*
X90760291Y-119781772D01*
X90608626Y-119883111D01*
X90440104Y-119952915D01*
X90261203Y-119988500D01*
X90078797Y-119988500D01*
X89899896Y-119952915D01*
X89731374Y-119883111D01*
X89579709Y-119781772D01*
X89450728Y-119652791D01*
X89349389Y-119501126D01*
X89279585Y-119332604D01*
X89244000Y-119153703D01*
X89244000Y-118971297D01*
X89279585Y-118792396D01*
X89349389Y-118623874D01*
X89450728Y-118472209D01*
X89579709Y-118343228D01*
X89731374Y-118241889D01*
X89899896Y-118172085D01*
X90078797Y-118136500D01*
X90261203Y-118136500D01*
X90440104Y-118172085D01*
G37*
G36*
X115555085Y-115001302D02*
G01*
X115704910Y-115031104D01*
X115987174Y-115148021D01*
X116241205Y-115317759D01*
X116457241Y-115533795D01*
X116626979Y-115787826D01*
X116743896Y-116070090D01*
X116803500Y-116369740D01*
X116803500Y-116675260D01*
X116743896Y-116974910D01*
X116626979Y-117257174D01*
X116457241Y-117511205D01*
X116241205Y-117727241D01*
X115987174Y-117896979D01*
X115704910Y-118013896D01*
X115555085Y-118043698D01*
X115405261Y-118073500D01*
X115099739Y-118073500D01*
X114949915Y-118043698D01*
X114800090Y-118013896D01*
X114517826Y-117896979D01*
X114263795Y-117727241D01*
X114047759Y-117511205D01*
X113878021Y-117257174D01*
X113761104Y-116974910D01*
X113701500Y-116675260D01*
X113701500Y-116369740D01*
X113761104Y-116070090D01*
X113878021Y-115787826D01*
X114047759Y-115533795D01*
X114263795Y-115317759D01*
X114517826Y-115148021D01*
X114800090Y-115031104D01*
X114949915Y-115001302D01*
X115099739Y-114971500D01*
X115405261Y-114971500D01*
X115555085Y-115001302D01*
G37*
G36*
X153655085Y-115001302D02*
G01*
X153804910Y-115031104D01*
X154087174Y-115148021D01*
X154341205Y-115317759D01*
X154557241Y-115533795D01*
X154726979Y-115787826D01*
X154843896Y-116070090D01*
X154903500Y-116369740D01*
X154903500Y-116675260D01*
X154843896Y-116974910D01*
X154726979Y-117257174D01*
X154557241Y-117511205D01*
X154341205Y-117727241D01*
X154087174Y-117896979D01*
X153804910Y-118013896D01*
X153655085Y-118043698D01*
X153505261Y-118073500D01*
X153199739Y-118073500D01*
X153049915Y-118043698D01*
X152900090Y-118013896D01*
X152617826Y-117896979D01*
X152363795Y-117727241D01*
X152147759Y-117511205D01*
X151978021Y-117257174D01*
X151861104Y-116974910D01*
X151801500Y-116675260D01*
X151801500Y-116369740D01*
X151861104Y-116070090D01*
X151978021Y-115787826D01*
X152147759Y-115533795D01*
X152363795Y-115317759D01*
X152617826Y-115148021D01*
X152900090Y-115031104D01*
X153049915Y-115001302D01*
X153199739Y-114971500D01*
X153505261Y-114971500D01*
X153655085Y-115001302D01*
G37*
G36*
X172705085Y-115001302D02*
G01*
X172854910Y-115031104D01*
X173137174Y-115148021D01*
X173391205Y-115317759D01*
X173607241Y-115533795D01*
X173776979Y-115787826D01*
X173893896Y-116070090D01*
X173953500Y-116369740D01*
X173953500Y-116675260D01*
X173893896Y-116974910D01*
X173776979Y-117257174D01*
X173607241Y-117511205D01*
X173391205Y-117727241D01*
X173137174Y-117896979D01*
X172854910Y-118013896D01*
X172705085Y-118043698D01*
X172555261Y-118073500D01*
X172249739Y-118073500D01*
X172099915Y-118043698D01*
X171950090Y-118013896D01*
X171667826Y-117896979D01*
X171413795Y-117727241D01*
X171197759Y-117511205D01*
X171028021Y-117257174D01*
X170911104Y-116974910D01*
X170851500Y-116675260D01*
X170851500Y-116369740D01*
X170911104Y-116070090D01*
X171028021Y-115787826D01*
X171197759Y-115533795D01*
X171413795Y-115317759D01*
X171667826Y-115148021D01*
X171950090Y-115031104D01*
X172099915Y-115001302D01*
X172249739Y-114971500D01*
X172555261Y-114971500D01*
X172705085Y-115001302D01*
G37*
G36*
X134605085Y-115001302D02*
G01*
X134754910Y-115031104D01*
X135037174Y-115148021D01*
X135291205Y-115317759D01*
X135507241Y-115533795D01*
X135676979Y-115787826D01*
X135793896Y-116070090D01*
X135853500Y-116369740D01*
X135853500Y-116675260D01*
X135793896Y-116974910D01*
X135676979Y-117257174D01*
X135507241Y-117511205D01*
X135291205Y-117727241D01*
X135037174Y-117896979D01*
X134754910Y-118013896D01*
X134605085Y-118043698D01*
X134455261Y-118073500D01*
X134149739Y-118073500D01*
X133999915Y-118043698D01*
X133850090Y-118013896D01*
X133567826Y-117896979D01*
X133313795Y-117727241D01*
X133097759Y-117511205D01*
X132928021Y-117257174D01*
X132811104Y-116974910D01*
X132751500Y-116675260D01*
X132751500Y-116369740D01*
X132811104Y-116070090D01*
X132928021Y-115787826D01*
X133097759Y-115533795D01*
X133313795Y-115317759D01*
X133567826Y-115148021D01*
X133850090Y-115031104D01*
X133999915Y-115001302D01*
X134149739Y-114971500D01*
X134455261Y-114971500D01*
X134605085Y-115001302D01*
G37*
G36*
X191755085Y-115001302D02*
G01*
X191904910Y-115031104D01*
X192187174Y-115148021D01*
X192441205Y-115317759D01*
X192657241Y-115533795D01*
X192826979Y-115787826D01*
X192943896Y-116070090D01*
X193003500Y-116369740D01*
X193003500Y-116675260D01*
X192943896Y-116974910D01*
X192826979Y-117257174D01*
X192657241Y-117511205D01*
X192441205Y-117727241D01*
X192187174Y-117896979D01*
X191904910Y-118013896D01*
X191755085Y-118043698D01*
X191605261Y-118073500D01*
X191299739Y-118073500D01*
X191149915Y-118043698D01*
X191000090Y-118013896D01*
X190717826Y-117896979D01*
X190463795Y-117727241D01*
X190247759Y-117511205D01*
X190078021Y-117257174D01*
X189961104Y-116974910D01*
X189901500Y-116675260D01*
X189901500Y-116369740D01*
X189961104Y-116070090D01*
X190078021Y-115787826D01*
X190247759Y-115533795D01*
X190463795Y-115317759D01*
X190717826Y-115148021D01*
X191000090Y-115031104D01*
X191149915Y-115001302D01*
X191299739Y-114971500D01*
X191605261Y-114971500D01*
X191755085Y-115001302D01*
G37*
G36*
X91742585Y-115001302D02*
G01*
X91892410Y-115031104D01*
X92174674Y-115148021D01*
X92428705Y-115317759D01*
X92644741Y-115533795D01*
X92814479Y-115787826D01*
X92931396Y-116070090D01*
X92991000Y-116369740D01*
X92991000Y-116675260D01*
X92931396Y-116974910D01*
X92814479Y-117257174D01*
X92644741Y-117511205D01*
X92428705Y-117727241D01*
X92174674Y-117896979D01*
X91892410Y-118013896D01*
X91742585Y-118043698D01*
X91592761Y-118073500D01*
X91287239Y-118073500D01*
X91137415Y-118043698D01*
X90987590Y-118013896D01*
X90705326Y-117896979D01*
X90451295Y-117727241D01*
X90235259Y-117511205D01*
X90065521Y-117257174D01*
X89948604Y-116974910D01*
X89889000Y-116675260D01*
X89889000Y-116369740D01*
X89948604Y-116070090D01*
X90065521Y-115787826D01*
X90235259Y-115533795D01*
X90451295Y-115317759D01*
X90705326Y-115148021D01*
X90987590Y-115031104D01*
X91137415Y-115001302D01*
X91287239Y-114971500D01*
X91592761Y-114971500D01*
X91742585Y-115001302D01*
G37*
G36*
X210805085Y-115001302D02*
G01*
X210954910Y-115031104D01*
X211237174Y-115148021D01*
X211491205Y-115317759D01*
X211707241Y-115533795D01*
X211876979Y-115787826D01*
X211993896Y-116070090D01*
X212053500Y-116369740D01*
X212053500Y-116675260D01*
X211993896Y-116974910D01*
X211876979Y-117257174D01*
X211707241Y-117511205D01*
X211491205Y-117727241D01*
X211237174Y-117896979D01*
X210954910Y-118013896D01*
X210805085Y-118043698D01*
X210655261Y-118073500D01*
X210349739Y-118073500D01*
X210199915Y-118043698D01*
X210050090Y-118013896D01*
X209767826Y-117896979D01*
X209513795Y-117727241D01*
X209297759Y-117511205D01*
X209128021Y-117257174D01*
X209011104Y-116974910D01*
X208951500Y-116675260D01*
X208951500Y-116369740D01*
X209011104Y-116070090D01*
X209128021Y-115787826D01*
X209297759Y-115533795D01*
X209513795Y-115317759D01*
X209767826Y-115148021D01*
X210050090Y-115031104D01*
X210199915Y-115001302D01*
X210349739Y-114971500D01*
X210655261Y-114971500D01*
X210805085Y-115001302D01*
G37*
G36*
X179055085Y-112461302D02*
G01*
X179204910Y-112491104D01*
X179487174Y-112608021D01*
X179741205Y-112777759D01*
X179957241Y-112993795D01*
X180126979Y-113247826D01*
X180243896Y-113530090D01*
X180303500Y-113829740D01*
X180303500Y-114135260D01*
X180243896Y-114434910D01*
X180126979Y-114717174D01*
X179957241Y-114971205D01*
X179741205Y-115187241D01*
X179487174Y-115356979D01*
X179204910Y-115473896D01*
X179055085Y-115503698D01*
X178905261Y-115533500D01*
X178599739Y-115533500D01*
X178449915Y-115503698D01*
X178300090Y-115473896D01*
X178017826Y-115356979D01*
X177763795Y-115187241D01*
X177547759Y-114971205D01*
X177378021Y-114717174D01*
X177261104Y-114434910D01*
X177201500Y-114135260D01*
X177201500Y-113829740D01*
X177261104Y-113530090D01*
X177378021Y-113247826D01*
X177547759Y-112993795D01*
X177763795Y-112777759D01*
X178017826Y-112608021D01*
X178300090Y-112491104D01*
X178449915Y-112461302D01*
X178599739Y-112431500D01*
X178905261Y-112431500D01*
X179055085Y-112461302D01*
G37*
G36*
X198105085Y-112461302D02*
G01*
X198254910Y-112491104D01*
X198537174Y-112608021D01*
X198791205Y-112777759D01*
X199007241Y-112993795D01*
X199176979Y-113247826D01*
X199293896Y-113530090D01*
X199353500Y-113829740D01*
X199353500Y-114135260D01*
X199293896Y-114434910D01*
X199176979Y-114717174D01*
X199007241Y-114971205D01*
X198791205Y-115187241D01*
X198537174Y-115356979D01*
X198254910Y-115473896D01*
X198105085Y-115503698D01*
X197955261Y-115533500D01*
X197649739Y-115533500D01*
X197499915Y-115503698D01*
X197350090Y-115473896D01*
X197067826Y-115356979D01*
X196813795Y-115187241D01*
X196597759Y-114971205D01*
X196428021Y-114717174D01*
X196311104Y-114434910D01*
X196251500Y-114135260D01*
X196251500Y-113829740D01*
X196311104Y-113530090D01*
X196428021Y-113247826D01*
X196597759Y-112993795D01*
X196813795Y-112777759D01*
X197067826Y-112608021D01*
X197350090Y-112491104D01*
X197499915Y-112461302D01*
X197649739Y-112431500D01*
X197955261Y-112431500D01*
X198105085Y-112461302D01*
G37*
G36*
X217155085Y-112461302D02*
G01*
X217304910Y-112491104D01*
X217587174Y-112608021D01*
X217841205Y-112777759D01*
X218057241Y-112993795D01*
X218226979Y-113247826D01*
X218343896Y-113530090D01*
X218403500Y-113829740D01*
X218403500Y-114135260D01*
X218343896Y-114434910D01*
X218226979Y-114717174D01*
X218057241Y-114971205D01*
X217841205Y-115187241D01*
X217587174Y-115356979D01*
X217304910Y-115473896D01*
X217155085Y-115503698D01*
X217005261Y-115533500D01*
X216699739Y-115533500D01*
X216549915Y-115503698D01*
X216400090Y-115473896D01*
X216117826Y-115356979D01*
X215863795Y-115187241D01*
X215647759Y-114971205D01*
X215478021Y-114717174D01*
X215361104Y-114434910D01*
X215301500Y-114135260D01*
X215301500Y-113829740D01*
X215361104Y-113530090D01*
X215478021Y-113247826D01*
X215647759Y-112993795D01*
X215863795Y-112777759D01*
X216117826Y-112608021D01*
X216400090Y-112491104D01*
X216549915Y-112461302D01*
X216699739Y-112431500D01*
X217005261Y-112431500D01*
X217155085Y-112461302D01*
G37*
G36*
X98092585Y-112461302D02*
G01*
X98242410Y-112491104D01*
X98524674Y-112608021D01*
X98778705Y-112777759D01*
X98994741Y-112993795D01*
X99164479Y-113247826D01*
X99281396Y-113530090D01*
X99341000Y-113829740D01*
X99341000Y-114135260D01*
X99281396Y-114434910D01*
X99164479Y-114717174D01*
X98994741Y-114971205D01*
X98778705Y-115187241D01*
X98524674Y-115356979D01*
X98242410Y-115473896D01*
X98092585Y-115503698D01*
X97942761Y-115533500D01*
X97637239Y-115533500D01*
X97487415Y-115503698D01*
X97337590Y-115473896D01*
X97055326Y-115356979D01*
X96801295Y-115187241D01*
X96585259Y-114971205D01*
X96415521Y-114717174D01*
X96298604Y-114434910D01*
X96239000Y-114135260D01*
X96239000Y-113829740D01*
X96298604Y-113530090D01*
X96415521Y-113247826D01*
X96585259Y-112993795D01*
X96801295Y-112777759D01*
X97055326Y-112608021D01*
X97337590Y-112491104D01*
X97487415Y-112461302D01*
X97637239Y-112431500D01*
X97942761Y-112431500D01*
X98092585Y-112461302D01*
G37*
G36*
X160005085Y-112461302D02*
G01*
X160154910Y-112491104D01*
X160437174Y-112608021D01*
X160691205Y-112777759D01*
X160907241Y-112993795D01*
X161076979Y-113247826D01*
X161193896Y-113530090D01*
X161253500Y-113829740D01*
X161253500Y-114135260D01*
X161193896Y-114434910D01*
X161076979Y-114717174D01*
X160907241Y-114971205D01*
X160691205Y-115187241D01*
X160437174Y-115356979D01*
X160154910Y-115473896D01*
X160005085Y-115503698D01*
X159855261Y-115533500D01*
X159549739Y-115533500D01*
X159399915Y-115503698D01*
X159250090Y-115473896D01*
X158967826Y-115356979D01*
X158713795Y-115187241D01*
X158497759Y-114971205D01*
X158328021Y-114717174D01*
X158211104Y-114434910D01*
X158151500Y-114135260D01*
X158151500Y-113829740D01*
X158211104Y-113530090D01*
X158328021Y-113247826D01*
X158497759Y-112993795D01*
X158713795Y-112777759D01*
X158967826Y-112608021D01*
X159250090Y-112491104D01*
X159399915Y-112461302D01*
X159549739Y-112431500D01*
X159855261Y-112431500D01*
X160005085Y-112461302D01*
G37*
G36*
X140955085Y-112461302D02*
G01*
X141104910Y-112491104D01*
X141387174Y-112608021D01*
X141641205Y-112777759D01*
X141857241Y-112993795D01*
X142026979Y-113247826D01*
X142143896Y-113530090D01*
X142203500Y-113829740D01*
X142203500Y-114135260D01*
X142143896Y-114434910D01*
X142026979Y-114717174D01*
X141857241Y-114971205D01*
X141641205Y-115187241D01*
X141387174Y-115356979D01*
X141104910Y-115473896D01*
X140955085Y-115503698D01*
X140805261Y-115533500D01*
X140499739Y-115533500D01*
X140349915Y-115503698D01*
X140200090Y-115473896D01*
X139917826Y-115356979D01*
X139663795Y-115187241D01*
X139447759Y-114971205D01*
X139278021Y-114717174D01*
X139161104Y-114434910D01*
X139101500Y-114135260D01*
X139101500Y-113829740D01*
X139161104Y-113530090D01*
X139278021Y-113247826D01*
X139447759Y-112993795D01*
X139663795Y-112777759D01*
X139917826Y-112608021D01*
X140200090Y-112491104D01*
X140349915Y-112461302D01*
X140499739Y-112431500D01*
X140805261Y-112431500D01*
X140955085Y-112461302D01*
G37*
G36*
X121905085Y-112461302D02*
G01*
X122054910Y-112491104D01*
X122337174Y-112608021D01*
X122591205Y-112777759D01*
X122807241Y-112993795D01*
X122976979Y-113247826D01*
X123093896Y-113530090D01*
X123153500Y-113829740D01*
X123153500Y-114135260D01*
X123093896Y-114434910D01*
X122976979Y-114717174D01*
X122807241Y-114971205D01*
X122591205Y-115187241D01*
X122337174Y-115356979D01*
X122054910Y-115473896D01*
X121905085Y-115503698D01*
X121755261Y-115533500D01*
X121449739Y-115533500D01*
X121299915Y-115503698D01*
X121150090Y-115473896D01*
X120867826Y-115356979D01*
X120613795Y-115187241D01*
X120397759Y-114971205D01*
X120228021Y-114717174D01*
X120111104Y-114434910D01*
X120051500Y-114135260D01*
X120051500Y-113829740D01*
X120111104Y-113530090D01*
X120228021Y-113247826D01*
X120397759Y-112993795D01*
X120613795Y-112777759D01*
X120867826Y-112608021D01*
X121150090Y-112491104D01*
X121299915Y-112461302D01*
X121449739Y-112431500D01*
X121755261Y-112431500D01*
X121905085Y-112461302D01*
G37*
G36*
X147913380Y-107297276D02*
G01*
X148294093Y-107373004D01*
X148703749Y-107542689D01*
X149072429Y-107789034D01*
X149385966Y-108102571D01*
X149632311Y-108471251D01*
X149801996Y-108880907D01*
X149888500Y-109315796D01*
X149888500Y-109759204D01*
X149801996Y-110194093D01*
X149632311Y-110603749D01*
X149385966Y-110972429D01*
X149072429Y-111285966D01*
X148703749Y-111532311D01*
X148294093Y-111701996D01*
X147913380Y-111777724D01*
X147859205Y-111788500D01*
X147415795Y-111788500D01*
X147361620Y-111777724D01*
X146980907Y-111701996D01*
X146571251Y-111532311D01*
X146202571Y-111285966D01*
X145889034Y-110972429D01*
X145642689Y-110603749D01*
X145473004Y-110194093D01*
X145386500Y-109759204D01*
X145386500Y-109315796D01*
X145473004Y-108880907D01*
X145642689Y-108471251D01*
X145889034Y-108102571D01*
X146202571Y-107789034D01*
X146571251Y-107542689D01*
X146980907Y-107373004D01*
X147361620Y-107297276D01*
X147415795Y-107286500D01*
X147859205Y-107286500D01*
X147913380Y-107297276D01*
G37*
G36*
X133946474Y-98046184D02*
G01*
X134164474Y-98136483D01*
X134318623Y-98200333D01*
X134653548Y-98424123D01*
X134938377Y-98708952D01*
X135162167Y-99043877D01*
X135194562Y-99122086D01*
X135316316Y-99416026D01*
X135394900Y-99811094D01*
X135394900Y-100213906D01*
X135316316Y-100608974D01*
X135265451Y-100731772D01*
X135162167Y-100981123D01*
X134938377Y-101316048D01*
X134653548Y-101600877D01*
X134318623Y-101824667D01*
X134164474Y-101888517D01*
X133946474Y-101978816D01*
X133551406Y-102057400D01*
X133148594Y-102057400D01*
X132753526Y-101978816D01*
X132535526Y-101888517D01*
X132381377Y-101824667D01*
X132046452Y-101600877D01*
X131761623Y-101316048D01*
X131537833Y-100981123D01*
X131434549Y-100731772D01*
X131383684Y-100608974D01*
X131305100Y-100213906D01*
X131305100Y-99811094D01*
X131383684Y-99416026D01*
X131505438Y-99122086D01*
X131537833Y-99043877D01*
X131761623Y-98708952D01*
X132046452Y-98424123D01*
X132381377Y-98200333D01*
X132535526Y-98136483D01*
X132753526Y-98046184D01*
X133148594Y-97967600D01*
X133551406Y-97967600D01*
X133946474Y-98046184D01*
G37*
G36*
X191096474Y-98046184D02*
G01*
X191314474Y-98136483D01*
X191468623Y-98200333D01*
X191803548Y-98424123D01*
X192088377Y-98708952D01*
X192312167Y-99043877D01*
X192344562Y-99122086D01*
X192466316Y-99416026D01*
X192544900Y-99811094D01*
X192544900Y-100213906D01*
X192466316Y-100608974D01*
X192415451Y-100731772D01*
X192312167Y-100981123D01*
X192088377Y-101316048D01*
X191803548Y-101600877D01*
X191468623Y-101824667D01*
X191314474Y-101888517D01*
X191096474Y-101978816D01*
X190701406Y-102057400D01*
X190298594Y-102057400D01*
X189903526Y-101978816D01*
X189685526Y-101888517D01*
X189531377Y-101824667D01*
X189196452Y-101600877D01*
X188911623Y-101316048D01*
X188687833Y-100981123D01*
X188584549Y-100731772D01*
X188533684Y-100608974D01*
X188455100Y-100213906D01*
X188455100Y-99811094D01*
X188533684Y-99416026D01*
X188655438Y-99122086D01*
X188687833Y-99043877D01*
X188911623Y-98708952D01*
X189196452Y-98424123D01*
X189531377Y-98200333D01*
X189685526Y-98136483D01*
X189903526Y-98046184D01*
X190298594Y-97967600D01*
X190701406Y-97967600D01*
X191096474Y-98046184D01*
G37*
G36*
X212527724Y-98046184D02*
G01*
X212745724Y-98136483D01*
X212899873Y-98200333D01*
X213234798Y-98424123D01*
X213519627Y-98708952D01*
X213743417Y-99043877D01*
X213775812Y-99122086D01*
X213897566Y-99416026D01*
X213976150Y-99811094D01*
X213976150Y-100213906D01*
X213897566Y-100608974D01*
X213846701Y-100731772D01*
X213743417Y-100981123D01*
X213519627Y-101316048D01*
X213234798Y-101600877D01*
X212899873Y-101824667D01*
X212745724Y-101888517D01*
X212527724Y-101978816D01*
X212132656Y-102057400D01*
X211729844Y-102057400D01*
X211334776Y-101978816D01*
X211116776Y-101888517D01*
X210962627Y-101824667D01*
X210627702Y-101600877D01*
X210342873Y-101316048D01*
X210119083Y-100981123D01*
X210015799Y-100731772D01*
X209964934Y-100608974D01*
X209886350Y-100213906D01*
X209886350Y-99811094D01*
X209964934Y-99416026D01*
X210086688Y-99122086D01*
X210119083Y-99043877D01*
X210342873Y-98708952D01*
X210627702Y-98424123D01*
X210962627Y-98200333D01*
X211116776Y-98136483D01*
X211334776Y-98046184D01*
X211729844Y-97967600D01*
X212132656Y-97967600D01*
X212527724Y-98046184D01*
G37*
G36*
X93465224Y-98046184D02*
G01*
X93683224Y-98136483D01*
X93837373Y-98200333D01*
X94172298Y-98424123D01*
X94457127Y-98708952D01*
X94680917Y-99043877D01*
X94713312Y-99122086D01*
X94835066Y-99416026D01*
X94913650Y-99811094D01*
X94913650Y-100213906D01*
X94835066Y-100608974D01*
X94784201Y-100731772D01*
X94680917Y-100981123D01*
X94457127Y-101316048D01*
X94172298Y-101600877D01*
X93837373Y-101824667D01*
X93683224Y-101888517D01*
X93465224Y-101978816D01*
X93070156Y-102057400D01*
X92667344Y-102057400D01*
X92272276Y-101978816D01*
X92054276Y-101888517D01*
X91900127Y-101824667D01*
X91565202Y-101600877D01*
X91280373Y-101316048D01*
X91056583Y-100981123D01*
X90953299Y-100731772D01*
X90902434Y-100608974D01*
X90823850Y-100213906D01*
X90823850Y-99811094D01*
X90902434Y-99416026D01*
X91024188Y-99122086D01*
X91056583Y-99043877D01*
X91280373Y-98708952D01*
X91565202Y-98424123D01*
X91900127Y-98200333D01*
X92054276Y-98136483D01*
X92272276Y-98046184D01*
X92667344Y-97967600D01*
X93070156Y-97967600D01*
X93465224Y-98046184D01*
G37*
G36*
X152996474Y-98046184D02*
G01*
X153214474Y-98136483D01*
X153368623Y-98200333D01*
X153703548Y-98424123D01*
X153988377Y-98708952D01*
X154212167Y-99043877D01*
X154244562Y-99122086D01*
X154366316Y-99416026D01*
X154444900Y-99811094D01*
X154444900Y-100213906D01*
X154366316Y-100608974D01*
X154315451Y-100731772D01*
X154212167Y-100981123D01*
X153988377Y-101316048D01*
X153703548Y-101600877D01*
X153368623Y-101824667D01*
X153214474Y-101888517D01*
X152996474Y-101978816D01*
X152601406Y-102057400D01*
X152198594Y-102057400D01*
X151803526Y-101978816D01*
X151585526Y-101888517D01*
X151431377Y-101824667D01*
X151096452Y-101600877D01*
X150811623Y-101316048D01*
X150587833Y-100981123D01*
X150484549Y-100731772D01*
X150433684Y-100608974D01*
X150355100Y-100213906D01*
X150355100Y-99811094D01*
X150433684Y-99416026D01*
X150555438Y-99122086D01*
X150587833Y-99043877D01*
X150811623Y-98708952D01*
X151096452Y-98424123D01*
X151431377Y-98200333D01*
X151585526Y-98136483D01*
X151803526Y-98046184D01*
X152198594Y-97967600D01*
X152601406Y-97967600D01*
X152996474Y-98046184D01*
G37*
G36*
X172046474Y-98046184D02*
G01*
X172264474Y-98136483D01*
X172418623Y-98200333D01*
X172753548Y-98424123D01*
X173038377Y-98708952D01*
X173262167Y-99043877D01*
X173294562Y-99122086D01*
X173416316Y-99416026D01*
X173494900Y-99811094D01*
X173494900Y-100213906D01*
X173416316Y-100608974D01*
X173365451Y-100731772D01*
X173262167Y-100981123D01*
X173038377Y-101316048D01*
X172753548Y-101600877D01*
X172418623Y-101824667D01*
X172264474Y-101888517D01*
X172046474Y-101978816D01*
X171651406Y-102057400D01*
X171248594Y-102057400D01*
X170853526Y-101978816D01*
X170635526Y-101888517D01*
X170481377Y-101824667D01*
X170146452Y-101600877D01*
X169861623Y-101316048D01*
X169637833Y-100981123D01*
X169534549Y-100731772D01*
X169483684Y-100608974D01*
X169405100Y-100213906D01*
X169405100Y-99811094D01*
X169483684Y-99416026D01*
X169605438Y-99122086D01*
X169637833Y-99043877D01*
X169861623Y-98708952D01*
X170146452Y-98424123D01*
X170481377Y-98200333D01*
X170635526Y-98136483D01*
X170853526Y-98046184D01*
X171248594Y-97967600D01*
X171651406Y-97967600D01*
X172046474Y-98046184D01*
G37*
G36*
X114896474Y-98046184D02*
G01*
X115114474Y-98136483D01*
X115268623Y-98200333D01*
X115603548Y-98424123D01*
X115888377Y-98708952D01*
X116112167Y-99043877D01*
X116144562Y-99122086D01*
X116266316Y-99416026D01*
X116344900Y-99811094D01*
X116344900Y-100213906D01*
X116266316Y-100608974D01*
X116215451Y-100731772D01*
X116112167Y-100981123D01*
X115888377Y-101316048D01*
X115603548Y-101600877D01*
X115268623Y-101824667D01*
X115114474Y-101888517D01*
X114896474Y-101978816D01*
X114501406Y-102057400D01*
X114098594Y-102057400D01*
X113703526Y-101978816D01*
X113485526Y-101888517D01*
X113331377Y-101824667D01*
X112996452Y-101600877D01*
X112711623Y-101316048D01*
X112487833Y-100981123D01*
X112384549Y-100731772D01*
X112333684Y-100608974D01*
X112255100Y-100213906D01*
X112255100Y-99811094D01*
X112333684Y-99416026D01*
X112455438Y-99122086D01*
X112487833Y-99043877D01*
X112711623Y-98708952D01*
X112996452Y-98424123D01*
X113331377Y-98200333D01*
X113485526Y-98136483D01*
X113703526Y-98046184D01*
X114098594Y-97967600D01*
X114501406Y-97967600D01*
X114896474Y-98046184D01*
G37*
G36*
X157750104Y-99122085D02*
G01*
X157918626Y-99191889D01*
X158070291Y-99293228D01*
X158199272Y-99422209D01*
X158300611Y-99573874D01*
X158370415Y-99742396D01*
X158406000Y-99921297D01*
X158406000Y-100103703D01*
X158370415Y-100282604D01*
X158300611Y-100451126D01*
X158199272Y-100602791D01*
X158070291Y-100731772D01*
X157918626Y-100833111D01*
X157750104Y-100902915D01*
X157571203Y-100938500D01*
X157388797Y-100938500D01*
X157209896Y-100902915D01*
X157041374Y-100833111D01*
X156889709Y-100731772D01*
X156760728Y-100602791D01*
X156659389Y-100451126D01*
X156589585Y-100282604D01*
X156554000Y-100103703D01*
X156554000Y-99921297D01*
X156589585Y-99742396D01*
X156659389Y-99573874D01*
X156760728Y-99422209D01*
X156889709Y-99293228D01*
X157041374Y-99191889D01*
X157209896Y-99122085D01*
X157388797Y-99086500D01*
X157571203Y-99086500D01*
X157750104Y-99122085D01*
G37*
G36*
X88058854Y-99122085D02*
G01*
X88227376Y-99191889D01*
X88379041Y-99293228D01*
X88508022Y-99422209D01*
X88609361Y-99573874D01*
X88679165Y-99742396D01*
X88714750Y-99921297D01*
X88714750Y-100103703D01*
X88679165Y-100282604D01*
X88609361Y-100451126D01*
X88508022Y-100602791D01*
X88379041Y-100731772D01*
X88227376Y-100833111D01*
X88058854Y-100902915D01*
X87879953Y-100938500D01*
X87697547Y-100938500D01*
X87518646Y-100902915D01*
X87350124Y-100833111D01*
X87198459Y-100731772D01*
X87069478Y-100602791D01*
X86968139Y-100451126D01*
X86898335Y-100282604D01*
X86862750Y-100103703D01*
X86862750Y-99921297D01*
X86898335Y-99742396D01*
X86968139Y-99573874D01*
X87069478Y-99422209D01*
X87198459Y-99293228D01*
X87350124Y-99191889D01*
X87518646Y-99122085D01*
X87697547Y-99086500D01*
X87879953Y-99086500D01*
X88058854Y-99122085D01*
G37*
G36*
X98218854Y-99122085D02*
G01*
X98387376Y-99191889D01*
X98539041Y-99293228D01*
X98668022Y-99422209D01*
X98769361Y-99573874D01*
X98839165Y-99742396D01*
X98874750Y-99921297D01*
X98874750Y-100103703D01*
X98839165Y-100282604D01*
X98769361Y-100451126D01*
X98668022Y-100602791D01*
X98539041Y-100731772D01*
X98387376Y-100833111D01*
X98218854Y-100902915D01*
X98039953Y-100938500D01*
X97857547Y-100938500D01*
X97678646Y-100902915D01*
X97510124Y-100833111D01*
X97358459Y-100731772D01*
X97229478Y-100602791D01*
X97128139Y-100451126D01*
X97058335Y-100282604D01*
X97022750Y-100103703D01*
X97022750Y-99921297D01*
X97058335Y-99742396D01*
X97128139Y-99573874D01*
X97229478Y-99422209D01*
X97358459Y-99293228D01*
X97510124Y-99191889D01*
X97678646Y-99122085D01*
X97857547Y-99086500D01*
X98039953Y-99086500D01*
X98218854Y-99122085D01*
G37*
G36*
X217281354Y-99122085D02*
G01*
X217449876Y-99191889D01*
X217601541Y-99293228D01*
X217730522Y-99422209D01*
X217831861Y-99573874D01*
X217901665Y-99742396D01*
X217937250Y-99921297D01*
X217937250Y-100103703D01*
X217901665Y-100282604D01*
X217831861Y-100451126D01*
X217730522Y-100602791D01*
X217601541Y-100731772D01*
X217449876Y-100833111D01*
X217281354Y-100902915D01*
X217102453Y-100938500D01*
X216920047Y-100938500D01*
X216741146Y-100902915D01*
X216572624Y-100833111D01*
X216420959Y-100731772D01*
X216291978Y-100602791D01*
X216190639Y-100451126D01*
X216120835Y-100282604D01*
X216085250Y-100103703D01*
X216085250Y-99921297D01*
X216120835Y-99742396D01*
X216190639Y-99573874D01*
X216291978Y-99422209D01*
X216420959Y-99293228D01*
X216572624Y-99191889D01*
X216741146Y-99122085D01*
X216920047Y-99086500D01*
X217102453Y-99086500D01*
X217281354Y-99122085D01*
G37*
G36*
X207121354Y-99122085D02*
G01*
X207289876Y-99191889D01*
X207441541Y-99293228D01*
X207570522Y-99422209D01*
X207671861Y-99573874D01*
X207741665Y-99742396D01*
X207777250Y-99921297D01*
X207777250Y-100103703D01*
X207741665Y-100282604D01*
X207671861Y-100451126D01*
X207570522Y-100602791D01*
X207441541Y-100731772D01*
X207289876Y-100833111D01*
X207121354Y-100902915D01*
X206942453Y-100938500D01*
X206760047Y-100938500D01*
X206581146Y-100902915D01*
X206412624Y-100833111D01*
X206260959Y-100731772D01*
X206131978Y-100602791D01*
X206030639Y-100451126D01*
X205960835Y-100282604D01*
X205925250Y-100103703D01*
X205925250Y-99921297D01*
X205960835Y-99742396D01*
X206030639Y-99573874D01*
X206131978Y-99422209D01*
X206260959Y-99293228D01*
X206412624Y-99191889D01*
X206581146Y-99122085D01*
X206760047Y-99086500D01*
X206942453Y-99086500D01*
X207121354Y-99122085D01*
G37*
G36*
X195850104Y-99122085D02*
G01*
X196018626Y-99191889D01*
X196170291Y-99293228D01*
X196299272Y-99422209D01*
X196400611Y-99573874D01*
X196470415Y-99742396D01*
X196506000Y-99921297D01*
X196506000Y-100103703D01*
X196470415Y-100282604D01*
X196400611Y-100451126D01*
X196299272Y-100602791D01*
X196170291Y-100731772D01*
X196018626Y-100833111D01*
X195850104Y-100902915D01*
X195671203Y-100938500D01*
X195488797Y-100938500D01*
X195309896Y-100902915D01*
X195141374Y-100833111D01*
X194989709Y-100731772D01*
X194860728Y-100602791D01*
X194759389Y-100451126D01*
X194689585Y-100282604D01*
X194654000Y-100103703D01*
X194654000Y-99921297D01*
X194689585Y-99742396D01*
X194759389Y-99573874D01*
X194860728Y-99422209D01*
X194989709Y-99293228D01*
X195141374Y-99191889D01*
X195309896Y-99122085D01*
X195488797Y-99086500D01*
X195671203Y-99086500D01*
X195850104Y-99122085D01*
G37*
G36*
X185690104Y-99122085D02*
G01*
X185858626Y-99191889D01*
X186010291Y-99293228D01*
X186139272Y-99422209D01*
X186240611Y-99573874D01*
X186310415Y-99742396D01*
X186346000Y-99921297D01*
X186346000Y-100103703D01*
X186310415Y-100282604D01*
X186240611Y-100451126D01*
X186139272Y-100602791D01*
X186010291Y-100731772D01*
X185858626Y-100833111D01*
X185690104Y-100902915D01*
X185511203Y-100938500D01*
X185328797Y-100938500D01*
X185149896Y-100902915D01*
X184981374Y-100833111D01*
X184829709Y-100731772D01*
X184700728Y-100602791D01*
X184599389Y-100451126D01*
X184529585Y-100282604D01*
X184494000Y-100103703D01*
X184494000Y-99921297D01*
X184529585Y-99742396D01*
X184599389Y-99573874D01*
X184700728Y-99422209D01*
X184829709Y-99293228D01*
X184981374Y-99191889D01*
X185149896Y-99122085D01*
X185328797Y-99086500D01*
X185511203Y-99086500D01*
X185690104Y-99122085D01*
G37*
G36*
X147590104Y-99122085D02*
G01*
X147758626Y-99191889D01*
X147910291Y-99293228D01*
X148039272Y-99422209D01*
X148140611Y-99573874D01*
X148210415Y-99742396D01*
X148246000Y-99921297D01*
X148246000Y-100103703D01*
X148210415Y-100282604D01*
X148140611Y-100451126D01*
X148039272Y-100602791D01*
X147910291Y-100731772D01*
X147758626Y-100833111D01*
X147590104Y-100902915D01*
X147411203Y-100938500D01*
X147228797Y-100938500D01*
X147049896Y-100902915D01*
X146881374Y-100833111D01*
X146729709Y-100731772D01*
X146600728Y-100602791D01*
X146499389Y-100451126D01*
X146429585Y-100282604D01*
X146394000Y-100103703D01*
X146394000Y-99921297D01*
X146429585Y-99742396D01*
X146499389Y-99573874D01*
X146600728Y-99422209D01*
X146729709Y-99293228D01*
X146881374Y-99191889D01*
X147049896Y-99122085D01*
X147228797Y-99086500D01*
X147411203Y-99086500D01*
X147590104Y-99122085D01*
G37*
G36*
X138700104Y-99122085D02*
G01*
X138868626Y-99191889D01*
X139020291Y-99293228D01*
X139149272Y-99422209D01*
X139250611Y-99573874D01*
X139320415Y-99742396D01*
X139356000Y-99921297D01*
X139356000Y-100103703D01*
X139320415Y-100282604D01*
X139250611Y-100451126D01*
X139149272Y-100602791D01*
X139020291Y-100731772D01*
X138868626Y-100833111D01*
X138700104Y-100902915D01*
X138521203Y-100938500D01*
X138338797Y-100938500D01*
X138159896Y-100902915D01*
X137991374Y-100833111D01*
X137839709Y-100731772D01*
X137710728Y-100602791D01*
X137609389Y-100451126D01*
X137539585Y-100282604D01*
X137504000Y-100103703D01*
X137504000Y-99921297D01*
X137539585Y-99742396D01*
X137609389Y-99573874D01*
X137710728Y-99422209D01*
X137839709Y-99293228D01*
X137991374Y-99191889D01*
X138159896Y-99122085D01*
X138338797Y-99086500D01*
X138521203Y-99086500D01*
X138700104Y-99122085D01*
G37*
G36*
X128540104Y-99122085D02*
G01*
X128708626Y-99191889D01*
X128860291Y-99293228D01*
X128989272Y-99422209D01*
X129090611Y-99573874D01*
X129160415Y-99742396D01*
X129196000Y-99921297D01*
X129196000Y-100103703D01*
X129160415Y-100282604D01*
X129090611Y-100451126D01*
X128989272Y-100602791D01*
X128860291Y-100731772D01*
X128708626Y-100833111D01*
X128540104Y-100902915D01*
X128361203Y-100938500D01*
X128178797Y-100938500D01*
X127999896Y-100902915D01*
X127831374Y-100833111D01*
X127679709Y-100731772D01*
X127550728Y-100602791D01*
X127449389Y-100451126D01*
X127379585Y-100282604D01*
X127344000Y-100103703D01*
X127344000Y-99921297D01*
X127379585Y-99742396D01*
X127449389Y-99573874D01*
X127550728Y-99422209D01*
X127679709Y-99293228D01*
X127831374Y-99191889D01*
X127999896Y-99122085D01*
X128178797Y-99086500D01*
X128361203Y-99086500D01*
X128540104Y-99122085D01*
G37*
G36*
X176800104Y-99122085D02*
G01*
X176968626Y-99191889D01*
X177120291Y-99293228D01*
X177249272Y-99422209D01*
X177350611Y-99573874D01*
X177420415Y-99742396D01*
X177456000Y-99921297D01*
X177456000Y-100103703D01*
X177420415Y-100282604D01*
X177350611Y-100451126D01*
X177249272Y-100602791D01*
X177120291Y-100731772D01*
X176968626Y-100833111D01*
X176800104Y-100902915D01*
X176621203Y-100938500D01*
X176438797Y-100938500D01*
X176259896Y-100902915D01*
X176091374Y-100833111D01*
X175939709Y-100731772D01*
X175810728Y-100602791D01*
X175709389Y-100451126D01*
X175639585Y-100282604D01*
X175604000Y-100103703D01*
X175604000Y-99921297D01*
X175639585Y-99742396D01*
X175709389Y-99573874D01*
X175810728Y-99422209D01*
X175939709Y-99293228D01*
X176091374Y-99191889D01*
X176259896Y-99122085D01*
X176438797Y-99086500D01*
X176621203Y-99086500D01*
X176800104Y-99122085D01*
G37*
G36*
X166640104Y-99122085D02*
G01*
X166808626Y-99191889D01*
X166960291Y-99293228D01*
X167089272Y-99422209D01*
X167190611Y-99573874D01*
X167260415Y-99742396D01*
X167296000Y-99921297D01*
X167296000Y-100103703D01*
X167260415Y-100282604D01*
X167190611Y-100451126D01*
X167089272Y-100602791D01*
X166960291Y-100731772D01*
X166808626Y-100833111D01*
X166640104Y-100902915D01*
X166461203Y-100938500D01*
X166278797Y-100938500D01*
X166099896Y-100902915D01*
X165931374Y-100833111D01*
X165779709Y-100731772D01*
X165650728Y-100602791D01*
X165549389Y-100451126D01*
X165479585Y-100282604D01*
X165444000Y-100103703D01*
X165444000Y-99921297D01*
X165479585Y-99742396D01*
X165549389Y-99573874D01*
X165650728Y-99422209D01*
X165779709Y-99293228D01*
X165931374Y-99191889D01*
X166099896Y-99122085D01*
X166278797Y-99086500D01*
X166461203Y-99086500D01*
X166640104Y-99122085D01*
G37*
G36*
X119650104Y-99122085D02*
G01*
X119818626Y-99191889D01*
X119970291Y-99293228D01*
X120099272Y-99422209D01*
X120200611Y-99573874D01*
X120270415Y-99742396D01*
X120306000Y-99921297D01*
X120306000Y-100103703D01*
X120270415Y-100282604D01*
X120200611Y-100451126D01*
X120099272Y-100602791D01*
X119970291Y-100731772D01*
X119818626Y-100833111D01*
X119650104Y-100902915D01*
X119471203Y-100938500D01*
X119288797Y-100938500D01*
X119109896Y-100902915D01*
X118941374Y-100833111D01*
X118789709Y-100731772D01*
X118660728Y-100602791D01*
X118559389Y-100451126D01*
X118489585Y-100282604D01*
X118454000Y-100103703D01*
X118454000Y-99921297D01*
X118489585Y-99742396D01*
X118559389Y-99573874D01*
X118660728Y-99422209D01*
X118789709Y-99293228D01*
X118941374Y-99191889D01*
X119109896Y-99122085D01*
X119288797Y-99086500D01*
X119471203Y-99086500D01*
X119650104Y-99122085D01*
G37*
G36*
X109490104Y-99122085D02*
G01*
X109658626Y-99191889D01*
X109810291Y-99293228D01*
X109939272Y-99422209D01*
X110040611Y-99573874D01*
X110110415Y-99742396D01*
X110146000Y-99921297D01*
X110146000Y-100103703D01*
X110110415Y-100282604D01*
X110040611Y-100451126D01*
X109939272Y-100602791D01*
X109810291Y-100731772D01*
X109658626Y-100833111D01*
X109490104Y-100902915D01*
X109311203Y-100938500D01*
X109128797Y-100938500D01*
X108949896Y-100902915D01*
X108781374Y-100833111D01*
X108629709Y-100731772D01*
X108500728Y-100602791D01*
X108399389Y-100451126D01*
X108329585Y-100282604D01*
X108294000Y-100103703D01*
X108294000Y-99921297D01*
X108329585Y-99742396D01*
X108399389Y-99573874D01*
X108500728Y-99422209D01*
X108629709Y-99293228D01*
X108781374Y-99191889D01*
X108949896Y-99122085D01*
X109128797Y-99086500D01*
X109311203Y-99086500D01*
X109490104Y-99122085D01*
G37*
G36*
X167942585Y-95951302D02*
G01*
X168092410Y-95981104D01*
X168374674Y-96098021D01*
X168628705Y-96267759D01*
X168844741Y-96483795D01*
X169014479Y-96737826D01*
X169131396Y-97020090D01*
X169191000Y-97319740D01*
X169191000Y-97625260D01*
X169131396Y-97924910D01*
X169014479Y-98207174D01*
X168844741Y-98461205D01*
X168628705Y-98677241D01*
X168374674Y-98846979D01*
X168092410Y-98963896D01*
X167942585Y-98993698D01*
X167792761Y-99023500D01*
X167487239Y-99023500D01*
X167337415Y-98993698D01*
X167187590Y-98963896D01*
X166905326Y-98846979D01*
X166651295Y-98677241D01*
X166435259Y-98461205D01*
X166265521Y-98207174D01*
X166148604Y-97924910D01*
X166089000Y-97625260D01*
X166089000Y-97319740D01*
X166148604Y-97020090D01*
X166265521Y-96737826D01*
X166435259Y-96483795D01*
X166651295Y-96267759D01*
X166905326Y-96098021D01*
X167187590Y-95981104D01*
X167337415Y-95951302D01*
X167487239Y-95921500D01*
X167792761Y-95921500D01*
X167942585Y-95951302D01*
G37*
G36*
X129842585Y-95951302D02*
G01*
X129992410Y-95981104D01*
X130274674Y-96098021D01*
X130528705Y-96267759D01*
X130744741Y-96483795D01*
X130914479Y-96737826D01*
X131031396Y-97020090D01*
X131091000Y-97319740D01*
X131091000Y-97625260D01*
X131031396Y-97924910D01*
X130914479Y-98207174D01*
X130744741Y-98461205D01*
X130528705Y-98677241D01*
X130274674Y-98846979D01*
X129992410Y-98963896D01*
X129842585Y-98993698D01*
X129692761Y-99023500D01*
X129387239Y-99023500D01*
X129237415Y-98993698D01*
X129087590Y-98963896D01*
X128805326Y-98846979D01*
X128551295Y-98677241D01*
X128335259Y-98461205D01*
X128165521Y-98207174D01*
X128048604Y-97924910D01*
X127989000Y-97625260D01*
X127989000Y-97319740D01*
X128048604Y-97020090D01*
X128165521Y-96737826D01*
X128335259Y-96483795D01*
X128551295Y-96267759D01*
X128805326Y-96098021D01*
X129087590Y-95981104D01*
X129237415Y-95951302D01*
X129387239Y-95921500D01*
X129692761Y-95921500D01*
X129842585Y-95951302D01*
G37*
G36*
X110792585Y-95951302D02*
G01*
X110942410Y-95981104D01*
X111224674Y-96098021D01*
X111478705Y-96267759D01*
X111694741Y-96483795D01*
X111864479Y-96737826D01*
X111981396Y-97020090D01*
X112041000Y-97319740D01*
X112041000Y-97625260D01*
X111981396Y-97924910D01*
X111864479Y-98207174D01*
X111694741Y-98461205D01*
X111478705Y-98677241D01*
X111224674Y-98846979D01*
X110942410Y-98963896D01*
X110792585Y-98993698D01*
X110642761Y-99023500D01*
X110337239Y-99023500D01*
X110187415Y-98993698D01*
X110037590Y-98963896D01*
X109755326Y-98846979D01*
X109501295Y-98677241D01*
X109285259Y-98461205D01*
X109115521Y-98207174D01*
X108998604Y-97924910D01*
X108939000Y-97625260D01*
X108939000Y-97319740D01*
X108998604Y-97020090D01*
X109115521Y-96737826D01*
X109285259Y-96483795D01*
X109501295Y-96267759D01*
X109755326Y-96098021D01*
X110037590Y-95981104D01*
X110187415Y-95951302D01*
X110337239Y-95921500D01*
X110642761Y-95921500D01*
X110792585Y-95951302D01*
G37*
G36*
X208423835Y-95951302D02*
G01*
X208573660Y-95981104D01*
X208855924Y-96098021D01*
X209109955Y-96267759D01*
X209325991Y-96483795D01*
X209495729Y-96737826D01*
X209612646Y-97020090D01*
X209672250Y-97319740D01*
X209672250Y-97625260D01*
X209612646Y-97924910D01*
X209495729Y-98207174D01*
X209325991Y-98461205D01*
X209109955Y-98677241D01*
X208855924Y-98846979D01*
X208573660Y-98963896D01*
X208423835Y-98993698D01*
X208274011Y-99023500D01*
X207968489Y-99023500D01*
X207818665Y-98993698D01*
X207668840Y-98963896D01*
X207386576Y-98846979D01*
X207132545Y-98677241D01*
X206916509Y-98461205D01*
X206746771Y-98207174D01*
X206629854Y-97924910D01*
X206570250Y-97625260D01*
X206570250Y-97319740D01*
X206629854Y-97020090D01*
X206746771Y-96737826D01*
X206916509Y-96483795D01*
X207132545Y-96267759D01*
X207386576Y-96098021D01*
X207668840Y-95981104D01*
X207818665Y-95951302D01*
X207968489Y-95921500D01*
X208274011Y-95921500D01*
X208423835Y-95951302D01*
G37*
G36*
X89361335Y-95951302D02*
G01*
X89511160Y-95981104D01*
X89793424Y-96098021D01*
X90047455Y-96267759D01*
X90263491Y-96483795D01*
X90433229Y-96737826D01*
X90550146Y-97020090D01*
X90609750Y-97319740D01*
X90609750Y-97625260D01*
X90550146Y-97924910D01*
X90433229Y-98207174D01*
X90263491Y-98461205D01*
X90047455Y-98677241D01*
X89793424Y-98846979D01*
X89511160Y-98963896D01*
X89361335Y-98993698D01*
X89211511Y-99023500D01*
X88905989Y-99023500D01*
X88756165Y-98993698D01*
X88606340Y-98963896D01*
X88324076Y-98846979D01*
X88070045Y-98677241D01*
X87854009Y-98461205D01*
X87684271Y-98207174D01*
X87567354Y-97924910D01*
X87507750Y-97625260D01*
X87507750Y-97319740D01*
X87567354Y-97020090D01*
X87684271Y-96737826D01*
X87854009Y-96483795D01*
X88070045Y-96267759D01*
X88324076Y-96098021D01*
X88606340Y-95981104D01*
X88756165Y-95951302D01*
X88905989Y-95921500D01*
X89211511Y-95921500D01*
X89361335Y-95951302D01*
G37*
G36*
X148892585Y-95951302D02*
G01*
X149042410Y-95981104D01*
X149324674Y-96098021D01*
X149578705Y-96267759D01*
X149794741Y-96483795D01*
X149964479Y-96737826D01*
X150081396Y-97020090D01*
X150141000Y-97319740D01*
X150141000Y-97625260D01*
X150081396Y-97924910D01*
X149964479Y-98207174D01*
X149794741Y-98461205D01*
X149578705Y-98677241D01*
X149324674Y-98846979D01*
X149042410Y-98963896D01*
X148892585Y-98993698D01*
X148742761Y-99023500D01*
X148437239Y-99023500D01*
X148287415Y-98993698D01*
X148137590Y-98963896D01*
X147855326Y-98846979D01*
X147601295Y-98677241D01*
X147385259Y-98461205D01*
X147215521Y-98207174D01*
X147098604Y-97924910D01*
X147039000Y-97625260D01*
X147039000Y-97319740D01*
X147098604Y-97020090D01*
X147215521Y-96737826D01*
X147385259Y-96483795D01*
X147601295Y-96267759D01*
X147855326Y-96098021D01*
X148137590Y-95981104D01*
X148287415Y-95951302D01*
X148437239Y-95921500D01*
X148742761Y-95921500D01*
X148892585Y-95951302D01*
G37*
G36*
X186992585Y-95951302D02*
G01*
X187142410Y-95981104D01*
X187424674Y-96098021D01*
X187678705Y-96267759D01*
X187894741Y-96483795D01*
X188064479Y-96737826D01*
X188181396Y-97020090D01*
X188241000Y-97319740D01*
X188241000Y-97625260D01*
X188181396Y-97924910D01*
X188064479Y-98207174D01*
X187894741Y-98461205D01*
X187678705Y-98677241D01*
X187424674Y-98846979D01*
X187142410Y-98963896D01*
X186992585Y-98993698D01*
X186842761Y-99023500D01*
X186537239Y-99023500D01*
X186387415Y-98993698D01*
X186237590Y-98963896D01*
X185955326Y-98846979D01*
X185701295Y-98677241D01*
X185485259Y-98461205D01*
X185315521Y-98207174D01*
X185198604Y-97924910D01*
X185139000Y-97625260D01*
X185139000Y-97319740D01*
X185198604Y-97020090D01*
X185315521Y-96737826D01*
X185485259Y-96483795D01*
X185701295Y-96267759D01*
X185955326Y-96098021D01*
X186237590Y-95981104D01*
X186387415Y-95951302D01*
X186537239Y-95921500D01*
X186842761Y-95921500D01*
X186992585Y-95951302D01*
G37*
G36*
X214773835Y-93411302D02*
G01*
X214923660Y-93441104D01*
X215205924Y-93558021D01*
X215459955Y-93727759D01*
X215675991Y-93943795D01*
X215845729Y-94197826D01*
X215962646Y-94480090D01*
X216022250Y-94779740D01*
X216022250Y-95085260D01*
X215962646Y-95384910D01*
X215845729Y-95667174D01*
X215675991Y-95921205D01*
X215459955Y-96137241D01*
X215205924Y-96306979D01*
X214923660Y-96423896D01*
X214773835Y-96453698D01*
X214624011Y-96483500D01*
X214318489Y-96483500D01*
X214168665Y-96453698D01*
X214018840Y-96423896D01*
X213736576Y-96306979D01*
X213482545Y-96137241D01*
X213266509Y-95921205D01*
X213096771Y-95667174D01*
X212979854Y-95384910D01*
X212920250Y-95085260D01*
X212920250Y-94779740D01*
X212979854Y-94480090D01*
X213096771Y-94197826D01*
X213266509Y-93943795D01*
X213482545Y-93727759D01*
X213736576Y-93558021D01*
X214018840Y-93441104D01*
X214168665Y-93411302D01*
X214318489Y-93381500D01*
X214624011Y-93381500D01*
X214773835Y-93411302D01*
G37*
G36*
X193342585Y-93411302D02*
G01*
X193492410Y-93441104D01*
X193774674Y-93558021D01*
X194028705Y-93727759D01*
X194244741Y-93943795D01*
X194414479Y-94197826D01*
X194531396Y-94480090D01*
X194591000Y-94779740D01*
X194591000Y-95085260D01*
X194531396Y-95384910D01*
X194414479Y-95667174D01*
X194244741Y-95921205D01*
X194028705Y-96137241D01*
X193774674Y-96306979D01*
X193492410Y-96423896D01*
X193342585Y-96453698D01*
X193192761Y-96483500D01*
X192887239Y-96483500D01*
X192737415Y-96453698D01*
X192587590Y-96423896D01*
X192305326Y-96306979D01*
X192051295Y-96137241D01*
X191835259Y-95921205D01*
X191665521Y-95667174D01*
X191548604Y-95384910D01*
X191489000Y-95085260D01*
X191489000Y-94779740D01*
X191548604Y-94480090D01*
X191665521Y-94197826D01*
X191835259Y-93943795D01*
X192051295Y-93727759D01*
X192305326Y-93558021D01*
X192587590Y-93441104D01*
X192737415Y-93411302D01*
X192887239Y-93381500D01*
X193192761Y-93381500D01*
X193342585Y-93411302D01*
G37*
G36*
X117142585Y-93411302D02*
G01*
X117292410Y-93441104D01*
X117574674Y-93558021D01*
X117828705Y-93727759D01*
X118044741Y-93943795D01*
X118214479Y-94197826D01*
X118331396Y-94480090D01*
X118391000Y-94779740D01*
X118391000Y-95085260D01*
X118331396Y-95384910D01*
X118214479Y-95667174D01*
X118044741Y-95921205D01*
X117828705Y-96137241D01*
X117574674Y-96306979D01*
X117292410Y-96423896D01*
X117142585Y-96453698D01*
X116992761Y-96483500D01*
X116687239Y-96483500D01*
X116537415Y-96453698D01*
X116387590Y-96423896D01*
X116105326Y-96306979D01*
X115851295Y-96137241D01*
X115635259Y-95921205D01*
X115465521Y-95667174D01*
X115348604Y-95384910D01*
X115289000Y-95085260D01*
X115289000Y-94779740D01*
X115348604Y-94480090D01*
X115465521Y-94197826D01*
X115635259Y-93943795D01*
X115851295Y-93727759D01*
X116105326Y-93558021D01*
X116387590Y-93441104D01*
X116537415Y-93411302D01*
X116687239Y-93381500D01*
X116992761Y-93381500D01*
X117142585Y-93411302D01*
G37*
G36*
X95711335Y-93411302D02*
G01*
X95861160Y-93441104D01*
X96143424Y-93558021D01*
X96397455Y-93727759D01*
X96613491Y-93943795D01*
X96783229Y-94197826D01*
X96900146Y-94480090D01*
X96959750Y-94779740D01*
X96959750Y-95085260D01*
X96900146Y-95384910D01*
X96783229Y-95667174D01*
X96613491Y-95921205D01*
X96397455Y-96137241D01*
X96143424Y-96306979D01*
X95861160Y-96423896D01*
X95711335Y-96453698D01*
X95561511Y-96483500D01*
X95255989Y-96483500D01*
X95106165Y-96453698D01*
X94956340Y-96423896D01*
X94674076Y-96306979D01*
X94420045Y-96137241D01*
X94204009Y-95921205D01*
X94034271Y-95667174D01*
X93917354Y-95384910D01*
X93857750Y-95085260D01*
X93857750Y-94779740D01*
X93917354Y-94480090D01*
X94034271Y-94197826D01*
X94204009Y-93943795D01*
X94420045Y-93727759D01*
X94674076Y-93558021D01*
X94956340Y-93441104D01*
X95106165Y-93411302D01*
X95255989Y-93381500D01*
X95561511Y-93381500D01*
X95711335Y-93411302D01*
G37*
G36*
X136192585Y-93411302D02*
G01*
X136342410Y-93441104D01*
X136624674Y-93558021D01*
X136878705Y-93727759D01*
X137094741Y-93943795D01*
X137264479Y-94197826D01*
X137381396Y-94480090D01*
X137441000Y-94779740D01*
X137441000Y-95085260D01*
X137381396Y-95384910D01*
X137264479Y-95667174D01*
X137094741Y-95921205D01*
X136878705Y-96137241D01*
X136624674Y-96306979D01*
X136342410Y-96423896D01*
X136192585Y-96453698D01*
X136042761Y-96483500D01*
X135737239Y-96483500D01*
X135587415Y-96453698D01*
X135437590Y-96423896D01*
X135155326Y-96306979D01*
X134901295Y-96137241D01*
X134685259Y-95921205D01*
X134515521Y-95667174D01*
X134398604Y-95384910D01*
X134339000Y-95085260D01*
X134339000Y-94779740D01*
X134398604Y-94480090D01*
X134515521Y-94197826D01*
X134685259Y-93943795D01*
X134901295Y-93727759D01*
X135155326Y-93558021D01*
X135437590Y-93441104D01*
X135587415Y-93411302D01*
X135737239Y-93381500D01*
X136042761Y-93381500D01*
X136192585Y-93411302D01*
G37*
G36*
X155242585Y-93411302D02*
G01*
X155392410Y-93441104D01*
X155674674Y-93558021D01*
X155928705Y-93727759D01*
X156144741Y-93943795D01*
X156314479Y-94197826D01*
X156431396Y-94480090D01*
X156491000Y-94779740D01*
X156491000Y-95085260D01*
X156431396Y-95384910D01*
X156314479Y-95667174D01*
X156144741Y-95921205D01*
X155928705Y-96137241D01*
X155674674Y-96306979D01*
X155392410Y-96423896D01*
X155242585Y-96453698D01*
X155092761Y-96483500D01*
X154787239Y-96483500D01*
X154637415Y-96453698D01*
X154487590Y-96423896D01*
X154205326Y-96306979D01*
X153951295Y-96137241D01*
X153735259Y-95921205D01*
X153565521Y-95667174D01*
X153448604Y-95384910D01*
X153389000Y-95085260D01*
X153389000Y-94779740D01*
X153448604Y-94480090D01*
X153565521Y-94197826D01*
X153735259Y-93943795D01*
X153951295Y-93727759D01*
X154205326Y-93558021D01*
X154487590Y-93441104D01*
X154637415Y-93411302D01*
X154787239Y-93381500D01*
X155092761Y-93381500D01*
X155242585Y-93411302D01*
G37*
G36*
X174292585Y-93411302D02*
G01*
X174442410Y-93441104D01*
X174724674Y-93558021D01*
X174978705Y-93727759D01*
X175194741Y-93943795D01*
X175364479Y-94197826D01*
X175481396Y-94480090D01*
X175541000Y-94779740D01*
X175541000Y-95085260D01*
X175481396Y-95384910D01*
X175364479Y-95667174D01*
X175194741Y-95921205D01*
X174978705Y-96137241D01*
X174724674Y-96306979D01*
X174442410Y-96423896D01*
X174292585Y-96453698D01*
X174142761Y-96483500D01*
X173837239Y-96483500D01*
X173687415Y-96453698D01*
X173537590Y-96423896D01*
X173255326Y-96306979D01*
X173001295Y-96137241D01*
X172785259Y-95921205D01*
X172615521Y-95667174D01*
X172498604Y-95384910D01*
X172439000Y-95085260D01*
X172439000Y-94779740D01*
X172498604Y-94480090D01*
X172615521Y-94197826D01*
X172785259Y-93943795D01*
X173001295Y-93727759D01*
X173255326Y-93558021D01*
X173537590Y-93441104D01*
X173687415Y-93411302D01*
X173837239Y-93381500D01*
X174142761Y-93381500D01*
X174292585Y-93411302D01*
G37*
G36*
X210146474Y-78996184D02*
G01*
X210364474Y-79086483D01*
X210518623Y-79150333D01*
X210853548Y-79374123D01*
X211138377Y-79658952D01*
X211362167Y-79993877D01*
X211394562Y-80072086D01*
X211516316Y-80366026D01*
X211594900Y-80761094D01*
X211594900Y-81163906D01*
X211516316Y-81558974D01*
X211465451Y-81681772D01*
X211362167Y-81931123D01*
X211138377Y-82266048D01*
X210853548Y-82550877D01*
X210518623Y-82774667D01*
X210364474Y-82838517D01*
X210146474Y-82928816D01*
X209751406Y-83007400D01*
X209348594Y-83007400D01*
X208953526Y-82928816D01*
X208735526Y-82838517D01*
X208581377Y-82774667D01*
X208246452Y-82550877D01*
X207961623Y-82266048D01*
X207737833Y-81931123D01*
X207634549Y-81681772D01*
X207583684Y-81558974D01*
X207505100Y-81163906D01*
X207505100Y-80761094D01*
X207583684Y-80366026D01*
X207705438Y-80072086D01*
X207737833Y-79993877D01*
X207961623Y-79658952D01*
X208246452Y-79374123D01*
X208581377Y-79150333D01*
X208735526Y-79086483D01*
X208953526Y-78996184D01*
X209348594Y-78917600D01*
X209751406Y-78917600D01*
X210146474Y-78996184D01*
G37*
G36*
X186333974Y-78996184D02*
G01*
X186551974Y-79086483D01*
X186706123Y-79150333D01*
X187041048Y-79374123D01*
X187325877Y-79658952D01*
X187549667Y-79993877D01*
X187582062Y-80072086D01*
X187703816Y-80366026D01*
X187782400Y-80761094D01*
X187782400Y-81163906D01*
X187703816Y-81558974D01*
X187652951Y-81681772D01*
X187549667Y-81931123D01*
X187325877Y-82266048D01*
X187041048Y-82550877D01*
X186706123Y-82774667D01*
X186551974Y-82838517D01*
X186333974Y-82928816D01*
X185938906Y-83007400D01*
X185536094Y-83007400D01*
X185141026Y-82928816D01*
X184923026Y-82838517D01*
X184768877Y-82774667D01*
X184433952Y-82550877D01*
X184149123Y-82266048D01*
X183925333Y-81931123D01*
X183822049Y-81681772D01*
X183771184Y-81558974D01*
X183692600Y-81163906D01*
X183692600Y-80761094D01*
X183771184Y-80366026D01*
X183892938Y-80072086D01*
X183925333Y-79993877D01*
X184149123Y-79658952D01*
X184433952Y-79374123D01*
X184768877Y-79150333D01*
X184923026Y-79086483D01*
X185141026Y-78996184D01*
X185536094Y-78917600D01*
X185938906Y-78917600D01*
X186333974Y-78996184D01*
G37*
G36*
X129183974Y-78996184D02*
G01*
X129401974Y-79086483D01*
X129556123Y-79150333D01*
X129891048Y-79374123D01*
X130175877Y-79658952D01*
X130399667Y-79993877D01*
X130432062Y-80072086D01*
X130553816Y-80366026D01*
X130632400Y-80761094D01*
X130632400Y-81163906D01*
X130553816Y-81558974D01*
X130502951Y-81681772D01*
X130399667Y-81931123D01*
X130175877Y-82266048D01*
X129891048Y-82550877D01*
X129556123Y-82774667D01*
X129401974Y-82838517D01*
X129183974Y-82928816D01*
X128788906Y-83007400D01*
X128386094Y-83007400D01*
X127991026Y-82928816D01*
X127773026Y-82838517D01*
X127618877Y-82774667D01*
X127283952Y-82550877D01*
X126999123Y-82266048D01*
X126775333Y-81931123D01*
X126672049Y-81681772D01*
X126621184Y-81558974D01*
X126542600Y-81163906D01*
X126542600Y-80761094D01*
X126621184Y-80366026D01*
X126742938Y-80072086D01*
X126775333Y-79993877D01*
X126999123Y-79658952D01*
X127283952Y-79374123D01*
X127618877Y-79150333D01*
X127773026Y-79086483D01*
X127991026Y-78996184D01*
X128386094Y-78917600D01*
X128788906Y-78917600D01*
X129183974Y-78996184D01*
G37*
G36*
X110133974Y-78996184D02*
G01*
X110351974Y-79086483D01*
X110506123Y-79150333D01*
X110841048Y-79374123D01*
X111125877Y-79658952D01*
X111349667Y-79993877D01*
X111382062Y-80072086D01*
X111503816Y-80366026D01*
X111582400Y-80761094D01*
X111582400Y-81163906D01*
X111503816Y-81558974D01*
X111452951Y-81681772D01*
X111349667Y-81931123D01*
X111125877Y-82266048D01*
X110841048Y-82550877D01*
X110506123Y-82774667D01*
X110351974Y-82838517D01*
X110133974Y-82928816D01*
X109738906Y-83007400D01*
X109336094Y-83007400D01*
X108941026Y-82928816D01*
X108723026Y-82838517D01*
X108568877Y-82774667D01*
X108233952Y-82550877D01*
X107949123Y-82266048D01*
X107725333Y-81931123D01*
X107622049Y-81681772D01*
X107571184Y-81558974D01*
X107492600Y-81163906D01*
X107492600Y-80761094D01*
X107571184Y-80366026D01*
X107692938Y-80072086D01*
X107725333Y-79993877D01*
X107949123Y-79658952D01*
X108233952Y-79374123D01*
X108568877Y-79150333D01*
X108723026Y-79086483D01*
X108941026Y-78996184D01*
X109336094Y-78917600D01*
X109738906Y-78917600D01*
X110133974Y-78996184D01*
G37*
G36*
X91083974Y-78996184D02*
G01*
X91301974Y-79086483D01*
X91456123Y-79150333D01*
X91791048Y-79374123D01*
X92075877Y-79658952D01*
X92299667Y-79993877D01*
X92332062Y-80072086D01*
X92453816Y-80366026D01*
X92532400Y-80761094D01*
X92532400Y-81163906D01*
X92453816Y-81558974D01*
X92402951Y-81681772D01*
X92299667Y-81931123D01*
X92075877Y-82266048D01*
X91791048Y-82550877D01*
X91456123Y-82774667D01*
X91301974Y-82838517D01*
X91083974Y-82928816D01*
X90688906Y-83007400D01*
X90286094Y-83007400D01*
X89891026Y-82928816D01*
X89673026Y-82838517D01*
X89518877Y-82774667D01*
X89183952Y-82550877D01*
X88899123Y-82266048D01*
X88675333Y-81931123D01*
X88572049Y-81681772D01*
X88521184Y-81558974D01*
X88442600Y-81163906D01*
X88442600Y-80761094D01*
X88521184Y-80366026D01*
X88642938Y-80072086D01*
X88675333Y-79993877D01*
X88899123Y-79658952D01*
X89183952Y-79374123D01*
X89518877Y-79150333D01*
X89673026Y-79086483D01*
X89891026Y-78996184D01*
X90286094Y-78917600D01*
X90688906Y-78917600D01*
X91083974Y-78996184D01*
G37*
G36*
X167283974Y-78996184D02*
G01*
X167501974Y-79086483D01*
X167656123Y-79150333D01*
X167991048Y-79374123D01*
X168275877Y-79658952D01*
X168499667Y-79993877D01*
X168532062Y-80072086D01*
X168653816Y-80366026D01*
X168732400Y-80761094D01*
X168732400Y-81163906D01*
X168653816Y-81558974D01*
X168602951Y-81681772D01*
X168499667Y-81931123D01*
X168275877Y-82266048D01*
X167991048Y-82550877D01*
X167656123Y-82774667D01*
X167501974Y-82838517D01*
X167283974Y-82928816D01*
X166888906Y-83007400D01*
X166486094Y-83007400D01*
X166091026Y-82928816D01*
X165873026Y-82838517D01*
X165718877Y-82774667D01*
X165383952Y-82550877D01*
X165099123Y-82266048D01*
X164875333Y-81931123D01*
X164772049Y-81681772D01*
X164721184Y-81558974D01*
X164642600Y-81163906D01*
X164642600Y-80761094D01*
X164721184Y-80366026D01*
X164842938Y-80072086D01*
X164875333Y-79993877D01*
X165099123Y-79658952D01*
X165383952Y-79374123D01*
X165718877Y-79150333D01*
X165873026Y-79086483D01*
X166091026Y-78996184D01*
X166486094Y-78917600D01*
X166888906Y-78917600D01*
X167283974Y-78996184D01*
G37*
G36*
X148233974Y-78996184D02*
G01*
X148451974Y-79086483D01*
X148606123Y-79150333D01*
X148941048Y-79374123D01*
X149225877Y-79658952D01*
X149449667Y-79993877D01*
X149482062Y-80072086D01*
X149603816Y-80366026D01*
X149682400Y-80761094D01*
X149682400Y-81163906D01*
X149603816Y-81558974D01*
X149552951Y-81681772D01*
X149449667Y-81931123D01*
X149225877Y-82266048D01*
X148941048Y-82550877D01*
X148606123Y-82774667D01*
X148451974Y-82838517D01*
X148233974Y-82928816D01*
X147838906Y-83007400D01*
X147436094Y-83007400D01*
X147041026Y-82928816D01*
X146823026Y-82838517D01*
X146668877Y-82774667D01*
X146333952Y-82550877D01*
X146049123Y-82266048D01*
X145825333Y-81931123D01*
X145722049Y-81681772D01*
X145671184Y-81558974D01*
X145592600Y-81163906D01*
X145592600Y-80761094D01*
X145671184Y-80366026D01*
X145792938Y-80072086D01*
X145825333Y-79993877D01*
X146049123Y-79658952D01*
X146333952Y-79374123D01*
X146668877Y-79150333D01*
X146823026Y-79086483D01*
X147041026Y-78996184D01*
X147436094Y-78917600D01*
X147838906Y-78917600D01*
X148233974Y-78996184D01*
G37*
G36*
X191087604Y-80072085D02*
G01*
X191256126Y-80141889D01*
X191407791Y-80243228D01*
X191536772Y-80372209D01*
X191638111Y-80523874D01*
X191707915Y-80692396D01*
X191743500Y-80871297D01*
X191743500Y-81053703D01*
X191707915Y-81232604D01*
X191638111Y-81401126D01*
X191536772Y-81552791D01*
X191407791Y-81681772D01*
X191256126Y-81783111D01*
X191087604Y-81852915D01*
X190908703Y-81888500D01*
X190726297Y-81888500D01*
X190547396Y-81852915D01*
X190378874Y-81783111D01*
X190227209Y-81681772D01*
X190098228Y-81552791D01*
X189996889Y-81401126D01*
X189927085Y-81232604D01*
X189891500Y-81053703D01*
X189891500Y-80871297D01*
X189927085Y-80692396D01*
X189996889Y-80523874D01*
X190098228Y-80372209D01*
X190227209Y-80243228D01*
X190378874Y-80141889D01*
X190547396Y-80072085D01*
X190726297Y-80036500D01*
X190908703Y-80036500D01*
X191087604Y-80072085D01*
G37*
G36*
X123777604Y-80072085D02*
G01*
X123946126Y-80141889D01*
X124097791Y-80243228D01*
X124226772Y-80372209D01*
X124328111Y-80523874D01*
X124397915Y-80692396D01*
X124433500Y-80871297D01*
X124433500Y-81053703D01*
X124397915Y-81232604D01*
X124328111Y-81401126D01*
X124226772Y-81552791D01*
X124097791Y-81681772D01*
X123946126Y-81783111D01*
X123777604Y-81852915D01*
X123598703Y-81888500D01*
X123416297Y-81888500D01*
X123237396Y-81852915D01*
X123068874Y-81783111D01*
X122917209Y-81681772D01*
X122788228Y-81552791D01*
X122686889Y-81401126D01*
X122617085Y-81232604D01*
X122581500Y-81053703D01*
X122581500Y-80871297D01*
X122617085Y-80692396D01*
X122686889Y-80523874D01*
X122788228Y-80372209D01*
X122917209Y-80243228D01*
X123068874Y-80141889D01*
X123237396Y-80072085D01*
X123416297Y-80036500D01*
X123598703Y-80036500D01*
X123777604Y-80072085D01*
G37*
G36*
X133937604Y-80072085D02*
G01*
X134106126Y-80141889D01*
X134257791Y-80243228D01*
X134386772Y-80372209D01*
X134488111Y-80523874D01*
X134557915Y-80692396D01*
X134593500Y-80871297D01*
X134593500Y-81053703D01*
X134557915Y-81232604D01*
X134488111Y-81401126D01*
X134386772Y-81552791D01*
X134257791Y-81681772D01*
X134106126Y-81783111D01*
X133937604Y-81852915D01*
X133758703Y-81888500D01*
X133576297Y-81888500D01*
X133397396Y-81852915D01*
X133228874Y-81783111D01*
X133077209Y-81681772D01*
X132948228Y-81552791D01*
X132846889Y-81401126D01*
X132777085Y-81232604D01*
X132741500Y-81053703D01*
X132741500Y-80871297D01*
X132777085Y-80692396D01*
X132846889Y-80523874D01*
X132948228Y-80372209D01*
X133077209Y-80243228D01*
X133228874Y-80141889D01*
X133397396Y-80072085D01*
X133576297Y-80036500D01*
X133758703Y-80036500D01*
X133937604Y-80072085D01*
G37*
G36*
X95837604Y-80072085D02*
G01*
X96006126Y-80141889D01*
X96157791Y-80243228D01*
X96286772Y-80372209D01*
X96388111Y-80523874D01*
X96457915Y-80692396D01*
X96493500Y-80871297D01*
X96493500Y-81053703D01*
X96457915Y-81232604D01*
X96388111Y-81401126D01*
X96286772Y-81552791D01*
X96157791Y-81681772D01*
X96006126Y-81783111D01*
X95837604Y-81852915D01*
X95658703Y-81888500D01*
X95476297Y-81888500D01*
X95297396Y-81852915D01*
X95128874Y-81783111D01*
X94977209Y-81681772D01*
X94848228Y-81552791D01*
X94746889Y-81401126D01*
X94677085Y-81232604D01*
X94641500Y-81053703D01*
X94641500Y-80871297D01*
X94677085Y-80692396D01*
X94746889Y-80523874D01*
X94848228Y-80372209D01*
X94977209Y-80243228D01*
X95128874Y-80141889D01*
X95297396Y-80072085D01*
X95476297Y-80036500D01*
X95658703Y-80036500D01*
X95837604Y-80072085D01*
G37*
G36*
X85677604Y-80072085D02*
G01*
X85846126Y-80141889D01*
X85997791Y-80243228D01*
X86126772Y-80372209D01*
X86228111Y-80523874D01*
X86297915Y-80692396D01*
X86333500Y-80871297D01*
X86333500Y-81053703D01*
X86297915Y-81232604D01*
X86228111Y-81401126D01*
X86126772Y-81552791D01*
X85997791Y-81681772D01*
X85846126Y-81783111D01*
X85677604Y-81852915D01*
X85498703Y-81888500D01*
X85316297Y-81888500D01*
X85137396Y-81852915D01*
X84968874Y-81783111D01*
X84817209Y-81681772D01*
X84688228Y-81552791D01*
X84586889Y-81401126D01*
X84517085Y-81232604D01*
X84481500Y-81053703D01*
X84481500Y-80871297D01*
X84517085Y-80692396D01*
X84586889Y-80523874D01*
X84688228Y-80372209D01*
X84817209Y-80243228D01*
X84968874Y-80141889D01*
X85137396Y-80072085D01*
X85316297Y-80036500D01*
X85498703Y-80036500D01*
X85677604Y-80072085D01*
G37*
G36*
X104727604Y-80072085D02*
G01*
X104896126Y-80141889D01*
X105047791Y-80243228D01*
X105176772Y-80372209D01*
X105278111Y-80523874D01*
X105347915Y-80692396D01*
X105383500Y-80871297D01*
X105383500Y-81053703D01*
X105347915Y-81232604D01*
X105278111Y-81401126D01*
X105176772Y-81552791D01*
X105047791Y-81681772D01*
X104896126Y-81783111D01*
X104727604Y-81852915D01*
X104548703Y-81888500D01*
X104366297Y-81888500D01*
X104187396Y-81852915D01*
X104018874Y-81783111D01*
X103867209Y-81681772D01*
X103738228Y-81552791D01*
X103636889Y-81401126D01*
X103567085Y-81232604D01*
X103531500Y-81053703D01*
X103531500Y-80871297D01*
X103567085Y-80692396D01*
X103636889Y-80523874D01*
X103738228Y-80372209D01*
X103867209Y-80243228D01*
X104018874Y-80141889D01*
X104187396Y-80072085D01*
X104366297Y-80036500D01*
X104548703Y-80036500D01*
X104727604Y-80072085D01*
G37*
G36*
X114887604Y-80072085D02*
G01*
X115056126Y-80141889D01*
X115207791Y-80243228D01*
X115336772Y-80372209D01*
X115438111Y-80523874D01*
X115507915Y-80692396D01*
X115543500Y-80871297D01*
X115543500Y-81053703D01*
X115507915Y-81232604D01*
X115438111Y-81401126D01*
X115336772Y-81552791D01*
X115207791Y-81681772D01*
X115056126Y-81783111D01*
X114887604Y-81852915D01*
X114708703Y-81888500D01*
X114526297Y-81888500D01*
X114347396Y-81852915D01*
X114178874Y-81783111D01*
X114027209Y-81681772D01*
X113898228Y-81552791D01*
X113796889Y-81401126D01*
X113727085Y-81232604D01*
X113691500Y-81053703D01*
X113691500Y-80871297D01*
X113727085Y-80692396D01*
X113796889Y-80523874D01*
X113898228Y-80372209D01*
X114027209Y-80243228D01*
X114178874Y-80141889D01*
X114347396Y-80072085D01*
X114526297Y-80036500D01*
X114708703Y-80036500D01*
X114887604Y-80072085D01*
G37*
G36*
X204740104Y-80072085D02*
G01*
X204908626Y-80141889D01*
X205060291Y-80243228D01*
X205189272Y-80372209D01*
X205290611Y-80523874D01*
X205360415Y-80692396D01*
X205396000Y-80871297D01*
X205396000Y-81053703D01*
X205360415Y-81232604D01*
X205290611Y-81401126D01*
X205189272Y-81552791D01*
X205060291Y-81681772D01*
X204908626Y-81783111D01*
X204740104Y-81852915D01*
X204561203Y-81888500D01*
X204378797Y-81888500D01*
X204199896Y-81852915D01*
X204031374Y-81783111D01*
X203879709Y-81681772D01*
X203750728Y-81552791D01*
X203649389Y-81401126D01*
X203579585Y-81232604D01*
X203544000Y-81053703D01*
X203544000Y-80871297D01*
X203579585Y-80692396D01*
X203649389Y-80523874D01*
X203750728Y-80372209D01*
X203879709Y-80243228D01*
X204031374Y-80141889D01*
X204199896Y-80072085D01*
X204378797Y-80036500D01*
X204561203Y-80036500D01*
X204740104Y-80072085D01*
G37*
G36*
X152987604Y-80072085D02*
G01*
X153156126Y-80141889D01*
X153307791Y-80243228D01*
X153436772Y-80372209D01*
X153538111Y-80523874D01*
X153607915Y-80692396D01*
X153643500Y-80871297D01*
X153643500Y-81053703D01*
X153607915Y-81232604D01*
X153538111Y-81401126D01*
X153436772Y-81552791D01*
X153307791Y-81681772D01*
X153156126Y-81783111D01*
X152987604Y-81852915D01*
X152808703Y-81888500D01*
X152626297Y-81888500D01*
X152447396Y-81852915D01*
X152278874Y-81783111D01*
X152127209Y-81681772D01*
X151998228Y-81552791D01*
X151896889Y-81401126D01*
X151827085Y-81232604D01*
X151791500Y-81053703D01*
X151791500Y-80871297D01*
X151827085Y-80692396D01*
X151896889Y-80523874D01*
X151998228Y-80372209D01*
X152127209Y-80243228D01*
X152278874Y-80141889D01*
X152447396Y-80072085D01*
X152626297Y-80036500D01*
X152808703Y-80036500D01*
X152987604Y-80072085D01*
G37*
G36*
X180927604Y-80072085D02*
G01*
X181096126Y-80141889D01*
X181247791Y-80243228D01*
X181376772Y-80372209D01*
X181478111Y-80523874D01*
X181547915Y-80692396D01*
X181583500Y-80871297D01*
X181583500Y-81053703D01*
X181547915Y-81232604D01*
X181478111Y-81401126D01*
X181376772Y-81552791D01*
X181247791Y-81681772D01*
X181096126Y-81783111D01*
X180927604Y-81852915D01*
X180748703Y-81888500D01*
X180566297Y-81888500D01*
X180387396Y-81852915D01*
X180218874Y-81783111D01*
X180067209Y-81681772D01*
X179938228Y-81552791D01*
X179836889Y-81401126D01*
X179767085Y-81232604D01*
X179731500Y-81053703D01*
X179731500Y-80871297D01*
X179767085Y-80692396D01*
X179836889Y-80523874D01*
X179938228Y-80372209D01*
X180067209Y-80243228D01*
X180218874Y-80141889D01*
X180387396Y-80072085D01*
X180566297Y-80036500D01*
X180748703Y-80036500D01*
X180927604Y-80072085D01*
G37*
G36*
X172037604Y-80072085D02*
G01*
X172206126Y-80141889D01*
X172357791Y-80243228D01*
X172486772Y-80372209D01*
X172588111Y-80523874D01*
X172657915Y-80692396D01*
X172693500Y-80871297D01*
X172693500Y-81053703D01*
X172657915Y-81232604D01*
X172588111Y-81401126D01*
X172486772Y-81552791D01*
X172357791Y-81681772D01*
X172206126Y-81783111D01*
X172037604Y-81852915D01*
X171858703Y-81888500D01*
X171676297Y-81888500D01*
X171497396Y-81852915D01*
X171328874Y-81783111D01*
X171177209Y-81681772D01*
X171048228Y-81552791D01*
X170946889Y-81401126D01*
X170877085Y-81232604D01*
X170841500Y-81053703D01*
X170841500Y-80871297D01*
X170877085Y-80692396D01*
X170946889Y-80523874D01*
X171048228Y-80372209D01*
X171177209Y-80243228D01*
X171328874Y-80141889D01*
X171497396Y-80072085D01*
X171676297Y-80036500D01*
X171858703Y-80036500D01*
X172037604Y-80072085D01*
G37*
G36*
X161877604Y-80072085D02*
G01*
X162046126Y-80141889D01*
X162197791Y-80243228D01*
X162326772Y-80372209D01*
X162428111Y-80523874D01*
X162497915Y-80692396D01*
X162533500Y-80871297D01*
X162533500Y-81053703D01*
X162497915Y-81232604D01*
X162428111Y-81401126D01*
X162326772Y-81552791D01*
X162197791Y-81681772D01*
X162046126Y-81783111D01*
X161877604Y-81852915D01*
X161698703Y-81888500D01*
X161516297Y-81888500D01*
X161337396Y-81852915D01*
X161168874Y-81783111D01*
X161017209Y-81681772D01*
X160888228Y-81552791D01*
X160786889Y-81401126D01*
X160717085Y-81232604D01*
X160681500Y-81053703D01*
X160681500Y-80871297D01*
X160717085Y-80692396D01*
X160786889Y-80523874D01*
X160888228Y-80372209D01*
X161017209Y-80243228D01*
X161168874Y-80141889D01*
X161337396Y-80072085D01*
X161516297Y-80036500D01*
X161698703Y-80036500D01*
X161877604Y-80072085D01*
G37*
G36*
X142827604Y-80072085D02*
G01*
X142996126Y-80141889D01*
X143147791Y-80243228D01*
X143276772Y-80372209D01*
X143378111Y-80523874D01*
X143447915Y-80692396D01*
X143483500Y-80871297D01*
X143483500Y-81053703D01*
X143447915Y-81232604D01*
X143378111Y-81401126D01*
X143276772Y-81552791D01*
X143147791Y-81681772D01*
X142996126Y-81783111D01*
X142827604Y-81852915D01*
X142648703Y-81888500D01*
X142466297Y-81888500D01*
X142287396Y-81852915D01*
X142118874Y-81783111D01*
X141967209Y-81681772D01*
X141838228Y-81552791D01*
X141736889Y-81401126D01*
X141667085Y-81232604D01*
X141631500Y-81053703D01*
X141631500Y-80871297D01*
X141667085Y-80692396D01*
X141736889Y-80523874D01*
X141838228Y-80372209D01*
X141967209Y-80243228D01*
X142118874Y-80141889D01*
X142287396Y-80072085D01*
X142466297Y-80036500D01*
X142648703Y-80036500D01*
X142827604Y-80072085D01*
G37*
G36*
X214900104Y-80072085D02*
G01*
X215068626Y-80141889D01*
X215220291Y-80243228D01*
X215349272Y-80372209D01*
X215450611Y-80523874D01*
X215520415Y-80692396D01*
X215556000Y-80871297D01*
X215556000Y-81053703D01*
X215520415Y-81232604D01*
X215450611Y-81401126D01*
X215349272Y-81552791D01*
X215220291Y-81681772D01*
X215068626Y-81783111D01*
X214900104Y-81852915D01*
X214721203Y-81888500D01*
X214538797Y-81888500D01*
X214359896Y-81852915D01*
X214191374Y-81783111D01*
X214039709Y-81681772D01*
X213910728Y-81552791D01*
X213809389Y-81401126D01*
X213739585Y-81232604D01*
X213704000Y-81053703D01*
X213704000Y-80871297D01*
X213739585Y-80692396D01*
X213809389Y-80523874D01*
X213910728Y-80372209D01*
X214039709Y-80243228D01*
X214191374Y-80141889D01*
X214359896Y-80072085D01*
X214538797Y-80036500D01*
X214721203Y-80036500D01*
X214900104Y-80072085D01*
G37*
G36*
X197263000Y-79987000D02*
G01*
X195761000Y-79987000D01*
X195761000Y-78885000D01*
X197263000Y-78885000D01*
X197263000Y-79987000D01*
G37*
G36*
X206042585Y-76901302D02*
G01*
X206192410Y-76931104D01*
X206474674Y-77048021D01*
X206728705Y-77217759D01*
X206944741Y-77433795D01*
X207114479Y-77687826D01*
X207231396Y-77970090D01*
X207231396Y-77970091D01*
X207291000Y-78269739D01*
X207291000Y-78575261D01*
X207261198Y-78725085D01*
X207231396Y-78874910D01*
X207114479Y-79157174D01*
X206944741Y-79411205D01*
X206728705Y-79627241D01*
X206474674Y-79796979D01*
X206192410Y-79913896D01*
X206042585Y-79943698D01*
X205892761Y-79973500D01*
X205587239Y-79973500D01*
X205437415Y-79943698D01*
X205287590Y-79913896D01*
X205005326Y-79796979D01*
X204751295Y-79627241D01*
X204535259Y-79411205D01*
X204365521Y-79157174D01*
X204248604Y-78874910D01*
X204218802Y-78725085D01*
X204189000Y-78575261D01*
X204189000Y-78269739D01*
X204248604Y-77970091D01*
X204248604Y-77970090D01*
X204365521Y-77687826D01*
X204535259Y-77433795D01*
X204751295Y-77217759D01*
X205005326Y-77048021D01*
X205287590Y-76931104D01*
X205437415Y-76901302D01*
X205587239Y-76871500D01*
X205892761Y-76871500D01*
X206042585Y-76901302D01*
G37*
G36*
X106030085Y-76901302D02*
G01*
X106179910Y-76931104D01*
X106462174Y-77048021D01*
X106716205Y-77217759D01*
X106932241Y-77433795D01*
X107101979Y-77687826D01*
X107218896Y-77970090D01*
X107218896Y-77970091D01*
X107278500Y-78269739D01*
X107278500Y-78575261D01*
X107248698Y-78725085D01*
X107218896Y-78874910D01*
X107101979Y-79157174D01*
X106932241Y-79411205D01*
X106716205Y-79627241D01*
X106462174Y-79796979D01*
X106179910Y-79913896D01*
X106030085Y-79943698D01*
X105880261Y-79973500D01*
X105574739Y-79973500D01*
X105424915Y-79943698D01*
X105275090Y-79913896D01*
X104992826Y-79796979D01*
X104738795Y-79627241D01*
X104522759Y-79411205D01*
X104353021Y-79157174D01*
X104236104Y-78874910D01*
X104206302Y-78725085D01*
X104176500Y-78575261D01*
X104176500Y-78269739D01*
X104236104Y-77970091D01*
X104236104Y-77970090D01*
X104353021Y-77687826D01*
X104522759Y-77433795D01*
X104738795Y-77217759D01*
X104992826Y-77048021D01*
X105275090Y-76931104D01*
X105424915Y-76901302D01*
X105574739Y-76871500D01*
X105880261Y-76871500D01*
X106030085Y-76901302D01*
G37*
G36*
X182230085Y-76901302D02*
G01*
X182379910Y-76931104D01*
X182662174Y-77048021D01*
X182916205Y-77217759D01*
X183132241Y-77433795D01*
X183301979Y-77687826D01*
X183418896Y-77970090D01*
X183418896Y-77970091D01*
X183478500Y-78269739D01*
X183478500Y-78575261D01*
X183448698Y-78725085D01*
X183418896Y-78874910D01*
X183301979Y-79157174D01*
X183132241Y-79411205D01*
X182916205Y-79627241D01*
X182662174Y-79796979D01*
X182379910Y-79913896D01*
X182230085Y-79943698D01*
X182080261Y-79973500D01*
X181774739Y-79973500D01*
X181624915Y-79943698D01*
X181475090Y-79913896D01*
X181192826Y-79796979D01*
X180938795Y-79627241D01*
X180722759Y-79411205D01*
X180553021Y-79157174D01*
X180436104Y-78874910D01*
X180406302Y-78725085D01*
X180376500Y-78575261D01*
X180376500Y-78269739D01*
X180436104Y-77970091D01*
X180436104Y-77970090D01*
X180553021Y-77687826D01*
X180722759Y-77433795D01*
X180938795Y-77217759D01*
X181192826Y-77048021D01*
X181475090Y-76931104D01*
X181624915Y-76901302D01*
X181774739Y-76871500D01*
X182080261Y-76871500D01*
X182230085Y-76901302D01*
G37*
G36*
X86980085Y-76901302D02*
G01*
X87129910Y-76931104D01*
X87412174Y-77048021D01*
X87666205Y-77217759D01*
X87882241Y-77433795D01*
X88051979Y-77687826D01*
X88168896Y-77970090D01*
X88168896Y-77970091D01*
X88228500Y-78269739D01*
X88228500Y-78575261D01*
X88198698Y-78725085D01*
X88168896Y-78874910D01*
X88051979Y-79157174D01*
X87882241Y-79411205D01*
X87666205Y-79627241D01*
X87412174Y-79796979D01*
X87129910Y-79913896D01*
X86980085Y-79943698D01*
X86830261Y-79973500D01*
X86524739Y-79973500D01*
X86374915Y-79943698D01*
X86225090Y-79913896D01*
X85942826Y-79796979D01*
X85688795Y-79627241D01*
X85472759Y-79411205D01*
X85303021Y-79157174D01*
X85186104Y-78874910D01*
X85156302Y-78725085D01*
X85126500Y-78575261D01*
X85126500Y-78269739D01*
X85186104Y-77970091D01*
X85186104Y-77970090D01*
X85303021Y-77687826D01*
X85472759Y-77433795D01*
X85688795Y-77217759D01*
X85942826Y-77048021D01*
X86225090Y-76931104D01*
X86374915Y-76901302D01*
X86524739Y-76871500D01*
X86830261Y-76871500D01*
X86980085Y-76901302D01*
G37*
G36*
X125080085Y-76901302D02*
G01*
X125229910Y-76931104D01*
X125512174Y-77048021D01*
X125766205Y-77217759D01*
X125982241Y-77433795D01*
X126151979Y-77687826D01*
X126268896Y-77970090D01*
X126268896Y-77970091D01*
X126328500Y-78269739D01*
X126328500Y-78575261D01*
X126298698Y-78725085D01*
X126268896Y-78874910D01*
X126151979Y-79157174D01*
X125982241Y-79411205D01*
X125766205Y-79627241D01*
X125512174Y-79796979D01*
X125229910Y-79913896D01*
X125080085Y-79943698D01*
X124930261Y-79973500D01*
X124624739Y-79973500D01*
X124474915Y-79943698D01*
X124325090Y-79913896D01*
X124042826Y-79796979D01*
X123788795Y-79627241D01*
X123572759Y-79411205D01*
X123403021Y-79157174D01*
X123286104Y-78874910D01*
X123256302Y-78725085D01*
X123226500Y-78575261D01*
X123226500Y-78269739D01*
X123286104Y-77970091D01*
X123286104Y-77970090D01*
X123403021Y-77687826D01*
X123572759Y-77433795D01*
X123788795Y-77217759D01*
X124042826Y-77048021D01*
X124325090Y-76931104D01*
X124474915Y-76901302D01*
X124624739Y-76871500D01*
X124930261Y-76871500D01*
X125080085Y-76901302D01*
G37*
G36*
X144130085Y-76901302D02*
G01*
X144279910Y-76931104D01*
X144562174Y-77048021D01*
X144816205Y-77217759D01*
X145032241Y-77433795D01*
X145201979Y-77687826D01*
X145318896Y-77970090D01*
X145318896Y-77970091D01*
X145378500Y-78269739D01*
X145378500Y-78575261D01*
X145348698Y-78725085D01*
X145318896Y-78874910D01*
X145201979Y-79157174D01*
X145032241Y-79411205D01*
X144816205Y-79627241D01*
X144562174Y-79796979D01*
X144279910Y-79913896D01*
X144130085Y-79943698D01*
X143980261Y-79973500D01*
X143674739Y-79973500D01*
X143524915Y-79943698D01*
X143375090Y-79913896D01*
X143092826Y-79796979D01*
X142838795Y-79627241D01*
X142622759Y-79411205D01*
X142453021Y-79157174D01*
X142336104Y-78874910D01*
X142306302Y-78725085D01*
X142276500Y-78575261D01*
X142276500Y-78269739D01*
X142336104Y-77970091D01*
X142336104Y-77970090D01*
X142453021Y-77687826D01*
X142622759Y-77433795D01*
X142838795Y-77217759D01*
X143092826Y-77048021D01*
X143375090Y-76931104D01*
X143524915Y-76901302D01*
X143674739Y-76871500D01*
X143980261Y-76871500D01*
X144130085Y-76901302D01*
G37*
G36*
X163180085Y-76901302D02*
G01*
X163329910Y-76931104D01*
X163612174Y-77048021D01*
X163866205Y-77217759D01*
X164082241Y-77433795D01*
X164251979Y-77687826D01*
X164368896Y-77970090D01*
X164368896Y-77970091D01*
X164428500Y-78269739D01*
X164428500Y-78575261D01*
X164398698Y-78725085D01*
X164368896Y-78874910D01*
X164251979Y-79157174D01*
X164082241Y-79411205D01*
X163866205Y-79627241D01*
X163612174Y-79796979D01*
X163329910Y-79913896D01*
X163180085Y-79943698D01*
X163030261Y-79973500D01*
X162724739Y-79973500D01*
X162574915Y-79943698D01*
X162425090Y-79913896D01*
X162142826Y-79796979D01*
X161888795Y-79627241D01*
X161672759Y-79411205D01*
X161503021Y-79157174D01*
X161386104Y-78874910D01*
X161356302Y-78725085D01*
X161326500Y-78575261D01*
X161326500Y-78269739D01*
X161386104Y-77970091D01*
X161386104Y-77970090D01*
X161503021Y-77687826D01*
X161672759Y-77433795D01*
X161888795Y-77217759D01*
X162142826Y-77048021D01*
X162425090Y-76931104D01*
X162574915Y-76901302D01*
X162724739Y-76871500D01*
X163030261Y-76871500D01*
X163180085Y-76901302D01*
G37*
G36*
X199463000Y-79907000D02*
G01*
X197961000Y-79907000D01*
X197961000Y-78605000D01*
X199463000Y-78605000D01*
X199463000Y-79907000D01*
G37*
G36*
X197263000Y-78087000D02*
G01*
X195761000Y-78087000D01*
X195761000Y-76985000D01*
X197263000Y-76985000D01*
X197263000Y-78087000D01*
G37*
G36*
X199463000Y-78087000D02*
G01*
X197961000Y-78087000D01*
X197961000Y-76985000D01*
X199463000Y-76985000D01*
X199463000Y-78087000D01*
G37*
G36*
X93330085Y-74361302D02*
G01*
X93479910Y-74391104D01*
X93762174Y-74508021D01*
X94016205Y-74677759D01*
X94232241Y-74893795D01*
X94401979Y-75147826D01*
X94518896Y-75430090D01*
X94578500Y-75729740D01*
X94578500Y-76035260D01*
X94518896Y-76334910D01*
X94401979Y-76617174D01*
X94232241Y-76871205D01*
X94016205Y-77087241D01*
X93762174Y-77256979D01*
X93479910Y-77373896D01*
X93330085Y-77403698D01*
X93180261Y-77433500D01*
X92874739Y-77433500D01*
X92724915Y-77403698D01*
X92575090Y-77373896D01*
X92292826Y-77256979D01*
X92038795Y-77087241D01*
X91822759Y-76871205D01*
X91653021Y-76617174D01*
X91536104Y-76334910D01*
X91476500Y-76035260D01*
X91476500Y-75729740D01*
X91536104Y-75430090D01*
X91653021Y-75147826D01*
X91822759Y-74893795D01*
X92038795Y-74677759D01*
X92292826Y-74508021D01*
X92575090Y-74391104D01*
X92724915Y-74361302D01*
X92874739Y-74331500D01*
X93180261Y-74331500D01*
X93330085Y-74361302D01*
G37*
G36*
X212392585Y-74361302D02*
G01*
X212542410Y-74391104D01*
X212824674Y-74508021D01*
X213078705Y-74677759D01*
X213294741Y-74893795D01*
X213464479Y-75147826D01*
X213581396Y-75430090D01*
X213641000Y-75729740D01*
X213641000Y-76035260D01*
X213581396Y-76334910D01*
X213464479Y-76617174D01*
X213294741Y-76871205D01*
X213078705Y-77087241D01*
X212824674Y-77256979D01*
X212542410Y-77373896D01*
X212392585Y-77403698D01*
X212242761Y-77433500D01*
X211937239Y-77433500D01*
X211787415Y-77403698D01*
X211637590Y-77373896D01*
X211355326Y-77256979D01*
X211101295Y-77087241D01*
X210885259Y-76871205D01*
X210715521Y-76617174D01*
X210598604Y-76334910D01*
X210539000Y-76035260D01*
X210539000Y-75729740D01*
X210598604Y-75430090D01*
X210715521Y-75147826D01*
X210885259Y-74893795D01*
X211101295Y-74677759D01*
X211355326Y-74508021D01*
X211637590Y-74391104D01*
X211787415Y-74361302D01*
X211937239Y-74331500D01*
X212242761Y-74331500D01*
X212392585Y-74361302D01*
G37*
G36*
X150480085Y-74361302D02*
G01*
X150629910Y-74391104D01*
X150912174Y-74508021D01*
X151166205Y-74677759D01*
X151382241Y-74893795D01*
X151551979Y-75147826D01*
X151668896Y-75430090D01*
X151728500Y-75729740D01*
X151728500Y-76035260D01*
X151668896Y-76334910D01*
X151551979Y-76617174D01*
X151382241Y-76871205D01*
X151166205Y-77087241D01*
X150912174Y-77256979D01*
X150629910Y-77373896D01*
X150480085Y-77403698D01*
X150330261Y-77433500D01*
X150024739Y-77433500D01*
X149874915Y-77403698D01*
X149725090Y-77373896D01*
X149442826Y-77256979D01*
X149188795Y-77087241D01*
X148972759Y-76871205D01*
X148803021Y-76617174D01*
X148686104Y-76334910D01*
X148626500Y-76035260D01*
X148626500Y-75729740D01*
X148686104Y-75430090D01*
X148803021Y-75147826D01*
X148972759Y-74893795D01*
X149188795Y-74677759D01*
X149442826Y-74508021D01*
X149725090Y-74391104D01*
X149874915Y-74361302D01*
X150024739Y-74331500D01*
X150330261Y-74331500D01*
X150480085Y-74361302D01*
G37*
G36*
X131430085Y-74361302D02*
G01*
X131579910Y-74391104D01*
X131862174Y-74508021D01*
X132116205Y-74677759D01*
X132332241Y-74893795D01*
X132501979Y-75147826D01*
X132618896Y-75430090D01*
X132678500Y-75729740D01*
X132678500Y-76035260D01*
X132618896Y-76334910D01*
X132501979Y-76617174D01*
X132332241Y-76871205D01*
X132116205Y-77087241D01*
X131862174Y-77256979D01*
X131579910Y-77373896D01*
X131430085Y-77403698D01*
X131280261Y-77433500D01*
X130974739Y-77433500D01*
X130824915Y-77403698D01*
X130675090Y-77373896D01*
X130392826Y-77256979D01*
X130138795Y-77087241D01*
X129922759Y-76871205D01*
X129753021Y-76617174D01*
X129636104Y-76334910D01*
X129576500Y-76035260D01*
X129576500Y-75729740D01*
X129636104Y-75430090D01*
X129753021Y-75147826D01*
X129922759Y-74893795D01*
X130138795Y-74677759D01*
X130392826Y-74508021D01*
X130675090Y-74391104D01*
X130824915Y-74361302D01*
X130974739Y-74331500D01*
X131280261Y-74331500D01*
X131430085Y-74361302D01*
G37*
G36*
X112380085Y-74361302D02*
G01*
X112529910Y-74391104D01*
X112812174Y-74508021D01*
X113066205Y-74677759D01*
X113282241Y-74893795D01*
X113451979Y-75147826D01*
X113568896Y-75430090D01*
X113628500Y-75729740D01*
X113628500Y-76035260D01*
X113568896Y-76334910D01*
X113451979Y-76617174D01*
X113282241Y-76871205D01*
X113066205Y-77087241D01*
X112812174Y-77256979D01*
X112529910Y-77373896D01*
X112380085Y-77403698D01*
X112230261Y-77433500D01*
X111924739Y-77433500D01*
X111774915Y-77403698D01*
X111625090Y-77373896D01*
X111342826Y-77256979D01*
X111088795Y-77087241D01*
X110872759Y-76871205D01*
X110703021Y-76617174D01*
X110586104Y-76334910D01*
X110526500Y-76035260D01*
X110526500Y-75729740D01*
X110586104Y-75430090D01*
X110703021Y-75147826D01*
X110872759Y-74893795D01*
X111088795Y-74677759D01*
X111342826Y-74508021D01*
X111625090Y-74391104D01*
X111774915Y-74361302D01*
X111924739Y-74331500D01*
X112230261Y-74331500D01*
X112380085Y-74361302D01*
G37*
G36*
X169530085Y-74361302D02*
G01*
X169679910Y-74391104D01*
X169962174Y-74508021D01*
X170216205Y-74677759D01*
X170432241Y-74893795D01*
X170601979Y-75147826D01*
X170718896Y-75430090D01*
X170778500Y-75729740D01*
X170778500Y-76035260D01*
X170718896Y-76334910D01*
X170601979Y-76617174D01*
X170432241Y-76871205D01*
X170216205Y-77087241D01*
X169962174Y-77256979D01*
X169679910Y-77373896D01*
X169530085Y-77403698D01*
X169380261Y-77433500D01*
X169074739Y-77433500D01*
X168924915Y-77403698D01*
X168775090Y-77373896D01*
X168492826Y-77256979D01*
X168238795Y-77087241D01*
X168022759Y-76871205D01*
X167853021Y-76617174D01*
X167736104Y-76334910D01*
X167676500Y-76035260D01*
X167676500Y-75729740D01*
X167736104Y-75430090D01*
X167853021Y-75147826D01*
X168022759Y-74893795D01*
X168238795Y-74677759D01*
X168492826Y-74508021D01*
X168775090Y-74391104D01*
X168924915Y-74361302D01*
X169074739Y-74331500D01*
X169380261Y-74331500D01*
X169530085Y-74361302D01*
G37*
G36*
X188580085Y-74361302D02*
G01*
X188729910Y-74391104D01*
X189012174Y-74508021D01*
X189266205Y-74677759D01*
X189482241Y-74893795D01*
X189651979Y-75147826D01*
X189768896Y-75430090D01*
X189828500Y-75729740D01*
X189828500Y-76035260D01*
X189768896Y-76334910D01*
X189651979Y-76617174D01*
X189482241Y-76871205D01*
X189266205Y-77087241D01*
X189012174Y-77256979D01*
X188729910Y-77373896D01*
X188580085Y-77403698D01*
X188430261Y-77433500D01*
X188124739Y-77433500D01*
X187974915Y-77403698D01*
X187825090Y-77373896D01*
X187542826Y-77256979D01*
X187288795Y-77087241D01*
X187072759Y-76871205D01*
X186903021Y-76617174D01*
X186786104Y-76334910D01*
X186726500Y-76035260D01*
X186726500Y-75729740D01*
X186786104Y-75430090D01*
X186903021Y-75147826D01*
X187072759Y-74893795D01*
X187288795Y-74677759D01*
X187542826Y-74508021D01*
X187825090Y-74391104D01*
X187974915Y-74361302D01*
X188124739Y-74331500D01*
X188430261Y-74331500D01*
X188580085Y-74361302D01*
G37*
G36*
X100288380Y-71578526D02*
G01*
X100669093Y-71654254D01*
X101078749Y-71823939D01*
X101447429Y-72070284D01*
X101760966Y-72383821D01*
X102007311Y-72752501D01*
X102176996Y-73162157D01*
X102263500Y-73597046D01*
X102263500Y-74040454D01*
X102176996Y-74475343D01*
X102007311Y-74884999D01*
X101760966Y-75253679D01*
X101447429Y-75567216D01*
X101078749Y-75813561D01*
X100669093Y-75983246D01*
X100288380Y-76058974D01*
X100234205Y-76069750D01*
X99790795Y-76069750D01*
X99736620Y-76058974D01*
X99355907Y-75983246D01*
X98946251Y-75813561D01*
X98577571Y-75567216D01*
X98264034Y-75253679D01*
X98017689Y-74884999D01*
X97848004Y-74475343D01*
X97761500Y-74040454D01*
X97761500Y-73597046D01*
X97848004Y-73162157D01*
X98017689Y-72752501D01*
X98264034Y-72383821D01*
X98577571Y-72070284D01*
X98946251Y-71823939D01*
X99355907Y-71654254D01*
X99736620Y-71578526D01*
X99790795Y-71567750D01*
X100234205Y-71567750D01*
X100288380Y-71578526D01*
G37*
G36*
X221732130Y-71578526D02*
G01*
X222112843Y-71654254D01*
X222522499Y-71823939D01*
X222891179Y-72070284D01*
X223204716Y-72383821D01*
X223451061Y-72752501D01*
X223620746Y-73162157D01*
X223707250Y-73597046D01*
X223707250Y-74040454D01*
X223620746Y-74475343D01*
X223451061Y-74884999D01*
X223204716Y-75253679D01*
X222891179Y-75567216D01*
X222522499Y-75813561D01*
X222112843Y-75983246D01*
X221732130Y-76058974D01*
X221677955Y-76069750D01*
X221234545Y-76069750D01*
X221180370Y-76058974D01*
X220799657Y-75983246D01*
X220390001Y-75813561D01*
X220021321Y-75567216D01*
X219707784Y-75253679D01*
X219461439Y-74884999D01*
X219291754Y-74475343D01*
X219205250Y-74040454D01*
X219205250Y-73597046D01*
X219291754Y-73162157D01*
X219461439Y-72752501D01*
X219707784Y-72383821D01*
X220021321Y-72070284D01*
X220390001Y-71823939D01*
X220799657Y-71654254D01*
X221180370Y-71578526D01*
X221234545Y-71567750D01*
X221677955Y-71567750D01*
X221732130Y-71578526D01*
G37*
G36*
X194705731Y-71488705D02*
G01*
X194744467Y-71496410D01*
X194774695Y-71508931D01*
X194817444Y-71526638D01*
X194883122Y-71570523D01*
X194938978Y-71626379D01*
X194948567Y-71640730D01*
X194964113Y-71659672D01*
X194983055Y-71675217D01*
X195004665Y-71686768D01*
X195028114Y-71693881D01*
X195052501Y-71696283D01*
X195076887Y-71693881D01*
X195100336Y-71686768D01*
X195121946Y-71675217D01*
X195140888Y-71659671D01*
X195156433Y-71640730D01*
X195166022Y-71626379D01*
X195221878Y-71570523D01*
X195287556Y-71526638D01*
X195330305Y-71508931D01*
X195360533Y-71496410D01*
X195399269Y-71488705D01*
X195438004Y-71481000D01*
X195516996Y-71481000D01*
X195555731Y-71488705D01*
X195594467Y-71496410D01*
X195624695Y-71508931D01*
X195667444Y-71526638D01*
X195733122Y-71570523D01*
X195788978Y-71626379D01*
X195798567Y-71640730D01*
X195814113Y-71659672D01*
X195833055Y-71675217D01*
X195854665Y-71686768D01*
X195878114Y-71693881D01*
X195902501Y-71696283D01*
X195926887Y-71693881D01*
X195950336Y-71686768D01*
X195971946Y-71675217D01*
X195990888Y-71659671D01*
X196006433Y-71640730D01*
X196016022Y-71626379D01*
X196071878Y-71570523D01*
X196137556Y-71526638D01*
X196180305Y-71508931D01*
X196210533Y-71496410D01*
X196249269Y-71488705D01*
X196288004Y-71481000D01*
X196366996Y-71481000D01*
X196405731Y-71488705D01*
X196444467Y-71496410D01*
X196474695Y-71508931D01*
X196517444Y-71526638D01*
X196583122Y-71570523D01*
X196638978Y-71626379D01*
X196648567Y-71640730D01*
X196664113Y-71659672D01*
X196683055Y-71675217D01*
X196704665Y-71686768D01*
X196728114Y-71693881D01*
X196752501Y-71696283D01*
X196776887Y-71693881D01*
X196800336Y-71686768D01*
X196821946Y-71675217D01*
X196840888Y-71659671D01*
X196856433Y-71640730D01*
X196866022Y-71626379D01*
X196921878Y-71570523D01*
X196987556Y-71526638D01*
X197030305Y-71508931D01*
X197060533Y-71496410D01*
X197099269Y-71488705D01*
X197138004Y-71481000D01*
X197216996Y-71481000D01*
X197255731Y-71488705D01*
X197294467Y-71496410D01*
X197324695Y-71508931D01*
X197367444Y-71526638D01*
X197433122Y-71570523D01*
X197488978Y-71626379D01*
X197498567Y-71640730D01*
X197514113Y-71659672D01*
X197533055Y-71675217D01*
X197554665Y-71686768D01*
X197578114Y-71693881D01*
X197602501Y-71696283D01*
X197626887Y-71693881D01*
X197650336Y-71686768D01*
X197671946Y-71675217D01*
X197690888Y-71659671D01*
X197706433Y-71640730D01*
X197716022Y-71626379D01*
X197771878Y-71570523D01*
X197837556Y-71526638D01*
X197880305Y-71508931D01*
X197910533Y-71496410D01*
X197949269Y-71488705D01*
X197988004Y-71481000D01*
X198066996Y-71481000D01*
X198105731Y-71488705D01*
X198144467Y-71496410D01*
X198174695Y-71508931D01*
X198217444Y-71526638D01*
X198283122Y-71570523D01*
X198338978Y-71626379D01*
X198348567Y-71640730D01*
X198364113Y-71659672D01*
X198383055Y-71675217D01*
X198404665Y-71686768D01*
X198428114Y-71693881D01*
X198452501Y-71696283D01*
X198476887Y-71693881D01*
X198500336Y-71686768D01*
X198521946Y-71675217D01*
X198540888Y-71659671D01*
X198556433Y-71640730D01*
X198566022Y-71626379D01*
X198621878Y-71570523D01*
X198687556Y-71526638D01*
X198730305Y-71508931D01*
X198760533Y-71496410D01*
X198799269Y-71488705D01*
X198838004Y-71481000D01*
X198916996Y-71481000D01*
X198955731Y-71488705D01*
X198994467Y-71496410D01*
X199024695Y-71508931D01*
X199067444Y-71526638D01*
X199133122Y-71570523D01*
X199188978Y-71626379D01*
X199198567Y-71640730D01*
X199214113Y-71659672D01*
X199233055Y-71675217D01*
X199254665Y-71686768D01*
X199278114Y-71693881D01*
X199302501Y-71696283D01*
X199326887Y-71693881D01*
X199350336Y-71686768D01*
X199371946Y-71675217D01*
X199390888Y-71659671D01*
X199406433Y-71640730D01*
X199416022Y-71626379D01*
X199471878Y-71570523D01*
X199537556Y-71526638D01*
X199580305Y-71508931D01*
X199610533Y-71496410D01*
X199649269Y-71488705D01*
X199688004Y-71481000D01*
X199766996Y-71481000D01*
X199805731Y-71488705D01*
X199844467Y-71496410D01*
X199874695Y-71508931D01*
X199917444Y-71526638D01*
X199983122Y-71570523D01*
X200038978Y-71626379D01*
X200048567Y-71640730D01*
X200064113Y-71659672D01*
X200083055Y-71675217D01*
X200104665Y-71686768D01*
X200128114Y-71693881D01*
X200152501Y-71696283D01*
X200176887Y-71693881D01*
X200200336Y-71686768D01*
X200221946Y-71675217D01*
X200240888Y-71659671D01*
X200256433Y-71640730D01*
X200266022Y-71626379D01*
X200321878Y-71570523D01*
X200387556Y-71526638D01*
X200430305Y-71508931D01*
X200460533Y-71496410D01*
X200499269Y-71488705D01*
X200538004Y-71481000D01*
X200616996Y-71481000D01*
X200655731Y-71488705D01*
X200694467Y-71496410D01*
X200724695Y-71508931D01*
X200767444Y-71526638D01*
X200833122Y-71570523D01*
X200888977Y-71626378D01*
X200932862Y-71692056D01*
X200950569Y-71734805D01*
X200963090Y-71765033D01*
X200978500Y-71842505D01*
X200978500Y-71921495D01*
X200963090Y-71998967D01*
X200950569Y-72029195D01*
X200932862Y-72071944D01*
X200888977Y-72137622D01*
X200833122Y-72193477D01*
X200767444Y-72237362D01*
X200724695Y-72255069D01*
X200694467Y-72267590D01*
X200655731Y-72275295D01*
X200616996Y-72283000D01*
X200538004Y-72283000D01*
X200499269Y-72275295D01*
X200460533Y-72267590D01*
X200430305Y-72255069D01*
X200387556Y-72237362D01*
X200321878Y-72193477D01*
X200266022Y-72137621D01*
X200256433Y-72123270D01*
X200240887Y-72104328D01*
X200221945Y-72088783D01*
X200200335Y-72077232D01*
X200176886Y-72070119D01*
X200152499Y-72067717D01*
X200128113Y-72070119D01*
X200104664Y-72077232D01*
X200083054Y-72088783D01*
X200064112Y-72104329D01*
X200048567Y-72123270D01*
X200038978Y-72137621D01*
X199983122Y-72193477D01*
X199917444Y-72237362D01*
X199874695Y-72255069D01*
X199844467Y-72267590D01*
X199805731Y-72275295D01*
X199766996Y-72283000D01*
X199688004Y-72283000D01*
X199649269Y-72275295D01*
X199610533Y-72267590D01*
X199580305Y-72255069D01*
X199537556Y-72237362D01*
X199471878Y-72193477D01*
X199416022Y-72137621D01*
X199406433Y-72123270D01*
X199390887Y-72104328D01*
X199371945Y-72088783D01*
X199350335Y-72077232D01*
X199326886Y-72070119D01*
X199302499Y-72067717D01*
X199278113Y-72070119D01*
X199254664Y-72077232D01*
X199233054Y-72088783D01*
X199214112Y-72104329D01*
X199198567Y-72123270D01*
X199188978Y-72137621D01*
X199133122Y-72193477D01*
X199067444Y-72237362D01*
X199024695Y-72255069D01*
X198994467Y-72267590D01*
X198955731Y-72275295D01*
X198916996Y-72283000D01*
X198838004Y-72283000D01*
X198799269Y-72275295D01*
X198760533Y-72267590D01*
X198730305Y-72255069D01*
X198687556Y-72237362D01*
X198621878Y-72193477D01*
X198566022Y-72137621D01*
X198556433Y-72123270D01*
X198540887Y-72104328D01*
X198521945Y-72088783D01*
X198500335Y-72077232D01*
X198476886Y-72070119D01*
X198452499Y-72067717D01*
X198428113Y-72070119D01*
X198404664Y-72077232D01*
X198383054Y-72088783D01*
X198364112Y-72104329D01*
X198348567Y-72123270D01*
X198338978Y-72137621D01*
X198283122Y-72193477D01*
X198217444Y-72237362D01*
X198174695Y-72255069D01*
X198144467Y-72267590D01*
X198105731Y-72275295D01*
X198066996Y-72283000D01*
X197988004Y-72283000D01*
X197949269Y-72275295D01*
X197910533Y-72267590D01*
X197880305Y-72255069D01*
X197837556Y-72237362D01*
X197771878Y-72193477D01*
X197716022Y-72137621D01*
X197706433Y-72123270D01*
X197690887Y-72104328D01*
X197671945Y-72088783D01*
X197650335Y-72077232D01*
X197626886Y-72070119D01*
X197602499Y-72067717D01*
X197578113Y-72070119D01*
X197554664Y-72077232D01*
X197533054Y-72088783D01*
X197514112Y-72104329D01*
X197498567Y-72123270D01*
X197488978Y-72137621D01*
X197433122Y-72193477D01*
X197367444Y-72237362D01*
X197324695Y-72255069D01*
X197294467Y-72267590D01*
X197255731Y-72275295D01*
X197216996Y-72283000D01*
X197138004Y-72283000D01*
X197099269Y-72275295D01*
X197060533Y-72267590D01*
X197030305Y-72255069D01*
X196987556Y-72237362D01*
X196921878Y-72193477D01*
X196866022Y-72137621D01*
X196856433Y-72123270D01*
X196840887Y-72104328D01*
X196821945Y-72088783D01*
X196800335Y-72077232D01*
X196776886Y-72070119D01*
X196752499Y-72067717D01*
X196728113Y-72070119D01*
X196704664Y-72077232D01*
X196683054Y-72088783D01*
X196664112Y-72104329D01*
X196648567Y-72123270D01*
X196638978Y-72137621D01*
X196583122Y-72193477D01*
X196517444Y-72237362D01*
X196474695Y-72255069D01*
X196444467Y-72267590D01*
X196405731Y-72275295D01*
X196366996Y-72283000D01*
X196288004Y-72283000D01*
X196249269Y-72275295D01*
X196210533Y-72267590D01*
X196180305Y-72255069D01*
X196137556Y-72237362D01*
X196071878Y-72193477D01*
X196016022Y-72137621D01*
X196006433Y-72123270D01*
X195990887Y-72104328D01*
X195971945Y-72088783D01*
X195950335Y-72077232D01*
X195926886Y-72070119D01*
X195902499Y-72067717D01*
X195878113Y-72070119D01*
X195854664Y-72077232D01*
X195833054Y-72088783D01*
X195814112Y-72104329D01*
X195798567Y-72123270D01*
X195788978Y-72137621D01*
X195733122Y-72193477D01*
X195667444Y-72237362D01*
X195624695Y-72255069D01*
X195594467Y-72267590D01*
X195555731Y-72275295D01*
X195516996Y-72283000D01*
X195438004Y-72283000D01*
X195399269Y-72275295D01*
X195360533Y-72267590D01*
X195330305Y-72255069D01*
X195287556Y-72237362D01*
X195221878Y-72193477D01*
X195166022Y-72137621D01*
X195156433Y-72123270D01*
X195140887Y-72104328D01*
X195121945Y-72088783D01*
X195100335Y-72077232D01*
X195076886Y-72070119D01*
X195052499Y-72067717D01*
X195028113Y-72070119D01*
X195004664Y-72077232D01*
X194983054Y-72088783D01*
X194964112Y-72104329D01*
X194948567Y-72123270D01*
X194938978Y-72137621D01*
X194883122Y-72193477D01*
X194817444Y-72237362D01*
X194774695Y-72255069D01*
X194744467Y-72267590D01*
X194705731Y-72275295D01*
X194666996Y-72283000D01*
X194588004Y-72283000D01*
X194549269Y-72275295D01*
X194510533Y-72267590D01*
X194480305Y-72255069D01*
X194437556Y-72237362D01*
X194371878Y-72193477D01*
X194316023Y-72137622D01*
X194272138Y-72071944D01*
X194254431Y-72029195D01*
X194241910Y-71998967D01*
X194226500Y-71921495D01*
X194226500Y-71842505D01*
X194241910Y-71765033D01*
X194254431Y-71734805D01*
X194272138Y-71692056D01*
X194316023Y-71626378D01*
X194371878Y-71570523D01*
X194437556Y-71526638D01*
X194480305Y-71508931D01*
X194510533Y-71496410D01*
X194549269Y-71488705D01*
X194588004Y-71481000D01*
X194666996Y-71481000D01*
X194705731Y-71488705D01*
G37*
G36*
X193375712Y-69658249D02*
G01*
X193470151Y-69686897D01*
X193557187Y-69733418D01*
X193633475Y-69796025D01*
X193696082Y-69872313D01*
X193742603Y-69959348D01*
X193771251Y-70053787D01*
X193778500Y-70127388D01*
X193778500Y-71676612D01*
X193771251Y-71750213D01*
X193742603Y-71844652D01*
X193696082Y-71931687D01*
X193633475Y-72007975D01*
X193557187Y-72070582D01*
X193470152Y-72117103D01*
X193375713Y-72145751D01*
X193277500Y-72155424D01*
X193179288Y-72145751D01*
X193084849Y-72117103D01*
X192997814Y-72070582D01*
X192921526Y-72007975D01*
X192858919Y-71931687D01*
X192812398Y-71844652D01*
X192783750Y-71750213D01*
X192776501Y-71676612D01*
X192776500Y-70127389D01*
X192783749Y-70053788D01*
X192812397Y-69959349D01*
X192858918Y-69872313D01*
X192921525Y-69796025D01*
X192997813Y-69733418D01*
X193084848Y-69686897D01*
X193179287Y-69658249D01*
X193277500Y-69648576D01*
X193375712Y-69658249D01*
G37*
G36*
X202025712Y-69658249D02*
G01*
X202120151Y-69686897D01*
X202207187Y-69733418D01*
X202283475Y-69796025D01*
X202346082Y-69872313D01*
X202392603Y-69959348D01*
X202421251Y-70053787D01*
X202428500Y-70127388D01*
X202428500Y-71676612D01*
X202421251Y-71750213D01*
X202392603Y-71844652D01*
X202346082Y-71931687D01*
X202283475Y-72007975D01*
X202207187Y-72070582D01*
X202120152Y-72117103D01*
X202025713Y-72145751D01*
X201927500Y-72155424D01*
X201829288Y-72145751D01*
X201734849Y-72117103D01*
X201647814Y-72070582D01*
X201571526Y-72007975D01*
X201508919Y-71931687D01*
X201462398Y-71844652D01*
X201433750Y-71750213D01*
X201426501Y-71676612D01*
X201426500Y-70127389D01*
X201433749Y-70053788D01*
X201462397Y-69959349D01*
X201508918Y-69872313D01*
X201571525Y-69796025D01*
X201647813Y-69733418D01*
X201734848Y-69686897D01*
X201829287Y-69658249D01*
X201927500Y-69648576D01*
X202025712Y-69658249D01*
G37*
G36*
X194705731Y-70138705D02*
G01*
X194744467Y-70146410D01*
X194774695Y-70158931D01*
X194817444Y-70176638D01*
X194883122Y-70220523D01*
X194938978Y-70276379D01*
X194948567Y-70290730D01*
X194964113Y-70309672D01*
X194983055Y-70325217D01*
X195004665Y-70336768D01*
X195028114Y-70343881D01*
X195052501Y-70346283D01*
X195076887Y-70343881D01*
X195100336Y-70336768D01*
X195121946Y-70325217D01*
X195140888Y-70309671D01*
X195156433Y-70290730D01*
X195166022Y-70276379D01*
X195221878Y-70220523D01*
X195287556Y-70176638D01*
X195330305Y-70158931D01*
X195360533Y-70146410D01*
X195399269Y-70138705D01*
X195438004Y-70131000D01*
X195516996Y-70131000D01*
X195555731Y-70138705D01*
X195594467Y-70146410D01*
X195624695Y-70158931D01*
X195667444Y-70176638D01*
X195733122Y-70220523D01*
X195788978Y-70276379D01*
X195798567Y-70290730D01*
X195814113Y-70309672D01*
X195833055Y-70325217D01*
X195854665Y-70336768D01*
X195878114Y-70343881D01*
X195902501Y-70346283D01*
X195926887Y-70343881D01*
X195950336Y-70336768D01*
X195971946Y-70325217D01*
X195990888Y-70309671D01*
X196006433Y-70290730D01*
X196016022Y-70276379D01*
X196071878Y-70220523D01*
X196137556Y-70176638D01*
X196180305Y-70158931D01*
X196210533Y-70146410D01*
X196249269Y-70138705D01*
X196288004Y-70131000D01*
X196366996Y-70131000D01*
X196405731Y-70138705D01*
X196444467Y-70146410D01*
X196474695Y-70158931D01*
X196517444Y-70176638D01*
X196583122Y-70220523D01*
X196638978Y-70276379D01*
X196648567Y-70290730D01*
X196664113Y-70309672D01*
X196683055Y-70325217D01*
X196704665Y-70336768D01*
X196728114Y-70343881D01*
X196752501Y-70346283D01*
X196776887Y-70343881D01*
X196800336Y-70336768D01*
X196821946Y-70325217D01*
X196840888Y-70309671D01*
X196856433Y-70290730D01*
X196866022Y-70276379D01*
X196921878Y-70220523D01*
X196987556Y-70176638D01*
X197030305Y-70158931D01*
X197060533Y-70146410D01*
X197099269Y-70138705D01*
X197138004Y-70131000D01*
X197216996Y-70131000D01*
X197255731Y-70138705D01*
X197294467Y-70146410D01*
X197324695Y-70158931D01*
X197367444Y-70176638D01*
X197433122Y-70220523D01*
X197488978Y-70276379D01*
X197498567Y-70290730D01*
X197514113Y-70309672D01*
X197533055Y-70325217D01*
X197554665Y-70336768D01*
X197578114Y-70343881D01*
X197602501Y-70346283D01*
X197626887Y-70343881D01*
X197650336Y-70336768D01*
X197671946Y-70325217D01*
X197690888Y-70309671D01*
X197706433Y-70290730D01*
X197716022Y-70276379D01*
X197771878Y-70220523D01*
X197837556Y-70176638D01*
X197880305Y-70158931D01*
X197910533Y-70146410D01*
X197949269Y-70138705D01*
X197988004Y-70131000D01*
X198066996Y-70131000D01*
X198105731Y-70138705D01*
X198144467Y-70146410D01*
X198174695Y-70158931D01*
X198217444Y-70176638D01*
X198283122Y-70220523D01*
X198338978Y-70276379D01*
X198348567Y-70290730D01*
X198364113Y-70309672D01*
X198383055Y-70325217D01*
X198404665Y-70336768D01*
X198428114Y-70343881D01*
X198452501Y-70346283D01*
X198476887Y-70343881D01*
X198500336Y-70336768D01*
X198521946Y-70325217D01*
X198540888Y-70309671D01*
X198556433Y-70290730D01*
X198566022Y-70276379D01*
X198621878Y-70220523D01*
X198687556Y-70176638D01*
X198730305Y-70158931D01*
X198760533Y-70146410D01*
X198799269Y-70138705D01*
X198838004Y-70131000D01*
X198916996Y-70131000D01*
X198955731Y-70138705D01*
X198994467Y-70146410D01*
X199024695Y-70158931D01*
X199067444Y-70176638D01*
X199133122Y-70220523D01*
X199188978Y-70276379D01*
X199198567Y-70290730D01*
X199214113Y-70309672D01*
X199233055Y-70325217D01*
X199254665Y-70336768D01*
X199278114Y-70343881D01*
X199302501Y-70346283D01*
X199326887Y-70343881D01*
X199350336Y-70336768D01*
X199371946Y-70325217D01*
X199390888Y-70309671D01*
X199406433Y-70290730D01*
X199416022Y-70276379D01*
X199471878Y-70220523D01*
X199537556Y-70176638D01*
X199580305Y-70158931D01*
X199610533Y-70146410D01*
X199649269Y-70138705D01*
X199688004Y-70131000D01*
X199766996Y-70131000D01*
X199805731Y-70138705D01*
X199844467Y-70146410D01*
X199874695Y-70158931D01*
X199917444Y-70176638D01*
X199983122Y-70220523D01*
X200038978Y-70276379D01*
X200048567Y-70290730D01*
X200064113Y-70309672D01*
X200083055Y-70325217D01*
X200104665Y-70336768D01*
X200128114Y-70343881D01*
X200152501Y-70346283D01*
X200176887Y-70343881D01*
X200200336Y-70336768D01*
X200221946Y-70325217D01*
X200240888Y-70309671D01*
X200256433Y-70290730D01*
X200266022Y-70276379D01*
X200321878Y-70220523D01*
X200387556Y-70176638D01*
X200430305Y-70158931D01*
X200460533Y-70146410D01*
X200499269Y-70138705D01*
X200538004Y-70131000D01*
X200616996Y-70131000D01*
X200655731Y-70138705D01*
X200694467Y-70146410D01*
X200724695Y-70158931D01*
X200767444Y-70176638D01*
X200833122Y-70220523D01*
X200888977Y-70276378D01*
X200932862Y-70342056D01*
X200963090Y-70415034D01*
X200978500Y-70492504D01*
X200978500Y-70571496D01*
X200963090Y-70648966D01*
X200932862Y-70721944D01*
X200888977Y-70787622D01*
X200833122Y-70843477D01*
X200767444Y-70887362D01*
X200724695Y-70905069D01*
X200694467Y-70917590D01*
X200655731Y-70925295D01*
X200616996Y-70933000D01*
X200538004Y-70933000D01*
X200499269Y-70925295D01*
X200460533Y-70917590D01*
X200430305Y-70905069D01*
X200387556Y-70887362D01*
X200321878Y-70843477D01*
X200266022Y-70787621D01*
X200256433Y-70773270D01*
X200240887Y-70754328D01*
X200221945Y-70738783D01*
X200200335Y-70727232D01*
X200176886Y-70720119D01*
X200152499Y-70717717D01*
X200128113Y-70720119D01*
X200104664Y-70727232D01*
X200083054Y-70738783D01*
X200064112Y-70754329D01*
X200048567Y-70773270D01*
X200038978Y-70787621D01*
X199983122Y-70843477D01*
X199917444Y-70887362D01*
X199874695Y-70905069D01*
X199844467Y-70917590D01*
X199805731Y-70925295D01*
X199766996Y-70933000D01*
X199688004Y-70933000D01*
X199649269Y-70925295D01*
X199610533Y-70917590D01*
X199580305Y-70905069D01*
X199537556Y-70887362D01*
X199471878Y-70843477D01*
X199416022Y-70787621D01*
X199406433Y-70773270D01*
X199390887Y-70754328D01*
X199371945Y-70738783D01*
X199350335Y-70727232D01*
X199326886Y-70720119D01*
X199302499Y-70717717D01*
X199278113Y-70720119D01*
X199254664Y-70727232D01*
X199233054Y-70738783D01*
X199214112Y-70754329D01*
X199198567Y-70773270D01*
X199188978Y-70787621D01*
X199133122Y-70843477D01*
X199067444Y-70887362D01*
X199024695Y-70905069D01*
X198994467Y-70917590D01*
X198955731Y-70925295D01*
X198916996Y-70933000D01*
X198838004Y-70933000D01*
X198799269Y-70925295D01*
X198760533Y-70917590D01*
X198730305Y-70905069D01*
X198687556Y-70887362D01*
X198621878Y-70843477D01*
X198566022Y-70787621D01*
X198556433Y-70773270D01*
X198540887Y-70754328D01*
X198521945Y-70738783D01*
X198500335Y-70727232D01*
X198476886Y-70720119D01*
X198452499Y-70717717D01*
X198428113Y-70720119D01*
X198404664Y-70727232D01*
X198383054Y-70738783D01*
X198364112Y-70754329D01*
X198348567Y-70773270D01*
X198338978Y-70787621D01*
X198283122Y-70843477D01*
X198217444Y-70887362D01*
X198174695Y-70905069D01*
X198144467Y-70917590D01*
X198105731Y-70925295D01*
X198066996Y-70933000D01*
X197988004Y-70933000D01*
X197949269Y-70925295D01*
X197910533Y-70917590D01*
X197880305Y-70905069D01*
X197837556Y-70887362D01*
X197771878Y-70843477D01*
X197716022Y-70787621D01*
X197706433Y-70773270D01*
X197690887Y-70754328D01*
X197671945Y-70738783D01*
X197650335Y-70727232D01*
X197626886Y-70720119D01*
X197602499Y-70717717D01*
X197578113Y-70720119D01*
X197554664Y-70727232D01*
X197533054Y-70738783D01*
X197514112Y-70754329D01*
X197498567Y-70773270D01*
X197488978Y-70787621D01*
X197433122Y-70843477D01*
X197367444Y-70887362D01*
X197324695Y-70905069D01*
X197294467Y-70917590D01*
X197255731Y-70925295D01*
X197216996Y-70933000D01*
X197138004Y-70933000D01*
X197099269Y-70925295D01*
X197060533Y-70917590D01*
X197030305Y-70905069D01*
X196987556Y-70887362D01*
X196921878Y-70843477D01*
X196866022Y-70787621D01*
X196856433Y-70773270D01*
X196840887Y-70754328D01*
X196821945Y-70738783D01*
X196800335Y-70727232D01*
X196776886Y-70720119D01*
X196752499Y-70717717D01*
X196728113Y-70720119D01*
X196704664Y-70727232D01*
X196683054Y-70738783D01*
X196664112Y-70754329D01*
X196648567Y-70773270D01*
X196638978Y-70787621D01*
X196583122Y-70843477D01*
X196517444Y-70887362D01*
X196474695Y-70905069D01*
X196444467Y-70917590D01*
X196405731Y-70925295D01*
X196366996Y-70933000D01*
X196288004Y-70933000D01*
X196249269Y-70925295D01*
X196210533Y-70917590D01*
X196180305Y-70905069D01*
X196137556Y-70887362D01*
X196071878Y-70843477D01*
X196016022Y-70787621D01*
X196006433Y-70773270D01*
X195990887Y-70754328D01*
X195971945Y-70738783D01*
X195950335Y-70727232D01*
X195926886Y-70720119D01*
X195902499Y-70717717D01*
X195878113Y-70720119D01*
X195854664Y-70727232D01*
X195833054Y-70738783D01*
X195814112Y-70754329D01*
X195798567Y-70773270D01*
X195788978Y-70787621D01*
X195733122Y-70843477D01*
X195667444Y-70887362D01*
X195624695Y-70905069D01*
X195594467Y-70917590D01*
X195555731Y-70925295D01*
X195516996Y-70933000D01*
X195438004Y-70933000D01*
X195399269Y-70925295D01*
X195360533Y-70917590D01*
X195330305Y-70905069D01*
X195287556Y-70887362D01*
X195221878Y-70843477D01*
X195166022Y-70787621D01*
X195156433Y-70773270D01*
X195140887Y-70754328D01*
X195121945Y-70738783D01*
X195100335Y-70727232D01*
X195076886Y-70720119D01*
X195052499Y-70717717D01*
X195028113Y-70720119D01*
X195004664Y-70727232D01*
X194983054Y-70738783D01*
X194964112Y-70754329D01*
X194948567Y-70773270D01*
X194938978Y-70787621D01*
X194883122Y-70843477D01*
X194817444Y-70887362D01*
X194774695Y-70905069D01*
X194744467Y-70917590D01*
X194705731Y-70925295D01*
X194666996Y-70933000D01*
X194588004Y-70933000D01*
X194549269Y-70925295D01*
X194510533Y-70917590D01*
X194480305Y-70905069D01*
X194437556Y-70887362D01*
X194371878Y-70843477D01*
X194316023Y-70787622D01*
X194272138Y-70721944D01*
X194241910Y-70648966D01*
X194226500Y-70571496D01*
X194226500Y-70492504D01*
X194241910Y-70415034D01*
X194272138Y-70342056D01*
X194316023Y-70276378D01*
X194371878Y-70220523D01*
X194437556Y-70176638D01*
X194480305Y-70158931D01*
X194510533Y-70146410D01*
X194549269Y-70138705D01*
X194588004Y-70131000D01*
X194666996Y-70131000D01*
X194705731Y-70138705D01*
G37*
G36*
X193375712Y-66628249D02*
G01*
X193470151Y-66656897D01*
X193557187Y-66703418D01*
X193633475Y-66766025D01*
X193696082Y-66842313D01*
X193742603Y-66929348D01*
X193771251Y-67023787D01*
X193778500Y-67097388D01*
X193778500Y-67946612D01*
X193771251Y-68020213D01*
X193742603Y-68114652D01*
X193696082Y-68201687D01*
X193633475Y-68277975D01*
X193557187Y-68340582D01*
X193470152Y-68387103D01*
X193375713Y-68415751D01*
X193277500Y-68425424D01*
X193179288Y-68415751D01*
X193084849Y-68387103D01*
X192997814Y-68340582D01*
X192921526Y-68277975D01*
X192858919Y-68201687D01*
X192812398Y-68114652D01*
X192783750Y-68020213D01*
X192776501Y-67946612D01*
X192776500Y-67946602D01*
X192776500Y-67097389D01*
X192783749Y-67023788D01*
X192812397Y-66929349D01*
X192858918Y-66842313D01*
X192921525Y-66766025D01*
X192997813Y-66703418D01*
X193084848Y-66656897D01*
X193179287Y-66628249D01*
X193277500Y-66618576D01*
X193375712Y-66628249D01*
G37*
G36*
X202025712Y-66628249D02*
G01*
X202120151Y-66656897D01*
X202207187Y-66703418D01*
X202283475Y-66766025D01*
X202346082Y-66842313D01*
X202392603Y-66929348D01*
X202421251Y-67023787D01*
X202428500Y-67097388D01*
X202428500Y-67946612D01*
X202421251Y-68020213D01*
X202392603Y-68114652D01*
X202346082Y-68201687D01*
X202283475Y-68277975D01*
X202207187Y-68340582D01*
X202120152Y-68387103D01*
X202025713Y-68415751D01*
X201927500Y-68425424D01*
X201829288Y-68415751D01*
X201734849Y-68387103D01*
X201647814Y-68340582D01*
X201571526Y-68277975D01*
X201508919Y-68201687D01*
X201462398Y-68114652D01*
X201433750Y-68020213D01*
X201426501Y-67946612D01*
X201426500Y-67946602D01*
X201426500Y-67097389D01*
X201433749Y-67023788D01*
X201462397Y-66929349D01*
X201508918Y-66842313D01*
X201571525Y-66766025D01*
X201647813Y-66703418D01*
X201734848Y-66656897D01*
X201829287Y-66628249D01*
X201927500Y-66618576D01*
X202025712Y-66628249D01*
G37*
M02*
