G04 #@! TF.GenerationSoftware,KiCad,Pcbnew,5.1.5*
G04 #@! TF.CreationDate,2019-12-26T05:57:11+09:00*
G04 #@! TF.ProjectId,half_qwerty,68616c66-5f71-4776-9572-74792e6b6963,rev?*
G04 #@! TF.SameCoordinates,Original*
G04 #@! TF.FileFunction,Legend,Top*
G04 #@! TF.FilePolarity,Positive*
%FSLAX46Y46*%
G04 Gerber Fmt 4.6, Leading zero omitted, Abs format (unit mm)*
G04 Created by KiCad (PCBNEW 5.1.5) date 2019-12-26 05:57:11*
%MOMM*%
%LPD*%
G04 APERTURE LIST*
%ADD10C,0.150000*%
%ADD11C,0.120000*%
G04 APERTURE END LIST*
D10*
X194421523Y-76525333D02*
X194373904Y-76477714D01*
X194278666Y-76334857D01*
X194231047Y-76239619D01*
X194183428Y-76096761D01*
X194135809Y-75858666D01*
X194135809Y-75668190D01*
X194183428Y-75430095D01*
X194231047Y-75287238D01*
X194278666Y-75192000D01*
X194373904Y-75049142D01*
X194421523Y-75001523D01*
X194945333Y-76144380D02*
X194850095Y-76096761D01*
X194802476Y-76049142D01*
X194754857Y-75953904D01*
X194754857Y-75668190D01*
X194802476Y-75572952D01*
X194850095Y-75525333D01*
X194945333Y-75477714D01*
X195088190Y-75477714D01*
X195183428Y-75525333D01*
X195231047Y-75572952D01*
X195278666Y-75668190D01*
X195278666Y-75953904D01*
X195231047Y-76049142D01*
X195183428Y-76096761D01*
X195088190Y-76144380D01*
X194945333Y-76144380D01*
X195707238Y-75477714D02*
X195707238Y-76477714D01*
X195707238Y-75525333D02*
X195802476Y-75477714D01*
X195992952Y-75477714D01*
X196088190Y-75525333D01*
X196135809Y-75572952D01*
X196183428Y-75668190D01*
X196183428Y-75953904D01*
X196135809Y-76049142D01*
X196088190Y-76096761D01*
X195992952Y-76144380D01*
X195802476Y-76144380D01*
X195707238Y-76096761D01*
X196469142Y-75477714D02*
X196850095Y-75477714D01*
X196612000Y-75144380D02*
X196612000Y-76001523D01*
X196659619Y-76096761D01*
X196754857Y-76144380D01*
X196850095Y-76144380D01*
X197183428Y-76144380D02*
X197183428Y-75477714D01*
X197183428Y-75144380D02*
X197135809Y-75192000D01*
X197183428Y-75239619D01*
X197231047Y-75192000D01*
X197183428Y-75144380D01*
X197183428Y-75239619D01*
X197802476Y-76144380D02*
X197707238Y-76096761D01*
X197659619Y-76049142D01*
X197612000Y-75953904D01*
X197612000Y-75668190D01*
X197659619Y-75572952D01*
X197707238Y-75525333D01*
X197802476Y-75477714D01*
X197945333Y-75477714D01*
X198040571Y-75525333D01*
X198088190Y-75572952D01*
X198135809Y-75668190D01*
X198135809Y-75953904D01*
X198088190Y-76049142D01*
X198040571Y-76096761D01*
X197945333Y-76144380D01*
X197802476Y-76144380D01*
X198564380Y-75477714D02*
X198564380Y-76144380D01*
X198564380Y-75572952D02*
X198612000Y-75525333D01*
X198707238Y-75477714D01*
X198850095Y-75477714D01*
X198945333Y-75525333D01*
X198992952Y-75620571D01*
X198992952Y-76144380D01*
X199897714Y-76144380D02*
X199897714Y-75620571D01*
X199850095Y-75525333D01*
X199754857Y-75477714D01*
X199564380Y-75477714D01*
X199469142Y-75525333D01*
X199897714Y-76096761D02*
X199802476Y-76144380D01*
X199564380Y-76144380D01*
X199469142Y-76096761D01*
X199421523Y-76001523D01*
X199421523Y-75906285D01*
X199469142Y-75811047D01*
X199564380Y-75763428D01*
X199802476Y-75763428D01*
X199897714Y-75715809D01*
X200516761Y-76144380D02*
X200421523Y-76096761D01*
X200373904Y-76001523D01*
X200373904Y-75144380D01*
X200802476Y-76525333D02*
X200850095Y-76477714D01*
X200945333Y-76334857D01*
X200992952Y-76239619D01*
X201040571Y-76096761D01*
X201088190Y-75858666D01*
X201088190Y-75668190D01*
X201040571Y-75430095D01*
X200992952Y-75287238D01*
X200945333Y-75192000D01*
X200850095Y-75049142D01*
X200802476Y-75001523D01*
D11*
X171367267Y-139952000D02*
X171024733Y-139952000D01*
X171367267Y-140972000D02*
X171024733Y-140972000D01*
X171367267Y-132840000D02*
X171024733Y-132840000D01*
X171367267Y-133860000D02*
X171024733Y-133860000D01*
X171367267Y-131062000D02*
X171024733Y-131062000D01*
X171367267Y-132082000D02*
X171024733Y-132082000D01*
X165526000Y-143835000D02*
X168386000Y-143835000D01*
X165526000Y-141915000D02*
X165526000Y-143835000D01*
X168386000Y-141915000D02*
X165526000Y-141915000D01*
X165526000Y-139072500D02*
X168386000Y-139072500D01*
X165526000Y-137152500D02*
X165526000Y-139072500D01*
X168386000Y-137152500D02*
X165526000Y-137152500D01*
X165526000Y-134310000D02*
X168386000Y-134310000D01*
X165526000Y-132390000D02*
X165526000Y-134310000D01*
X168386000Y-132390000D02*
X165526000Y-132390000D01*
X196412000Y-80036000D02*
X199362000Y-80036000D01*
X198812000Y-76936000D02*
X196412000Y-76936000D01*
D10*
X204931250Y-93012500D02*
X204931250Y-95012500D01*
X206931250Y-93012500D02*
X204931250Y-93012500D01*
X204931250Y-107012500D02*
X206931250Y-107012500D01*
X204931250Y-105012500D02*
X204931250Y-107012500D01*
X218931250Y-107012500D02*
X218931250Y-105012500D01*
X216931250Y-107012500D02*
X218931250Y-107012500D01*
X218931250Y-93012500D02*
X218931250Y-95012500D01*
X216931250Y-93012500D02*
X218931250Y-93012500D01*
X190643750Y-131112500D02*
X190643750Y-133112500D01*
X192643750Y-131112500D02*
X190643750Y-131112500D01*
X190643750Y-145112500D02*
X192643750Y-145112500D01*
X190643750Y-143112500D02*
X190643750Y-145112500D01*
X204643750Y-145112500D02*
X204643750Y-143112500D01*
X202643750Y-145112500D02*
X204643750Y-145112500D01*
X204643750Y-131112500D02*
X204643750Y-133112500D01*
X202643750Y-131112500D02*
X204643750Y-131112500D01*
X183500000Y-93012500D02*
X183500000Y-95012500D01*
X185500000Y-93012500D02*
X183500000Y-93012500D01*
X183500000Y-107012500D02*
X185500000Y-107012500D01*
X183500000Y-105012500D02*
X183500000Y-107012500D01*
X197500000Y-107012500D02*
X197500000Y-105012500D01*
X195500000Y-107012500D02*
X197500000Y-107012500D01*
X197500000Y-93012500D02*
X197500000Y-95012500D01*
X195500000Y-93012500D02*
X197500000Y-93012500D01*
X207312500Y-112062500D02*
X207312500Y-114062500D01*
X209312500Y-112062500D02*
X207312500Y-112062500D01*
X207312500Y-126062500D02*
X209312500Y-126062500D01*
X207312500Y-124062500D02*
X207312500Y-126062500D01*
X221312500Y-126062500D02*
X221312500Y-124062500D01*
X219312500Y-126062500D02*
X221312500Y-126062500D01*
X221312500Y-112062500D02*
X221312500Y-114062500D01*
X219312500Y-112062500D02*
X221312500Y-112062500D01*
X188262500Y-112062500D02*
X188262500Y-114062500D01*
X190262500Y-112062500D02*
X188262500Y-112062500D01*
X188262500Y-126062500D02*
X190262500Y-126062500D01*
X188262500Y-124062500D02*
X188262500Y-126062500D01*
X202262500Y-126062500D02*
X202262500Y-124062500D01*
X200262500Y-126062500D02*
X202262500Y-126062500D01*
X202262500Y-112062500D02*
X202262500Y-114062500D01*
X200262500Y-112062500D02*
X202262500Y-112062500D01*
X150162500Y-112062500D02*
X150162500Y-114062500D01*
X152162500Y-112062500D02*
X150162500Y-112062500D01*
X150162500Y-126062500D02*
X152162500Y-126062500D01*
X150162500Y-124062500D02*
X150162500Y-126062500D01*
X164162500Y-126062500D02*
X164162500Y-124062500D01*
X162162500Y-126062500D02*
X164162500Y-126062500D01*
X164162500Y-112062500D02*
X164162500Y-114062500D01*
X162162500Y-112062500D02*
X164162500Y-112062500D01*
X112062500Y-112062500D02*
X112062500Y-114062500D01*
X114062500Y-112062500D02*
X112062500Y-112062500D01*
X112062500Y-126062500D02*
X114062500Y-126062500D01*
X112062500Y-124062500D02*
X112062500Y-126062500D01*
X126062500Y-126062500D02*
X126062500Y-124062500D01*
X124062500Y-126062500D02*
X126062500Y-126062500D01*
X126062500Y-112062500D02*
X126062500Y-114062500D01*
X124062500Y-112062500D02*
X126062500Y-112062500D01*
X202550000Y-73962500D02*
X202550000Y-75962500D01*
X204550000Y-73962500D02*
X202550000Y-73962500D01*
X202550000Y-87962500D02*
X204550000Y-87962500D01*
X202550000Y-85962500D02*
X202550000Y-87962500D01*
X216550000Y-87962500D02*
X216550000Y-85962500D01*
X214550000Y-87962500D02*
X216550000Y-87962500D01*
X216550000Y-73962500D02*
X216550000Y-75962500D01*
X214550000Y-73962500D02*
X216550000Y-73962500D01*
X164450000Y-93012500D02*
X164450000Y-95012500D01*
X166450000Y-93012500D02*
X164450000Y-93012500D01*
X164450000Y-107012500D02*
X166450000Y-107012500D01*
X164450000Y-105012500D02*
X164450000Y-107012500D01*
X178450000Y-107012500D02*
X178450000Y-105012500D01*
X176450000Y-107012500D02*
X178450000Y-107012500D01*
X178450000Y-93012500D02*
X178450000Y-95012500D01*
X176450000Y-93012500D02*
X178450000Y-93012500D01*
X169212500Y-112062500D02*
X169212500Y-114062500D01*
X171212500Y-112062500D02*
X169212500Y-112062500D01*
X169212500Y-126062500D02*
X171212500Y-126062500D01*
X169212500Y-124062500D02*
X169212500Y-126062500D01*
X183212500Y-126062500D02*
X183212500Y-124062500D01*
X181212500Y-126062500D02*
X183212500Y-126062500D01*
X183212500Y-112062500D02*
X183212500Y-114062500D01*
X181212500Y-112062500D02*
X183212500Y-112062500D01*
X131112500Y-112062500D02*
X131112500Y-114062500D01*
X133112500Y-112062500D02*
X131112500Y-112062500D01*
X131112500Y-126062500D02*
X133112500Y-126062500D01*
X131112500Y-124062500D02*
X131112500Y-126062500D01*
X145112500Y-126062500D02*
X145112500Y-124062500D01*
X143112500Y-126062500D02*
X145112500Y-126062500D01*
X145112500Y-112062500D02*
X145112500Y-114062500D01*
X143112500Y-112062500D02*
X145112500Y-112062500D01*
X88250000Y-112062500D02*
X88250000Y-114062500D01*
X90250000Y-112062500D02*
X88250000Y-112062500D01*
X88250000Y-126062500D02*
X90250000Y-126062500D01*
X88250000Y-124062500D02*
X88250000Y-126062500D01*
X102250000Y-126062500D02*
X102250000Y-124062500D01*
X100250000Y-126062500D02*
X102250000Y-126062500D01*
X102250000Y-112062500D02*
X102250000Y-114062500D01*
X100250000Y-112062500D02*
X102250000Y-112062500D01*
X178737500Y-73962500D02*
X178737500Y-75962500D01*
X180737500Y-73962500D02*
X178737500Y-73962500D01*
X178737500Y-87962500D02*
X180737500Y-87962500D01*
X178737500Y-85962500D02*
X178737500Y-87962500D01*
X192737500Y-87962500D02*
X192737500Y-85962500D01*
X190737500Y-87962500D02*
X192737500Y-87962500D01*
X192737500Y-73962500D02*
X192737500Y-75962500D01*
X190737500Y-73962500D02*
X192737500Y-73962500D01*
X145400000Y-93012500D02*
X145400000Y-95012500D01*
X147400000Y-93012500D02*
X145400000Y-93012500D01*
X145400000Y-107012500D02*
X147400000Y-107012500D01*
X145400000Y-105012500D02*
X145400000Y-107012500D01*
X159400000Y-107012500D02*
X159400000Y-105012500D01*
X157400000Y-107012500D02*
X159400000Y-107012500D01*
X159400000Y-93012500D02*
X159400000Y-95012500D01*
X157400000Y-93012500D02*
X159400000Y-93012500D01*
X126350000Y-93012500D02*
X126350000Y-95012500D01*
X128350000Y-93012500D02*
X126350000Y-93012500D01*
X126350000Y-107012500D02*
X128350000Y-107012500D01*
X126350000Y-105012500D02*
X126350000Y-107012500D01*
X140350000Y-107012500D02*
X140350000Y-105012500D01*
X138350000Y-107012500D02*
X140350000Y-107012500D01*
X140350000Y-93012500D02*
X140350000Y-95012500D01*
X138350000Y-93012500D02*
X140350000Y-93012500D01*
X107300000Y-93012500D02*
X107300000Y-95012500D01*
X109300000Y-93012500D02*
X107300000Y-93012500D01*
X107300000Y-107012500D02*
X109300000Y-107012500D01*
X107300000Y-105012500D02*
X107300000Y-107012500D01*
X121300000Y-107012500D02*
X121300000Y-105012500D01*
X119300000Y-107012500D02*
X121300000Y-107012500D01*
X121300000Y-93012500D02*
X121300000Y-95012500D01*
X119300000Y-93012500D02*
X121300000Y-93012500D01*
X85868750Y-93012500D02*
X85868750Y-95012500D01*
X87868750Y-93012500D02*
X85868750Y-93012500D01*
X85868750Y-107012500D02*
X87868750Y-107012500D01*
X85868750Y-105012500D02*
X85868750Y-107012500D01*
X99868750Y-107012500D02*
X99868750Y-105012500D01*
X97868750Y-107012500D02*
X99868750Y-107012500D01*
X99868750Y-93012500D02*
X99868750Y-95012500D01*
X97868750Y-93012500D02*
X99868750Y-93012500D01*
X159687500Y-73962500D02*
X159687500Y-75962500D01*
X161687500Y-73962500D02*
X159687500Y-73962500D01*
X159687500Y-87962500D02*
X161687500Y-87962500D01*
X159687500Y-85962500D02*
X159687500Y-87962500D01*
X173687500Y-87962500D02*
X173687500Y-85962500D01*
X171687500Y-87962500D02*
X173687500Y-87962500D01*
X173687500Y-73962500D02*
X173687500Y-75962500D01*
X171687500Y-73962500D02*
X173687500Y-73962500D01*
X140637500Y-73962500D02*
X140637500Y-75962500D01*
X142637500Y-73962500D02*
X140637500Y-73962500D01*
X140637500Y-87962500D02*
X142637500Y-87962500D01*
X140637500Y-85962500D02*
X140637500Y-87962500D01*
X154637500Y-87962500D02*
X154637500Y-85962500D01*
X152637500Y-87962500D02*
X154637500Y-87962500D01*
X154637500Y-73962500D02*
X154637500Y-75962500D01*
X152637500Y-73962500D02*
X154637500Y-73962500D01*
X121587500Y-73962500D02*
X121587500Y-75962500D01*
X123587500Y-73962500D02*
X121587500Y-73962500D01*
X121587500Y-87962500D02*
X123587500Y-87962500D01*
X121587500Y-85962500D02*
X121587500Y-87962500D01*
X135587500Y-87962500D02*
X135587500Y-85962500D01*
X133587500Y-87962500D02*
X135587500Y-87962500D01*
X135587500Y-73962500D02*
X135587500Y-75962500D01*
X133587500Y-73962500D02*
X135587500Y-73962500D01*
X102537500Y-73962500D02*
X102537500Y-75962500D01*
X104537500Y-73962500D02*
X102537500Y-73962500D01*
X102537500Y-87962500D02*
X104537500Y-87962500D01*
X102537500Y-85962500D02*
X102537500Y-87962500D01*
X116537500Y-87962500D02*
X116537500Y-85962500D01*
X114537500Y-87962500D02*
X116537500Y-87962500D01*
X116537500Y-73962500D02*
X116537500Y-75962500D01*
X114537500Y-73962500D02*
X116537500Y-73962500D01*
X83487500Y-73962500D02*
X83487500Y-75962500D01*
X85487500Y-73962500D02*
X83487500Y-73962500D01*
X83487500Y-87962500D02*
X85487500Y-87962500D01*
X83487500Y-85962500D02*
X83487500Y-87962500D01*
X97487500Y-87962500D02*
X97487500Y-85962500D01*
X95487500Y-87962500D02*
X97487500Y-87962500D01*
X97487500Y-73962500D02*
X97487500Y-75962500D01*
X95487500Y-73962500D02*
X97487500Y-73962500D01*
X173601142Y-140914380D02*
X173267809Y-140438190D01*
X173029714Y-140914380D02*
X173029714Y-139914380D01*
X173410666Y-139914380D01*
X173505904Y-139962000D01*
X173553523Y-140009619D01*
X173601142Y-140104857D01*
X173601142Y-140247714D01*
X173553523Y-140342952D01*
X173505904Y-140390571D01*
X173410666Y-140438190D01*
X173029714Y-140438190D01*
X174553523Y-140914380D02*
X173982095Y-140914380D01*
X174267809Y-140914380D02*
X174267809Y-139914380D01*
X174172571Y-140057238D01*
X174077333Y-140152476D01*
X173982095Y-140200095D01*
X175172571Y-139914380D02*
X175267809Y-139914380D01*
X175363047Y-139962000D01*
X175410666Y-140009619D01*
X175458285Y-140104857D01*
X175505904Y-140295333D01*
X175505904Y-140533428D01*
X175458285Y-140723904D01*
X175410666Y-140819142D01*
X175363047Y-140866761D01*
X175267809Y-140914380D01*
X175172571Y-140914380D01*
X175077333Y-140866761D01*
X175029714Y-140819142D01*
X174982095Y-140723904D01*
X174934476Y-140533428D01*
X174934476Y-140295333D01*
X174982095Y-140104857D01*
X175029714Y-140009619D01*
X175077333Y-139962000D01*
X175172571Y-139914380D01*
X174077333Y-133802380D02*
X173744000Y-133326190D01*
X173505904Y-133802380D02*
X173505904Y-132802380D01*
X173886857Y-132802380D01*
X173982095Y-132850000D01*
X174029714Y-132897619D01*
X174077333Y-132992857D01*
X174077333Y-133135714D01*
X174029714Y-133230952D01*
X173982095Y-133278571D01*
X173886857Y-133326190D01*
X173505904Y-133326190D01*
X174553523Y-133802380D02*
X174744000Y-133802380D01*
X174839238Y-133754761D01*
X174886857Y-133707142D01*
X174982095Y-133564285D01*
X175029714Y-133373809D01*
X175029714Y-132992857D01*
X174982095Y-132897619D01*
X174934476Y-132850000D01*
X174839238Y-132802380D01*
X174648761Y-132802380D01*
X174553523Y-132850000D01*
X174505904Y-132897619D01*
X174458285Y-132992857D01*
X174458285Y-133230952D01*
X174505904Y-133326190D01*
X174553523Y-133373809D01*
X174648761Y-133421428D01*
X174839238Y-133421428D01*
X174934476Y-133373809D01*
X174982095Y-133326190D01*
X175029714Y-133230952D01*
X174077333Y-132024380D02*
X173744000Y-131548190D01*
X173505904Y-132024380D02*
X173505904Y-131024380D01*
X173886857Y-131024380D01*
X173982095Y-131072000D01*
X174029714Y-131119619D01*
X174077333Y-131214857D01*
X174077333Y-131357714D01*
X174029714Y-131452952D01*
X173982095Y-131500571D01*
X173886857Y-131548190D01*
X173505904Y-131548190D01*
X174648761Y-131452952D02*
X174553523Y-131405333D01*
X174505904Y-131357714D01*
X174458285Y-131262476D01*
X174458285Y-131214857D01*
X174505904Y-131119619D01*
X174553523Y-131072000D01*
X174648761Y-131024380D01*
X174839238Y-131024380D01*
X174934476Y-131072000D01*
X174982095Y-131119619D01*
X175029714Y-131214857D01*
X175029714Y-131262476D01*
X174982095Y-131357714D01*
X174934476Y-131405333D01*
X174839238Y-131452952D01*
X174648761Y-131452952D01*
X174553523Y-131500571D01*
X174505904Y-131548190D01*
X174458285Y-131643428D01*
X174458285Y-131833904D01*
X174505904Y-131929142D01*
X174553523Y-131976761D01*
X174648761Y-132024380D01*
X174839238Y-132024380D01*
X174934476Y-131976761D01*
X174982095Y-131929142D01*
X175029714Y-131833904D01*
X175029714Y-131643428D01*
X174982095Y-131548190D01*
X174934476Y-131500571D01*
X174839238Y-131452952D01*
X166171714Y-141677380D02*
X166171714Y-140677380D01*
X166409809Y-140677380D01*
X166552666Y-140725000D01*
X166647904Y-140820238D01*
X166695523Y-140915476D01*
X166743142Y-141105952D01*
X166743142Y-141248809D01*
X166695523Y-141439285D01*
X166647904Y-141534523D01*
X166552666Y-141629761D01*
X166409809Y-141677380D01*
X166171714Y-141677380D01*
X167124095Y-140772619D02*
X167171714Y-140725000D01*
X167266952Y-140677380D01*
X167505047Y-140677380D01*
X167600285Y-140725000D01*
X167647904Y-140772619D01*
X167695523Y-140867857D01*
X167695523Y-140963095D01*
X167647904Y-141105952D01*
X167076476Y-141677380D01*
X167695523Y-141677380D01*
X168028857Y-140677380D02*
X168695523Y-140677380D01*
X168266952Y-141677380D01*
X166171714Y-136914880D02*
X166171714Y-135914880D01*
X166409809Y-135914880D01*
X166552666Y-135962500D01*
X166647904Y-136057738D01*
X166695523Y-136152976D01*
X166743142Y-136343452D01*
X166743142Y-136486309D01*
X166695523Y-136676785D01*
X166647904Y-136772023D01*
X166552666Y-136867261D01*
X166409809Y-136914880D01*
X166171714Y-136914880D01*
X167124095Y-136010119D02*
X167171714Y-135962500D01*
X167266952Y-135914880D01*
X167505047Y-135914880D01*
X167600285Y-135962500D01*
X167647904Y-136010119D01*
X167695523Y-136105357D01*
X167695523Y-136200595D01*
X167647904Y-136343452D01*
X167076476Y-136914880D01*
X167695523Y-136914880D01*
X168552666Y-135914880D02*
X168362190Y-135914880D01*
X168266952Y-135962500D01*
X168219333Y-136010119D01*
X168124095Y-136152976D01*
X168076476Y-136343452D01*
X168076476Y-136724404D01*
X168124095Y-136819642D01*
X168171714Y-136867261D01*
X168266952Y-136914880D01*
X168457428Y-136914880D01*
X168552666Y-136867261D01*
X168600285Y-136819642D01*
X168647904Y-136724404D01*
X168647904Y-136486309D01*
X168600285Y-136391071D01*
X168552666Y-136343452D01*
X168457428Y-136295833D01*
X168266952Y-136295833D01*
X168171714Y-136343452D01*
X168124095Y-136391071D01*
X168076476Y-136486309D01*
X166171714Y-132152380D02*
X166171714Y-131152380D01*
X166409809Y-131152380D01*
X166552666Y-131200000D01*
X166647904Y-131295238D01*
X166695523Y-131390476D01*
X166743142Y-131580952D01*
X166743142Y-131723809D01*
X166695523Y-131914285D01*
X166647904Y-132009523D01*
X166552666Y-132104761D01*
X166409809Y-132152380D01*
X166171714Y-132152380D01*
X167124095Y-131247619D02*
X167171714Y-131200000D01*
X167266952Y-131152380D01*
X167505047Y-131152380D01*
X167600285Y-131200000D01*
X167647904Y-131247619D01*
X167695523Y-131342857D01*
X167695523Y-131438095D01*
X167647904Y-131580952D01*
X167076476Y-132152380D01*
X167695523Y-132152380D01*
X168600285Y-131152380D02*
X168124095Y-131152380D01*
X168076476Y-131628571D01*
X168124095Y-131580952D01*
X168219333Y-131533333D01*
X168457428Y-131533333D01*
X168552666Y-131580952D01*
X168600285Y-131628571D01*
X168647904Y-131723809D01*
X168647904Y-131961904D01*
X168600285Y-132057142D01*
X168552666Y-132104761D01*
X168457428Y-132152380D01*
X168219333Y-132152380D01*
X168124095Y-132104761D01*
X168076476Y-132057142D01*
X196377714Y-81318380D02*
X196377714Y-80318380D01*
X196615809Y-80318380D01*
X196758666Y-80366000D01*
X196853904Y-80461238D01*
X196901523Y-80556476D01*
X196949142Y-80746952D01*
X196949142Y-80889809D01*
X196901523Y-81080285D01*
X196853904Y-81175523D01*
X196758666Y-81270761D01*
X196615809Y-81318380D01*
X196377714Y-81318380D01*
X197330095Y-80413619D02*
X197377714Y-80366000D01*
X197472952Y-80318380D01*
X197711047Y-80318380D01*
X197806285Y-80366000D01*
X197853904Y-80413619D01*
X197901523Y-80508857D01*
X197901523Y-80604095D01*
X197853904Y-80746952D01*
X197282476Y-81318380D01*
X197901523Y-81318380D01*
X198758666Y-80651714D02*
X198758666Y-81318380D01*
X198520571Y-80270761D02*
X198282476Y-80985047D01*
X198901523Y-80985047D01*
M02*
