M48
; DRILL file {KiCad 5.1.5} date Tue 31 Dec 2019 20:45:18 JST
; FORMAT={-:-/ absolute / inch / decimal}
; #@! TF.CreationDate,2019-12-31T20:45:18+09:00
; #@! TF.GenerationSoftware,Kicad,Pcbnew,5.1.5
FMAT,2
INCH
T1C0.0118
T2C0.0157
T3C0.0236
T4C0.0866
T5C0.0689
T6C0.1181
T7C0.1200
T8C0.1570
%
G90
G05
T1
X4.07Y-3.26
X4.12Y-3.56
X4.33Y-4.18
X4.82Y-3.26
X4.88Y-3.56
X5.08Y-4.51
X5.26Y-4.8
X5.31Y-4.05
X5.56Y-3.26
X5.58Y-4.63
X5.64Y-3.56
X5.8Y-4.04
X5.9Y-4.74
X5.99Y-4.48
X6.03Y-4.16
X6.17Y-4.11
X6.26Y-4.79
X6.34Y-4.98
X6.37Y-3.92
X6.41Y-5.01
X6.52Y-4.48
X6.52Y-4.58
X6.54Y-4.96
X6.55Y-4.63
X6.55Y-4.84
X6.55Y-4.91
X6.62Y-4.39
X6.63Y-4.02
X6.63Y-4.7
X6.63Y-4.82
X6.63Y-4.87
X6.67Y-5.36
X6.68Y-5.13
X6.71Y-5.36
X6.72Y-5.11
X6.75Y-5.36
X6.76Y-5.44
X6.82Y-4.1
X6.82Y-5.48
X6.83Y-5.51
X6.84Y-5.16
X6.9Y-5.31
X6.95Y-3.46
X7.0Y-5.37
X7.04Y-3.29
X7.09Y-4.35
X7.14Y-4.12
X7.16Y-4.22
X7.18Y-4.31
X7.2Y-2.97
X7.21Y-4.34
X7.21Y-4.4
X7.21Y-4.78
X7.23Y-3.73
X7.24Y-4.36
X7.25Y-4.13
X7.26Y-3.43
X7.26Y-4.26
X7.3Y-3.59
X7.39Y-4.68
X7.42Y-5.17
X7.43Y-4.43
X7.51Y-4.35
X7.54Y-5.14
X7.55Y-4.31
X7.61Y-4.45
X7.675Y-2.955
X7.76Y-2.8826
X7.8Y-2.8826
X7.83Y-4.63
X7.84Y-3.94
X7.99Y-3.17
X8.0Y-4.88
X8.05Y-3.75
X8.07Y-4.82
X8.07Y-4.95
X8.15Y-3.75
T2
X7.6628Y-2.7769
X7.6628Y-2.83
X7.6963Y-2.7769
X7.6963Y-2.83
X7.7298Y-2.7769
X7.7298Y-2.83
X7.7632Y-2.7769
X7.7632Y-2.83
X7.7967Y-2.7769
X7.7967Y-2.83
X7.8302Y-2.7769
X7.8302Y-2.83
X7.8636Y-2.7769
X7.8636Y-2.83
X7.8971Y-2.7769
X7.8971Y-2.83
T3
X6.55Y-5.13
X6.56Y-5.07
X6.68Y-4.95
X6.77Y-4.91
X6.79Y-5.74
X6.87Y-5.14
X6.93Y-5.77
X6.9523Y-5.1677
X6.98Y-5.69
X6.9923Y-4.9977
X7.06Y-5.64
X7.08Y-4.93
X7.09Y-5.77
X7.1285Y-5.5517
X7.19Y-5.05
X7.19Y-5.72
X7.24Y-5.21
X7.26Y-5.62
X7.27Y-5.48
X7.37Y-5.625
X7.43Y-5.23
X7.87Y-3.34
X7.89Y-3.17
X8.0Y-3.74
X8.09Y-3.7
T4
X8.7188Y-5.7188
X3.2812Y-4.9688
X8.7188Y-2.9062
X5.8125Y-4.3125
X3.9375Y-2.9062
T5
X4.4875Y-4.6875
X4.8875Y-4.6875
X4.1125Y-3.1875
X4.5125Y-3.1875
X4.8625Y-3.1875
X5.2625Y-3.1875
X3.55Y-4.6875
X3.95Y-4.6875
X5.05Y-3.9375
X5.45Y-3.9375
X7.3Y-3.9375
X7.7Y-3.9375
X7.4875Y-4.6875
X7.8875Y-4.6875
X4.3Y-3.9375
X4.7Y-3.9375
X6.7375Y-4.6875
X7.1375Y-4.6875
X7.1125Y-3.1875
X7.5125Y-3.1875
X5.9875Y-4.6875
X6.3875Y-4.6875
X3.4562Y-3.9375
X3.8562Y-3.9375
X8.05Y-3.1875
X8.45Y-3.1875
X5.2375Y-4.6875
X5.6375Y-4.6875
X3.3625Y-3.1875
X3.7625Y-3.1875
X8.2375Y-4.6875
X8.6375Y-4.6875
X6.55Y-3.9375
X6.95Y-3.9375
X5.8Y-3.9375
X6.2Y-3.9375
X6.3625Y-3.1875
X6.7625Y-3.1875
X7.5812Y-5.4375
X7.9813Y-5.4375
X5.6125Y-3.1875
X6.0125Y-3.1875
X8.1437Y-3.9375
X8.5437Y-3.9375
T6
X4.35Y-3.8375
X4.6Y-3.7375
X6.7875Y-4.5875
X7.0375Y-4.4875
X7.1625Y-3.0875
X7.4125Y-2.9875
X6.0375Y-4.5875
X6.2875Y-4.4875
X3.5063Y-3.8375
X3.5063Y-3.8375
X3.7563Y-3.7375
X3.7563Y-3.7375
X8.1Y-3.0875
X8.35Y-2.9875
X5.2875Y-4.5875
X5.5375Y-4.4875
X3.4125Y-3.0875
X3.6625Y-2.9875
X8.2875Y-4.5875
X8.5375Y-4.4875
X6.6Y-3.8375
X6.85Y-3.7375
X5.85Y-3.8375
X6.1Y-3.7375
X6.4125Y-3.0875
X6.6625Y-2.9875
X7.6312Y-5.3375
X7.6312Y-5.3375
X7.8812Y-5.2375
X7.8812Y-5.2375
X5.6625Y-3.0875
X5.9125Y-2.9875
X8.1937Y-3.8375
X8.1937Y-3.8375
X8.4437Y-3.7375
X8.4437Y-3.7375
X4.5375Y-4.5875
X4.7875Y-4.4875
X4.1625Y-3.0875
X4.4125Y-2.9875
X4.9125Y-3.0875
X5.1625Y-2.9875
X3.6Y-4.5875
X3.85Y-4.4875
X5.1Y-3.8375
X5.35Y-3.7375
X7.35Y-3.8375
X7.6Y-3.7375
X7.5375Y-4.5875
X7.7875Y-4.4875
T7
X7.3113Y-5.7125
X8.2513Y-5.7125
T8
X4.5Y-3.9375
X6.9375Y-4.6875
X7.3125Y-3.1875
X6.1875Y-4.6875
X3.6562Y-3.9375
X8.25Y-3.1875
X5.4375Y-4.6875
X3.5625Y-3.1875
X8.4375Y-4.6875
X6.75Y-3.9375
X6.0Y-3.9375
X6.5625Y-3.1875
X7.3113Y-5.1125
X7.7812Y-5.4375
X8.2513Y-5.1125
X5.8125Y-3.1875
X8.3438Y-3.9375
X4.6875Y-4.6875
X4.3125Y-3.1875
X5.0625Y-3.1875
X3.75Y-4.6875
X5.25Y-3.9375
X7.5Y-3.9375
X7.6875Y-4.6875
T3
G00X7.6097Y-2.6741
M15
G01X7.6097Y-2.6426
M16
G05
G00X7.6097Y-2.8209
M15
G01X7.6097Y-2.7619
M16
G05
G00X7.9502Y-2.6741
M15
G01X7.9502Y-2.6426
M16
G05
G00X7.9502Y-2.8209
M15
G01X7.9502Y-2.7619
M16
G05
T0
M30
