G04 #@! TF.GenerationSoftware,KiCad,Pcbnew,5.1.5*
G04 #@! TF.CreationDate,2019-12-31T20:45:16+09:00*
G04 #@! TF.ProjectId,half_qwerty,68616c66-5f71-4776-9572-74792e6b6963,rev?*
G04 #@! TF.SameCoordinates,Original*
G04 #@! TF.FileFunction,Profile,NP*
%FSLAX46Y46*%
G04 Gerber Fmt 4.6, Leading zero omitted, Abs format (unit mm)*
G04 Created by KiCad (PCBNEW 5.1.5) date 2019-12-31 20:45:16*
%MOMM*%
%LPD*%
G04 APERTURE LIST*
%ADD10C,0.050000*%
G04 APERTURE END LIST*
D10*
X204724000Y-67564000D02*
X204724000Y-69659500D01*
X190500000Y-67564000D02*
X190500000Y-69659500D01*
X188722000Y-71437500D02*
X83343750Y-71437500D01*
X190500000Y-69659500D02*
G75*
G02X188722000Y-71437500I-1778000J0D01*
G01*
X206502000Y-71437500D02*
G75*
G02X204724000Y-69659500I0J1778000D01*
G01*
X202946000Y-65786000D02*
G75*
G02X204724000Y-67564000I0J-1778000D01*
G01*
X190500000Y-67564000D02*
G75*
G02X192278000Y-65786000I1778000J0D01*
G01*
X192278000Y-65786000D02*
X202946000Y-65786000D01*
X164306250Y-130968750D02*
X164306250Y-145256250D01*
X83343750Y-128587500D02*
G75*
G02X80962500Y-126206250I0J2381250D01*
G01*
X80962500Y-73818750D02*
G75*
G02X83343750Y-71437500I2381250J0D01*
G01*
X221456250Y-71437500D02*
G75*
G02X223837500Y-73818750I0J-2381250D01*
G01*
X223837500Y-145256250D02*
G75*
G02X221456250Y-147637500I-2381250J0D01*
G01*
X166687500Y-147637500D02*
G75*
G02X164306250Y-145256250I0J2381250D01*
G01*
X161925000Y-128587500D02*
G75*
G02X164306250Y-130968750I0J-2381250D01*
G01*
X83343750Y-128587500D02*
X161925000Y-128587500D01*
X80962500Y-73818750D02*
X80962500Y-126206250D01*
X221456250Y-71437500D02*
X206502000Y-71437500D01*
X223837500Y-145256250D02*
X223837500Y-73818750D01*
X166687500Y-147637500D02*
X221456250Y-147637500D01*
M02*
