G04 #@! TF.GenerationSoftware,KiCad,Pcbnew,5.1.5*
G04 #@! TF.CreationDate,2019-12-31T20:45:16+09:00*
G04 #@! TF.ProjectId,half_qwerty,68616c66-5f71-4776-9572-74792e6b6963,rev?*
G04 #@! TF.SameCoordinates,Original*
G04 #@! TF.FileFunction,Legend,Bot*
G04 #@! TF.FilePolarity,Positive*
%FSLAX46Y46*%
G04 Gerber Fmt 4.6, Leading zero omitted, Abs format (unit mm)*
G04 Created by KiCad (PCBNEW 5.1.5) date 2019-12-31 20:45:16*
%MOMM*%
%LPD*%
G04 APERTURE LIST*
%ADD10C,0.120000*%
%ADD11C,0.100000*%
%ADD12C,0.150000*%
%ADD13C,0.400000*%
%ADD14C,0.500000*%
%ADD15C,1.000000*%
%ADD16C,3.000000*%
%ADD17C,0.800000*%
%ADD18C,0.300000*%
%ADD19C,3.500000*%
G04 APERTURE END LIST*
D10*
X193040000Y-73660000D02*
X193294000Y-73914000D01*
X191516000Y-73660000D02*
X193040000Y-73660000D01*
X191008000Y-73152000D02*
X191516000Y-73660000D01*
D11*
G36*
X175006000Y-126492000D02*
G01*
X173736000Y-125222000D01*
X176276000Y-125222000D01*
X175006000Y-126492000D01*
G37*
X175006000Y-126492000D02*
X173736000Y-125222000D01*
X176276000Y-125222000D01*
X175006000Y-126492000D01*
D12*
X191743750Y-134412500D02*
X191943750Y-134412500D01*
X202043750Y-131862500D02*
X202243750Y-131862500D01*
X202023750Y-134112500D02*
X202023750Y-131862500D01*
X202243750Y-134112500D02*
X202043750Y-134112500D01*
X195027432Y-136991029D02*
G75*
G02X197243750Y-135112500I2151318J-291471D01*
G01*
X202243750Y-131512500D02*
X193843749Y-131512500D01*
D13*
X202043750Y-134212500D02*
X202043750Y-134912500D01*
X202043750Y-131712500D02*
X200643750Y-131712500D01*
D14*
X191943750Y-136812500D02*
X194643750Y-136812500D01*
D15*
X194627432Y-136591029D02*
G75*
G02X196843750Y-134712500I2151318J-291471D01*
G01*
D16*
X193473750Y-133012500D02*
X193473750Y-135252500D01*
D17*
X192343750Y-136512500D02*
X192343750Y-134712501D01*
D18*
X191843750Y-134312499D02*
X191843750Y-133412500D01*
D12*
X197243750Y-135112500D02*
X202243750Y-135112500D01*
X191743750Y-137012500D02*
X195023750Y-137012500D01*
X202243750Y-131862500D02*
X202243750Y-131512500D01*
X191743750Y-133412501D02*
G75*
G02X193843749Y-131512500I2000000J-99999D01*
G01*
X191743750Y-133412500D02*
X191743750Y-134412500D01*
X191743750Y-137012500D02*
X191743750Y-136652500D01*
X191943750Y-136652500D02*
X191743750Y-136652500D01*
X191973750Y-134412500D02*
X191973750Y-136652500D01*
X202243750Y-135112500D02*
X202243750Y-134112500D01*
D19*
X200243750Y-133312500D02*
X193543750Y-133312500D01*
D15*
X201543750Y-132112500D02*
X201543750Y-134612500D01*
D14*
X201943750Y-134812500D02*
X200543750Y-134812500D01*
D12*
X206031250Y-96312500D02*
X206231250Y-96312500D01*
X216331250Y-93762500D02*
X216531250Y-93762500D01*
X216311250Y-96012500D02*
X216311250Y-93762500D01*
X216531250Y-96012500D02*
X216331250Y-96012500D01*
X209314932Y-98891029D02*
G75*
G02X211531250Y-97012500I2151318J-291471D01*
G01*
X216531250Y-93412500D02*
X208131249Y-93412500D01*
D13*
X216331250Y-96112500D02*
X216331250Y-96812500D01*
X216331250Y-93612500D02*
X214931250Y-93612500D01*
D14*
X206231250Y-98712500D02*
X208931250Y-98712500D01*
D15*
X208914932Y-98491029D02*
G75*
G02X211131250Y-96612500I2151318J-291471D01*
G01*
D16*
X207761250Y-94912500D02*
X207761250Y-97152500D01*
D17*
X206631250Y-98412500D02*
X206631250Y-96612501D01*
D18*
X206131250Y-96212499D02*
X206131250Y-95312500D01*
D12*
X211531250Y-97012500D02*
X216531250Y-97012500D01*
X206031250Y-98912500D02*
X209311250Y-98912500D01*
X216531250Y-93762500D02*
X216531250Y-93412500D01*
X206031250Y-95312501D02*
G75*
G02X208131249Y-93412500I2000000J-99999D01*
G01*
X206031250Y-95312500D02*
X206031250Y-96312500D01*
X206031250Y-98912500D02*
X206031250Y-98552500D01*
X206231250Y-98552500D02*
X206031250Y-98552500D01*
X206261250Y-96312500D02*
X206261250Y-98552500D01*
X216531250Y-97012500D02*
X216531250Y-96012500D01*
D19*
X214531250Y-95212500D02*
X207831250Y-95212500D01*
D15*
X215831250Y-94012500D02*
X215831250Y-96512500D01*
D14*
X216231250Y-96712500D02*
X214831250Y-96712500D01*
D12*
X86968750Y-96312500D02*
X87168750Y-96312500D01*
X97268750Y-93762500D02*
X97468750Y-93762500D01*
X97248750Y-96012500D02*
X97248750Y-93762500D01*
X97468750Y-96012500D02*
X97268750Y-96012500D01*
X90252432Y-98891029D02*
G75*
G02X92468750Y-97012500I2151318J-291471D01*
G01*
X97468750Y-93412500D02*
X89068749Y-93412500D01*
D13*
X97268750Y-96112500D02*
X97268750Y-96812500D01*
X97268750Y-93612500D02*
X95868750Y-93612500D01*
D14*
X87168750Y-98712500D02*
X89868750Y-98712500D01*
D15*
X89852432Y-98491029D02*
G75*
G02X92068750Y-96612500I2151318J-291471D01*
G01*
D16*
X88698750Y-94912500D02*
X88698750Y-97152500D01*
D17*
X87568750Y-98412500D02*
X87568750Y-96612501D01*
D18*
X87068750Y-96212499D02*
X87068750Y-95312500D01*
D12*
X92468750Y-97012500D02*
X97468750Y-97012500D01*
X86968750Y-98912500D02*
X90248750Y-98912500D01*
X97468750Y-93762500D02*
X97468750Y-93412500D01*
X86968750Y-95312501D02*
G75*
G02X89068749Y-93412500I2000000J-99999D01*
G01*
X86968750Y-95312500D02*
X86968750Y-96312500D01*
X86968750Y-98912500D02*
X86968750Y-98552500D01*
X87168750Y-98552500D02*
X86968750Y-98552500D01*
X87198750Y-96312500D02*
X87198750Y-98552500D01*
X97468750Y-97012500D02*
X97468750Y-96012500D01*
D19*
X95468750Y-95212500D02*
X88768750Y-95212500D01*
D15*
X96768750Y-94012500D02*
X96768750Y-96512500D01*
D14*
X97168750Y-96712500D02*
X95768750Y-96712500D01*
D10*
X212300000Y-139362500D02*
X212300000Y-136862500D01*
X210550000Y-140862500D02*
X208550000Y-140862500D01*
X206800000Y-139362500D02*
X206800000Y-136862500D01*
X210550000Y-135362500D02*
X208550000Y-135362500D01*
X211850000Y-139812500D02*
X212300000Y-139362500D01*
X211850000Y-136412500D02*
X212300000Y-136862500D01*
X207250000Y-136412500D02*
X206800000Y-136862500D01*
X207250000Y-139812500D02*
X206800000Y-139362500D01*
X180264000Y-144113000D02*
X180264000Y-140113000D01*
X183464000Y-144113000D02*
X180264000Y-144113000D01*
X200436267Y-74678000D02*
X200093733Y-74678000D01*
X200436267Y-73658000D02*
X200093733Y-73658000D01*
X194787733Y-75436000D02*
X195130267Y-75436000D01*
X194787733Y-76456000D02*
X195130267Y-76456000D01*
X168895520Y-139980271D02*
X169137729Y-140222480D01*
X168174271Y-140701520D02*
X168416480Y-140943729D01*
X194787733Y-73658000D02*
X195130267Y-73658000D01*
X194787733Y-74678000D02*
X195130267Y-74678000D01*
X197864000Y-78657267D02*
X197864000Y-78314733D01*
X198884000Y-78657267D02*
X198884000Y-78314733D01*
X186208271Y-136920480D02*
X186450480Y-136678271D01*
X186929520Y-137641729D02*
X187171729Y-137399520D01*
X196340000Y-78657267D02*
X196340000Y-78314733D01*
X197360000Y-78657267D02*
X197360000Y-78314733D01*
X202036000Y-85946064D02*
X202036000Y-84741936D01*
X203856000Y-85946064D02*
X203856000Y-84741936D01*
X205724000Y-93132000D02*
X205724000Y-89282000D01*
X203724000Y-93132000D02*
X203724000Y-89282000D01*
X205724000Y-93132000D02*
X203724000Y-93132000D01*
X186099267Y-134114000D02*
X185756733Y-134114000D01*
X186099267Y-133094000D02*
X185756733Y-133094000D01*
X166609520Y-131598271D02*
X166851729Y-131840480D01*
X165888271Y-132319520D02*
X166130480Y-132561729D01*
X178547520Y-125756271D02*
X178789729Y-125998480D01*
X177826271Y-126477520D02*
X178068480Y-126719729D01*
X172959520Y-143790271D02*
X173201729Y-144032480D01*
X172238271Y-144511520D02*
X172480480Y-144753729D01*
X170460271Y-127522480D02*
X170702480Y-127280271D01*
X171181520Y-128243729D02*
X171423729Y-128001520D01*
X181370480Y-130021729D02*
X181128271Y-129779520D01*
X182091729Y-129300480D02*
X181849520Y-129058271D01*
X185248733Y-140714000D02*
X185591267Y-140714000D01*
X185248733Y-141734000D02*
X185591267Y-141734000D01*
X180144268Y-145544000D02*
X179801734Y-145544000D01*
X180144268Y-144524000D02*
X179801734Y-144524000D01*
D12*
X175412586Y-128724031D02*
X176314148Y-127822470D01*
X167687445Y-135636000D02*
X168164742Y-135158703D01*
X175006000Y-142954555D02*
X175483297Y-142477258D01*
X182324555Y-135636000D02*
X181847258Y-136113297D01*
X175006000Y-128317445D02*
X174528703Y-128794742D01*
X182324555Y-135636000D02*
X181847258Y-135158703D01*
X175006000Y-142954555D02*
X174528703Y-142477258D01*
X167687445Y-135636000D02*
X168164742Y-136113297D01*
X175006000Y-128317445D02*
X175412586Y-128724031D01*
D18*
X184700000Y-96212499D02*
X184700000Y-95312500D01*
D17*
X185200000Y-98412500D02*
X185200000Y-96612501D01*
D16*
X186330000Y-94912500D02*
X186330000Y-97152500D01*
D14*
X194800000Y-96712500D02*
X193400000Y-96712500D01*
D15*
X194400000Y-94012500D02*
X194400000Y-96512500D01*
D19*
X193100000Y-95212500D02*
X186400000Y-95212500D01*
D12*
X195100000Y-97012500D02*
X195100000Y-96012500D01*
X195100000Y-96012500D02*
X194900000Y-96012500D01*
X194880000Y-96012500D02*
X194880000Y-93762500D01*
X194900000Y-93762500D02*
X195100000Y-93762500D01*
X184600000Y-96312500D02*
X184800000Y-96312500D01*
X184830000Y-96312500D02*
X184830000Y-98552500D01*
X184800000Y-98552500D02*
X184600000Y-98552500D01*
X184600000Y-98912500D02*
X184600000Y-98552500D01*
X184600000Y-95312500D02*
X184600000Y-96312500D01*
X184600000Y-98912500D02*
X187880000Y-98912500D01*
X190100000Y-97012500D02*
X195100000Y-97012500D01*
X195100000Y-93412500D02*
X186699999Y-93412500D01*
X187883682Y-98891029D02*
G75*
G02X190100000Y-97012500I2151318J-291471D01*
G01*
X184600000Y-95312501D02*
G75*
G02X186699999Y-93412500I2000000J-99999D01*
G01*
X195100000Y-93762500D02*
X195100000Y-93412500D01*
D15*
X187483682Y-98491029D02*
G75*
G02X189700000Y-96612500I2151318J-291471D01*
G01*
D14*
X184800000Y-98712500D02*
X187500000Y-98712500D01*
D13*
X194900000Y-93612500D02*
X193500000Y-93612500D01*
X194900000Y-96112500D02*
X194900000Y-96812500D01*
D18*
X208512500Y-115262499D02*
X208512500Y-114362500D01*
D17*
X209012500Y-117462500D02*
X209012500Y-115662501D01*
D16*
X210142500Y-113962500D02*
X210142500Y-116202500D01*
D14*
X218612500Y-115762500D02*
X217212500Y-115762500D01*
D15*
X218212500Y-113062500D02*
X218212500Y-115562500D01*
D19*
X216912500Y-114262500D02*
X210212500Y-114262500D01*
D12*
X218912500Y-116062500D02*
X218912500Y-115062500D01*
X218912500Y-115062500D02*
X218712500Y-115062500D01*
X218692500Y-115062500D02*
X218692500Y-112812500D01*
X218712500Y-112812500D02*
X218912500Y-112812500D01*
X208412500Y-115362500D02*
X208612500Y-115362500D01*
X208642500Y-115362500D02*
X208642500Y-117602500D01*
X208612500Y-117602500D02*
X208412500Y-117602500D01*
X208412500Y-117962500D02*
X208412500Y-117602500D01*
X208412500Y-114362500D02*
X208412500Y-115362500D01*
X208412500Y-117962500D02*
X211692500Y-117962500D01*
X213912500Y-116062500D02*
X218912500Y-116062500D01*
X218912500Y-112462500D02*
X210512499Y-112462500D01*
X211696182Y-117941029D02*
G75*
G02X213912500Y-116062500I2151318J-291471D01*
G01*
X208412500Y-114362501D02*
G75*
G02X210512499Y-112462500I2000000J-99999D01*
G01*
X218912500Y-112812500D02*
X218912500Y-112462500D01*
D15*
X211296182Y-117541029D02*
G75*
G02X213512500Y-115662500I2151318J-291471D01*
G01*
D14*
X208612500Y-117762500D02*
X211312500Y-117762500D01*
D13*
X218712500Y-112662500D02*
X217312500Y-112662500D01*
X218712500Y-115162500D02*
X218712500Y-115862500D01*
D18*
X189462500Y-115262499D02*
X189462500Y-114362500D01*
D17*
X189962500Y-117462500D02*
X189962500Y-115662501D01*
D16*
X191092500Y-113962500D02*
X191092500Y-116202500D01*
D14*
X199562500Y-115762500D02*
X198162500Y-115762500D01*
D15*
X199162500Y-113062500D02*
X199162500Y-115562500D01*
D19*
X197862500Y-114262500D02*
X191162500Y-114262500D01*
D12*
X199862500Y-116062500D02*
X199862500Y-115062500D01*
X199862500Y-115062500D02*
X199662500Y-115062500D01*
X199642500Y-115062500D02*
X199642500Y-112812500D01*
X199662500Y-112812500D02*
X199862500Y-112812500D01*
X189362500Y-115362500D02*
X189562500Y-115362500D01*
X189592500Y-115362500D02*
X189592500Y-117602500D01*
X189562500Y-117602500D02*
X189362500Y-117602500D01*
X189362500Y-117962500D02*
X189362500Y-117602500D01*
X189362500Y-114362500D02*
X189362500Y-115362500D01*
X189362500Y-117962500D02*
X192642500Y-117962500D01*
X194862500Y-116062500D02*
X199862500Y-116062500D01*
X199862500Y-112462500D02*
X191462499Y-112462500D01*
X192646182Y-117941029D02*
G75*
G02X194862500Y-116062500I2151318J-291471D01*
G01*
X189362500Y-114362501D02*
G75*
G02X191462499Y-112462500I2000000J-99999D01*
G01*
X199862500Y-112812500D02*
X199862500Y-112462500D01*
D15*
X192246182Y-117541029D02*
G75*
G02X194462500Y-115662500I2151318J-291471D01*
G01*
D14*
X189562500Y-117762500D02*
X192262500Y-117762500D01*
D13*
X199662500Y-112662500D02*
X198262500Y-112662500D01*
X199662500Y-115162500D02*
X199662500Y-115862500D01*
D18*
X151362500Y-115262499D02*
X151362500Y-114362500D01*
D17*
X151862500Y-117462500D02*
X151862500Y-115662501D01*
D16*
X152992500Y-113962500D02*
X152992500Y-116202500D01*
D14*
X161462500Y-115762500D02*
X160062500Y-115762500D01*
D15*
X161062500Y-113062500D02*
X161062500Y-115562500D01*
D19*
X159762500Y-114262500D02*
X153062500Y-114262500D01*
D12*
X161762500Y-116062500D02*
X161762500Y-115062500D01*
X161762500Y-115062500D02*
X161562500Y-115062500D01*
X161542500Y-115062500D02*
X161542500Y-112812500D01*
X161562500Y-112812500D02*
X161762500Y-112812500D01*
X151262500Y-115362500D02*
X151462500Y-115362500D01*
X151492500Y-115362500D02*
X151492500Y-117602500D01*
X151462500Y-117602500D02*
X151262500Y-117602500D01*
X151262500Y-117962500D02*
X151262500Y-117602500D01*
X151262500Y-114362500D02*
X151262500Y-115362500D01*
X151262500Y-117962500D02*
X154542500Y-117962500D01*
X156762500Y-116062500D02*
X161762500Y-116062500D01*
X161762500Y-112462500D02*
X153362499Y-112462500D01*
X154546182Y-117941029D02*
G75*
G02X156762500Y-116062500I2151318J-291471D01*
G01*
X151262500Y-114362501D02*
G75*
G02X153362499Y-112462500I2000000J-99999D01*
G01*
X161762500Y-112812500D02*
X161762500Y-112462500D01*
D15*
X154146182Y-117541029D02*
G75*
G02X156362500Y-115662500I2151318J-291471D01*
G01*
D14*
X151462500Y-117762500D02*
X154162500Y-117762500D01*
D13*
X161562500Y-112662500D02*
X160162500Y-112662500D01*
X161562500Y-115162500D02*
X161562500Y-115862500D01*
D18*
X113262500Y-115262499D02*
X113262500Y-114362500D01*
D17*
X113762500Y-117462500D02*
X113762500Y-115662501D01*
D16*
X114892500Y-113962500D02*
X114892500Y-116202500D01*
D14*
X123362500Y-115762500D02*
X121962500Y-115762500D01*
D15*
X122962500Y-113062500D02*
X122962500Y-115562500D01*
D19*
X121662500Y-114262500D02*
X114962500Y-114262500D01*
D12*
X123662500Y-116062500D02*
X123662500Y-115062500D01*
X123662500Y-115062500D02*
X123462500Y-115062500D01*
X123442500Y-115062500D02*
X123442500Y-112812500D01*
X123462500Y-112812500D02*
X123662500Y-112812500D01*
X113162500Y-115362500D02*
X113362500Y-115362500D01*
X113392500Y-115362500D02*
X113392500Y-117602500D01*
X113362500Y-117602500D02*
X113162500Y-117602500D01*
X113162500Y-117962500D02*
X113162500Y-117602500D01*
X113162500Y-114362500D02*
X113162500Y-115362500D01*
X113162500Y-117962500D02*
X116442500Y-117962500D01*
X118662500Y-116062500D02*
X123662500Y-116062500D01*
X123662500Y-112462500D02*
X115262499Y-112462500D01*
X116446182Y-117941029D02*
G75*
G02X118662500Y-116062500I2151318J-291471D01*
G01*
X113162500Y-114362501D02*
G75*
G02X115262499Y-112462500I2000000J-99999D01*
G01*
X123662500Y-112812500D02*
X123662500Y-112462500D01*
D15*
X116046182Y-117541029D02*
G75*
G02X118262500Y-115662500I2151318J-291471D01*
G01*
D14*
X113362500Y-117762500D02*
X116062500Y-117762500D01*
D13*
X123462500Y-112662500D02*
X122062500Y-112662500D01*
X123462500Y-115162500D02*
X123462500Y-115862500D01*
D12*
X214150000Y-74712500D02*
X214150000Y-74362500D01*
D13*
X213950000Y-74562500D02*
X212550000Y-74562500D01*
X213950000Y-77062500D02*
X213950000Y-77762500D01*
D14*
X203850000Y-79662500D02*
X206550000Y-79662500D01*
D15*
X206533682Y-79441029D02*
G75*
G02X208750000Y-77562500I2151318J-291471D01*
G01*
D12*
X203650000Y-76262501D02*
G75*
G02X205749999Y-74362500I2000000J-99999D01*
G01*
X203880000Y-77262500D02*
X203880000Y-79502500D01*
D16*
X205380000Y-75862500D02*
X205380000Y-78102500D01*
D12*
X203650000Y-77262500D02*
X203850000Y-77262500D01*
D14*
X213850000Y-77662500D02*
X212450000Y-77662500D01*
D12*
X203650000Y-79862500D02*
X203650000Y-79502500D01*
D19*
X212150000Y-76162500D02*
X205450000Y-76162500D01*
D12*
X214150000Y-77962500D02*
X214150000Y-76962500D01*
D18*
X203750000Y-77162499D02*
X203750000Y-76262500D01*
D17*
X204250000Y-79362500D02*
X204250000Y-77562501D01*
D12*
X203850000Y-79502500D02*
X203650000Y-79502500D01*
X214150000Y-76962500D02*
X213950000Y-76962500D01*
X214150000Y-74362500D02*
X205749999Y-74362500D01*
X213930000Y-76962500D02*
X213930000Y-74712500D01*
X213950000Y-74712500D02*
X214150000Y-74712500D01*
X203650000Y-79862500D02*
X206930000Y-79862500D01*
X203650000Y-76262500D02*
X203650000Y-77262500D01*
X209150000Y-77962500D02*
X214150000Y-77962500D01*
D15*
X213450000Y-74962500D02*
X213450000Y-77462500D01*
D12*
X206933682Y-79841029D02*
G75*
G02X209150000Y-77962500I2151318J-291471D01*
G01*
D18*
X165650000Y-96212499D02*
X165650000Y-95312500D01*
D17*
X166150000Y-98412500D02*
X166150000Y-96612501D01*
D16*
X167280000Y-94912500D02*
X167280000Y-97152500D01*
D14*
X175750000Y-96712500D02*
X174350000Y-96712500D01*
D15*
X175350000Y-94012500D02*
X175350000Y-96512500D01*
D19*
X174050000Y-95212500D02*
X167350000Y-95212500D01*
D12*
X176050000Y-97012500D02*
X176050000Y-96012500D01*
X176050000Y-96012500D02*
X175850000Y-96012500D01*
X175830000Y-96012500D02*
X175830000Y-93762500D01*
X175850000Y-93762500D02*
X176050000Y-93762500D01*
X165550000Y-96312500D02*
X165750000Y-96312500D01*
X165780000Y-96312500D02*
X165780000Y-98552500D01*
X165750000Y-98552500D02*
X165550000Y-98552500D01*
X165550000Y-98912500D02*
X165550000Y-98552500D01*
X165550000Y-95312500D02*
X165550000Y-96312500D01*
X165550000Y-98912500D02*
X168830000Y-98912500D01*
X171050000Y-97012500D02*
X176050000Y-97012500D01*
X176050000Y-93412500D02*
X167649999Y-93412500D01*
X168833682Y-98891029D02*
G75*
G02X171050000Y-97012500I2151318J-291471D01*
G01*
X165550000Y-95312501D02*
G75*
G02X167649999Y-93412500I2000000J-99999D01*
G01*
X176050000Y-93762500D02*
X176050000Y-93412500D01*
D15*
X168433682Y-98491029D02*
G75*
G02X170650000Y-96612500I2151318J-291471D01*
G01*
D14*
X165750000Y-98712500D02*
X168450000Y-98712500D01*
D13*
X175850000Y-93612500D02*
X174450000Y-93612500D01*
X175850000Y-96112500D02*
X175850000Y-96812500D01*
D18*
X170412500Y-115262499D02*
X170412500Y-114362500D01*
D17*
X170912500Y-117462500D02*
X170912500Y-115662501D01*
D16*
X172042500Y-113962500D02*
X172042500Y-116202500D01*
D14*
X180512500Y-115762500D02*
X179112500Y-115762500D01*
D15*
X180112500Y-113062500D02*
X180112500Y-115562500D01*
D19*
X178812500Y-114262500D02*
X172112500Y-114262500D01*
D12*
X180812500Y-116062500D02*
X180812500Y-115062500D01*
X180812500Y-115062500D02*
X180612500Y-115062500D01*
X180592500Y-115062500D02*
X180592500Y-112812500D01*
X180612500Y-112812500D02*
X180812500Y-112812500D01*
X170312500Y-115362500D02*
X170512500Y-115362500D01*
X170542500Y-115362500D02*
X170542500Y-117602500D01*
X170512500Y-117602500D02*
X170312500Y-117602500D01*
X170312500Y-117962500D02*
X170312500Y-117602500D01*
X170312500Y-114362500D02*
X170312500Y-115362500D01*
X170312500Y-117962500D02*
X173592500Y-117962500D01*
X175812500Y-116062500D02*
X180812500Y-116062500D01*
X180812500Y-112462500D02*
X172412499Y-112462500D01*
X173596182Y-117941029D02*
G75*
G02X175812500Y-116062500I2151318J-291471D01*
G01*
X170312500Y-114362501D02*
G75*
G02X172412499Y-112462500I2000000J-99999D01*
G01*
X180812500Y-112812500D02*
X180812500Y-112462500D01*
D15*
X173196182Y-117541029D02*
G75*
G02X175412500Y-115662500I2151318J-291471D01*
G01*
D14*
X170512500Y-117762500D02*
X173212500Y-117762500D01*
D13*
X180612500Y-112662500D02*
X179212500Y-112662500D01*
X180612500Y-115162500D02*
X180612500Y-115862500D01*
D18*
X132312500Y-115262499D02*
X132312500Y-114362500D01*
D17*
X132812500Y-117462500D02*
X132812500Y-115662501D01*
D16*
X133942500Y-113962500D02*
X133942500Y-116202500D01*
D14*
X142412500Y-115762500D02*
X141012500Y-115762500D01*
D15*
X142012500Y-113062500D02*
X142012500Y-115562500D01*
D19*
X140712500Y-114262500D02*
X134012500Y-114262500D01*
D12*
X142712500Y-116062500D02*
X142712500Y-115062500D01*
X142712500Y-115062500D02*
X142512500Y-115062500D01*
X142492500Y-115062500D02*
X142492500Y-112812500D01*
X142512500Y-112812500D02*
X142712500Y-112812500D01*
X132212500Y-115362500D02*
X132412500Y-115362500D01*
X132442500Y-115362500D02*
X132442500Y-117602500D01*
X132412500Y-117602500D02*
X132212500Y-117602500D01*
X132212500Y-117962500D02*
X132212500Y-117602500D01*
X132212500Y-114362500D02*
X132212500Y-115362500D01*
X132212500Y-117962500D02*
X135492500Y-117962500D01*
X137712500Y-116062500D02*
X142712500Y-116062500D01*
X142712500Y-112462500D02*
X134312499Y-112462500D01*
X135496182Y-117941029D02*
G75*
G02X137712500Y-116062500I2151318J-291471D01*
G01*
X132212500Y-114362501D02*
G75*
G02X134312499Y-112462500I2000000J-99999D01*
G01*
X142712500Y-112812500D02*
X142712500Y-112462500D01*
D15*
X135096182Y-117541029D02*
G75*
G02X137312500Y-115662500I2151318J-291471D01*
G01*
D14*
X132412500Y-117762500D02*
X135112500Y-117762500D01*
D13*
X142512500Y-112662500D02*
X141112500Y-112662500D01*
X142512500Y-115162500D02*
X142512500Y-115862500D01*
D12*
X99850000Y-112812500D02*
X99850000Y-112462500D01*
D13*
X99650000Y-112662500D02*
X98250000Y-112662500D01*
X99650000Y-115162500D02*
X99650000Y-115862500D01*
D14*
X89550000Y-117762500D02*
X92250000Y-117762500D01*
D15*
X92233682Y-117541029D02*
G75*
G02X94450000Y-115662500I2151318J-291471D01*
G01*
D12*
X89350000Y-114362501D02*
G75*
G02X91449999Y-112462500I2000000J-99999D01*
G01*
X89580000Y-115362500D02*
X89580000Y-117602500D01*
D16*
X91080000Y-113962500D02*
X91080000Y-116202500D01*
D12*
X89350000Y-115362500D02*
X89550000Y-115362500D01*
D14*
X99550000Y-115762500D02*
X98150000Y-115762500D01*
D12*
X89350000Y-117962500D02*
X89350000Y-117602500D01*
D19*
X97850000Y-114262500D02*
X91150000Y-114262500D01*
D12*
X99850000Y-116062500D02*
X99850000Y-115062500D01*
D18*
X89450000Y-115262499D02*
X89450000Y-114362500D01*
D17*
X89950000Y-117462500D02*
X89950000Y-115662501D01*
D12*
X89550000Y-117602500D02*
X89350000Y-117602500D01*
X99850000Y-115062500D02*
X99650000Y-115062500D01*
X99850000Y-112462500D02*
X91449999Y-112462500D01*
X99630000Y-115062500D02*
X99630000Y-112812500D01*
X99650000Y-112812500D02*
X99850000Y-112812500D01*
X89350000Y-117962500D02*
X92630000Y-117962500D01*
X89350000Y-114362500D02*
X89350000Y-115362500D01*
X94850000Y-116062500D02*
X99850000Y-116062500D01*
D15*
X99150000Y-113062500D02*
X99150000Y-115562500D01*
D12*
X92633682Y-117941029D02*
G75*
G02X94850000Y-116062500I2151318J-291471D01*
G01*
D18*
X179937500Y-77162499D02*
X179937500Y-76262500D01*
D17*
X180437500Y-79362500D02*
X180437500Y-77562501D01*
D16*
X181567500Y-75862500D02*
X181567500Y-78102500D01*
D14*
X190037500Y-77662500D02*
X188637500Y-77662500D01*
D15*
X189637500Y-74962500D02*
X189637500Y-77462500D01*
D19*
X188337500Y-76162500D02*
X181637500Y-76162500D01*
D12*
X190337500Y-77962500D02*
X190337500Y-76962500D01*
X190337500Y-76962500D02*
X190137500Y-76962500D01*
X190117500Y-76962500D02*
X190117500Y-74712500D01*
X190137500Y-74712500D02*
X190337500Y-74712500D01*
X179837500Y-77262500D02*
X180037500Y-77262500D01*
X180067500Y-77262500D02*
X180067500Y-79502500D01*
X180037500Y-79502500D02*
X179837500Y-79502500D01*
X179837500Y-79862500D02*
X179837500Y-79502500D01*
X179837500Y-76262500D02*
X179837500Y-77262500D01*
X179837500Y-79862500D02*
X183117500Y-79862500D01*
X185337500Y-77962500D02*
X190337500Y-77962500D01*
X190337500Y-74362500D02*
X181937499Y-74362500D01*
X183121182Y-79841029D02*
G75*
G02X185337500Y-77962500I2151318J-291471D01*
G01*
X179837500Y-76262501D02*
G75*
G02X181937499Y-74362500I2000000J-99999D01*
G01*
X190337500Y-74712500D02*
X190337500Y-74362500D01*
D15*
X182721182Y-79441029D02*
G75*
G02X184937500Y-77562500I2151318J-291471D01*
G01*
D14*
X180037500Y-79662500D02*
X182737500Y-79662500D01*
D13*
X190137500Y-74562500D02*
X188737500Y-74562500D01*
X190137500Y-77062500D02*
X190137500Y-77762500D01*
D18*
X146600000Y-96212499D02*
X146600000Y-95312500D01*
D17*
X147100000Y-98412500D02*
X147100000Y-96612501D01*
D16*
X148230000Y-94912500D02*
X148230000Y-97152500D01*
D14*
X156700000Y-96712500D02*
X155300000Y-96712500D01*
D15*
X156300000Y-94012500D02*
X156300000Y-96512500D01*
D19*
X155000000Y-95212500D02*
X148300000Y-95212500D01*
D12*
X157000000Y-97012500D02*
X157000000Y-96012500D01*
X157000000Y-96012500D02*
X156800000Y-96012500D01*
X156780000Y-96012500D02*
X156780000Y-93762500D01*
X156800000Y-93762500D02*
X157000000Y-93762500D01*
X146500000Y-96312500D02*
X146700000Y-96312500D01*
X146730000Y-96312500D02*
X146730000Y-98552500D01*
X146700000Y-98552500D02*
X146500000Y-98552500D01*
X146500000Y-98912500D02*
X146500000Y-98552500D01*
X146500000Y-95312500D02*
X146500000Y-96312500D01*
X146500000Y-98912500D02*
X149780000Y-98912500D01*
X152000000Y-97012500D02*
X157000000Y-97012500D01*
X157000000Y-93412500D02*
X148599999Y-93412500D01*
X149783682Y-98891029D02*
G75*
G02X152000000Y-97012500I2151318J-291471D01*
G01*
X146500000Y-95312501D02*
G75*
G02X148599999Y-93412500I2000000J-99999D01*
G01*
X157000000Y-93762500D02*
X157000000Y-93412500D01*
D15*
X149383682Y-98491029D02*
G75*
G02X151600000Y-96612500I2151318J-291471D01*
G01*
D14*
X146700000Y-98712500D02*
X149400000Y-98712500D01*
D13*
X156800000Y-93612500D02*
X155400000Y-93612500D01*
X156800000Y-96112500D02*
X156800000Y-96812500D01*
D18*
X127550000Y-96212499D02*
X127550000Y-95312500D01*
D17*
X128050000Y-98412500D02*
X128050000Y-96612501D01*
D16*
X129180000Y-94912500D02*
X129180000Y-97152500D01*
D14*
X137650000Y-96712500D02*
X136250000Y-96712500D01*
D15*
X137250000Y-94012500D02*
X137250000Y-96512500D01*
D19*
X135950000Y-95212500D02*
X129250000Y-95212500D01*
D12*
X137950000Y-97012500D02*
X137950000Y-96012500D01*
X137950000Y-96012500D02*
X137750000Y-96012500D01*
X137730000Y-96012500D02*
X137730000Y-93762500D01*
X137750000Y-93762500D02*
X137950000Y-93762500D01*
X127450000Y-96312500D02*
X127650000Y-96312500D01*
X127680000Y-96312500D02*
X127680000Y-98552500D01*
X127650000Y-98552500D02*
X127450000Y-98552500D01*
X127450000Y-98912500D02*
X127450000Y-98552500D01*
X127450000Y-95312500D02*
X127450000Y-96312500D01*
X127450000Y-98912500D02*
X130730000Y-98912500D01*
X132950000Y-97012500D02*
X137950000Y-97012500D01*
X137950000Y-93412500D02*
X129549999Y-93412500D01*
X130733682Y-98891029D02*
G75*
G02X132950000Y-97012500I2151318J-291471D01*
G01*
X127450000Y-95312501D02*
G75*
G02X129549999Y-93412500I2000000J-99999D01*
G01*
X137950000Y-93762500D02*
X137950000Y-93412500D01*
D15*
X130333682Y-98491029D02*
G75*
G02X132550000Y-96612500I2151318J-291471D01*
G01*
D14*
X127650000Y-98712500D02*
X130350000Y-98712500D01*
D13*
X137750000Y-93612500D02*
X136350000Y-93612500D01*
X137750000Y-96112500D02*
X137750000Y-96812500D01*
D18*
X108500000Y-96212499D02*
X108500000Y-95312500D01*
D17*
X109000000Y-98412500D02*
X109000000Y-96612501D01*
D16*
X110130000Y-94912500D02*
X110130000Y-97152500D01*
D14*
X118600000Y-96712500D02*
X117200000Y-96712500D01*
D15*
X118200000Y-94012500D02*
X118200000Y-96512500D01*
D19*
X116900000Y-95212500D02*
X110200000Y-95212500D01*
D12*
X118900000Y-97012500D02*
X118900000Y-96012500D01*
X118900000Y-96012500D02*
X118700000Y-96012500D01*
X118680000Y-96012500D02*
X118680000Y-93762500D01*
X118700000Y-93762500D02*
X118900000Y-93762500D01*
X108400000Y-96312500D02*
X108600000Y-96312500D01*
X108630000Y-96312500D02*
X108630000Y-98552500D01*
X108600000Y-98552500D02*
X108400000Y-98552500D01*
X108400000Y-98912500D02*
X108400000Y-98552500D01*
X108400000Y-95312500D02*
X108400000Y-96312500D01*
X108400000Y-98912500D02*
X111680000Y-98912500D01*
X113900000Y-97012500D02*
X118900000Y-97012500D01*
X118900000Y-93412500D02*
X110499999Y-93412500D01*
X111683682Y-98891029D02*
G75*
G02X113900000Y-97012500I2151318J-291471D01*
G01*
X108400000Y-95312501D02*
G75*
G02X110499999Y-93412500I2000000J-99999D01*
G01*
X118900000Y-93762500D02*
X118900000Y-93412500D01*
D15*
X111283682Y-98491029D02*
G75*
G02X113500000Y-96612500I2151318J-291471D01*
G01*
D14*
X108600000Y-98712500D02*
X111300000Y-98712500D01*
D13*
X118700000Y-93612500D02*
X117300000Y-93612500D01*
X118700000Y-96112500D02*
X118700000Y-96812500D01*
D18*
X160887500Y-77162499D02*
X160887500Y-76262500D01*
D17*
X161387500Y-79362500D02*
X161387500Y-77562501D01*
D16*
X162517500Y-75862500D02*
X162517500Y-78102500D01*
D14*
X170987500Y-77662500D02*
X169587500Y-77662500D01*
D15*
X170587500Y-74962500D02*
X170587500Y-77462500D01*
D19*
X169287500Y-76162500D02*
X162587500Y-76162500D01*
D12*
X171287500Y-77962500D02*
X171287500Y-76962500D01*
X171287500Y-76962500D02*
X171087500Y-76962500D01*
X171067500Y-76962500D02*
X171067500Y-74712500D01*
X171087500Y-74712500D02*
X171287500Y-74712500D01*
X160787500Y-77262500D02*
X160987500Y-77262500D01*
X161017500Y-77262500D02*
X161017500Y-79502500D01*
X160987500Y-79502500D02*
X160787500Y-79502500D01*
X160787500Y-79862500D02*
X160787500Y-79502500D01*
X160787500Y-76262500D02*
X160787500Y-77262500D01*
X160787500Y-79862500D02*
X164067500Y-79862500D01*
X166287500Y-77962500D02*
X171287500Y-77962500D01*
X171287500Y-74362500D02*
X162887499Y-74362500D01*
X164071182Y-79841029D02*
G75*
G02X166287500Y-77962500I2151318J-291471D01*
G01*
X160787500Y-76262501D02*
G75*
G02X162887499Y-74362500I2000000J-99999D01*
G01*
X171287500Y-74712500D02*
X171287500Y-74362500D01*
D15*
X163671182Y-79441029D02*
G75*
G02X165887500Y-77562500I2151318J-291471D01*
G01*
D14*
X160987500Y-79662500D02*
X163687500Y-79662500D01*
D13*
X171087500Y-74562500D02*
X169687500Y-74562500D01*
X171087500Y-77062500D02*
X171087500Y-77762500D01*
D18*
X141837500Y-77162499D02*
X141837500Y-76262500D01*
D17*
X142337500Y-79362500D02*
X142337500Y-77562501D01*
D16*
X143467500Y-75862500D02*
X143467500Y-78102500D01*
D14*
X151937500Y-77662500D02*
X150537500Y-77662500D01*
D15*
X151537500Y-74962500D02*
X151537500Y-77462500D01*
D19*
X150237500Y-76162500D02*
X143537500Y-76162500D01*
D12*
X152237500Y-77962500D02*
X152237500Y-76962500D01*
X152237500Y-76962500D02*
X152037500Y-76962500D01*
X152017500Y-76962500D02*
X152017500Y-74712500D01*
X152037500Y-74712500D02*
X152237500Y-74712500D01*
X141737500Y-77262500D02*
X141937500Y-77262500D01*
X141967500Y-77262500D02*
X141967500Y-79502500D01*
X141937500Y-79502500D02*
X141737500Y-79502500D01*
X141737500Y-79862500D02*
X141737500Y-79502500D01*
X141737500Y-76262500D02*
X141737500Y-77262500D01*
X141737500Y-79862500D02*
X145017500Y-79862500D01*
X147237500Y-77962500D02*
X152237500Y-77962500D01*
X152237500Y-74362500D02*
X143837499Y-74362500D01*
X145021182Y-79841029D02*
G75*
G02X147237500Y-77962500I2151318J-291471D01*
G01*
X141737500Y-76262501D02*
G75*
G02X143837499Y-74362500I2000000J-99999D01*
G01*
X152237500Y-74712500D02*
X152237500Y-74362500D01*
D15*
X144621182Y-79441029D02*
G75*
G02X146837500Y-77562500I2151318J-291471D01*
G01*
D14*
X141937500Y-79662500D02*
X144637500Y-79662500D01*
D13*
X152037500Y-74562500D02*
X150637500Y-74562500D01*
X152037500Y-77062500D02*
X152037500Y-77762500D01*
D18*
X122787500Y-77162499D02*
X122787500Y-76262500D01*
D17*
X123287500Y-79362500D02*
X123287500Y-77562501D01*
D16*
X124417500Y-75862500D02*
X124417500Y-78102500D01*
D14*
X132887500Y-77662500D02*
X131487500Y-77662500D01*
D15*
X132487500Y-74962500D02*
X132487500Y-77462500D01*
D19*
X131187500Y-76162500D02*
X124487500Y-76162500D01*
D12*
X133187500Y-77962500D02*
X133187500Y-76962500D01*
X133187500Y-76962500D02*
X132987500Y-76962500D01*
X132967500Y-76962500D02*
X132967500Y-74712500D01*
X132987500Y-74712500D02*
X133187500Y-74712500D01*
X122687500Y-77262500D02*
X122887500Y-77262500D01*
X122917500Y-77262500D02*
X122917500Y-79502500D01*
X122887500Y-79502500D02*
X122687500Y-79502500D01*
X122687500Y-79862500D02*
X122687500Y-79502500D01*
X122687500Y-76262500D02*
X122687500Y-77262500D01*
X122687500Y-79862500D02*
X125967500Y-79862500D01*
X128187500Y-77962500D02*
X133187500Y-77962500D01*
X133187500Y-74362500D02*
X124787499Y-74362500D01*
X125971182Y-79841029D02*
G75*
G02X128187500Y-77962500I2151318J-291471D01*
G01*
X122687500Y-76262501D02*
G75*
G02X124787499Y-74362500I2000000J-99999D01*
G01*
X133187500Y-74712500D02*
X133187500Y-74362500D01*
D15*
X125571182Y-79441029D02*
G75*
G02X127787500Y-77562500I2151318J-291471D01*
G01*
D14*
X122887500Y-79662500D02*
X125587500Y-79662500D01*
D13*
X132987500Y-74562500D02*
X131587500Y-74562500D01*
X132987500Y-77062500D02*
X132987500Y-77762500D01*
D18*
X103737500Y-77162499D02*
X103737500Y-76262500D01*
D17*
X104237500Y-79362500D02*
X104237500Y-77562501D01*
D16*
X105367500Y-75862500D02*
X105367500Y-78102500D01*
D14*
X113837500Y-77662500D02*
X112437500Y-77662500D01*
D15*
X113437500Y-74962500D02*
X113437500Y-77462500D01*
D19*
X112137500Y-76162500D02*
X105437500Y-76162500D01*
D12*
X114137500Y-77962500D02*
X114137500Y-76962500D01*
X114137500Y-76962500D02*
X113937500Y-76962500D01*
X113917500Y-76962500D02*
X113917500Y-74712500D01*
X113937500Y-74712500D02*
X114137500Y-74712500D01*
X103637500Y-77262500D02*
X103837500Y-77262500D01*
X103867500Y-77262500D02*
X103867500Y-79502500D01*
X103837500Y-79502500D02*
X103637500Y-79502500D01*
X103637500Y-79862500D02*
X103637500Y-79502500D01*
X103637500Y-76262500D02*
X103637500Y-77262500D01*
X103637500Y-79862500D02*
X106917500Y-79862500D01*
X109137500Y-77962500D02*
X114137500Y-77962500D01*
X114137500Y-74362500D02*
X105737499Y-74362500D01*
X106921182Y-79841029D02*
G75*
G02X109137500Y-77962500I2151318J-291471D01*
G01*
X103637500Y-76262501D02*
G75*
G02X105737499Y-74362500I2000000J-99999D01*
G01*
X114137500Y-74712500D02*
X114137500Y-74362500D01*
D15*
X106521182Y-79441029D02*
G75*
G02X108737500Y-77562500I2151318J-291471D01*
G01*
D14*
X103837500Y-79662500D02*
X106537500Y-79662500D01*
D13*
X113937500Y-74562500D02*
X112537500Y-74562500D01*
X113937500Y-77062500D02*
X113937500Y-77762500D01*
D18*
X84687500Y-77162499D02*
X84687500Y-76262500D01*
D17*
X85187500Y-79362500D02*
X85187500Y-77562501D01*
D16*
X86317500Y-75862500D02*
X86317500Y-78102500D01*
D14*
X94787500Y-77662500D02*
X93387500Y-77662500D01*
D15*
X94387500Y-74962500D02*
X94387500Y-77462500D01*
D19*
X93087500Y-76162500D02*
X86387500Y-76162500D01*
D12*
X95087500Y-77962500D02*
X95087500Y-76962500D01*
X95087500Y-76962500D02*
X94887500Y-76962500D01*
X94867500Y-76962500D02*
X94867500Y-74712500D01*
X94887500Y-74712500D02*
X95087500Y-74712500D01*
X84587500Y-77262500D02*
X84787500Y-77262500D01*
X84817500Y-77262500D02*
X84817500Y-79502500D01*
X84787500Y-79502500D02*
X84587500Y-79502500D01*
X84587500Y-79862500D02*
X84587500Y-79502500D01*
X84587500Y-76262500D02*
X84587500Y-77262500D01*
X84587500Y-79862500D02*
X87867500Y-79862500D01*
X90087500Y-77962500D02*
X95087500Y-77962500D01*
X95087500Y-74362500D02*
X86687499Y-74362500D01*
X87871182Y-79841029D02*
G75*
G02X90087500Y-77962500I2151318J-291471D01*
G01*
X84587500Y-76262501D02*
G75*
G02X86687499Y-74362500I2000000J-99999D01*
G01*
X95087500Y-74712500D02*
X95087500Y-74362500D01*
D15*
X87471182Y-79441029D02*
G75*
G02X89687500Y-77562500I2151318J-291471D01*
G01*
D14*
X84787500Y-79662500D02*
X87487500Y-79662500D01*
D13*
X94887500Y-74562500D02*
X93487500Y-74562500D01*
X94887500Y-77062500D02*
X94887500Y-77762500D01*
D10*
X218658000Y-104664000D02*
X214758000Y-104664000D01*
X218658000Y-106664000D02*
X214758000Y-106664000D01*
X218658000Y-104664000D02*
X218658000Y-106664000D01*
X212054000Y-123714000D02*
X208154000Y-123714000D01*
X212054000Y-125714000D02*
X208154000Y-125714000D01*
X212054000Y-123714000D02*
X212054000Y-125714000D01*
X178272000Y-104664000D02*
X174372000Y-104664000D01*
X178272000Y-106664000D02*
X174372000Y-106664000D01*
X178272000Y-104664000D02*
X178272000Y-106664000D01*
X221198000Y-123714000D02*
X217298000Y-123714000D01*
X221198000Y-125714000D02*
X217298000Y-125714000D01*
X221198000Y-123714000D02*
X221198000Y-125714000D01*
X202148000Y-123714000D02*
X198248000Y-123714000D01*
X202148000Y-125714000D02*
X198248000Y-125714000D01*
X202148000Y-123714000D02*
X202148000Y-125714000D01*
X155032000Y-123714000D02*
X151132000Y-123714000D01*
X155032000Y-125714000D02*
X151132000Y-125714000D01*
X155032000Y-123714000D02*
X155032000Y-125714000D01*
X125948000Y-123714000D02*
X122048000Y-123714000D01*
X125948000Y-125714000D02*
X122048000Y-125714000D01*
X125948000Y-123714000D02*
X125948000Y-125714000D01*
X216392000Y-87848000D02*
X216392000Y-83948000D01*
X214392000Y-87848000D02*
X214392000Y-83948000D01*
X216392000Y-87848000D02*
X214392000Y-87848000D01*
X169128000Y-104664000D02*
X165228000Y-104664000D01*
X169128000Y-106664000D02*
X165228000Y-106664000D01*
X169128000Y-104664000D02*
X169128000Y-106664000D01*
X163794000Y-123714000D02*
X159894000Y-123714000D01*
X163794000Y-125714000D02*
X159894000Y-125714000D01*
X163794000Y-123714000D02*
X163794000Y-125714000D01*
X144998000Y-123714000D02*
X141098000Y-123714000D01*
X144998000Y-125714000D02*
X141098000Y-125714000D01*
X144998000Y-123714000D02*
X144998000Y-125714000D01*
X102072000Y-123714000D02*
X98172000Y-123714000D01*
X102072000Y-125714000D02*
X98172000Y-125714000D01*
X102072000Y-123714000D02*
X102072000Y-125714000D01*
X183352000Y-85614000D02*
X179452000Y-85614000D01*
X183352000Y-87614000D02*
X179452000Y-87614000D01*
X183352000Y-85614000D02*
X183352000Y-87614000D01*
X159222000Y-104664000D02*
X155322000Y-104664000D01*
X159222000Y-106664000D02*
X155322000Y-106664000D01*
X159222000Y-104664000D02*
X159222000Y-106664000D01*
X140172000Y-104664000D02*
X136272000Y-104664000D01*
X140172000Y-106664000D02*
X136272000Y-106664000D01*
X140172000Y-104664000D02*
X140172000Y-106664000D01*
X121122000Y-104664000D02*
X117222000Y-104664000D01*
X121122000Y-106664000D02*
X117222000Y-106664000D01*
X121122000Y-104664000D02*
X121122000Y-106664000D01*
X99532000Y-104664000D02*
X95632000Y-104664000D01*
X99532000Y-106664000D02*
X95632000Y-106664000D01*
X99532000Y-104664000D02*
X99532000Y-106664000D01*
X173446000Y-85614000D02*
X169546000Y-85614000D01*
X173446000Y-87614000D02*
X169546000Y-87614000D01*
X173446000Y-85614000D02*
X173446000Y-87614000D01*
X154396000Y-85614000D02*
X150496000Y-85614000D01*
X154396000Y-87614000D02*
X150496000Y-87614000D01*
X154396000Y-85614000D02*
X154396000Y-87614000D01*
X135346000Y-85614000D02*
X131446000Y-85614000D01*
X135346000Y-87614000D02*
X131446000Y-87614000D01*
X135346000Y-85614000D02*
X135346000Y-87614000D01*
X116296000Y-85614000D02*
X112396000Y-85614000D01*
X116296000Y-87614000D02*
X112396000Y-87614000D01*
X116296000Y-85614000D02*
X116296000Y-87614000D01*
X97246000Y-85614000D02*
X93346000Y-85614000D01*
X97246000Y-87614000D02*
X93346000Y-87614000D01*
X97246000Y-85614000D02*
X97246000Y-87614000D01*
D12*
X199453273Y-141565261D02*
X199310416Y-141612880D01*
X199072321Y-141612880D01*
X198977083Y-141565261D01*
X198929464Y-141517642D01*
X198881845Y-141422404D01*
X198881845Y-141327166D01*
X198929464Y-141231928D01*
X198977083Y-141184309D01*
X199072321Y-141136690D01*
X199262797Y-141089071D01*
X199358035Y-141041452D01*
X199405654Y-140993833D01*
X199453273Y-140898595D01*
X199453273Y-140803357D01*
X199405654Y-140708119D01*
X199358035Y-140660500D01*
X199262797Y-140612880D01*
X199024702Y-140612880D01*
X198881845Y-140660500D01*
X198548511Y-140612880D02*
X198310416Y-141612880D01*
X198119940Y-140898595D01*
X197929464Y-141612880D01*
X197691369Y-140612880D01*
X197358035Y-140708119D02*
X197310416Y-140660500D01*
X197215178Y-140612880D01*
X196977083Y-140612880D01*
X196881845Y-140660500D01*
X196834226Y-140708119D01*
X196786607Y-140803357D01*
X196786607Y-140898595D01*
X196834226Y-141041452D01*
X197405654Y-141612880D01*
X196786607Y-141612880D01*
X195834226Y-141612880D02*
X196405654Y-141612880D01*
X196119940Y-141612880D02*
X196119940Y-140612880D01*
X196215178Y-140755738D01*
X196310416Y-140850976D01*
X196405654Y-140898595D01*
X213740773Y-103465261D02*
X213597916Y-103512880D01*
X213359821Y-103512880D01*
X213264583Y-103465261D01*
X213216964Y-103417642D01*
X213169345Y-103322404D01*
X213169345Y-103227166D01*
X213216964Y-103131928D01*
X213264583Y-103084309D01*
X213359821Y-103036690D01*
X213550297Y-102989071D01*
X213645535Y-102941452D01*
X213693154Y-102893833D01*
X213740773Y-102798595D01*
X213740773Y-102703357D01*
X213693154Y-102608119D01*
X213645535Y-102560500D01*
X213550297Y-102512880D01*
X213312202Y-102512880D01*
X213169345Y-102560500D01*
X212836011Y-102512880D02*
X212597916Y-103512880D01*
X212407440Y-102798595D01*
X212216964Y-103512880D01*
X211978869Y-102512880D01*
X211645535Y-102608119D02*
X211597916Y-102560500D01*
X211502678Y-102512880D01*
X211264583Y-102512880D01*
X211169345Y-102560500D01*
X211121726Y-102608119D01*
X211074107Y-102703357D01*
X211074107Y-102798595D01*
X211121726Y-102941452D01*
X211693154Y-103512880D01*
X211074107Y-103512880D01*
X210693154Y-102608119D02*
X210645535Y-102560500D01*
X210550297Y-102512880D01*
X210312202Y-102512880D01*
X210216964Y-102560500D01*
X210169345Y-102608119D01*
X210121726Y-102703357D01*
X210121726Y-102798595D01*
X210169345Y-102941452D01*
X210740773Y-103512880D01*
X210121726Y-103512880D01*
X94202083Y-103465261D02*
X94059226Y-103512880D01*
X93821130Y-103512880D01*
X93725892Y-103465261D01*
X93678273Y-103417642D01*
X93630654Y-103322404D01*
X93630654Y-103227166D01*
X93678273Y-103131928D01*
X93725892Y-103084309D01*
X93821130Y-103036690D01*
X94011607Y-102989071D01*
X94106845Y-102941452D01*
X94154464Y-102893833D01*
X94202083Y-102798595D01*
X94202083Y-102703357D01*
X94154464Y-102608119D01*
X94106845Y-102560500D01*
X94011607Y-102512880D01*
X93773511Y-102512880D01*
X93630654Y-102560500D01*
X93297321Y-102512880D02*
X93059226Y-103512880D01*
X92868750Y-102798595D01*
X92678273Y-103512880D01*
X92440178Y-102512880D01*
X91630654Y-102512880D02*
X91821130Y-102512880D01*
X91916369Y-102560500D01*
X91963988Y-102608119D01*
X92059226Y-102750976D01*
X92106845Y-102941452D01*
X92106845Y-103322404D01*
X92059226Y-103417642D01*
X92011607Y-103465261D01*
X91916369Y-103512880D01*
X91725892Y-103512880D01*
X91630654Y-103465261D01*
X91583035Y-103417642D01*
X91535416Y-103322404D01*
X91535416Y-103084309D01*
X91583035Y-102989071D01*
X91630654Y-102941452D01*
X91725892Y-102893833D01*
X91916369Y-102893833D01*
X92011607Y-102941452D01*
X92059226Y-102989071D01*
X92106845Y-103084309D01*
X213704761Y-136302976D02*
X213752380Y-136445833D01*
X213752380Y-136683928D01*
X213704761Y-136779166D01*
X213657142Y-136826785D01*
X213561904Y-136874404D01*
X213466666Y-136874404D01*
X213371428Y-136826785D01*
X213323809Y-136779166D01*
X213276190Y-136683928D01*
X213228571Y-136493452D01*
X213180952Y-136398214D01*
X213133333Y-136350595D01*
X213038095Y-136302976D01*
X212942857Y-136302976D01*
X212847619Y-136350595D01*
X212800000Y-136398214D01*
X212752380Y-136493452D01*
X212752380Y-136731547D01*
X212800000Y-136874404D01*
X212752380Y-137207738D02*
X213752380Y-137445833D01*
X213038095Y-137636309D01*
X213752380Y-137826785D01*
X212752380Y-138064880D01*
X212847619Y-138398214D02*
X212800000Y-138445833D01*
X212752380Y-138541071D01*
X212752380Y-138779166D01*
X212800000Y-138874404D01*
X212847619Y-138922023D01*
X212942857Y-138969642D01*
X213038095Y-138969642D01*
X213180952Y-138922023D01*
X213752380Y-138350595D01*
X213752380Y-138969642D01*
X212752380Y-139302976D02*
X212752380Y-139922023D01*
X213133333Y-139588690D01*
X213133333Y-139731547D01*
X213180952Y-139826785D01*
X213228571Y-139874404D01*
X213323809Y-139922023D01*
X213561904Y-139922023D01*
X213657142Y-139874404D01*
X213704761Y-139826785D01*
X213752380Y-139731547D01*
X213752380Y-139445833D01*
X213704761Y-139350595D01*
X213657142Y-139302976D01*
X183364190Y-138461809D02*
X183840380Y-138461809D01*
X182840380Y-138128476D02*
X183364190Y-138461809D01*
X182840380Y-138795142D01*
X183840380Y-139652285D02*
X183840380Y-139080857D01*
X183840380Y-139366571D02*
X182840380Y-139366571D01*
X182983238Y-139271333D01*
X183078476Y-139176095D01*
X183126095Y-139080857D01*
X201334666Y-76144380D02*
X201668000Y-75668190D01*
X201906095Y-76144380D02*
X201906095Y-75144380D01*
X201525142Y-75144380D01*
X201429904Y-75192000D01*
X201382285Y-75239619D01*
X201334666Y-75334857D01*
X201334666Y-75477714D01*
X201382285Y-75572952D01*
X201429904Y-75620571D01*
X201525142Y-75668190D01*
X201906095Y-75668190D01*
X201001333Y-75144380D02*
X200334666Y-75144380D01*
X200763238Y-76144380D01*
X194222666Y-77922380D02*
X194556000Y-77446190D01*
X194794095Y-77922380D02*
X194794095Y-76922380D01*
X194413142Y-76922380D01*
X194317904Y-76970000D01*
X194270285Y-77017619D01*
X194222666Y-77112857D01*
X194222666Y-77255714D01*
X194270285Y-77350952D01*
X194317904Y-77398571D01*
X194413142Y-77446190D01*
X194794095Y-77446190D01*
X193365523Y-76922380D02*
X193556000Y-76922380D01*
X193651238Y-76970000D01*
X193698857Y-77017619D01*
X193794095Y-77160476D01*
X193841714Y-77350952D01*
X193841714Y-77731904D01*
X193794095Y-77827142D01*
X193746476Y-77874761D01*
X193651238Y-77922380D01*
X193460761Y-77922380D01*
X193365523Y-77874761D01*
X193317904Y-77827142D01*
X193270285Y-77731904D01*
X193270285Y-77493809D01*
X193317904Y-77398571D01*
X193365523Y-77350952D01*
X193460761Y-77303333D01*
X193651238Y-77303333D01*
X193746476Y-77350952D01*
X193794095Y-77398571D01*
X193841714Y-77493809D01*
X167442806Y-141910895D02*
X168015226Y-141809880D01*
X167846867Y-142314956D02*
X168553974Y-141607850D01*
X168284600Y-141338475D01*
X168183585Y-141304804D01*
X168116241Y-141304804D01*
X168015226Y-141338475D01*
X167914211Y-141439491D01*
X167880539Y-141540506D01*
X167880539Y-141607850D01*
X167914211Y-141708865D01*
X168183585Y-141978239D01*
X167510149Y-140564025D02*
X167846867Y-140900743D01*
X167543821Y-141271132D01*
X167543821Y-141203788D01*
X167510149Y-141102773D01*
X167341791Y-140934414D01*
X167240775Y-140900743D01*
X167173432Y-140900743D01*
X167072417Y-140934414D01*
X166904058Y-141102773D01*
X166870386Y-141203788D01*
X166870386Y-141271132D01*
X166904058Y-141372147D01*
X167072417Y-141540506D01*
X167173432Y-141574178D01*
X167240775Y-141574178D01*
X191174666Y-72842380D02*
X191508000Y-72366190D01*
X191746095Y-72842380D02*
X191746095Y-71842380D01*
X191365142Y-71842380D01*
X191269904Y-71890000D01*
X191222285Y-71937619D01*
X191174666Y-72032857D01*
X191174666Y-72175714D01*
X191222285Y-72270952D01*
X191269904Y-72318571D01*
X191365142Y-72366190D01*
X191746095Y-72366190D01*
X190317523Y-72175714D02*
X190317523Y-72842380D01*
X190555619Y-71794761D02*
X190793714Y-72509047D01*
X190174666Y-72509047D01*
X198826380Y-81113333D02*
X198350190Y-80780000D01*
X198826380Y-80541904D02*
X197826380Y-80541904D01*
X197826380Y-80922857D01*
X197874000Y-81018095D01*
X197921619Y-81065714D01*
X198016857Y-81113333D01*
X198159714Y-81113333D01*
X198254952Y-81065714D01*
X198302571Y-81018095D01*
X198350190Y-80922857D01*
X198350190Y-80541904D01*
X197826380Y-81446666D02*
X197826380Y-82065714D01*
X198207333Y-81732380D01*
X198207333Y-81875238D01*
X198254952Y-81970476D01*
X198302571Y-82018095D01*
X198397809Y-82065714D01*
X198635904Y-82065714D01*
X198731142Y-82018095D01*
X198778761Y-81970476D01*
X198826380Y-81875238D01*
X198826380Y-81589523D01*
X198778761Y-81494285D01*
X198731142Y-81446666D01*
X186111732Y-136346030D02*
X186010717Y-135773610D01*
X186515793Y-135941969D02*
X185808687Y-135234862D01*
X185539312Y-135504236D01*
X185505641Y-135605251D01*
X185505641Y-135672595D01*
X185539312Y-135773610D01*
X185640328Y-135874625D01*
X185741343Y-135908297D01*
X185808687Y-135908297D01*
X185909702Y-135874625D01*
X186179076Y-135605251D01*
X185202595Y-135975641D02*
X185135251Y-135975641D01*
X185034236Y-136009312D01*
X184865877Y-136177671D01*
X184832206Y-136278687D01*
X184832206Y-136346030D01*
X184865877Y-136447045D01*
X184933221Y-136514389D01*
X185067908Y-136581732D01*
X185876030Y-136581732D01*
X185438297Y-137019465D01*
X197302380Y-81113333D02*
X196826190Y-80780000D01*
X197302380Y-80541904D02*
X196302380Y-80541904D01*
X196302380Y-80922857D01*
X196350000Y-81018095D01*
X196397619Y-81065714D01*
X196492857Y-81113333D01*
X196635714Y-81113333D01*
X196730952Y-81065714D01*
X196778571Y-81018095D01*
X196826190Y-80922857D01*
X196826190Y-80541904D01*
X197302380Y-82065714D02*
X197302380Y-81494285D01*
X197302380Y-81780000D02*
X196302380Y-81780000D01*
X196445238Y-81684761D01*
X196540476Y-81589523D01*
X196588095Y-81494285D01*
X204694571Y-85010666D02*
X204694571Y-84677333D01*
X205218380Y-84677333D02*
X204218380Y-84677333D01*
X204218380Y-85153523D01*
X205218380Y-86058285D02*
X205218380Y-85486857D01*
X205218380Y-85772571D02*
X204218380Y-85772571D01*
X204361238Y-85677333D01*
X204456476Y-85582095D01*
X204504095Y-85486857D01*
X203144380Y-89844714D02*
X202144380Y-89844714D01*
X202144380Y-90082809D01*
X202192000Y-90225666D01*
X202287238Y-90320904D01*
X202382476Y-90368523D01*
X202572952Y-90416142D01*
X202715809Y-90416142D01*
X202906285Y-90368523D01*
X203001523Y-90320904D01*
X203096761Y-90225666D01*
X203144380Y-90082809D01*
X203144380Y-89844714D01*
X202239619Y-90797095D02*
X202192000Y-90844714D01*
X202144380Y-90939952D01*
X202144380Y-91178047D01*
X202192000Y-91273285D01*
X202239619Y-91320904D01*
X202334857Y-91368523D01*
X202430095Y-91368523D01*
X202572952Y-91320904D01*
X203144380Y-90749476D01*
X203144380Y-91368523D01*
X202144380Y-91701857D02*
X202144380Y-92320904D01*
X202525333Y-91987571D01*
X202525333Y-92130428D01*
X202572952Y-92225666D01*
X202620571Y-92273285D01*
X202715809Y-92320904D01*
X202953904Y-92320904D01*
X203049142Y-92273285D01*
X203096761Y-92225666D01*
X203144380Y-92130428D01*
X203144380Y-91844714D01*
X203096761Y-91749476D01*
X203049142Y-91701857D01*
X188888666Y-133961142D02*
X188936285Y-134008761D01*
X189079142Y-134056380D01*
X189174380Y-134056380D01*
X189317238Y-134008761D01*
X189412476Y-133913523D01*
X189460095Y-133818285D01*
X189507714Y-133627809D01*
X189507714Y-133484952D01*
X189460095Y-133294476D01*
X189412476Y-133199238D01*
X189317238Y-133104000D01*
X189174380Y-133056380D01*
X189079142Y-133056380D01*
X188936285Y-133104000D01*
X188888666Y-133151619D01*
X188317238Y-133484952D02*
X188412476Y-133437333D01*
X188460095Y-133389714D01*
X188507714Y-133294476D01*
X188507714Y-133246857D01*
X188460095Y-133151619D01*
X188412476Y-133104000D01*
X188317238Y-133056380D01*
X188126761Y-133056380D01*
X188031523Y-133104000D01*
X187983904Y-133151619D01*
X187936285Y-133246857D01*
X187936285Y-133294476D01*
X187983904Y-133389714D01*
X188031523Y-133437333D01*
X188126761Y-133484952D01*
X188317238Y-133484952D01*
X188412476Y-133532571D01*
X188460095Y-133580190D01*
X188507714Y-133675428D01*
X188507714Y-133865904D01*
X188460095Y-133961142D01*
X188412476Y-134008761D01*
X188317238Y-134056380D01*
X188126761Y-134056380D01*
X188031523Y-134008761D01*
X187983904Y-133961142D01*
X187936285Y-133865904D01*
X187936285Y-133675428D01*
X187983904Y-133580190D01*
X188031523Y-133532571D01*
X188126761Y-133484952D01*
X167759312Y-131942389D02*
X167759312Y-132009732D01*
X167826656Y-132144419D01*
X167894000Y-132211763D01*
X168028687Y-132279106D01*
X168163374Y-132279106D01*
X168264389Y-132245435D01*
X168432748Y-132144419D01*
X168533763Y-132043404D01*
X168634778Y-131875045D01*
X168668450Y-131774030D01*
X168668450Y-131639343D01*
X168601106Y-131504656D01*
X168533763Y-131437312D01*
X168399076Y-131369969D01*
X168331732Y-131369969D01*
X168163374Y-131066923D02*
X167691969Y-130595519D01*
X167287908Y-131605671D01*
X179443312Y-125338389D02*
X179443312Y-125405732D01*
X179510656Y-125540419D01*
X179578000Y-125607763D01*
X179712687Y-125675106D01*
X179847374Y-125675106D01*
X179948389Y-125641435D01*
X180116748Y-125540419D01*
X180217763Y-125439404D01*
X180318778Y-125271045D01*
X180352450Y-125170030D01*
X180352450Y-125035343D01*
X180285106Y-124900656D01*
X180217763Y-124833312D01*
X180083076Y-124765969D01*
X180015732Y-124765969D01*
X179476984Y-124092534D02*
X179611671Y-124227221D01*
X179645343Y-124328236D01*
X179645343Y-124395580D01*
X179611671Y-124563938D01*
X179510656Y-124732297D01*
X179241282Y-125001671D01*
X179140267Y-125035343D01*
X179072923Y-125035343D01*
X178971908Y-125001671D01*
X178837221Y-124866984D01*
X178803549Y-124765969D01*
X178803549Y-124698625D01*
X178837221Y-124597610D01*
X179005580Y-124429251D01*
X179106595Y-124395580D01*
X179173938Y-124395580D01*
X179274954Y-124429251D01*
X179409641Y-124563938D01*
X179443312Y-124664954D01*
X179443312Y-124732297D01*
X179409641Y-124833312D01*
X171574149Y-145653552D02*
X171574149Y-145720895D01*
X171641493Y-145855582D01*
X171708837Y-145922926D01*
X171843524Y-145990269D01*
X171978211Y-145990269D01*
X172079226Y-145956598D01*
X172247585Y-145855582D01*
X172348600Y-145754567D01*
X172449615Y-145586208D01*
X172483287Y-145485193D01*
X172483287Y-145350506D01*
X172415943Y-145215819D01*
X172348600Y-145148475D01*
X172213913Y-145081132D01*
X172146569Y-145081132D01*
X171574149Y-144374025D02*
X171910867Y-144710743D01*
X171607821Y-145081132D01*
X171607821Y-145013788D01*
X171574149Y-144912773D01*
X171405791Y-144744414D01*
X171304775Y-144710743D01*
X171237432Y-144710743D01*
X171136417Y-144744414D01*
X170968058Y-144912773D01*
X170934386Y-145013788D01*
X170934386Y-145081132D01*
X170968058Y-145182147D01*
X171136417Y-145350506D01*
X171237432Y-145384178D01*
X171304775Y-145384178D01*
X170296389Y-126880687D02*
X170363732Y-126880687D01*
X170498419Y-126813343D01*
X170565763Y-126746000D01*
X170633106Y-126611312D01*
X170633106Y-126476625D01*
X170599435Y-126375610D01*
X170498419Y-126207251D01*
X170397404Y-126106236D01*
X170229045Y-126005221D01*
X170128030Y-125971549D01*
X169993343Y-125971549D01*
X169858656Y-126038893D01*
X169791312Y-126106236D01*
X169723969Y-126240923D01*
X169723969Y-126308267D01*
X169286236Y-127082717D02*
X169757641Y-127554122D01*
X169185221Y-126644984D02*
X169858656Y-126981702D01*
X169420923Y-127419435D01*
X182486475Y-128899226D02*
X182486475Y-128966569D01*
X182553819Y-129101256D01*
X182621163Y-129168600D01*
X182755850Y-129235943D01*
X182890537Y-129235943D01*
X182991552Y-129202272D01*
X183159911Y-129101256D01*
X183260926Y-129000241D01*
X183361941Y-128831882D01*
X183395613Y-128730867D01*
X183395613Y-128596180D01*
X183328269Y-128461493D01*
X183260926Y-128394149D01*
X183126239Y-128326806D01*
X183058895Y-128326806D01*
X182890537Y-128023760D02*
X182452804Y-127586027D01*
X182419132Y-128091104D01*
X182318117Y-127990088D01*
X182217101Y-127956417D01*
X182149758Y-127956417D01*
X182048743Y-127990088D01*
X181880384Y-128158447D01*
X181846712Y-128259462D01*
X181846712Y-128326806D01*
X181880384Y-128427821D01*
X182082414Y-128629852D01*
X182183430Y-128663524D01*
X182250773Y-128663524D01*
X188380666Y-141581142D02*
X188428285Y-141628761D01*
X188571142Y-141676380D01*
X188666380Y-141676380D01*
X188809238Y-141628761D01*
X188904476Y-141533523D01*
X188952095Y-141438285D01*
X188999714Y-141247809D01*
X188999714Y-141104952D01*
X188952095Y-140914476D01*
X188904476Y-140819238D01*
X188809238Y-140724000D01*
X188666380Y-140676380D01*
X188571142Y-140676380D01*
X188428285Y-140724000D01*
X188380666Y-140771619D01*
X187999714Y-140771619D02*
X187952095Y-140724000D01*
X187856857Y-140676380D01*
X187618761Y-140676380D01*
X187523523Y-140724000D01*
X187475904Y-140771619D01*
X187428285Y-140866857D01*
X187428285Y-140962095D01*
X187475904Y-141104952D01*
X188047333Y-141676380D01*
X187428285Y-141676380D01*
X182792666Y-145391142D02*
X182840285Y-145438761D01*
X182983142Y-145486380D01*
X183078380Y-145486380D01*
X183221238Y-145438761D01*
X183316476Y-145343523D01*
X183364095Y-145248285D01*
X183411714Y-145057809D01*
X183411714Y-144914952D01*
X183364095Y-144724476D01*
X183316476Y-144629238D01*
X183221238Y-144534000D01*
X183078380Y-144486380D01*
X182983142Y-144486380D01*
X182840285Y-144534000D01*
X182792666Y-144581619D01*
X181840285Y-145486380D02*
X182411714Y-145486380D01*
X182126000Y-145486380D02*
X182126000Y-144486380D01*
X182221238Y-144629238D01*
X182316476Y-144724476D01*
X182411714Y-144772095D01*
X175665522Y-126328026D02*
X176237942Y-126900446D01*
X176271614Y-127001461D01*
X176271614Y-127068805D01*
X176237942Y-127169820D01*
X176103255Y-127304507D01*
X176002240Y-127338179D01*
X175934896Y-127338179D01*
X175833881Y-127304507D01*
X175261461Y-126732087D01*
X175261461Y-128146301D02*
X175665522Y-127742240D01*
X175463492Y-127944270D02*
X174756385Y-127237164D01*
X174924744Y-127270835D01*
X175059431Y-127270835D01*
X175160446Y-127237164D01*
X192309523Y-103465261D02*
X192166666Y-103512880D01*
X191928571Y-103512880D01*
X191833333Y-103465261D01*
X191785714Y-103417642D01*
X191738095Y-103322404D01*
X191738095Y-103227166D01*
X191785714Y-103131928D01*
X191833333Y-103084309D01*
X191928571Y-103036690D01*
X192119047Y-102989071D01*
X192214285Y-102941452D01*
X192261904Y-102893833D01*
X192309523Y-102798595D01*
X192309523Y-102703357D01*
X192261904Y-102608119D01*
X192214285Y-102560500D01*
X192119047Y-102512880D01*
X191880952Y-102512880D01*
X191738095Y-102560500D01*
X191404761Y-102512880D02*
X191166666Y-103512880D01*
X190976190Y-102798595D01*
X190785714Y-103512880D01*
X190547619Y-102512880D01*
X190214285Y-102608119D02*
X190166666Y-102560500D01*
X190071428Y-102512880D01*
X189833333Y-102512880D01*
X189738095Y-102560500D01*
X189690476Y-102608119D01*
X189642857Y-102703357D01*
X189642857Y-102798595D01*
X189690476Y-102941452D01*
X190261904Y-103512880D01*
X189642857Y-103512880D01*
X189023809Y-102512880D02*
X188928571Y-102512880D01*
X188833333Y-102560500D01*
X188785714Y-102608119D01*
X188738095Y-102703357D01*
X188690476Y-102893833D01*
X188690476Y-103131928D01*
X188738095Y-103322404D01*
X188785714Y-103417642D01*
X188833333Y-103465261D01*
X188928571Y-103512880D01*
X189023809Y-103512880D01*
X189119047Y-103465261D01*
X189166666Y-103417642D01*
X189214285Y-103322404D01*
X189261904Y-103131928D01*
X189261904Y-102893833D01*
X189214285Y-102703357D01*
X189166666Y-102608119D01*
X189119047Y-102560500D01*
X189023809Y-102512880D01*
X216122023Y-122515261D02*
X215979166Y-122562880D01*
X215741071Y-122562880D01*
X215645833Y-122515261D01*
X215598214Y-122467642D01*
X215550595Y-122372404D01*
X215550595Y-122277166D01*
X215598214Y-122181928D01*
X215645833Y-122134309D01*
X215741071Y-122086690D01*
X215931547Y-122039071D01*
X216026785Y-121991452D01*
X216074404Y-121943833D01*
X216122023Y-121848595D01*
X216122023Y-121753357D01*
X216074404Y-121658119D01*
X216026785Y-121610500D01*
X215931547Y-121562880D01*
X215693452Y-121562880D01*
X215550595Y-121610500D01*
X215217261Y-121562880D02*
X214979166Y-122562880D01*
X214788690Y-121848595D01*
X214598214Y-122562880D01*
X214360119Y-121562880D01*
X213455357Y-122562880D02*
X214026785Y-122562880D01*
X213741071Y-122562880D02*
X213741071Y-121562880D01*
X213836309Y-121705738D01*
X213931547Y-121800976D01*
X214026785Y-121848595D01*
X212979166Y-122562880D02*
X212788690Y-122562880D01*
X212693452Y-122515261D01*
X212645833Y-122467642D01*
X212550595Y-122324785D01*
X212502976Y-122134309D01*
X212502976Y-121753357D01*
X212550595Y-121658119D01*
X212598214Y-121610500D01*
X212693452Y-121562880D01*
X212883928Y-121562880D01*
X212979166Y-121610500D01*
X213026785Y-121658119D01*
X213074404Y-121753357D01*
X213074404Y-121991452D01*
X213026785Y-122086690D01*
X212979166Y-122134309D01*
X212883928Y-122181928D01*
X212693452Y-122181928D01*
X212598214Y-122134309D01*
X212550595Y-122086690D01*
X212502976Y-121991452D01*
X197072023Y-122515261D02*
X196929166Y-122562880D01*
X196691071Y-122562880D01*
X196595833Y-122515261D01*
X196548214Y-122467642D01*
X196500595Y-122372404D01*
X196500595Y-122277166D01*
X196548214Y-122181928D01*
X196595833Y-122134309D01*
X196691071Y-122086690D01*
X196881547Y-122039071D01*
X196976785Y-121991452D01*
X197024404Y-121943833D01*
X197072023Y-121848595D01*
X197072023Y-121753357D01*
X197024404Y-121658119D01*
X196976785Y-121610500D01*
X196881547Y-121562880D01*
X196643452Y-121562880D01*
X196500595Y-121610500D01*
X196167261Y-121562880D02*
X195929166Y-122562880D01*
X195738690Y-121848595D01*
X195548214Y-122562880D01*
X195310119Y-121562880D01*
X194405357Y-122562880D02*
X194976785Y-122562880D01*
X194691071Y-122562880D02*
X194691071Y-121562880D01*
X194786309Y-121705738D01*
X194881547Y-121800976D01*
X194976785Y-121848595D01*
X193833928Y-121991452D02*
X193929166Y-121943833D01*
X193976785Y-121896214D01*
X194024404Y-121800976D01*
X194024404Y-121753357D01*
X193976785Y-121658119D01*
X193929166Y-121610500D01*
X193833928Y-121562880D01*
X193643452Y-121562880D01*
X193548214Y-121610500D01*
X193500595Y-121658119D01*
X193452976Y-121753357D01*
X193452976Y-121800976D01*
X193500595Y-121896214D01*
X193548214Y-121943833D01*
X193643452Y-121991452D01*
X193833928Y-121991452D01*
X193929166Y-122039071D01*
X193976785Y-122086690D01*
X194024404Y-122181928D01*
X194024404Y-122372404D01*
X193976785Y-122467642D01*
X193929166Y-122515261D01*
X193833928Y-122562880D01*
X193643452Y-122562880D01*
X193548214Y-122515261D01*
X193500595Y-122467642D01*
X193452976Y-122372404D01*
X193452976Y-122181928D01*
X193500595Y-122086690D01*
X193548214Y-122039071D01*
X193643452Y-121991452D01*
X158972023Y-122515261D02*
X158829166Y-122562880D01*
X158591071Y-122562880D01*
X158495833Y-122515261D01*
X158448214Y-122467642D01*
X158400595Y-122372404D01*
X158400595Y-122277166D01*
X158448214Y-122181928D01*
X158495833Y-122134309D01*
X158591071Y-122086690D01*
X158781547Y-122039071D01*
X158876785Y-121991452D01*
X158924404Y-121943833D01*
X158972023Y-121848595D01*
X158972023Y-121753357D01*
X158924404Y-121658119D01*
X158876785Y-121610500D01*
X158781547Y-121562880D01*
X158543452Y-121562880D01*
X158400595Y-121610500D01*
X158067261Y-121562880D02*
X157829166Y-122562880D01*
X157638690Y-121848595D01*
X157448214Y-122562880D01*
X157210119Y-121562880D01*
X156305357Y-122562880D02*
X156876785Y-122562880D01*
X156591071Y-122562880D02*
X156591071Y-121562880D01*
X156686309Y-121705738D01*
X156781547Y-121800976D01*
X156876785Y-121848595D01*
X155972023Y-121562880D02*
X155305357Y-121562880D01*
X155733928Y-122562880D01*
X120872023Y-122515261D02*
X120729166Y-122562880D01*
X120491071Y-122562880D01*
X120395833Y-122515261D01*
X120348214Y-122467642D01*
X120300595Y-122372404D01*
X120300595Y-122277166D01*
X120348214Y-122181928D01*
X120395833Y-122134309D01*
X120491071Y-122086690D01*
X120681547Y-122039071D01*
X120776785Y-121991452D01*
X120824404Y-121943833D01*
X120872023Y-121848595D01*
X120872023Y-121753357D01*
X120824404Y-121658119D01*
X120776785Y-121610500D01*
X120681547Y-121562880D01*
X120443452Y-121562880D01*
X120300595Y-121610500D01*
X119967261Y-121562880D02*
X119729166Y-122562880D01*
X119538690Y-121848595D01*
X119348214Y-122562880D01*
X119110119Y-121562880D01*
X118205357Y-122562880D02*
X118776785Y-122562880D01*
X118491071Y-122562880D02*
X118491071Y-121562880D01*
X118586309Y-121705738D01*
X118681547Y-121800976D01*
X118776785Y-121848595D01*
X117348214Y-121562880D02*
X117538690Y-121562880D01*
X117633928Y-121610500D01*
X117681547Y-121658119D01*
X117776785Y-121800976D01*
X117824404Y-121991452D01*
X117824404Y-122372404D01*
X117776785Y-122467642D01*
X117729166Y-122515261D01*
X117633928Y-122562880D01*
X117443452Y-122562880D01*
X117348214Y-122515261D01*
X117300595Y-122467642D01*
X117252976Y-122372404D01*
X117252976Y-122134309D01*
X117300595Y-122039071D01*
X117348214Y-121991452D01*
X117443452Y-121943833D01*
X117633928Y-121943833D01*
X117729166Y-121991452D01*
X117776785Y-122039071D01*
X117824404Y-122134309D01*
X211359523Y-84415261D02*
X211216666Y-84462880D01*
X210978571Y-84462880D01*
X210883333Y-84415261D01*
X210835714Y-84367642D01*
X210788095Y-84272404D01*
X210788095Y-84177166D01*
X210835714Y-84081928D01*
X210883333Y-84034309D01*
X210978571Y-83986690D01*
X211169047Y-83939071D01*
X211264285Y-83891452D01*
X211311904Y-83843833D01*
X211359523Y-83748595D01*
X211359523Y-83653357D01*
X211311904Y-83558119D01*
X211264285Y-83510500D01*
X211169047Y-83462880D01*
X210930952Y-83462880D01*
X210788095Y-83510500D01*
X210454761Y-83462880D02*
X210216666Y-84462880D01*
X210026190Y-83748595D01*
X209835714Y-84462880D01*
X209597619Y-83462880D01*
X208692857Y-84462880D02*
X209264285Y-84462880D01*
X208978571Y-84462880D02*
X208978571Y-83462880D01*
X209073809Y-83605738D01*
X209169047Y-83700976D01*
X209264285Y-83748595D01*
X207788095Y-83462880D02*
X208264285Y-83462880D01*
X208311904Y-83939071D01*
X208264285Y-83891452D01*
X208169047Y-83843833D01*
X207930952Y-83843833D01*
X207835714Y-83891452D01*
X207788095Y-83939071D01*
X207740476Y-84034309D01*
X207740476Y-84272404D01*
X207788095Y-84367642D01*
X207835714Y-84415261D01*
X207930952Y-84462880D01*
X208169047Y-84462880D01*
X208264285Y-84415261D01*
X208311904Y-84367642D01*
X173259523Y-103465261D02*
X173116666Y-103512880D01*
X172878571Y-103512880D01*
X172783333Y-103465261D01*
X172735714Y-103417642D01*
X172688095Y-103322404D01*
X172688095Y-103227166D01*
X172735714Y-103131928D01*
X172783333Y-103084309D01*
X172878571Y-103036690D01*
X173069047Y-102989071D01*
X173164285Y-102941452D01*
X173211904Y-102893833D01*
X173259523Y-102798595D01*
X173259523Y-102703357D01*
X173211904Y-102608119D01*
X173164285Y-102560500D01*
X173069047Y-102512880D01*
X172830952Y-102512880D01*
X172688095Y-102560500D01*
X172354761Y-102512880D02*
X172116666Y-103512880D01*
X171926190Y-102798595D01*
X171735714Y-103512880D01*
X171497619Y-102512880D01*
X170592857Y-103512880D02*
X171164285Y-103512880D01*
X170878571Y-103512880D02*
X170878571Y-102512880D01*
X170973809Y-102655738D01*
X171069047Y-102750976D01*
X171164285Y-102798595D01*
X169735714Y-102846214D02*
X169735714Y-103512880D01*
X169973809Y-102465261D02*
X170211904Y-103179547D01*
X169592857Y-103179547D01*
X178022023Y-122515261D02*
X177879166Y-122562880D01*
X177641071Y-122562880D01*
X177545833Y-122515261D01*
X177498214Y-122467642D01*
X177450595Y-122372404D01*
X177450595Y-122277166D01*
X177498214Y-122181928D01*
X177545833Y-122134309D01*
X177641071Y-122086690D01*
X177831547Y-122039071D01*
X177926785Y-121991452D01*
X177974404Y-121943833D01*
X178022023Y-121848595D01*
X178022023Y-121753357D01*
X177974404Y-121658119D01*
X177926785Y-121610500D01*
X177831547Y-121562880D01*
X177593452Y-121562880D01*
X177450595Y-121610500D01*
X177117261Y-121562880D02*
X176879166Y-122562880D01*
X176688690Y-121848595D01*
X176498214Y-122562880D01*
X176260119Y-121562880D01*
X175355357Y-122562880D02*
X175926785Y-122562880D01*
X175641071Y-122562880D02*
X175641071Y-121562880D01*
X175736309Y-121705738D01*
X175831547Y-121800976D01*
X175926785Y-121848595D01*
X175022023Y-121562880D02*
X174402976Y-121562880D01*
X174736309Y-121943833D01*
X174593452Y-121943833D01*
X174498214Y-121991452D01*
X174450595Y-122039071D01*
X174402976Y-122134309D01*
X174402976Y-122372404D01*
X174450595Y-122467642D01*
X174498214Y-122515261D01*
X174593452Y-122562880D01*
X174879166Y-122562880D01*
X174974404Y-122515261D01*
X175022023Y-122467642D01*
X139922023Y-122515261D02*
X139779166Y-122562880D01*
X139541071Y-122562880D01*
X139445833Y-122515261D01*
X139398214Y-122467642D01*
X139350595Y-122372404D01*
X139350595Y-122277166D01*
X139398214Y-122181928D01*
X139445833Y-122134309D01*
X139541071Y-122086690D01*
X139731547Y-122039071D01*
X139826785Y-121991452D01*
X139874404Y-121943833D01*
X139922023Y-121848595D01*
X139922023Y-121753357D01*
X139874404Y-121658119D01*
X139826785Y-121610500D01*
X139731547Y-121562880D01*
X139493452Y-121562880D01*
X139350595Y-121610500D01*
X139017261Y-121562880D02*
X138779166Y-122562880D01*
X138588690Y-121848595D01*
X138398214Y-122562880D01*
X138160119Y-121562880D01*
X137255357Y-122562880D02*
X137826785Y-122562880D01*
X137541071Y-122562880D02*
X137541071Y-121562880D01*
X137636309Y-121705738D01*
X137731547Y-121800976D01*
X137826785Y-121848595D01*
X136874404Y-121658119D02*
X136826785Y-121610500D01*
X136731547Y-121562880D01*
X136493452Y-121562880D01*
X136398214Y-121610500D01*
X136350595Y-121658119D01*
X136302976Y-121753357D01*
X136302976Y-121848595D01*
X136350595Y-121991452D01*
X136922023Y-122562880D01*
X136302976Y-122562880D01*
X97059523Y-122515261D02*
X96916666Y-122562880D01*
X96678571Y-122562880D01*
X96583333Y-122515261D01*
X96535714Y-122467642D01*
X96488095Y-122372404D01*
X96488095Y-122277166D01*
X96535714Y-122181928D01*
X96583333Y-122134309D01*
X96678571Y-122086690D01*
X96869047Y-122039071D01*
X96964285Y-121991452D01*
X97011904Y-121943833D01*
X97059523Y-121848595D01*
X97059523Y-121753357D01*
X97011904Y-121658119D01*
X96964285Y-121610500D01*
X96869047Y-121562880D01*
X96630952Y-121562880D01*
X96488095Y-121610500D01*
X96154761Y-121562880D02*
X95916666Y-122562880D01*
X95726190Y-121848595D01*
X95535714Y-122562880D01*
X95297619Y-121562880D01*
X94392857Y-122562880D02*
X94964285Y-122562880D01*
X94678571Y-122562880D02*
X94678571Y-121562880D01*
X94773809Y-121705738D01*
X94869047Y-121800976D01*
X94964285Y-121848595D01*
X93440476Y-122562880D02*
X94011904Y-122562880D01*
X93726190Y-122562880D02*
X93726190Y-121562880D01*
X93821428Y-121705738D01*
X93916666Y-121800976D01*
X94011904Y-121848595D01*
X187547023Y-84415261D02*
X187404166Y-84462880D01*
X187166071Y-84462880D01*
X187070833Y-84415261D01*
X187023214Y-84367642D01*
X186975595Y-84272404D01*
X186975595Y-84177166D01*
X187023214Y-84081928D01*
X187070833Y-84034309D01*
X187166071Y-83986690D01*
X187356547Y-83939071D01*
X187451785Y-83891452D01*
X187499404Y-83843833D01*
X187547023Y-83748595D01*
X187547023Y-83653357D01*
X187499404Y-83558119D01*
X187451785Y-83510500D01*
X187356547Y-83462880D01*
X187118452Y-83462880D01*
X186975595Y-83510500D01*
X186642261Y-83462880D02*
X186404166Y-84462880D01*
X186213690Y-83748595D01*
X186023214Y-84462880D01*
X185785119Y-83462880D01*
X184880357Y-84462880D02*
X185451785Y-84462880D01*
X185166071Y-84462880D02*
X185166071Y-83462880D01*
X185261309Y-83605738D01*
X185356547Y-83700976D01*
X185451785Y-83748595D01*
X184261309Y-83462880D02*
X184166071Y-83462880D01*
X184070833Y-83510500D01*
X184023214Y-83558119D01*
X183975595Y-83653357D01*
X183927976Y-83843833D01*
X183927976Y-84081928D01*
X183975595Y-84272404D01*
X184023214Y-84367642D01*
X184070833Y-84415261D01*
X184166071Y-84462880D01*
X184261309Y-84462880D01*
X184356547Y-84415261D01*
X184404166Y-84367642D01*
X184451785Y-84272404D01*
X184499404Y-84081928D01*
X184499404Y-83843833D01*
X184451785Y-83653357D01*
X184404166Y-83558119D01*
X184356547Y-83510500D01*
X184261309Y-83462880D01*
X153733333Y-103465261D02*
X153590476Y-103512880D01*
X153352380Y-103512880D01*
X153257142Y-103465261D01*
X153209523Y-103417642D01*
X153161904Y-103322404D01*
X153161904Y-103227166D01*
X153209523Y-103131928D01*
X153257142Y-103084309D01*
X153352380Y-103036690D01*
X153542857Y-102989071D01*
X153638095Y-102941452D01*
X153685714Y-102893833D01*
X153733333Y-102798595D01*
X153733333Y-102703357D01*
X153685714Y-102608119D01*
X153638095Y-102560500D01*
X153542857Y-102512880D01*
X153304761Y-102512880D01*
X153161904Y-102560500D01*
X152828571Y-102512880D02*
X152590476Y-103512880D01*
X152400000Y-102798595D01*
X152209523Y-103512880D01*
X151971428Y-102512880D01*
X151542857Y-103512880D02*
X151352380Y-103512880D01*
X151257142Y-103465261D01*
X151209523Y-103417642D01*
X151114285Y-103274785D01*
X151066666Y-103084309D01*
X151066666Y-102703357D01*
X151114285Y-102608119D01*
X151161904Y-102560500D01*
X151257142Y-102512880D01*
X151447619Y-102512880D01*
X151542857Y-102560500D01*
X151590476Y-102608119D01*
X151638095Y-102703357D01*
X151638095Y-102941452D01*
X151590476Y-103036690D01*
X151542857Y-103084309D01*
X151447619Y-103131928D01*
X151257142Y-103131928D01*
X151161904Y-103084309D01*
X151114285Y-103036690D01*
X151066666Y-102941452D01*
X134683333Y-103465261D02*
X134540476Y-103512880D01*
X134302380Y-103512880D01*
X134207142Y-103465261D01*
X134159523Y-103417642D01*
X134111904Y-103322404D01*
X134111904Y-103227166D01*
X134159523Y-103131928D01*
X134207142Y-103084309D01*
X134302380Y-103036690D01*
X134492857Y-102989071D01*
X134588095Y-102941452D01*
X134635714Y-102893833D01*
X134683333Y-102798595D01*
X134683333Y-102703357D01*
X134635714Y-102608119D01*
X134588095Y-102560500D01*
X134492857Y-102512880D01*
X134254761Y-102512880D01*
X134111904Y-102560500D01*
X133778571Y-102512880D02*
X133540476Y-103512880D01*
X133350000Y-102798595D01*
X133159523Y-103512880D01*
X132921428Y-102512880D01*
X132397619Y-102941452D02*
X132492857Y-102893833D01*
X132540476Y-102846214D01*
X132588095Y-102750976D01*
X132588095Y-102703357D01*
X132540476Y-102608119D01*
X132492857Y-102560500D01*
X132397619Y-102512880D01*
X132207142Y-102512880D01*
X132111904Y-102560500D01*
X132064285Y-102608119D01*
X132016666Y-102703357D01*
X132016666Y-102750976D01*
X132064285Y-102846214D01*
X132111904Y-102893833D01*
X132207142Y-102941452D01*
X132397619Y-102941452D01*
X132492857Y-102989071D01*
X132540476Y-103036690D01*
X132588095Y-103131928D01*
X132588095Y-103322404D01*
X132540476Y-103417642D01*
X132492857Y-103465261D01*
X132397619Y-103512880D01*
X132207142Y-103512880D01*
X132111904Y-103465261D01*
X132064285Y-103417642D01*
X132016666Y-103322404D01*
X132016666Y-103131928D01*
X132064285Y-103036690D01*
X132111904Y-102989071D01*
X132207142Y-102941452D01*
X115633333Y-103465261D02*
X115490476Y-103512880D01*
X115252380Y-103512880D01*
X115157142Y-103465261D01*
X115109523Y-103417642D01*
X115061904Y-103322404D01*
X115061904Y-103227166D01*
X115109523Y-103131928D01*
X115157142Y-103084309D01*
X115252380Y-103036690D01*
X115442857Y-102989071D01*
X115538095Y-102941452D01*
X115585714Y-102893833D01*
X115633333Y-102798595D01*
X115633333Y-102703357D01*
X115585714Y-102608119D01*
X115538095Y-102560500D01*
X115442857Y-102512880D01*
X115204761Y-102512880D01*
X115061904Y-102560500D01*
X114728571Y-102512880D02*
X114490476Y-103512880D01*
X114300000Y-102798595D01*
X114109523Y-103512880D01*
X113871428Y-102512880D01*
X113585714Y-102512880D02*
X112919047Y-102512880D01*
X113347619Y-103512880D01*
X168020833Y-84415261D02*
X167877976Y-84462880D01*
X167639880Y-84462880D01*
X167544642Y-84415261D01*
X167497023Y-84367642D01*
X167449404Y-84272404D01*
X167449404Y-84177166D01*
X167497023Y-84081928D01*
X167544642Y-84034309D01*
X167639880Y-83986690D01*
X167830357Y-83939071D01*
X167925595Y-83891452D01*
X167973214Y-83843833D01*
X168020833Y-83748595D01*
X168020833Y-83653357D01*
X167973214Y-83558119D01*
X167925595Y-83510500D01*
X167830357Y-83462880D01*
X167592261Y-83462880D01*
X167449404Y-83510500D01*
X167116071Y-83462880D02*
X166877976Y-84462880D01*
X166687500Y-83748595D01*
X166497023Y-84462880D01*
X166258928Y-83462880D01*
X165401785Y-83462880D02*
X165877976Y-83462880D01*
X165925595Y-83939071D01*
X165877976Y-83891452D01*
X165782738Y-83843833D01*
X165544642Y-83843833D01*
X165449404Y-83891452D01*
X165401785Y-83939071D01*
X165354166Y-84034309D01*
X165354166Y-84272404D01*
X165401785Y-84367642D01*
X165449404Y-84415261D01*
X165544642Y-84462880D01*
X165782738Y-84462880D01*
X165877976Y-84415261D01*
X165925595Y-84367642D01*
X148970833Y-84415261D02*
X148827976Y-84462880D01*
X148589880Y-84462880D01*
X148494642Y-84415261D01*
X148447023Y-84367642D01*
X148399404Y-84272404D01*
X148399404Y-84177166D01*
X148447023Y-84081928D01*
X148494642Y-84034309D01*
X148589880Y-83986690D01*
X148780357Y-83939071D01*
X148875595Y-83891452D01*
X148923214Y-83843833D01*
X148970833Y-83748595D01*
X148970833Y-83653357D01*
X148923214Y-83558119D01*
X148875595Y-83510500D01*
X148780357Y-83462880D01*
X148542261Y-83462880D01*
X148399404Y-83510500D01*
X148066071Y-83462880D02*
X147827976Y-84462880D01*
X147637500Y-83748595D01*
X147447023Y-84462880D01*
X147208928Y-83462880D01*
X146399404Y-83796214D02*
X146399404Y-84462880D01*
X146637500Y-83415261D02*
X146875595Y-84129547D01*
X146256547Y-84129547D01*
X129920833Y-84415261D02*
X129777976Y-84462880D01*
X129539880Y-84462880D01*
X129444642Y-84415261D01*
X129397023Y-84367642D01*
X129349404Y-84272404D01*
X129349404Y-84177166D01*
X129397023Y-84081928D01*
X129444642Y-84034309D01*
X129539880Y-83986690D01*
X129730357Y-83939071D01*
X129825595Y-83891452D01*
X129873214Y-83843833D01*
X129920833Y-83748595D01*
X129920833Y-83653357D01*
X129873214Y-83558119D01*
X129825595Y-83510500D01*
X129730357Y-83462880D01*
X129492261Y-83462880D01*
X129349404Y-83510500D01*
X129016071Y-83462880D02*
X128777976Y-84462880D01*
X128587500Y-83748595D01*
X128397023Y-84462880D01*
X128158928Y-83462880D01*
X127873214Y-83462880D02*
X127254166Y-83462880D01*
X127587500Y-83843833D01*
X127444642Y-83843833D01*
X127349404Y-83891452D01*
X127301785Y-83939071D01*
X127254166Y-84034309D01*
X127254166Y-84272404D01*
X127301785Y-84367642D01*
X127349404Y-84415261D01*
X127444642Y-84462880D01*
X127730357Y-84462880D01*
X127825595Y-84415261D01*
X127873214Y-84367642D01*
X110870833Y-84415261D02*
X110727976Y-84462880D01*
X110489880Y-84462880D01*
X110394642Y-84415261D01*
X110347023Y-84367642D01*
X110299404Y-84272404D01*
X110299404Y-84177166D01*
X110347023Y-84081928D01*
X110394642Y-84034309D01*
X110489880Y-83986690D01*
X110680357Y-83939071D01*
X110775595Y-83891452D01*
X110823214Y-83843833D01*
X110870833Y-83748595D01*
X110870833Y-83653357D01*
X110823214Y-83558119D01*
X110775595Y-83510500D01*
X110680357Y-83462880D01*
X110442261Y-83462880D01*
X110299404Y-83510500D01*
X109966071Y-83462880D02*
X109727976Y-84462880D01*
X109537500Y-83748595D01*
X109347023Y-84462880D01*
X109108928Y-83462880D01*
X108775595Y-83558119D02*
X108727976Y-83510500D01*
X108632738Y-83462880D01*
X108394642Y-83462880D01*
X108299404Y-83510500D01*
X108251785Y-83558119D01*
X108204166Y-83653357D01*
X108204166Y-83748595D01*
X108251785Y-83891452D01*
X108823214Y-84462880D01*
X108204166Y-84462880D01*
X91820833Y-84415261D02*
X91677976Y-84462880D01*
X91439880Y-84462880D01*
X91344642Y-84415261D01*
X91297023Y-84367642D01*
X91249404Y-84272404D01*
X91249404Y-84177166D01*
X91297023Y-84081928D01*
X91344642Y-84034309D01*
X91439880Y-83986690D01*
X91630357Y-83939071D01*
X91725595Y-83891452D01*
X91773214Y-83843833D01*
X91820833Y-83748595D01*
X91820833Y-83653357D01*
X91773214Y-83558119D01*
X91725595Y-83510500D01*
X91630357Y-83462880D01*
X91392261Y-83462880D01*
X91249404Y-83510500D01*
X90916071Y-83462880D02*
X90677976Y-84462880D01*
X90487500Y-83748595D01*
X90297023Y-84462880D01*
X90058928Y-83462880D01*
X89154166Y-84462880D02*
X89725595Y-84462880D01*
X89439880Y-84462880D02*
X89439880Y-83462880D01*
X89535119Y-83605738D01*
X89630357Y-83700976D01*
X89725595Y-83748595D01*
X217622285Y-108402380D02*
X217622285Y-107402380D01*
X217384190Y-107402380D01*
X217241333Y-107450000D01*
X217146095Y-107545238D01*
X217098476Y-107640476D01*
X217050857Y-107830952D01*
X217050857Y-107973809D01*
X217098476Y-108164285D01*
X217146095Y-108259523D01*
X217241333Y-108354761D01*
X217384190Y-108402380D01*
X217622285Y-108402380D01*
X216669904Y-107497619D02*
X216622285Y-107450000D01*
X216527047Y-107402380D01*
X216288952Y-107402380D01*
X216193714Y-107450000D01*
X216146095Y-107497619D01*
X216098476Y-107592857D01*
X216098476Y-107688095D01*
X216146095Y-107830952D01*
X216717523Y-108402380D01*
X216098476Y-108402380D01*
X215717523Y-107497619D02*
X215669904Y-107450000D01*
X215574666Y-107402380D01*
X215336571Y-107402380D01*
X215241333Y-107450000D01*
X215193714Y-107497619D01*
X215146095Y-107592857D01*
X215146095Y-107688095D01*
X215193714Y-107830952D01*
X215765142Y-108402380D01*
X215146095Y-108402380D01*
X211018285Y-127198380D02*
X211018285Y-126198380D01*
X210780190Y-126198380D01*
X210637333Y-126246000D01*
X210542095Y-126341238D01*
X210494476Y-126436476D01*
X210446857Y-126626952D01*
X210446857Y-126769809D01*
X210494476Y-126960285D01*
X210542095Y-127055523D01*
X210637333Y-127150761D01*
X210780190Y-127198380D01*
X211018285Y-127198380D01*
X210065904Y-126293619D02*
X210018285Y-126246000D01*
X209923047Y-126198380D01*
X209684952Y-126198380D01*
X209589714Y-126246000D01*
X209542095Y-126293619D01*
X209494476Y-126388857D01*
X209494476Y-126484095D01*
X209542095Y-126626952D01*
X210113523Y-127198380D01*
X209494476Y-127198380D01*
X208542095Y-127198380D02*
X209113523Y-127198380D01*
X208827809Y-127198380D02*
X208827809Y-126198380D01*
X208923047Y-126341238D01*
X209018285Y-126436476D01*
X209113523Y-126484095D01*
X177236285Y-108402380D02*
X177236285Y-107402380D01*
X176998190Y-107402380D01*
X176855333Y-107450000D01*
X176760095Y-107545238D01*
X176712476Y-107640476D01*
X176664857Y-107830952D01*
X176664857Y-107973809D01*
X176712476Y-108164285D01*
X176760095Y-108259523D01*
X176855333Y-108354761D01*
X176998190Y-108402380D01*
X177236285Y-108402380D01*
X176283904Y-107497619D02*
X176236285Y-107450000D01*
X176141047Y-107402380D01*
X175902952Y-107402380D01*
X175807714Y-107450000D01*
X175760095Y-107497619D01*
X175712476Y-107592857D01*
X175712476Y-107688095D01*
X175760095Y-107830952D01*
X176331523Y-108402380D01*
X175712476Y-108402380D01*
X175093428Y-107402380D02*
X174998190Y-107402380D01*
X174902952Y-107450000D01*
X174855333Y-107497619D01*
X174807714Y-107592857D01*
X174760095Y-107783333D01*
X174760095Y-108021428D01*
X174807714Y-108211904D01*
X174855333Y-108307142D01*
X174902952Y-108354761D01*
X174998190Y-108402380D01*
X175093428Y-108402380D01*
X175188666Y-108354761D01*
X175236285Y-108307142D01*
X175283904Y-108211904D01*
X175331523Y-108021428D01*
X175331523Y-107783333D01*
X175283904Y-107592857D01*
X175236285Y-107497619D01*
X175188666Y-107450000D01*
X175093428Y-107402380D01*
X220162285Y-127198380D02*
X220162285Y-126198380D01*
X219924190Y-126198380D01*
X219781333Y-126246000D01*
X219686095Y-126341238D01*
X219638476Y-126436476D01*
X219590857Y-126626952D01*
X219590857Y-126769809D01*
X219638476Y-126960285D01*
X219686095Y-127055523D01*
X219781333Y-127150761D01*
X219924190Y-127198380D01*
X220162285Y-127198380D01*
X218638476Y-127198380D02*
X219209904Y-127198380D01*
X218924190Y-127198380D02*
X218924190Y-126198380D01*
X219019428Y-126341238D01*
X219114666Y-126436476D01*
X219209904Y-126484095D01*
X218162285Y-127198380D02*
X217971809Y-127198380D01*
X217876571Y-127150761D01*
X217828952Y-127103142D01*
X217733714Y-126960285D01*
X217686095Y-126769809D01*
X217686095Y-126388857D01*
X217733714Y-126293619D01*
X217781333Y-126246000D01*
X217876571Y-126198380D01*
X218067047Y-126198380D01*
X218162285Y-126246000D01*
X218209904Y-126293619D01*
X218257523Y-126388857D01*
X218257523Y-126626952D01*
X218209904Y-126722190D01*
X218162285Y-126769809D01*
X218067047Y-126817428D01*
X217876571Y-126817428D01*
X217781333Y-126769809D01*
X217733714Y-126722190D01*
X217686095Y-126626952D01*
X201112285Y-127198380D02*
X201112285Y-126198380D01*
X200874190Y-126198380D01*
X200731333Y-126246000D01*
X200636095Y-126341238D01*
X200588476Y-126436476D01*
X200540857Y-126626952D01*
X200540857Y-126769809D01*
X200588476Y-126960285D01*
X200636095Y-127055523D01*
X200731333Y-127150761D01*
X200874190Y-127198380D01*
X201112285Y-127198380D01*
X199588476Y-127198380D02*
X200159904Y-127198380D01*
X199874190Y-127198380D02*
X199874190Y-126198380D01*
X199969428Y-126341238D01*
X200064666Y-126436476D01*
X200159904Y-126484095D01*
X199017047Y-126626952D02*
X199112285Y-126579333D01*
X199159904Y-126531714D01*
X199207523Y-126436476D01*
X199207523Y-126388857D01*
X199159904Y-126293619D01*
X199112285Y-126246000D01*
X199017047Y-126198380D01*
X198826571Y-126198380D01*
X198731333Y-126246000D01*
X198683714Y-126293619D01*
X198636095Y-126388857D01*
X198636095Y-126436476D01*
X198683714Y-126531714D01*
X198731333Y-126579333D01*
X198826571Y-126626952D01*
X199017047Y-126626952D01*
X199112285Y-126674571D01*
X199159904Y-126722190D01*
X199207523Y-126817428D01*
X199207523Y-127007904D01*
X199159904Y-127103142D01*
X199112285Y-127150761D01*
X199017047Y-127198380D01*
X198826571Y-127198380D01*
X198731333Y-127150761D01*
X198683714Y-127103142D01*
X198636095Y-127007904D01*
X198636095Y-126817428D01*
X198683714Y-126722190D01*
X198731333Y-126674571D01*
X198826571Y-126626952D01*
X153996285Y-127198380D02*
X153996285Y-126198380D01*
X153758190Y-126198380D01*
X153615333Y-126246000D01*
X153520095Y-126341238D01*
X153472476Y-126436476D01*
X153424857Y-126626952D01*
X153424857Y-126769809D01*
X153472476Y-126960285D01*
X153520095Y-127055523D01*
X153615333Y-127150761D01*
X153758190Y-127198380D01*
X153996285Y-127198380D01*
X152472476Y-127198380D02*
X153043904Y-127198380D01*
X152758190Y-127198380D02*
X152758190Y-126198380D01*
X152853428Y-126341238D01*
X152948666Y-126436476D01*
X153043904Y-126484095D01*
X152139142Y-126198380D02*
X151472476Y-126198380D01*
X151901047Y-127198380D01*
X124912285Y-127198380D02*
X124912285Y-126198380D01*
X124674190Y-126198380D01*
X124531333Y-126246000D01*
X124436095Y-126341238D01*
X124388476Y-126436476D01*
X124340857Y-126626952D01*
X124340857Y-126769809D01*
X124388476Y-126960285D01*
X124436095Y-127055523D01*
X124531333Y-127150761D01*
X124674190Y-127198380D01*
X124912285Y-127198380D01*
X123388476Y-127198380D02*
X123959904Y-127198380D01*
X123674190Y-127198380D02*
X123674190Y-126198380D01*
X123769428Y-126341238D01*
X123864666Y-126436476D01*
X123959904Y-126484095D01*
X122531333Y-126198380D02*
X122721809Y-126198380D01*
X122817047Y-126246000D01*
X122864666Y-126293619D01*
X122959904Y-126436476D01*
X123007523Y-126626952D01*
X123007523Y-127007904D01*
X122959904Y-127103142D01*
X122912285Y-127150761D01*
X122817047Y-127198380D01*
X122626571Y-127198380D01*
X122531333Y-127150761D01*
X122483714Y-127103142D01*
X122436095Y-127007904D01*
X122436095Y-126769809D01*
X122483714Y-126674571D01*
X122531333Y-126626952D01*
X122626571Y-126579333D01*
X122817047Y-126579333D01*
X122912285Y-126626952D01*
X122959904Y-126674571D01*
X123007523Y-126769809D01*
X217844380Y-84383714D02*
X216844380Y-84383714D01*
X216844380Y-84621809D01*
X216892000Y-84764666D01*
X216987238Y-84859904D01*
X217082476Y-84907523D01*
X217272952Y-84955142D01*
X217415809Y-84955142D01*
X217606285Y-84907523D01*
X217701523Y-84859904D01*
X217796761Y-84764666D01*
X217844380Y-84621809D01*
X217844380Y-84383714D01*
X217844380Y-85907523D02*
X217844380Y-85336095D01*
X217844380Y-85621809D02*
X216844380Y-85621809D01*
X216987238Y-85526571D01*
X217082476Y-85431333D01*
X217130095Y-85336095D01*
X216844380Y-86812285D02*
X216844380Y-86336095D01*
X217320571Y-86288476D01*
X217272952Y-86336095D01*
X217225333Y-86431333D01*
X217225333Y-86669428D01*
X217272952Y-86764666D01*
X217320571Y-86812285D01*
X217415809Y-86859904D01*
X217653904Y-86859904D01*
X217749142Y-86812285D01*
X217796761Y-86764666D01*
X217844380Y-86669428D01*
X217844380Y-86431333D01*
X217796761Y-86336095D01*
X217749142Y-86288476D01*
X168092285Y-108402380D02*
X168092285Y-107402380D01*
X167854190Y-107402380D01*
X167711333Y-107450000D01*
X167616095Y-107545238D01*
X167568476Y-107640476D01*
X167520857Y-107830952D01*
X167520857Y-107973809D01*
X167568476Y-108164285D01*
X167616095Y-108259523D01*
X167711333Y-108354761D01*
X167854190Y-108402380D01*
X168092285Y-108402380D01*
X166568476Y-108402380D02*
X167139904Y-108402380D01*
X166854190Y-108402380D02*
X166854190Y-107402380D01*
X166949428Y-107545238D01*
X167044666Y-107640476D01*
X167139904Y-107688095D01*
X165711333Y-107735714D02*
X165711333Y-108402380D01*
X165949428Y-107354761D02*
X166187523Y-108069047D01*
X165568476Y-108069047D01*
X162758285Y-127198380D02*
X162758285Y-126198380D01*
X162520190Y-126198380D01*
X162377333Y-126246000D01*
X162282095Y-126341238D01*
X162234476Y-126436476D01*
X162186857Y-126626952D01*
X162186857Y-126769809D01*
X162234476Y-126960285D01*
X162282095Y-127055523D01*
X162377333Y-127150761D01*
X162520190Y-127198380D01*
X162758285Y-127198380D01*
X161234476Y-127198380D02*
X161805904Y-127198380D01*
X161520190Y-127198380D02*
X161520190Y-126198380D01*
X161615428Y-126341238D01*
X161710666Y-126436476D01*
X161805904Y-126484095D01*
X160901142Y-126198380D02*
X160282095Y-126198380D01*
X160615428Y-126579333D01*
X160472571Y-126579333D01*
X160377333Y-126626952D01*
X160329714Y-126674571D01*
X160282095Y-126769809D01*
X160282095Y-127007904D01*
X160329714Y-127103142D01*
X160377333Y-127150761D01*
X160472571Y-127198380D01*
X160758285Y-127198380D01*
X160853523Y-127150761D01*
X160901142Y-127103142D01*
X143962285Y-127198380D02*
X143962285Y-126198380D01*
X143724190Y-126198380D01*
X143581333Y-126246000D01*
X143486095Y-126341238D01*
X143438476Y-126436476D01*
X143390857Y-126626952D01*
X143390857Y-126769809D01*
X143438476Y-126960285D01*
X143486095Y-127055523D01*
X143581333Y-127150761D01*
X143724190Y-127198380D01*
X143962285Y-127198380D01*
X142438476Y-127198380D02*
X143009904Y-127198380D01*
X142724190Y-127198380D02*
X142724190Y-126198380D01*
X142819428Y-126341238D01*
X142914666Y-126436476D01*
X143009904Y-126484095D01*
X142057523Y-126293619D02*
X142009904Y-126246000D01*
X141914666Y-126198380D01*
X141676571Y-126198380D01*
X141581333Y-126246000D01*
X141533714Y-126293619D01*
X141486095Y-126388857D01*
X141486095Y-126484095D01*
X141533714Y-126626952D01*
X142105142Y-127198380D01*
X141486095Y-127198380D01*
X101036285Y-127198380D02*
X101036285Y-126198380D01*
X100798190Y-126198380D01*
X100655333Y-126246000D01*
X100560095Y-126341238D01*
X100512476Y-126436476D01*
X100464857Y-126626952D01*
X100464857Y-126769809D01*
X100512476Y-126960285D01*
X100560095Y-127055523D01*
X100655333Y-127150761D01*
X100798190Y-127198380D01*
X101036285Y-127198380D01*
X99512476Y-127198380D02*
X100083904Y-127198380D01*
X99798190Y-127198380D02*
X99798190Y-126198380D01*
X99893428Y-126341238D01*
X99988666Y-126436476D01*
X100083904Y-126484095D01*
X98560095Y-127198380D02*
X99131523Y-127198380D01*
X98845809Y-127198380D02*
X98845809Y-126198380D01*
X98941047Y-126341238D01*
X99036285Y-126436476D01*
X99131523Y-126484095D01*
X182316285Y-89098380D02*
X182316285Y-88098380D01*
X182078190Y-88098380D01*
X181935333Y-88146000D01*
X181840095Y-88241238D01*
X181792476Y-88336476D01*
X181744857Y-88526952D01*
X181744857Y-88669809D01*
X181792476Y-88860285D01*
X181840095Y-88955523D01*
X181935333Y-89050761D01*
X182078190Y-89098380D01*
X182316285Y-89098380D01*
X180792476Y-89098380D02*
X181363904Y-89098380D01*
X181078190Y-89098380D02*
X181078190Y-88098380D01*
X181173428Y-88241238D01*
X181268666Y-88336476D01*
X181363904Y-88384095D01*
X180173428Y-88098380D02*
X180078190Y-88098380D01*
X179982952Y-88146000D01*
X179935333Y-88193619D01*
X179887714Y-88288857D01*
X179840095Y-88479333D01*
X179840095Y-88717428D01*
X179887714Y-88907904D01*
X179935333Y-89003142D01*
X179982952Y-89050761D01*
X180078190Y-89098380D01*
X180173428Y-89098380D01*
X180268666Y-89050761D01*
X180316285Y-89003142D01*
X180363904Y-88907904D01*
X180411523Y-88717428D01*
X180411523Y-88479333D01*
X180363904Y-88288857D01*
X180316285Y-88193619D01*
X180268666Y-88146000D01*
X180173428Y-88098380D01*
X157710095Y-108148380D02*
X157710095Y-107148380D01*
X157472000Y-107148380D01*
X157329142Y-107196000D01*
X157233904Y-107291238D01*
X157186285Y-107386476D01*
X157138666Y-107576952D01*
X157138666Y-107719809D01*
X157186285Y-107910285D01*
X157233904Y-108005523D01*
X157329142Y-108100761D01*
X157472000Y-108148380D01*
X157710095Y-108148380D01*
X156662476Y-108148380D02*
X156472000Y-108148380D01*
X156376761Y-108100761D01*
X156329142Y-108053142D01*
X156233904Y-107910285D01*
X156186285Y-107719809D01*
X156186285Y-107338857D01*
X156233904Y-107243619D01*
X156281523Y-107196000D01*
X156376761Y-107148380D01*
X156567238Y-107148380D01*
X156662476Y-107196000D01*
X156710095Y-107243619D01*
X156757714Y-107338857D01*
X156757714Y-107576952D01*
X156710095Y-107672190D01*
X156662476Y-107719809D01*
X156567238Y-107767428D01*
X156376761Y-107767428D01*
X156281523Y-107719809D01*
X156233904Y-107672190D01*
X156186285Y-107576952D01*
X138660095Y-108148380D02*
X138660095Y-107148380D01*
X138422000Y-107148380D01*
X138279142Y-107196000D01*
X138183904Y-107291238D01*
X138136285Y-107386476D01*
X138088666Y-107576952D01*
X138088666Y-107719809D01*
X138136285Y-107910285D01*
X138183904Y-108005523D01*
X138279142Y-108100761D01*
X138422000Y-108148380D01*
X138660095Y-108148380D01*
X137517238Y-107576952D02*
X137612476Y-107529333D01*
X137660095Y-107481714D01*
X137707714Y-107386476D01*
X137707714Y-107338857D01*
X137660095Y-107243619D01*
X137612476Y-107196000D01*
X137517238Y-107148380D01*
X137326761Y-107148380D01*
X137231523Y-107196000D01*
X137183904Y-107243619D01*
X137136285Y-107338857D01*
X137136285Y-107386476D01*
X137183904Y-107481714D01*
X137231523Y-107529333D01*
X137326761Y-107576952D01*
X137517238Y-107576952D01*
X137612476Y-107624571D01*
X137660095Y-107672190D01*
X137707714Y-107767428D01*
X137707714Y-107957904D01*
X137660095Y-108053142D01*
X137612476Y-108100761D01*
X137517238Y-108148380D01*
X137326761Y-108148380D01*
X137231523Y-108100761D01*
X137183904Y-108053142D01*
X137136285Y-107957904D01*
X137136285Y-107767428D01*
X137183904Y-107672190D01*
X137231523Y-107624571D01*
X137326761Y-107576952D01*
X119610095Y-108148380D02*
X119610095Y-107148380D01*
X119372000Y-107148380D01*
X119229142Y-107196000D01*
X119133904Y-107291238D01*
X119086285Y-107386476D01*
X119038666Y-107576952D01*
X119038666Y-107719809D01*
X119086285Y-107910285D01*
X119133904Y-108005523D01*
X119229142Y-108100761D01*
X119372000Y-108148380D01*
X119610095Y-108148380D01*
X118705333Y-107148380D02*
X118038666Y-107148380D01*
X118467238Y-108148380D01*
X98020095Y-108148380D02*
X98020095Y-107148380D01*
X97782000Y-107148380D01*
X97639142Y-107196000D01*
X97543904Y-107291238D01*
X97496285Y-107386476D01*
X97448666Y-107576952D01*
X97448666Y-107719809D01*
X97496285Y-107910285D01*
X97543904Y-108005523D01*
X97639142Y-108100761D01*
X97782000Y-108148380D01*
X98020095Y-108148380D01*
X96591523Y-107148380D02*
X96782000Y-107148380D01*
X96877238Y-107196000D01*
X96924857Y-107243619D01*
X97020095Y-107386476D01*
X97067714Y-107576952D01*
X97067714Y-107957904D01*
X97020095Y-108053142D01*
X96972476Y-108100761D01*
X96877238Y-108148380D01*
X96686761Y-108148380D01*
X96591523Y-108100761D01*
X96543904Y-108053142D01*
X96496285Y-107957904D01*
X96496285Y-107719809D01*
X96543904Y-107624571D01*
X96591523Y-107576952D01*
X96686761Y-107529333D01*
X96877238Y-107529333D01*
X96972476Y-107576952D01*
X97020095Y-107624571D01*
X97067714Y-107719809D01*
X171934095Y-89098380D02*
X171934095Y-88098380D01*
X171696000Y-88098380D01*
X171553142Y-88146000D01*
X171457904Y-88241238D01*
X171410285Y-88336476D01*
X171362666Y-88526952D01*
X171362666Y-88669809D01*
X171410285Y-88860285D01*
X171457904Y-88955523D01*
X171553142Y-89050761D01*
X171696000Y-89098380D01*
X171934095Y-89098380D01*
X170457904Y-88098380D02*
X170934095Y-88098380D01*
X170981714Y-88574571D01*
X170934095Y-88526952D01*
X170838857Y-88479333D01*
X170600761Y-88479333D01*
X170505523Y-88526952D01*
X170457904Y-88574571D01*
X170410285Y-88669809D01*
X170410285Y-88907904D01*
X170457904Y-89003142D01*
X170505523Y-89050761D01*
X170600761Y-89098380D01*
X170838857Y-89098380D01*
X170934095Y-89050761D01*
X170981714Y-89003142D01*
X152884095Y-89098380D02*
X152884095Y-88098380D01*
X152646000Y-88098380D01*
X152503142Y-88146000D01*
X152407904Y-88241238D01*
X152360285Y-88336476D01*
X152312666Y-88526952D01*
X152312666Y-88669809D01*
X152360285Y-88860285D01*
X152407904Y-88955523D01*
X152503142Y-89050761D01*
X152646000Y-89098380D01*
X152884095Y-89098380D01*
X151455523Y-88431714D02*
X151455523Y-89098380D01*
X151693619Y-88050761D02*
X151931714Y-88765047D01*
X151312666Y-88765047D01*
X133834095Y-89098380D02*
X133834095Y-88098380D01*
X133596000Y-88098380D01*
X133453142Y-88146000D01*
X133357904Y-88241238D01*
X133310285Y-88336476D01*
X133262666Y-88526952D01*
X133262666Y-88669809D01*
X133310285Y-88860285D01*
X133357904Y-88955523D01*
X133453142Y-89050761D01*
X133596000Y-89098380D01*
X133834095Y-89098380D01*
X132929333Y-88098380D02*
X132310285Y-88098380D01*
X132643619Y-88479333D01*
X132500761Y-88479333D01*
X132405523Y-88526952D01*
X132357904Y-88574571D01*
X132310285Y-88669809D01*
X132310285Y-88907904D01*
X132357904Y-89003142D01*
X132405523Y-89050761D01*
X132500761Y-89098380D01*
X132786476Y-89098380D01*
X132881714Y-89050761D01*
X132929333Y-89003142D01*
X114784095Y-89098380D02*
X114784095Y-88098380D01*
X114546000Y-88098380D01*
X114403142Y-88146000D01*
X114307904Y-88241238D01*
X114260285Y-88336476D01*
X114212666Y-88526952D01*
X114212666Y-88669809D01*
X114260285Y-88860285D01*
X114307904Y-88955523D01*
X114403142Y-89050761D01*
X114546000Y-89098380D01*
X114784095Y-89098380D01*
X113831714Y-88193619D02*
X113784095Y-88146000D01*
X113688857Y-88098380D01*
X113450761Y-88098380D01*
X113355523Y-88146000D01*
X113307904Y-88193619D01*
X113260285Y-88288857D01*
X113260285Y-88384095D01*
X113307904Y-88526952D01*
X113879333Y-89098380D01*
X113260285Y-89098380D01*
X95734095Y-89098380D02*
X95734095Y-88098380D01*
X95496000Y-88098380D01*
X95353142Y-88146000D01*
X95257904Y-88241238D01*
X95210285Y-88336476D01*
X95162666Y-88526952D01*
X95162666Y-88669809D01*
X95210285Y-88860285D01*
X95257904Y-88955523D01*
X95353142Y-89050761D01*
X95496000Y-89098380D01*
X95734095Y-89098380D01*
X94210285Y-89098380D02*
X94781714Y-89098380D01*
X94496000Y-89098380D02*
X94496000Y-88098380D01*
X94591238Y-88241238D01*
X94686476Y-88336476D01*
X94781714Y-88384095D01*
M02*
